<svg width="38" height="37" viewBox="0 0 38 37" fill="none" xmlns="http://www.w3.org/2000/svg">
<path d="M26.9118 6.486C24.3775 6.93331 22.2717 9.02077 21.8214 11.52C21.0662 15.7802 24.8423 19.5078 29.1774 18.7694C31.6754 18.3433 33.6215 16.5825 34.2968 14.1471C34.5219 13.3377 34.5219 11.9035 34.2968 11.094C33.3964 7.85634 30.2594 5.89668 26.9118 6.486ZM29.5913 7.72143C30.499 7.99834 31.0582 8.33205 31.7698 9.03497C32.496 9.73789 32.83 10.2775 33.1205 11.2005C33.3674 11.9674 33.3674 13.2738 33.1205 14.0406C32.83 14.9636 32.496 15.5033 31.7698 16.2062C31.0509 16.9162 30.499 17.2428 29.555 17.5339C29.0975 17.6688 28.8652 17.6972 28.0664 17.6901C27.2604 17.683 27.0425 17.6617 26.5633 17.5055C25.6773 17.2144 25.0819 16.8594 24.3993 16.1778C23.7167 15.5033 23.3682 14.9352 23.085 14.0406C22.8381 13.2738 22.8381 11.9674 23.085 11.2005C23.3754 10.2775 23.7095 9.73789 24.4356 9.03497C25.2707 8.21135 26.1058 7.77823 27.2168 7.57943C27.7832 7.47293 29.0177 7.55103 29.5913 7.72143Z" fill="#119AD5"/>
<path d="M26.9118 6.486C24.3775 6.93331 22.2717 9.02077 21.8214 11.52C21.0662 15.7802 24.8423 19.5078 29.1774 18.7694C31.6754 18.3433 33.6215 16.5825 34.2968 14.1471C34.5219 13.3377 34.5219 11.9035 34.2968 11.094C33.3964 7.85634 30.2594 5.89668 26.9118 6.486ZM29.5913 7.72143C30.499 7.99834 31.0582 8.33205 31.7698 9.03497C32.496 9.73789 32.83 10.2775 33.1205 11.2005C33.3674 11.9674 33.3674 13.2738 33.1205 14.0406C32.83 14.9636 32.496 15.5033 31.7698 16.2062C31.0509 16.9162 30.499 17.2428 29.555 17.5339C29.0975 17.6688 28.8652 17.6972 28.0664 17.6901C27.2604 17.683 27.0425 17.6617 26.5633 17.5055C25.6773 17.2144 25.0819 16.8594 24.3993 16.1778C23.7167 15.5033 23.3682 14.9352 23.085 14.0406C22.8381 13.2738 22.8381 11.9674 23.085 11.2005C23.3754 10.2775 23.7095 9.73789 24.4356 9.03497C25.2707 8.21135 26.1058 7.77823 27.2168 7.57943C27.7832 7.47293 29.0177 7.55103 29.5913 7.72143Z" fill="black" fill-opacity="0.2"/>
<path d="M29.0694 12.3494L27.1596 14.2097L25.976 13.0595C25.3224 12.4275 24.7342 11.9092 24.6616 11.9092C24.3348 11.9092 24.0444 12.1932 24.0371 12.5056C24.0371 12.6831 24.2477 12.9245 25.4386 14.0961C26.2011 14.8487 26.9054 15.5019 26.9998 15.5374C27.0942 15.5729 27.2395 15.5729 27.3629 15.5232C27.588 15.438 31.4439 11.7104 31.6763 11.3554C31.9232 10.9649 31.6618 10.4892 31.197 10.4892C31.0082 10.4892 30.725 10.7377 29.0694 12.3494Z" fill="#119AD5"/>
<path d="M29.0694 12.3494L27.1596 14.2097L25.976 13.0595C25.3224 12.4275 24.7342 11.9092 24.6616 11.9092C24.3348 11.9092 24.0444 12.1932 24.0371 12.5056C24.0371 12.6831 24.2477 12.9245 25.4386 14.0961C26.2011 14.8487 26.9054 15.5019 26.9998 15.5374C27.0942 15.5729 27.2395 15.5729 27.3629 15.5232C27.588 15.438 31.4439 11.7104 31.6763 11.3554C31.9232 10.9649 31.6618 10.4892 31.197 10.4892C31.0082 10.4892 30.725 10.7377 29.0694 12.3494Z" fill="black" fill-opacity="0.2"/>
<path d="M4.65634 8.65341C4.27873 8.80252 4.17707 9.20013 4.43849 9.52674L4.58372 9.71134H7.33586H10.088L10.1606 9.97405C13.7406 23.0668 14.0891 24.3094 14.2416 24.423C14.3869 24.5437 14.779 24.5508 20.1889 24.5508C25.5987 24.5508 25.9909 24.5437 26.1361 24.423C26.2595 24.3307 26.412 23.8763 26.7969 22.4562C27.0728 21.4409 27.3052 20.5392 27.3052 20.4469C27.3052 19.9427 26.6299 19.7084 26.3031 20.0989C26.2232 20.1913 25.9836 21.0078 25.4099 23.1449L25.3373 23.4147H20.1889C17.3496 23.4147 15.0331 23.4005 15.0331 23.3934C15.0331 23.3792 14.4159 21.1001 13.6534 18.331C12.8982 15.5619 12.2737 13.2543 12.2737 13.2046C12.2737 13.1407 13.1233 13.1194 16.2603 13.1194H20.2542L20.3994 12.9348C20.6028 12.6863 20.5882 12.4591 20.3777 12.2177L20.2034 12.0189L16.057 11.9976L11.9179 11.9834L11.8308 11.6781C11.2716 9.61194 11.0974 9.01552 11.0247 8.88062C10.9812 8.79541 10.8505 8.68891 10.727 8.64631C10.4438 8.55401 4.90323 8.55401 4.65634 8.65341Z" fill="#119AD5"/>
<path d="M4.65634 8.65341C4.27873 8.80252 4.17707 9.20013 4.43849 9.52674L4.58372 9.71134H7.33586H10.088L10.1606 9.97405C13.7406 23.0668 14.0891 24.3094 14.2416 24.423C14.3869 24.5437 14.779 24.5508 20.1889 24.5508C25.5987 24.5508 25.9909 24.5437 26.1361 24.423C26.2595 24.3307 26.412 23.8763 26.7969 22.4562C27.0728 21.4409 27.3052 20.5392 27.3052 20.4469C27.3052 19.9427 26.6299 19.7084 26.3031 20.0989C26.2232 20.1913 25.9836 21.0078 25.4099 23.1449L25.3373 23.4147H20.1889C17.3496 23.4147 15.0331 23.4005 15.0331 23.3934C15.0331 23.3792 14.4159 21.1001 13.6534 18.331C12.8982 15.5619 12.2737 13.2543 12.2737 13.2046C12.2737 13.1407 13.1233 13.1194 16.2603 13.1194H20.2542L20.3994 12.9348C20.6028 12.6863 20.5882 12.4591 20.3777 12.2177L20.2034 12.0189L16.057 11.9976L11.9179 11.9834L11.8308 11.6781C11.2716 9.61194 11.0974 9.01552 11.0247 8.88062C10.9812 8.79541 10.8505 8.68891 10.727 8.64631C10.4438 8.55401 4.90323 8.55401 4.65634 8.65341Z" fill="black" fill-opacity="0.2"/>
<path d="M16.1515 25.7499C15.7957 25.8351 15.1785 26.1972 14.9897 26.4173C14.888 26.538 14.721 26.7936 14.6121 26.9924C14.4451 27.3048 14.416 27.4397 14.416 27.958C14.416 28.4763 14.4451 28.6113 14.6193 28.9308C14.8662 29.4065 15.2293 29.7544 15.7086 29.9958C16.0353 30.1591 16.1733 30.1875 16.7034 30.1875C17.2335 30.1875 17.3715 30.1591 17.6982 29.9958C18.1775 29.7544 18.5406 29.3994 18.7875 28.9308C18.9545 28.6113 18.9835 28.4763 18.9835 27.958C18.9835 27.4397 18.9545 27.3048 18.7875 26.9853C18.3808 26.2185 17.691 25.7712 16.8632 25.7215C16.5945 25.7073 16.275 25.7144 16.1515 25.7499ZM17.1609 26.9214C17.9088 27.2267 18.0904 28.1781 17.5094 28.7462C17.0374 29.2077 16.3694 29.2077 15.8974 28.7462C14.9969 27.8728 15.9918 26.4386 17.1609 26.9214Z" fill="#119AD5"/>
<path d="M16.1515 25.7499C15.7957 25.8351 15.1785 26.1972 14.9897 26.4173C14.888 26.538 14.721 26.7936 14.6121 26.9924C14.4451 27.3048 14.416 27.4397 14.416 27.958C14.416 28.4763 14.4451 28.6113 14.6193 28.9308C14.8662 29.4065 15.2293 29.7544 15.7086 29.9958C16.0353 30.1591 16.1733 30.1875 16.7034 30.1875C17.2335 30.1875 17.3715 30.1591 17.6982 29.9958C18.1775 29.7544 18.5406 29.3994 18.7875 28.9308C18.9545 28.6113 18.9835 28.4763 18.9835 27.958C18.9835 27.4397 18.9545 27.3048 18.7875 26.9853C18.3808 26.2185 17.691 25.7712 16.8632 25.7215C16.5945 25.7073 16.275 25.7144 16.1515 25.7499ZM17.1609 26.9214C17.9088 27.2267 18.0904 28.1781 17.5094 28.7462C17.0374 29.2077 16.3694 29.2077 15.8974 28.7462C14.9969 27.8728 15.9918 26.4386 17.1609 26.9214Z" fill="black" fill-opacity="0.2"/>
<path d="M23.132 25.7499C22.4857 25.9132 21.9193 26.3747 21.5925 26.9853C21.4255 27.3048 21.3965 27.4397 21.3965 27.958C21.3965 28.4763 21.4255 28.6113 21.5925 28.9308C21.8394 29.3994 22.2025 29.7544 22.6818 29.9958C23.0086 30.1591 23.1465 30.1875 23.6766 30.1875C24.2067 30.1875 24.3447 30.1591 24.6715 29.9958C25.1507 29.7544 25.5138 29.3994 25.7607 28.9308C25.9277 28.6113 25.9568 28.4763 25.9568 27.958C25.9568 27.4397 25.9277 27.3048 25.7607 26.9853C25.354 26.2185 24.6642 25.7712 23.8364 25.7215C23.5677 25.7073 23.2554 25.7144 23.132 25.7499ZM24.1341 26.9214C24.882 27.2267 25.0636 28.1781 24.4827 28.7462C24.0107 29.2077 23.3426 29.2077 22.8706 28.7462C21.9701 27.8728 22.965 26.4386 24.1341 26.9214Z" fill="#119AD5"/>
<path d="M23.132 25.7499C22.4857 25.9132 21.9193 26.3747 21.5925 26.9853C21.4255 27.3048 21.3965 27.4397 21.3965 27.958C21.3965 28.4763 21.4255 28.6113 21.5925 28.9308C21.8394 29.3994 22.2025 29.7544 22.6818 29.9958C23.0086 30.1591 23.1465 30.1875 23.6766 30.1875C24.2067 30.1875 24.3447 30.1591 24.6715 29.9958C25.1507 29.7544 25.5138 29.3994 25.7607 28.9308C25.9277 28.6113 25.9568 28.4763 25.9568 27.958C25.9568 27.4397 25.9277 27.3048 25.7607 26.9853C25.354 26.2185 24.6642 25.7712 23.8364 25.7215C23.5677 25.7073 23.2554 25.7144 23.132 25.7499ZM24.1341 26.9214C24.882 27.2267 25.0636 28.1781 24.4827 28.7462C24.0107 29.2077 23.3426 29.2077 22.8706 28.7462C21.9701 27.8728 22.965 26.4386 24.1341 26.9214Z" fill="black" fill-opacity="0.2"/>
</svg>
