<svg width="213" height="41" viewBox="0 0 213 41" fill="none" xmlns="http://www.w3.org/2000/svg">
<path d="M23.9571 0.0348472C24.1362 0.0182533 24.2424 0 24.3486 0C26.278 0 28.2074 0 30.1367 0.00995634C32.3598 0.0215721 34.5811 0.0464629 36.8042 0.0564193C40.2565 0.0730132 43.7105 0.0846289 47.1628 0.0945853C47.5543 0.0945853 47.9442 0.0696944 48.3357 0.0580787C49.6662 0.0165939 50.9884 0.102882 52.3089 0.263843C53.087 0.358428 53.8518 0.519389 54.6199 0.660438C55.0579 0.740088 55.4892 0.869521 55.9172 0.995634C57.0553 1.33249 58.1718 1.72743 59.2534 2.22358C60.3583 2.73136 61.4117 3.32376 62.4154 4.00743C63.5833 4.80228 64.6401 5.7249 65.5874 6.76534C66.7055 7.99495 67.6495 9.34735 68.3744 10.8408C68.6648 11.4382 68.9468 12.0422 69.1923 12.6595C69.4992 13.4311 69.7514 14.2226 69.9588 15.0291C70.2176 16.0364 70.4266 17.0536 70.5593 18.084C70.7053 19.2108 70.838 20.3408 70.7584 21.4792C70.692 22.4051 70.5892 23.3277 70.3967 24.2371C70.2474 24.9406 70.0882 25.6442 69.8974 26.3379C69.6734 27.1526 69.3848 27.9458 69.0596 28.729C68.6615 29.6915 68.2003 30.6224 67.6611 31.5135C66.3488 33.6807 64.6683 35.511 62.5664 36.948C61.3437 37.7843 60.0331 38.4531 58.6396 38.9708C57.5496 39.3757 56.4315 39.6827 55.2967 39.9083C54.4639 40.0743 53.6262 40.2402 52.7701 40.285C52.0866 40.3215 51.4065 40.4045 50.723 40.4526C50.2352 40.4858 49.7458 40.5124 49.2581 40.5124C42.8279 40.5223 36.3961 40.5273 29.9659 40.5339C24.2208 40.5406 18.4742 40.5472 12.7291 40.5539C12.2961 40.5539 11.8631 40.5572 11.4285 40.5572C11.3323 40.5572 11.2377 40.5406 11.1133 40.529C11.1348 40.446 11.1398 40.3796 11.168 40.3232C11.7503 39.1882 12.3343 38.0532 12.9166 36.9181C13.3911 35.9938 13.8622 35.0662 14.3367 34.142C14.4628 33.8964 14.5988 33.6558 14.7398 33.3919C14.9223 33.3853 15.1015 33.3737 15.2806 33.3737C17.0972 33.3737 18.9154 33.377 20.732 33.3803C23.612 33.3853 26.492 33.3886 29.372 33.3936C35.1452 33.4019 40.9201 33.4118 46.6933 33.4168C47.5178 33.4168 48.344 33.4334 49.1668 33.3886C50.2817 33.3272 51.3948 33.2276 52.4997 33.0335C53.2429 32.9024 53.9779 32.7331 54.7095 32.5523C55.5705 32.3399 56.3635 31.9599 57.115 31.4969C58.0689 30.9078 58.92 30.1959 59.6532 29.3496C60.4777 28.3972 61.148 27.3534 61.6291 26.1868C62.0007 25.2858 62.2993 24.3615 62.4685 23.4074C62.6593 22.3304 62.7754 21.2435 62.7439 20.1433C62.719 19.2705 62.6394 18.4026 62.5531 17.5348C62.4851 16.8577 62.3739 16.1907 62.1997 15.5319C62.1749 15.439 62.1583 15.3411 62.1234 15.2515C61.9194 14.7072 61.7336 14.1546 61.498 13.6236C61.0451 12.6047 60.4528 11.6705 59.6964 10.8391C58.8237 9.88001 57.7869 9.14988 56.6107 8.59564C55.4759 8.05966 54.2765 7.76263 53.0505 7.53529C52.1663 7.37101 51.2787 7.31459 50.3829 7.31128C45.7842 7.29634 41.1839 7.28141 36.5852 7.26813C36.406 7.26813 36.2235 7.23992 36.0211 7.31957C36.041 7.4125 36.0427 7.5104 36.0808 7.59171C36.197 7.84228 36.3231 8.08953 36.4525 8.33512C37.1725 9.69582 37.8974 11.0532 38.6174 12.4139C38.9857 13.1125 39.3424 13.8177 39.709 14.518C40.0441 15.1569 40.3875 15.7891 40.7243 16.4263C41.1391 17.2112 41.5488 17.9978 41.9636 18.7826C42.3584 19.531 42.7599 20.2761 43.1531 21.0245C43.6176 21.9073 44.0771 22.7951 44.5416 23.6778C45.0509 24.6469 45.5669 25.6144 46.0778 26.5851C46.4528 27.297 46.8227 28.0105 47.196 28.7207C47.4415 29.187 47.692 29.65 47.9359 30.1163C48.0039 30.2474 48.0968 30.3718 48.1217 30.5427C48.057 30.5643 48.0072 30.5909 47.9558 30.5942C47.8579 30.6025 47.76 30.6008 47.6622 30.6008C45.2848 30.6008 42.9092 30.6008 40.5319 30.6008C40.3942 30.6008 40.2565 30.5909 40.1221 30.5859C39.8467 30.2109 39.6709 29.8027 39.4618 29.4127C38.926 28.4104 38.3951 27.4032 37.8659 26.3959C37.272 25.2675 36.6847 24.1358 36.0891 23.0075C35.2796 21.4742 34.4633 19.9459 33.6521 18.4126C32.8475 16.8926 32.0495 15.3709 31.2449 13.8526C30.6162 12.6628 29.9791 11.478 29.3504 10.2899C28.8909 9.42036 28.4413 8.5442 27.9817 7.67468C27.2352 6.2642 26.4837 4.8587 25.7355 3.44821C25.3854 2.78612 25.042 2.1207 24.6953 1.4586C24.541 1.16489 24.3784 0.87284 24.2242 0.579127C24.1412 0.421485 24.0666 0.257206 23.9554 0.029869L23.9571 0.0348472Z" fill="#1027C3"/>
<path d="M0.00617037 40.5666C0.00617037 40.5268 -0.0087604 40.4787 0.00782934 40.4472C6.9805 27.0426 13.9532 13.638 20.9308 0.236797C20.9408 0.218544 20.9789 0.216885 21.0337 0.195312C26.2147 10.2579 31.3923 20.3254 36.5484 30.3647C36.4903 30.4975 36.414 30.4908 36.3477 30.4941C36.2365 30.5008 36.1237 30.4991 36.0126 30.4991C33.6917 30.4991 31.3707 30.4991 29.0515 30.4991C28.8989 30.4991 28.7462 30.4991 28.5787 30.4991C28.5007 30.3863 28.4194 30.2917 28.363 30.1838C27.4871 28.5128 26.6145 26.8418 25.7418 25.1691C25.1712 24.0756 24.6088 22.9771 24.0381 21.8852C23.5238 20.9029 23.0012 19.9238 22.4869 18.9415C22.0241 18.057 21.5679 17.1709 21.1083 16.2848C21.0834 16.2366 21.0503 16.1935 21.0304 16.162C20.8976 16.1288 20.8611 16.2101 20.8246 16.2831C20.2457 17.4049 19.67 18.5266 19.091 19.6484C18.7095 20.3868 18.3179 21.1202 17.9347 21.8587C17.5664 22.5722 17.2064 23.2907 16.8381 24.0043C16.2575 25.1243 15.6719 26.2428 15.0912 27.3629C14.4791 28.5443 13.8702 29.7275 13.2581 30.909C12.5231 32.3228 11.7832 33.7349 11.0483 35.1487C10.7032 35.8125 10.3681 36.4812 10.0231 37.1466C9.69126 37.7872 9.35781 38.4277 9.02436 39.0682C8.81533 39.4698 8.59136 40.253 8.21146 40.5301C7.88298 40.779 6.657 40.5932 6.24723 40.5948C5.363 40.6015 4.48043 40.6031 3.59619 40.6015C3.37555 40.6015 0.0128063 40.6065 0.0111473 40.5633L0.00617037 40.5666Z" fill="#EF1C23"/>
<path d="M104.112 10.8893C104.051 10.9822 104.013 11.0137 104.008 11.0502C103.996 11.1514 103.994 11.2543 103.993 11.3572C103.986 12.7942 103.976 14.2313 103.973 15.6666C103.969 17.1916 103.891 18.7133 103.822 20.2366C103.809 20.5287 103.794 20.8207 103.779 21.131C103.681 21.1509 103.599 21.1808 103.517 21.1808C102.304 21.1841 101.089 21.1825 99.8767 21.1808C99.8187 21.1808 99.7623 21.1659 99.7158 21.1609C99.6014 21.0547 99.6428 20.9302 99.6495 20.819C99.7175 19.5745 99.7905 18.3316 99.8635 17.0871C99.9083 16.3271 99.9564 15.5654 100.003 14.8054C100.106 13.0946 100.21 11.3821 100.311 9.67126C100.391 8.31056 100.464 6.94986 100.544 5.5875C100.598 4.66654 100.661 3.74392 100.724 2.82296C100.729 2.73833 100.763 2.65536 100.783 2.56907C100.852 2.55248 100.909 2.52759 100.965 2.52759C102.12 2.52427 103.273 2.52261 104.427 2.52427C104.499 2.52427 104.572 2.5475 104.665 2.56243C104.819 2.93911 104.975 3.31912 105.127 3.69746C105.418 4.41763 105.708 5.13947 105.998 5.8613C106.415 6.8951 106.831 7.9289 107.249 8.9627C107.523 9.64305 107.797 10.3234 108.074 11.0021C108.606 12.3047 109.144 13.6073 109.598 14.9398C109.744 15.3696 109.874 15.806 110.015 16.2375C110.041 16.3188 110.083 16.3951 110.134 16.5146C110.202 16.4333 110.264 16.3901 110.283 16.3337C110.421 15.9321 110.539 15.5223 110.687 15.124C110.995 14.2844 111.31 13.448 111.636 12.615C112.019 11.631 112.414 10.652 112.808 9.67292C113.099 8.95109 113.399 8.23423 113.689 7.51405C114.112 6.46698 114.53 5.41824 114.954 4.37283C115.196 3.77545 115.443 3.18139 115.695 2.56907C115.801 2.55248 115.899 2.52593 115.999 2.52593C117.064 2.52261 118.129 2.52261 119.195 2.52593C119.297 2.52593 119.396 2.55082 119.481 2.56243C119.59 2.71012 119.574 2.86112 119.582 3.00549C119.648 4.20523 119.71 5.40497 119.779 6.60471C119.897 8.63912 120.02 10.6719 120.141 12.7063C120.227 14.1699 120.31 15.6318 120.402 17.0954C120.475 18.2652 120.558 19.4351 120.634 20.605C120.645 20.7776 120.67 20.9535 120.619 21.1459C120.546 21.1592 120.476 21.1825 120.407 21.1825C119.149 21.1841 117.892 21.1825 116.634 21.1825C116.576 21.1825 116.52 21.1675 116.437 21.1576C116.415 21.0729 116.387 20.9933 116.375 20.912C116.36 20.7958 116.357 20.678 116.352 20.5618C116.239 17.8969 116.148 15.2302 116.175 12.5619C116.179 12.1222 116.189 11.6824 116.194 11.2427C116.194 11.1465 116.214 11.0369 116.09 10.9523C115.854 11.3555 115.755 11.8019 115.581 12.2151C115.4 12.6482 115.241 13.0896 115.066 13.526C114.897 13.9475 114.721 14.3673 114.547 14.7872C114.366 15.2203 114.187 15.6534 114.005 16.0865C113.827 16.5046 113.65 16.9228 113.47 17.341C113.291 17.7591 113.11 18.1756 112.933 18.5938C112.749 19.0252 112.57 19.4583 112.384 19.8898C112.205 20.3063 112.02 20.7228 111.835 21.1476C111.448 21.2289 111.063 21.1758 110.683 21.1858C110.298 21.1957 109.914 21.1924 109.529 21.1858C109.145 21.1791 108.761 21.2156 108.356 21.1576C107.865 20.0308 107.377 18.8991 106.879 17.7724C106.382 16.6457 105.897 15.5123 105.451 14.364C105.008 13.2224 104.575 12.0774 104.112 10.8909V10.8893Z" fill="#0C26B7"/>
<path d="M208.198 14.0531C208.269 13.4059 208.15 12.8716 208.14 12.3323C208.13 11.7897 208.075 11.2487 208.055 10.7077C208.035 10.1651 208.032 9.62416 208.024 9.08154C208.015 8.55385 208.009 8.02617 208.002 7.49848C207.994 6.95586 207.984 6.41324 207.977 5.87228C207.97 5.32966 207.967 4.78704 207.965 4.24441C207.964 3.70345 207.965 3.16249 207.965 2.63978C208.1 2.4921 208.257 2.52695 208.4 2.52695C209.11 2.52363 209.82 2.52529 210.53 2.52529C211.003 2.52529 211.478 2.52529 211.95 2.52529C212.096 2.52529 212.244 2.53524 212.407 2.54188C212.43 2.64144 212.458 2.72275 212.465 2.80572C212.475 2.92188 212.468 3.0397 212.468 3.15751C212.468 8.96372 212.468 14.7683 212.468 20.5745C212.468 20.762 212.488 20.9512 212.45 21.0939C212.405 21.142 212.397 21.1569 212.385 21.1636C212.373 21.1702 212.357 21.1735 212.342 21.1735C211.217 21.1785 210.094 21.1835 208.969 21.1885C208.851 21.1885 208.734 21.1885 208.593 21.1885C207.96 20.2459 207.33 19.3084 206.701 18.3692C206.064 17.4167 205.431 16.4625 204.795 15.51C204.168 14.5691 203.529 13.6349 202.912 12.6891C202.297 11.7482 201.734 10.7725 201.129 9.8349C200.983 9.888 201.008 9.97263 201.011 10.0373C201.056 10.7393 201.112 11.4412 201.15 12.1431C201.187 12.86 201.218 13.5785 201.228 14.2953C201.26 16.494 201.278 18.6927 201.301 20.8914C201.301 20.9628 201.286 21.0358 201.276 21.1287C201.192 21.1486 201.111 21.1835 201.028 21.1835C199.695 21.1868 198.365 21.1868 197.033 21.1835C196.963 21.1835 196.892 21.1652 196.824 21.1553C196.804 21.0922 196.781 21.0524 196.781 21.0126C196.777 14.9292 196.777 8.84425 196.777 2.76092C196.777 2.7045 196.797 2.64974 196.811 2.57673C196.888 2.56013 196.958 2.5369 197.028 2.53192C197.519 2.49542 200.2 2.52529 200.515 2.57175C200.694 2.83061 200.887 3.10607 201.076 3.38485C201.723 4.3307 202.368 5.27822 203.012 6.22573C203.836 7.4404 204.654 8.66171 205.485 9.87307C206.36 11.1458 207.166 12.4584 207.977 13.7693C208.022 13.8407 208.08 13.9037 208.198 14.0547V14.0531Z" fill="#0C26B7"/>
<path d="M148.382 12.5439C148.418 12.5754 148.456 12.6219 148.505 12.6517C149.258 13.1247 149.822 13.7785 150.309 14.5036C150.869 15.335 151.316 16.2277 151.723 17.1404C152.27 18.3733 152.805 19.6129 153.342 20.8508C153.38 20.9404 153.395 21.0383 153.42 21.1362C153.043 21.2009 149.009 21.2042 148.576 21.1395C148.397 20.7462 148.204 20.3364 148.022 19.9215C147.416 18.5542 146.824 17.1802 146.207 15.8178C145.953 15.257 145.663 14.7094 145.278 14.2215C145.132 14.0373 144.978 13.8581 144.802 13.7038C144.339 13.2956 143.785 13.2043 143.193 13.2823C143.073 13.4151 143.113 13.5694 143.113 13.7104C143.11 14.6048 143.111 15.4992 143.111 16.3937C143.111 17.8158 143.111 19.2379 143.111 20.66C143.111 20.8176 143.1 20.9752 143.093 21.1445C143.012 21.1611 142.955 21.1827 142.901 21.1827C141.48 21.1843 140.062 21.1827 138.622 21.1827C138.595 21.0848 138.564 21.0068 138.556 20.9255C138.544 20.8093 138.552 20.6915 138.552 20.5737C138.552 14.7675 138.552 8.96125 138.552 3.15504C138.552 2.96753 138.527 2.77504 138.584 2.61076C138.712 2.4863 138.849 2.51285 138.979 2.51119C139.704 2.49958 140.429 2.48796 141.154 2.48464C142.366 2.47801 143.581 2.48464 144.793 2.47303C145.762 2.46473 146.713 2.59582 147.644 2.84639C148.402 3.0505 149.115 3.36578 149.745 3.85364C150.628 4.53565 151.149 5.43172 151.361 6.50203C151.511 7.25373 151.519 8.01705 151.401 8.77871C151.224 9.9154 150.678 10.843 149.794 11.5781C149.442 11.8718 149.059 12.1191 148.644 12.3199C148.544 12.368 148.408 12.3862 148.382 12.5488V12.5439ZM143.159 5.44168C143.09 5.83163 143.065 8.34561 143.111 10.1046C143.115 10.2041 143.134 10.302 143.144 10.3833C143.192 10.4132 143.217 10.4381 143.242 10.4398C143.403 10.4514 143.566 10.4613 143.727 10.463C144.185 10.4663 144.639 10.468 145.089 10.3419C145.943 10.1029 146.436 9.54369 146.627 8.70238C146.753 8.1498 146.724 7.59557 146.605 7.04797C146.525 6.68622 146.353 6.36264 146.096 6.08884C145.751 5.72046 145.319 5.49976 144.82 5.44997C144.35 5.40351 143.878 5.40351 143.405 5.3919C143.32 5.39024 143.236 5.42508 143.159 5.44334V5.44168Z" fill="#0C26B7"/>
<path d="M84.5393 21.1808C83.0993 21.1808 81.6942 21.1808 80.289 21.1808C80.2343 21.1808 80.1795 21.1592 80.1016 21.1443C80.1215 21.0447 80.1281 20.9584 80.1563 20.8804C80.4002 20.2366 80.6507 19.5944 80.8962 18.9506C81.4138 17.5949 81.9314 16.2391 82.4507 14.8834C82.7178 14.1848 82.9882 13.4879 83.2553 12.7893C83.7082 11.6128 84.1578 10.4346 84.6123 9.25807C85.0188 8.20436 85.4302 7.15397 85.8333 6.09859C86.2165 5.09964 86.5898 4.09571 86.9697 3.0951C87.0377 2.91754 87.1157 2.74663 87.192 2.56575C87.2965 2.54916 87.3811 2.52593 87.4674 2.52593C88.637 2.52261 89.8049 2.52261 90.9745 2.52593C91.0624 2.52593 91.1487 2.54418 91.2665 2.55745C91.7509 3.77711 92.1839 5.02165 92.65 6.25292C93.1162 7.4875 93.5658 8.72873 94.0237 9.96497C94.4865 11.2162 94.951 12.4673 95.4139 13.7185C95.8718 14.9564 96.3346 16.191 96.7842 17.4322C97.2321 18.6685 97.7099 19.8931 98.1429 21.146C97.7647 21.1957 94.1531 21.2073 93.589 21.1642C93.302 20.459 93.1146 19.7073 92.8773 18.9738C92.6368 18.237 92.4294 17.4887 92.1872 16.79C92.0064 16.654 91.8372 16.6938 91.6795 16.6938C90.4668 16.6905 89.2525 16.6921 88.0398 16.6921C87.552 16.6921 87.0626 16.6921 86.5749 16.6921C86.472 16.6921 86.3675 16.6971 86.2647 16.6921C86.0905 16.6872 85.9909 16.7685 85.9395 16.9294C85.7985 17.3775 85.6508 17.8222 85.5082 18.2686C85.2344 19.1198 84.9624 19.9711 84.6886 20.8224C84.6538 20.9319 84.6024 21.0381 84.5426 21.1841L84.5393 21.1808ZM91.0724 13.3352C91.0757 13.2688 91.0906 13.2224 91.079 13.1825C90.4635 11.2726 89.8447 9.36428 89.2243 7.45764C89.2077 7.40454 89.1645 7.35973 89.1314 7.31327C89.1247 7.30497 89.1065 7.30497 89.0866 7.29833C89.0617 7.32986 89.0235 7.35973 89.0103 7.39956C88.3798 9.34934 87.7528 11.3008 87.1273 13.2522C87.1207 13.2755 87.1423 13.307 87.1505 13.3335C87.4906 13.3949 90.6244 13.4016 91.0724 13.3352Z" fill="#0C26B7"/>
<path d="M195.082 21.1825C193.517 21.1858 192.026 21.1825 190.511 21.1825C190.47 21.0796 190.428 20.99 190.398 20.897C190.027 19.7073 189.667 18.5158 189.285 17.3294C189.051 16.6025 189.171 16.6888 188.416 16.6872C186.774 16.6838 185.131 16.6855 183.489 16.6872C183.313 16.6872 183.134 16.6639 182.931 16.7419C182.646 17.4472 182.464 18.2022 182.205 18.9323C181.946 19.6641 181.759 20.4175 181.467 21.1675C180.975 21.1991 180.489 21.1791 180.005 21.1825C179.502 21.1858 179 21.1825 178.495 21.1825C177.991 21.1825 177.522 21.1825 177.004 21.1825C177.022 21.0779 177.022 21.0066 177.047 20.9452C177.303 20.2731 177.561 19.6027 177.818 18.9323C178.238 17.8371 178.655 16.7403 179.076 15.6467C179.476 14.6063 179.879 13.5675 180.277 12.5271C180.796 11.1714 181.312 9.81563 181.83 8.45991C182.197 7.50078 182.565 6.54331 182.931 5.58584C183.257 4.73789 183.582 3.88829 183.907 3.04034C183.965 2.88933 184.031 2.74331 184.101 2.57405C184.196 2.55746 184.295 2.52593 184.393 2.52593C185.561 2.52261 186.73 2.52261 187.898 2.52593C187.986 2.52593 188.073 2.54418 188.189 2.5558C189.343 5.64226 190.476 8.73537 191.624 11.8252C192.772 14.9149 193.907 18.008 195.08 21.1841L195.082 21.1825ZM188.008 13.3319C187.985 13.2041 187.98 13.1012 187.948 13.0066C187.796 12.5486 187.633 12.0923 187.482 11.6343C187.19 10.7449 186.901 9.85214 186.613 8.96104C186.45 8.45991 186.294 7.95711 186.133 7.45598C186.11 7.38462 186.08 7.31659 185.957 7.34978C185.933 7.41615 185.898 7.4958 185.873 7.57711C185.675 8.20602 185.483 8.83659 185.282 9.46384C185.015 10.3002 184.743 11.1348 184.468 11.9695C184.343 12.3445 184.206 12.7162 184.081 13.0913C184.056 13.1676 184.061 13.2555 184.053 13.3352C184.443 13.3983 187.575 13.3999 188.01 13.3335L188.008 13.3319Z" fill="#0C26B7"/>
<path d="M123.941 2.57421C124.367 2.49954 133.888 2.46137 135.512 2.52277C135.612 2.52609 135.712 2.54932 135.829 2.56426C135.848 2.68041 135.872 2.77832 135.877 2.87788C135.922 3.86522 135.894 5.39352 135.823 5.75029C135.75 5.76688 135.667 5.79675 135.582 5.80173C135.434 5.81169 135.287 5.80671 135.139 5.80671C133.112 5.80671 131.086 5.80671 129.059 5.80837C128.872 5.80837 128.672 5.7619 128.503 5.88304C128.444 6.25474 128.445 9.47562 128.503 9.83571C128.646 9.94025 128.813 9.90872 128.973 9.90872C129.786 9.91204 130.6 9.91038 131.413 9.91038C132.301 9.91038 133.188 9.90872 134.076 9.91204C134.235 9.91204 134.401 9.88051 134.555 9.9751C134.564 10.0166 134.585 10.0597 134.58 10.0979C134.451 11.0836 134.277 12.0626 134.101 13.0433C133.918 13.1346 133.739 13.1064 133.566 13.1064C132.087 13.108 130.609 13.1064 129.129 13.1064C128.996 13.1064 128.862 13.1047 128.729 13.1113C128.658 13.1163 128.588 13.1396 128.502 13.1578C128.487 13.2524 128.462 13.3354 128.462 13.42C128.46 14.7973 128.46 16.1762 128.462 17.5535C128.462 17.6382 128.477 17.7245 128.487 17.8323C128.599 17.8472 128.699 17.8705 128.797 17.8721C129.3 17.8755 129.802 17.8738 130.307 17.8738C132.112 17.8738 133.916 17.8738 135.721 17.8738H136.222C136.244 17.9684 136.272 18.0364 136.272 18.1045C136.276 19.0569 136.274 20.0094 136.272 20.9619C136.272 21.0167 136.254 21.0731 136.246 21.1279C136.189 21.1461 136.149 21.1727 136.108 21.1727C132.113 21.176 128.12 21.1776 124.125 21.1776C124.069 21.1776 124.014 21.1561 123.961 21.1461C123.941 21.093 123.911 21.0515 123.911 21.0117C123.908 14.9284 123.906 8.84671 123.906 2.76338C123.906 2.70696 123.928 2.65055 123.943 2.57421H123.941Z" fill="#0C26B7"/>
<path d="M176.519 4.51866C176.275 4.8356 174.47 6.65098 174.078 6.9729C173.999 6.90154 173.909 6.83185 173.834 6.74888C173.381 6.25106 172.862 5.83953 172.215 5.63045C171.112 5.27368 170.08 5.3915 169.186 6.17805C168.758 6.55473 168.486 7.04425 168.27 7.56364C167.938 8.35683 167.801 9.19482 167.704 10.0411C167.618 10.7995 167.608 11.5611 167.621 12.3244C167.638 13.2205 167.738 14.1083 167.93 14.9844C168.056 15.5586 168.264 16.1078 168.572 16.6156C169.121 17.515 169.909 18.0344 170.971 18.1506C171.746 18.2352 172.506 18.1572 173.26 17.9913C173.765 17.8801 174.264 17.7473 174.747 17.5598C174.855 17.5183 174.971 17.5001 175.079 17.4735C175.301 17.9066 175.998 20.0506 176.049 20.4687C175.747 20.6347 175.41 20.7326 175.074 20.8288C174.161 21.0893 173.23 21.2453 172.283 21.315C170.949 21.4129 169.621 21.398 168.313 21.0877C167.19 20.8205 166.168 20.3492 165.299 19.5793C164.501 18.8707 163.939 18.0045 163.532 17.0305C163.209 16.2539 163 15.4424 162.888 14.6144C162.796 13.934 162.762 13.2421 162.736 12.5551C162.699 11.6457 162.737 10.7364 162.867 9.83535C162.948 9.27115 163.068 8.70862 163.224 8.15936C163.506 7.16705 163.919 6.22949 164.524 5.38154C165.405 4.15027 166.556 3.27246 167.998 2.76966C169.543 2.23036 171.127 2.17062 172.726 2.39962C174.103 2.59709 175.276 3.21106 176.243 4.20503C176.334 4.29962 176.416 4.4025 176.519 4.52032V4.51866Z" fill="#0C26B7"/>
<path d="M155.288 2.57353C155.709 2.50052 157.549 2.47895 159.397 2.52209C159.513 2.52541 159.628 2.54366 159.761 2.55694C159.775 2.65816 159.795 2.74113 159.8 2.8241C159.807 2.92698 159.802 3.02986 159.802 3.13109C159.802 8.94725 159.802 14.7634 159.802 20.5796C159.802 20.7538 159.802 20.9281 159.802 21.1222C159.699 21.1454 159.616 21.1786 159.535 21.1786C158.189 21.1819 156.844 21.1803 155.499 21.1786C155.441 21.1786 155.382 21.1653 155.303 21.1571C155.283 21.0757 155.253 20.9961 155.246 20.9131C155.236 20.797 155.243 20.6791 155.243 20.5613C155.243 14.7601 155.243 8.95887 155.243 3.15764C155.243 2.97013 155.217 2.77764 155.288 2.57187V2.57353Z" fill="#0C26B7"/>
<path d="M80.1984 39.3058C80.1901 39.2593 80.1719 39.2029 80.1719 39.1465C80.1719 34.54 80.1719 29.9336 80.1719 25.3536C80.2847 25.2192 80.4108 25.2474 80.5236 25.2458C81.6633 25.2325 82.803 25.2275 83.9427 25.2076C84.5499 25.1977 85.1554 25.2026 85.7626 25.2391C86.7082 25.2972 87.6024 25.5428 88.4402 25.966C89.56 26.5318 90.3679 27.4063 90.9088 28.5264C91.2306 29.1935 91.4479 29.8954 91.5574 30.6222C91.6868 31.4785 91.7283 32.3447 91.6686 33.2109C91.6155 33.9742 91.4977 34.7242 91.2488 35.4527C90.7611 36.8748 89.8951 37.9733 88.5182 38.6553C87.8214 39.0005 87.0881 39.2046 86.32 39.3091C85.6432 39.402 84.9647 39.417 84.2812 39.4087C83.0817 39.3921 81.8823 39.3888 80.6828 39.3772C80.5236 39.3772 80.356 39.417 80.1968 39.3025L80.1984 39.3058ZM83.6342 36.9594C83.7038 36.9827 83.7719 37.0241 83.8399 37.0241C84.2828 37.0241 84.7258 37.0241 85.1687 37.0042C85.3728 36.9959 85.5835 36.9661 85.7792 36.908C86.6286 36.6591 87.201 36.1082 87.5444 35.3017C87.8546 34.5716 87.9359 33.7999 87.9807 33.025C88.0321 32.1588 87.9724 31.2959 87.8131 30.443C87.6986 29.834 87.4996 29.2499 87.1329 28.7388C86.7232 28.1663 86.179 27.7946 85.4723 27.6585C84.8983 27.5474 84.3243 27.5822 83.7486 27.6121C83.7105 27.6137 83.674 27.6519 83.6308 27.6768C83.6209 27.7349 83.601 27.7913 83.601 27.8477C83.601 30.823 83.601 33.7983 83.601 36.7752C83.601 36.8316 83.6209 36.8897 83.6342 36.9578V36.9594Z" fill="#0C26B7"/>
<path d="M189.366 32.388C189.374 32.9472 189.334 33.7221 189.155 34.4855C188.969 35.2753 188.715 36.037 188.284 36.7339C187.795 37.5238 187.159 38.1593 186.348 38.6323C185.618 39.0571 184.827 39.2745 184.002 39.4006C182.874 39.5731 181.756 39.5068 180.649 39.2446C179.263 38.916 178.163 38.1776 177.421 36.953C177.044 36.3307 176.792 35.657 176.65 34.9468C176.467 34.0374 176.364 33.1181 176.402 32.1905C176.447 31.087 176.592 29.9951 176.991 28.9564C177.418 27.8512 178.07 26.9054 179.055 26.2084C179.704 25.7504 180.419 25.4385 181.194 25.2709C181.875 25.1232 182.567 25.0468 183.267 25.0767C184.234 25.1165 185.18 25.2476 186.076 25.6492C187.01 26.0674 187.738 26.7046 188.282 27.5592C188.813 28.3938 189.077 29.3214 189.246 30.2822C189.357 30.9078 189.362 31.5384 189.366 32.3896V32.388ZM185.686 32.3664C185.669 32.0146 185.65 31.6496 185.633 31.2828C185.603 30.6191 185.489 29.9719 185.271 29.3447C185.09 28.822 184.817 28.354 184.382 28.0022C183.878 27.594 183.277 27.4629 182.637 27.4861C181.904 27.5127 181.335 27.828 180.925 28.4303C180.641 28.8485 180.452 29.3115 180.351 29.8027C180.022 31.3857 180.004 32.9721 180.314 34.5634C180.397 34.9866 180.542 35.3832 180.734 35.7632C180.994 36.2776 181.393 36.6676 181.935 36.8883C182.337 37.0525 182.763 37.0973 183.196 37.0791C183.987 37.0459 184.558 36.6692 184.969 36.0104C185.215 35.6172 185.344 35.1841 185.457 34.7443C185.655 33.9694 185.646 33.1745 185.686 32.3697V32.3664Z" fill="#0C26B7"/>
<path d="M147.652 31.9829C147.836 32.0626 147.939 32.1157 148.047 32.1522C148.51 32.3131 148.946 32.5206 149.349 32.806C150.404 33.5494 150.816 34.5716 150.698 35.8228C150.662 36.2011 150.594 36.5761 150.438 36.9312C150.102 37.6929 149.538 38.2272 148.802 38.5973C147.914 39.0436 146.96 39.256 145.978 39.2909C144.676 39.3357 143.372 39.3224 142.07 39.3307C141.745 39.3324 141.418 39.3257 141.093 39.3208C140.945 39.3191 140.799 39.3125 140.633 39.3075C140.608 39.2129 140.577 39.1332 140.568 39.0503C140.557 38.9491 140.565 38.8445 140.565 38.7416C140.565 34.4272 140.565 30.1111 140.567 25.7967C140.567 25.6258 140.524 25.4449 140.636 25.269C140.718 25.2607 140.804 25.2441 140.89 25.2441C142.327 25.2309 143.764 25.2143 145.2 25.211C146.154 25.2093 147.09 25.3304 147.987 25.6772C148.706 25.956 149.333 26.3559 149.771 26.9998C150.089 27.471 150.28 27.9888 150.303 28.5629C150.323 29.0657 150.288 29.5569 150.071 30.0248C149.782 30.6488 149.316 31.1068 148.732 31.4519C148.505 31.5863 148.256 31.6859 148.017 31.8004C147.926 31.8452 147.833 31.89 147.654 31.978L147.652 31.9829ZM144.044 33.3337C144.022 33.4515 143.997 33.5228 143.997 33.5925C143.996 34.6761 143.994 35.7614 143.999 36.8449C143.999 36.9263 144.042 37.0076 144.065 37.0905C144.435 37.1586 144.79 37.1121 145.142 37.127C145.489 37.142 145.822 37.0656 146.139 36.9478C146.527 36.8035 146.813 36.533 146.955 36.1331C147.174 35.5241 147.146 34.9167 146.894 34.331C146.721 33.9294 146.418 33.634 145.995 33.4681C145.368 33.2208 144.729 33.2325 144.044 33.332V33.3337ZM144.039 31.1416C144.474 31.1864 144.872 31.1748 145.268 31.1466C145.917 31.1001 146.405 30.7002 146.59 30.0846C146.721 29.6531 146.726 29.2167 146.653 28.7786C146.609 28.5032 146.522 28.2393 146.342 28.012C146.023 27.6121 145.582 27.4677 145.097 27.4312C144.819 27.4096 144.535 27.4246 144.255 27.4312C144.187 27.4312 144.119 27.4661 144.047 27.4843C144.027 27.559 144.001 27.6138 144.001 27.6685C143.997 28.7388 143.996 29.8091 143.996 30.8778C143.996 30.9475 144.017 31.0188 144.037 31.14L144.039 31.1416Z" fill="#0C26B7"/>
<path d="M202.762 39.2943C202.666 39.3125 202.596 39.3324 202.527 39.3374C201.86 39.3739 199.467 39.3457 199.122 39.2976C199.01 39.0653 198.88 38.818 198.769 38.5658C198.409 37.7461 198.064 36.9197 197.697 36.1016C197.463 35.5789 197.218 35.0612 196.952 34.5534C196.79 34.2414 196.582 33.9527 196.312 33.7154C195.959 33.4068 195.549 33.2939 195.066 33.352C195.043 33.4499 195.01 33.5312 195.006 33.6142C194.998 33.8199 195.001 34.0257 195.001 34.2298C195.001 35.7565 195.001 37.2831 195.001 38.8097C195.001 38.969 195.028 39.1317 194.945 39.2943C194.889 39.3092 194.834 39.3341 194.777 39.3341C193.785 39.3358 192.792 39.3358 191.8 39.3341C191.743 39.3341 191.688 39.3109 191.61 39.2926C191.599 39.2013 191.584 39.1184 191.579 39.0337C191.574 38.9458 191.577 38.8579 191.577 38.7699C191.577 34.4538 191.577 30.1378 191.577 25.8217C191.577 25.6491 191.557 25.4715 191.619 25.2791C191.708 25.2674 191.793 25.2492 191.878 25.2492C193.24 25.2343 194.603 25.216 195.965 25.211C196.558 25.2094 197.15 25.2309 197.735 25.3355C198.381 25.45 199.001 25.6425 199.574 25.9627C200.211 26.3212 200.693 26.8273 200.984 27.4977C201.184 27.959 201.284 28.4485 201.312 28.9513C201.345 29.5437 201.269 30.1245 201.058 30.682C200.834 31.2744 200.449 31.754 199.95 32.139C199.729 32.3099 199.481 32.4426 199.243 32.5937C199.157 32.6484 199.071 32.6999 198.963 32.7662C199.026 32.8343 199.066 32.8973 199.124 32.9355C199.816 33.4018 200.297 34.0506 200.708 34.7525C201.261 35.6934 201.682 36.6957 202.117 37.6913C202.304 38.1227 202.485 38.5558 202.666 38.9889C202.704 39.0802 202.724 39.1781 202.76 39.2959L202.762 39.2943ZM195.053 27.4313C195.03 27.5309 195.011 27.5723 195.01 27.6155C195.006 28.7439 195.006 29.8706 195.01 30.999C195.01 31.067 195.045 31.1334 195.069 31.2213C195.541 31.2529 195.993 31.2678 196.445 31.1666C197.09 31.0206 197.463 30.5974 197.634 29.9917C197.76 29.5487 197.749 29.089 197.629 28.6443C197.493 28.1382 197.196 27.7532 196.682 27.5607C196.156 27.3649 195.619 27.3815 195.055 27.4313H195.053Z" fill="#0C26B7"/>
<path d="M121.852 25.2757C121.993 25.2624 122.078 25.2475 122.164 25.2475C123.542 25.2342 124.919 25.2143 126.298 25.211C127.01 25.2093 127.72 25.2442 128.415 25.4201C128.919 25.5478 129.412 25.7088 129.86 25.9743C130.598 26.4124 131.127 27.0214 131.374 27.8544C131.623 28.6907 131.643 29.532 131.421 30.375C131.227 31.1134 130.789 31.6942 130.188 32.1572C130.014 32.2916 129.818 32.4011 129.631 32.5173C129.506 32.5953 129.38 32.6666 129.229 32.7546C129.289 32.8259 129.324 32.8907 129.379 32.9288C130.087 33.42 130.583 34.0871 131.004 34.8222C131.525 35.7299 131.943 36.684 132.348 37.6448C132.531 38.0779 132.723 38.5077 132.907 38.9391C132.952 39.0437 132.984 39.1532 133.028 39.2826C132.949 39.3059 132.896 39.3291 132.843 39.3341C132.453 39.3656 129.692 39.339 129.395 39.3009C129.355 39.2279 129.304 39.1416 129.263 39.0503C128.913 38.2571 128.571 37.4606 128.214 36.6707C127.906 35.9887 127.589 35.31 127.259 34.638C127.089 34.2945 126.865 33.9842 126.578 33.722C126.227 33.4034 125.817 33.2955 125.329 33.3536C125.304 33.4399 125.268 33.5179 125.261 33.6009C125.25 33.7469 125.253 33.8946 125.253 34.0406C125.253 35.6121 125.253 37.1835 125.253 38.7533C125.253 38.9259 125.276 39.1034 125.196 39.2909C125.128 39.3059 125.059 39.3341 124.989 39.3341C124.025 39.3374 123.063 39.3374 122.099 39.3341C122.041 39.3341 121.983 39.3158 121.905 39.3042C121.883 39.2245 121.849 39.1449 121.844 39.0619C121.832 38.9159 121.837 38.7682 121.837 38.6222C121.837 34.3941 121.837 30.1643 121.837 25.9361C121.837 25.732 121.845 25.5279 121.852 25.2757ZM125.306 31.2163C125.873 31.2595 126.414 31.2761 126.943 31.0952C127.013 31.072 127.081 31.0388 127.142 31.0006C127.594 30.7185 127.857 30.3169 127.932 29.7909C127.975 29.4839 127.97 29.1786 127.932 28.8716C127.842 28.1647 127.433 27.6968 126.744 27.4943C126.353 27.3798 125.955 27.4014 125.556 27.403C125.473 27.403 125.391 27.4346 125.299 27.4545C125.283 27.574 125.259 27.6735 125.259 27.7731C125.256 28.7986 125.256 29.8241 125.259 30.8496C125.259 30.9624 125.289 31.0753 125.308 31.2163H125.306Z" fill="#0C26B7"/>
<path d="M161.018 25.2894C161.501 25.2429 163.935 25.2495 164.318 25.2977C164.334 25.369 164.363 25.4503 164.368 25.5333C164.378 25.6644 164.373 25.7971 164.373 25.9299C164.373 28.5434 164.369 31.157 164.374 33.7705C164.374 34.4658 164.298 35.1461 164.102 35.8149C163.663 37.3233 162.722 38.3919 161.247 38.9677C159.996 39.4556 158.694 39.58 157.36 39.4274C156.71 39.3527 156.073 39.2316 155.467 38.971C154.391 38.5064 153.596 37.7597 153.097 36.7026C152.707 35.8763 152.527 35.0051 152.526 34.0991C152.521 31.3096 152.523 28.5202 152.526 25.7291C152.526 25.5864 152.494 25.4354 152.572 25.3176C152.599 25.296 152.609 25.2827 152.622 25.2777C152.635 25.2711 152.65 25.2694 152.665 25.2694C153.657 25.2661 154.651 25.2628 155.643 25.2595C155.701 25.2595 155.759 25.2694 155.842 25.2777C155.86 25.359 155.89 25.4387 155.895 25.52C155.905 25.6511 155.899 25.7839 155.899 25.9166C155.899 28.4123 155.899 30.9081 155.899 33.4054C155.899 34.0244 155.955 34.6334 156.142 35.2308C156.481 36.3044 157.274 36.7856 158.273 36.8702C158.521 36.8918 158.779 36.8819 159.024 36.8387C159.862 36.6927 160.389 36.175 160.67 35.4C160.819 34.9852 160.91 34.5521 160.919 34.1074C160.929 33.5498 160.95 32.9922 160.95 32.4347C160.953 30.2476 160.95 28.0589 160.953 25.8718C160.953 25.6843 160.925 25.4918 161.013 25.2894H161.018Z" fill="#0C26B7"/>
<path d="M212.812 26.3765C212.8 26.4412 212.805 26.5042 212.779 26.5524C212.415 27.2377 212.049 27.9214 211.685 28.6017C211.481 28.5934 211.363 28.4673 211.222 28.3976C211.076 28.3263 210.934 28.2499 210.789 28.1753C210.25 27.8948 209.69 27.6708 209.089 27.5546C208.658 27.4717 208.236 27.4883 207.822 27.6459C207.277 27.8517 207.038 28.3163 207.171 28.8772C207.261 29.2522 207.473 29.5393 207.758 29.7865C208.074 30.0603 208.437 30.2594 208.81 30.4353C209.318 30.6743 209.836 30.8917 210.343 31.129C210.867 31.3729 211.362 31.6633 211.805 32.0383C212.492 32.6208 212.866 33.3658 212.963 34.2453C213.069 35.2127 212.951 36.147 212.49 37.0248C212.148 37.6769 211.67 38.203 211.06 38.6178C210.438 39.0426 209.741 39.2699 209.004 39.401C208.22 39.5404 207.443 39.4906 206.664 39.3695C205.494 39.187 204.412 38.7655 203.374 38.2146C203.259 38.1532 203.158 38.0685 203.059 37.9988C203.14 37.6354 203.916 35.9346 204.149 35.6077C204.386 35.7404 204.63 35.8732 204.867 36.0126C205.443 36.3494 206.048 36.6166 206.677 36.8423C207.151 37.0132 207.644 37.0215 208.123 36.9418C208.651 36.8539 209.041 36.5535 209.202 36.0142C209.278 35.757 209.31 35.4965 209.281 35.231C209.235 34.7829 209.016 34.4328 208.649 34.164C208.253 33.8719 207.803 33.6861 207.35 33.5002C206.639 33.2098 205.944 32.8863 205.3 32.4615C204.928 32.2159 204.595 31.9271 204.298 31.5986C203.721 30.9581 203.47 30.1848 203.419 29.3451C203.38 28.6913 203.483 28.0591 203.769 27.4617C204.144 26.6768 204.737 26.1027 205.497 25.6878C206.416 25.1867 207.408 25.0058 208.45 25.044C209.758 25.0921 210.993 25.4091 212.168 25.9716C212.394 26.0794 212.608 26.2056 212.808 26.3732L212.812 26.3765Z" fill="#0C26B7"/>
<path d="M99.1523 37.9886C99.2967 37.529 100.047 35.9243 100.257 35.6273C100.355 35.6738 100.461 35.7153 100.559 35.7733C101.269 36.2015 102.007 36.5682 102.792 36.8453C103.27 37.0129 103.759 37.0212 104.24 36.9449C104.771 36.8602 105.158 36.545 105.317 36.014C105.367 35.8464 105.403 35.6688 105.408 35.4962C105.428 34.9636 105.229 34.5271 104.798 34.1953C104.393 33.885 103.93 33.6941 103.464 33.505C102.737 33.2079 102.027 32.8794 101.375 32.4413C101.017 32.2023 100.69 31.9252 100.41 31.6C99.9785 31.0988 99.6915 30.528 99.5986 29.8676C99.4958 29.1457 99.5007 28.4305 99.7645 27.7402C100.116 26.8226 100.757 26.1555 101.619 25.6876C102.542 25.1881 103.532 25.0072 104.576 25.0487C105.898 25.1001 107.149 25.4237 108.335 25.9995C108.547 26.1024 108.746 26.2235 108.922 26.3729C108.816 26.7363 108.034 28.2198 107.741 28.6164C107.447 28.4621 107.15 28.3011 106.85 28.1484C106.321 27.8813 105.773 27.6606 105.186 27.5511C104.755 27.4714 104.335 27.4946 103.919 27.6506C103.393 27.8464 103.192 28.3144 103.26 28.7657C103.323 29.1806 103.544 29.4992 103.852 29.7697C104.177 30.0551 104.552 30.2592 104.942 30.4417C105.451 30.679 105.967 30.8997 106.475 31.1387C107.12 31.4423 107.724 31.8057 108.219 32.3301C108.648 32.7848 108.905 33.3208 109.025 33.9215C109.247 35.0415 109.095 36.1135 108.55 37.1224C108.111 37.9388 107.452 38.5445 106.618 38.9395C105.563 39.4389 104.443 39.5816 103.282 39.4389C102.558 39.3493 101.851 39.2033 101.163 38.9627C100.518 38.7387 99.9072 38.445 99.3133 38.1114C99.2635 38.0832 99.2204 38.0417 99.154 37.9903L99.1523 37.9886Z" fill="#0C26B7"/>
<path d="M113.13 27.7765C112.976 27.7665 112.832 27.7516 112.687 27.7516C111.873 27.7499 111.058 27.7516 110.244 27.7483C110.099 27.7483 109.945 27.7864 109.819 27.6769C109.754 27.2803 109.759 25.6558 109.83 25.3056C109.96 25.226 110.112 25.2625 110.255 25.2608C111.35 25.2575 112.447 25.2608 113.542 25.2608C115.63 25.2608 117.717 25.2608 119.806 25.2625C119.965 25.2625 120.131 25.226 120.282 25.3056C120.304 25.6541 120.066 27.0945 119.881 27.7118C119.783 27.7234 119.67 27.7483 119.557 27.7483C118.757 27.7516 117.958 27.7483 117.158 27.7516C116.997 27.7516 116.831 27.7217 116.659 27.8047C116.644 27.8611 116.612 27.9291 116.609 27.9988C116.599 28.1598 116.602 28.3208 116.602 28.4834C116.602 31.8868 116.602 35.2902 116.602 38.6953C116.602 38.8844 116.594 39.0719 116.589 39.2761C116.498 39.3009 116.43 39.3341 116.36 39.3341C115.368 39.3374 114.376 39.3341 113.384 39.3341C113.341 39.3341 113.298 39.3159 113.231 39.2993C113.213 39.2246 113.182 39.145 113.177 39.062C113.167 38.9309 113.173 38.7981 113.173 38.6654C113.173 35.2321 113.173 31.7988 113.173 28.3656C113.173 28.178 113.195 27.9889 113.13 27.7781V27.7765Z" fill="#0C26B7"/>
<path d="M172.327 39.2945C171.944 39.3559 169.49 39.3625 169.039 39.3061C169.019 39.2347 168.981 39.1551 168.974 39.0738C168.963 38.9128 168.968 38.7518 168.968 38.5892C168.968 35.2007 168.968 31.8106 168.966 28.4221C168.966 28.2197 169.001 28.0123 168.918 27.8231C168.792 27.7235 168.654 27.7551 168.525 27.7551C167.695 27.7517 166.866 27.7551 166.038 27.7517C165.893 27.7517 165.749 27.7385 165.585 27.7302C165.504 27.4464 165.548 27.1842 165.54 26.9254C165.533 26.6615 165.54 26.3977 165.54 26.1338C165.54 25.87 165.54 25.6078 165.54 25.3257C165.645 25.3008 165.724 25.2743 165.807 25.266C165.91 25.256 166.015 25.2627 166.117 25.2627C169.256 25.2627 172.395 25.2627 175.535 25.2627C175.71 25.2627 175.889 25.2378 176.07 25.3008C176.073 25.3855 176.091 25.4585 176.078 25.5282C175.932 26.245 175.862 26.9751 175.691 27.6621C175.554 27.7833 175.414 27.7517 175.285 27.7517C174.485 27.7551 173.686 27.7517 172.886 27.7551C172.74 27.7551 172.589 27.7269 172.446 27.8082C172.349 27.9973 172.387 28.2064 172.387 28.4089C172.383 31.2547 172.385 34.1006 172.385 36.9481C172.385 37.5637 172.385 38.181 172.385 38.7966C172.385 38.9559 172.402 39.1186 172.329 39.2945H172.327Z" fill="#0C26B7"/>
<path d="M137.866 25.2931C137.885 25.3727 137.91 25.4291 137.91 25.4839C137.91 30.0472 137.906 34.6105 137.9 39.1739C137.9 39.2137 137.866 39.2535 137.837 39.3216C136.753 39.3581 135.66 39.3315 134.553 39.3381C134.529 39.227 134.499 39.1457 134.494 39.0627C134.484 38.9316 134.49 38.7988 134.49 38.6661C134.49 34.4098 134.49 30.1551 134.49 25.8987V25.3163C134.585 25.2931 134.653 25.2632 134.721 25.2632C135.713 25.2599 136.705 25.2632 137.697 25.2632C137.74 25.2632 137.784 25.2781 137.866 25.2931Z" fill="#0C26B7"/>
<path d="M93.8765 39.2987C93.7968 38.8175 93.762 28.5691 93.8267 25.6635C93.83 25.549 93.8466 25.4345 93.8599 25.3067C94.2414 25.2221 94.6097 25.2752 94.9747 25.2652C95.3297 25.2553 95.6847 25.2636 96.0414 25.2636H97.1646C97.1928 25.3665 97.2276 25.4461 97.2359 25.5291C97.2475 25.6452 97.2425 25.763 97.2425 25.8809C97.2425 30.1505 97.2425 34.4218 97.2425 38.6914C97.2425 38.8805 97.2326 39.0697 97.2276 39.2688C97.1364 39.297 97.07 39.3352 97.002 39.3352C96.0248 39.3402 95.0477 39.3385 94.0706 39.3369C94.0142 39.3369 93.9578 39.3153 93.8781 39.2987H93.8765Z" fill="#0C26B7"/>
</svg>
