<svg width="26" height="26" viewBox="0 0 26 26" fill="none" xmlns="http://www.w3.org/2000/svg">
<path d="M12.929 0.476562C6.08659 0.476562 0.488281 6.07487 0.488281 12.9172C0.488281 19.7596 6.08659 25.3579 12.929 25.3579C19.7713 25.3579 25.3696 19.7596 25.3696 12.9172C25.3696 6.07487 19.7713 0.476562 12.929 0.476562ZM17.532 15.7786C18.0296 16.2762 18.0296 17.0227 17.532 17.5203C17.0344 18.0179 16.2879 18.0179 15.7903 17.5203L12.929 14.6589L10.0676 17.5203C9.56998 18.0179 8.82354 18.0179 8.32591 17.5203C7.82828 17.0227 7.82828 16.2762 8.32591 15.7786L11.1873 12.9172L8.32591 10.0559C7.82828 9.55826 7.82828 8.81182 8.32591 8.31419C8.82354 7.81656 9.56998 7.81656 10.0676 8.31419L12.929 11.1755L15.7903 8.31419C16.2879 7.81656 17.0344 7.81656 17.532 8.31419C18.0296 8.81182 18.0296 9.55826 17.532 10.0559L14.6707 12.9172L17.532 15.7786Z" fill="#FC0011"/>
</svg>
