<svg width="9" height="12" viewBox="0 0 9 12" fill="none" xmlns="http://www.w3.org/2000/svg">
<path d="M5.62474 0H0.826267C0.369919 0 0 0.369949 0 0.826267V10.3104C0 10.7668 0.369919 11.1367 0.826267 11.1367H7.64753C8.10388 11.1367 8.4738 10.7667 8.4738 10.3104V2.84909L6.89176 1.64814L5.62474 0Z" fill="#00C8C8"/>
<path d="M5.62634 0H4.24219V11.1367H7.64916C8.10551 11.1367 8.47543 10.7668 8.47543 10.3105V2.84909L6.86687 1.67466L5.62634 0Z" fill="#64E1DC"/>
<path d="M5.625 2.02282C5.625 2.47917 5.99492 2.84909 6.45127 2.84909H8.47409L5.625 0V2.02282Z" fill="#0BD0D0"/>
<path d="M1.67188 7.03516H2.48685V7.95072H1.67188V7.03516Z" fill="white"/>
<path d="M2.95312 7.03516H4.24487V7.95072H2.95312V7.03516Z" fill="white"/>
<path d="M4.24609 7.03516H6.80726V7.95072H4.24609V7.03516Z" fill="white"/>
<path d="M1.67188 8.75781H2.48685V9.67338H1.67188V8.75781Z" fill="white"/>
<path d="M2.95312 8.75781H4.24487V9.67338H2.95312V8.75781Z" fill="white"/>
<path d="M4.24609 8.75781H6.80726V9.67338H4.24609V8.75781Z" fill="white"/>
<path d="M1.67188 5.29688H2.48685V6.21244H1.67188V5.29688Z" fill="white"/>
<path d="M2.95312 5.29688H6.80604V6.21244H2.95312V5.29688Z" fill="white"/>
<path d="M4.24219 7.02344H6.80336V7.939H4.24219V7.02344Z" fill="#E9EDF5"/>
<path d="M4.24219 8.75781H6.80336V9.67338H4.24219V8.75781Z" fill="#E9EDF5"/>
<path d="M4.24219 5.29688H6.80336V6.21244H4.24219V5.29688Z" fill="#E9EDF5"/>
</svg>
