<svg width="13" height="13" viewBox="0 0 13 13" fill="none" xmlns="http://www.w3.org/2000/svg">
<g id="clock (1) 1" clip-path="url(#clip0_1692_18555)">
<path id="Vector" d="M6.5 13C10.0899 13 13 10.0899 13 6.5C13 2.91015 10.0899 0 6.5 0C2.91015 0 0 2.91015 0 6.5C0 10.0899 2.91015 13 6.5 13Z" fill="url(#paint0_linear_1692_18555)"/>
<g id="Group">
<path id="Vector_2" d="M6.49783 4.33594C6.2985 4.33594 6.13672 4.49735 6.13672 4.69705V6.86372C6.13672 7.06341 6.2985 7.22483 6.49783 7.22483H7.94227C8.14125 7.22483 8.30339 7.06341 8.30339 6.86372C8.30339 6.66438 8.14125 6.5026 7.94227 6.5026H6.85894V4.69705C6.85894 4.49735 6.6968 4.33594 6.49783 4.33594Z" fill="white"/>
<path id="Vector_3" d="M9.41373 3.94832C8.73159 3.26618 7.82484 2.89062 6.86068 2.89062C5.89615 2.89062 4.98904 3.26618 4.30726 3.94832C3.62512 4.6301 3.24957 5.53721 3.24957 6.50137H2.52734L3.61068 7.94582L4.69401 6.50137H3.97179C3.97179 5.72968 4.27223 5.00421 4.81787 4.45857C5.36351 3.91293 6.08862 3.61249 6.86068 3.61249C7.63237 3.61249 8.35784 3.91293 8.90312 4.45857C9.44912 5.00421 9.74957 5.73004 9.74957 6.50137C9.74957 7.27307 9.44912 7.99854 8.90312 8.54454C7.77682 9.67012 5.94418 9.67012 4.81787 8.54454C4.67668 8.40262 4.44845 8.40262 4.30726 8.54454C4.16607 8.68574 4.16607 8.91324 4.30726 9.05443C5.01143 9.75896 5.93587 10.111 6.86032 10.111C7.78548 10.111 8.71029 9.75824 9.41373 9.05443C10.0962 8.37229 10.4714 7.46626 10.4714 6.50137C10.4718 5.53721 10.0959 4.62974 9.41373 3.94832Z" fill="white"/>
</g>
</g>
<defs>
<linearGradient id="paint0_linear_1692_18555" x1="1.90414" y1="11.0962" x2="11.0962" y2="1.90378" gradientUnits="userSpaceOnUse">
<stop stop-color="#0099FF"/>
<stop offset="1" stop-color="#000099"/>
</linearGradient>
<clipPath id="clip0_1692_18555">
<rect width="13" height="13" fill="white"/>
</clipPath>
</defs>
</svg>
