<svg width="11" height="11" viewBox="0 0 11 11" fill="none" xmlns="http://www.w3.org/2000/svg">
<g id="qr-code 1" clip-path="url(#clip0_1692_18548)">
<path id="Vector" d="M9.10938 1.20312H8.07812V0.859375H9.45312V2.23438H9.10938V1.20312ZM9.10938 7.04688H8.07812V7.39062H9.45312V6.01562H9.10938V7.04688ZM2.92188 7.04688H1.89062V6.01562H1.54688V7.39062H2.92188V7.04688ZM1.89062 1.20312H2.92188V0.859375H1.54688V2.23438H1.89062V1.20312ZM0.859375 10.3125V0.6875C0.859375 0.403219 1.09072 0.171875 1.375 0.171875H9.625C9.90928 0.171875 10.1406 0.403219 10.1406 0.6875V10.3125C10.1406 10.5968 9.90928 10.8281 9.625 10.8281H1.375C1.09072 10.8281 0.859375 10.5968 0.859375 10.3125ZM1.20312 10.3125C1.20312 10.4072 1.2803 10.4844 1.375 10.4844H9.625C9.7197 10.4844 9.79688 10.4072 9.79688 10.3125V0.6875C9.79688 0.592797 9.7197 0.515625 9.625 0.515625H1.375C1.2803 0.515625 1.20312 0.592797 1.20312 0.6875V10.3125ZM8.76562 6.70312H2.23438V1.54688H8.76562V6.70312ZM8.42188 1.89062H3.95312V3.26562H2.57812V4.98438H3.95312V6.35938H7.04688V4.98438H8.42188V1.89062ZM2.57812 1.89062V2.92188H3.60938V1.89062H2.57812ZM2.57812 6.35938H3.60938V5.32812H2.57812V6.35938ZM8.42188 6.35938V5.32812H7.39062V6.35938H8.42188ZM2.57812 10.1406H1.54688V9.10938H2.57812V10.1406ZM2.23438 9.45312H1.89062V9.79688H2.23438V9.45312ZM2.92188 9.10938H3.95312V10.1406H2.92188V9.10938ZM3.26562 9.79688H3.60938V9.45312H3.26562V9.79688ZM4.29688 9.10938H5.32812V10.1406H4.29688V9.10938ZM4.64062 9.79688H4.98438V9.45312H4.64062V9.79688ZM3.09375 2.57812C3.18863 2.57812 3.26562 2.50113 3.26562 2.40625C3.26562 2.31137 3.18863 2.23438 3.09375 2.23438C2.99887 2.23438 2.92188 2.31137 2.92188 2.40625C2.92188 2.50113 2.99887 2.57812 3.09375 2.57812ZM7.90625 5.67188C7.81138 5.67188 7.73438 5.74888 7.73438 5.84375C7.73438 5.93862 7.81138 6.01562 7.90625 6.01562C8.00112 6.01562 8.07812 5.93862 8.07812 5.84375C8.07812 5.74888 8.00112 5.67188 7.90625 5.67188ZM3.09375 5.67188C2.99887 5.67188 2.92188 5.74888 2.92188 5.84375C2.92188 5.93862 2.99887 6.01562 3.09375 6.01562C3.18863 6.01562 3.26562 5.93862 3.26562 5.84375C3.26562 5.74888 3.18863 5.67188 3.09375 5.67188ZM4.98438 3.26562V2.92188H4.64062V2.23438H4.29688V3.26562H4.98438ZM3.26562 3.60938H2.92188V4.64062H3.95312V4.29688H3.26562V3.60938ZM4.64062 3.95312V3.60938H3.60938V3.95312H4.29688V4.64062H4.64062V4.29688H5.67188V5.67188H4.29688V6.01562H6.01562V5.67188H6.70312V4.64062H7.39062V4.29688H6.35938V5.32812H6.01562V3.95312H4.64062ZM4.98438 4.64062V4.98438H4.29688V5.32812H5.32812V4.64062H4.98438ZM7.73438 4.64062H8.07812V4.29688H7.73438V4.64062ZM7.39062 3.26562H7.73438V3.95312H8.07812V2.92188H7.39062V3.26562ZM7.04688 2.57812H8.07812V2.23438H6.70312V3.26562H7.04688V2.57812ZM6.35938 3.95312H7.39062V3.60938H6.35938V3.95312ZM5.32812 3.60938H5.67188V2.23438H4.98438V2.57812H5.32812V3.60938ZM6.35938 2.23438H6.01562V2.57812H6.35938V2.23438ZM6.35938 2.92188H6.01562V3.26562H6.35938V2.92188ZM5.32812 7.73438H1.54688V8.07812H5.32812V7.73438ZM5.32812 8.42188H1.54688V8.76562H5.32812V8.42188ZM6.01562 8.07812V7.73438H5.67188V8.07812H6.01562ZM6.35938 8.07812H9.45312V7.73438H6.35938V8.07812ZM5.67188 8.76562H9.45312V8.42188H5.67188V8.76562Z" fill="url(#paint0_linear_1692_18548)"/>
</g>
<defs>
<linearGradient id="paint0_linear_1692_18548" x1="5.5" y1="10.8281" x2="5.5" y2="0.171875" gradientUnits="userSpaceOnUse">
<stop stop-color="#9F2FFF"/>
<stop offset="1" stop-color="#0BB1D3"/>
</linearGradient>
<clipPath id="clip0_1692_18548">
<rect width="11" height="11" fill="white"/>
</clipPath>
</defs>
</svg>
