<svg width="15" height="15" viewBox="0 0 15 15" fill="none" xmlns="http://www.w3.org/2000/svg">
<g id="hand 1">
<path id="Vector" d="M7.5 12.6562C10.3477 12.6562 12.6562 10.3477 12.6562 7.5C12.6562 4.65228 10.3477 2.34375 7.5 2.34375C4.65228 2.34375 2.34375 4.65228 2.34375 7.5C2.34375 10.3477 4.65228 12.6562 7.5 12.6562Z" fill="#299CDB" fill-opacity="0.3"/>
<path id="Vector_2" d="M6.67969 5.39062C8.03883 5.39062 9.14062 4.28883 9.14062 2.92969C9.14062 1.57055 8.03883 0.46875 6.67969 0.46875C5.32055 0.46875 4.21875 1.57055 4.21875 2.92969C4.21875 4.28883 5.32055 5.39062 6.67969 5.39062Z" fill="#299CDB"/>
<path id="Vector_3" d="M5.86285 9.71721V2.67189C5.87372 2.45594 5.96753 2.25252 6.12473 2.10405C6.28193 1.95559 6.49038 1.87354 6.7066 1.87502C6.81115 1.87499 6.91467 1.8956 7.01123 1.93566C7.1078 1.97572 7.1955 2.03446 7.26932 2.10849C7.34313 2.18253 7.40161 2.2704 7.44139 2.36708C7.48117 2.46377 7.50147 2.56735 7.50113 2.67189V6.96799C7.99801 6.35158 8.93316 6.78986 8.98707 7.12736C9.40894 6.70314 10.2246 6.90939 10.4707 7.28674C11.3589 6.75002 11.9543 7.32424 11.9543 7.92424V11.9883C11.9546 12.247 11.9019 12.503 11.7996 12.7406C11.7994 12.7424 11.7986 12.7441 11.7972 12.7453C11.5736 13.2748 11.1989 13.7266 10.7199 14.0442C10.241 14.3618 9.67898 14.5313 9.10426 14.5313H7.75426C7.27448 14.5319 6.80285 14.4072 6.38603 14.1696C5.96922 13.932 5.62164 13.5897 5.37769 13.1766C4.91363 12.3938 4.66754 11.5735 4.32066 10.4696C3.86363 9.01877 3.04801 8.02268 3.04801 7.60549C3.04269 7.51876 3.05617 7.43192 3.08754 7.35089C3.1189 7.26986 3.16741 7.19657 3.22973 7.13603C3.29205 7.07549 3.36672 7.02913 3.44862 7.00013C3.53052 6.97112 3.61772 6.96016 3.70426 6.96799C4.31129 6.96799 4.68863 7.41564 5.86285 9.71721Z" fill="white"/>
<g id="Group">
<path id="Vector_4" d="M5.86172 9.71484L5.85938 10.0758" stroke="#303E58" stroke-width="0.351562" stroke-linecap="round" stroke-linejoin="round"/>
<path id="Vector_5" d="M5.86285 9.71721C4.68863 7.41564 4.31129 6.96799 3.70426 6.96799C3.61772 6.96016 3.53052 6.97112 3.44862 7.00013C3.36672 7.02913 3.29205 7.07549 3.22973 7.13603C3.16741 7.19657 3.1189 7.26986 3.08754 7.35089C3.05617 7.43192 3.04269 7.51877 3.04801 7.60549C3.04801 8.02268 3.86363 9.01877 4.32066 10.4695C4.66754 11.5735 4.91363 12.3938 5.37769 13.1766C5.62164 13.5897 5.96922 13.932 6.38603 14.1696C6.80285 14.4072 7.27448 14.5319 7.75426 14.5313H9.10426C9.67898 14.5313 10.241 14.3618 10.7199 14.0442C11.1989 13.7266 11.5736 13.2748 11.7972 12.7453C11.7986 12.7441 11.7994 12.7424 11.7996 12.7406C11.9019 12.503 11.9546 12.247 11.9543 11.9883V7.92424C11.9543 7.32424 11.3589 6.75002 10.4707 7.28674C10.2246 6.90939 9.40894 6.70314 8.98707 7.12736C8.93316 6.78986 7.99801 6.35158 7.50113 6.96799V2.67189C7.50147 2.56735 7.48117 2.46377 7.44139 2.36708C7.40161 2.2704 7.34313 2.18253 7.26932 2.10849C7.1955 2.03446 7.1078 1.97572 7.01123 1.93566C6.91467 1.8956 6.81114 1.87499 6.7066 1.87502C6.49038 1.87354 6.28193 1.95559 6.12473 2.10405C5.96753 2.25252 5.87372 2.45594 5.86285 2.67189V9.71721Z" stroke="url(#paint0_linear_1692_18516)" stroke-width="0.351562" stroke-linecap="round" stroke-linejoin="round"/>
<path id="Vector_6" d="M4.92188 4.65199C4.58273 4.30585 4.35333 3.86729 4.26243 3.39131C4.17154 2.91532 4.22319 2.42309 4.41091 1.97634C4.59864 1.52959 4.91408 1.14821 5.31769 0.880011C5.7213 0.611817 6.1951 0.46875 6.67969 0.46875C7.16428 0.46875 7.63808 0.611817 8.04169 0.880011C8.44529 1.14821 8.76074 1.52959 8.94846 1.97634C9.13619 2.42309 9.18784 2.91532 9.09694 3.39131C9.00605 3.86729 8.77664 4.30585 8.4375 4.65199" stroke="url(#paint1_linear_1692_18516)" stroke-width="0.351562" stroke-linecap="round" stroke-linejoin="round"/>
</g>
</g>
<defs>
<linearGradient id="paint0_linear_1692_18516" x1="7.50057" y1="1.875" x2="7.50057" y2="14.5313" gradientUnits="userSpaceOnUse">
<stop stop-color="#0A3E89"/>
<stop offset="1" stop-color="#1D73AC"/>
</linearGradient>
<linearGradient id="paint1_linear_1692_18516" x1="6.67969" y1="0.46875" x2="6.67969" y2="4.65199" gradientUnits="userSpaceOnUse">
<stop stop-color="#0A3E89"/>
<stop offset="1" stop-color="#1D73AC"/>
</linearGradient>
</defs>
</svg>
