<svg width="13" height="13" viewBox="0 0 13 13" fill="none" xmlns="http://www.w3.org/2000/svg">
<g id="reloading 1" clip-path="url(#clip0_1667_18482)">
<g id="Group">
<g id="Group_2">
<g id="Layer_1_copy_23_">
<path id="Vector" d="M6.50034 12.9929C10.0882 12.9929 12.9968 10.0843 12.9968 6.49643C12.9968 2.90855 10.0882 0 6.50034 0C2.91246 0 0.00390625 2.90855 0.00390625 6.49643C0.00390625 10.0843 2.91246 12.9929 6.50034 12.9929Z" fill="url(#paint0_linear_1667_18482)"/>
<path id="Vector_2" d="M3.83983 0.570312C0.567016 2.04055 -0.894237 5.88559 0.576002 9.15837C2.04624 12.4312 5.89124 13.8924 9.16406 12.4222C12.4369 10.9519 13.8981 7.10693 12.4279 3.83411C11.7887 2.41132 10.659 1.266 9.24508 0.607371C8.65701 0.767117 8.08126 0.969305 7.52245 1.21234C6.03584 1.85359 4.84458 2.34434 4.16597 2.34434C3.90081 2.37434 3.64492 2.23624 3.52446 1.99815C3.3561 1.64178 3.39903 1.22144 3.63597 0.906477L3.83983 0.570312Z" fill="url(#paint1_linear_1667_18482)"/>
<path id="Vector_3" d="M12.9672 5.86459C12.8761 4.92056 12.5781 4.00824 12.0945 3.19239C11.4923 2.17636 10.6258 1.34269 9.58743 0.780054C8.91435 0.943736 8.25673 1.16557 7.62198 1.44295C4.98198 2.58144 3.78177 3.00669 3.30428 2.11695C3.09418 1.68275 3.13941 1.16824 3.42203 0.777344C0.262874 2.47814 -0.919326 6.4179 0.781472 9.57702C2.48227 12.7361 6.42203 13.9184 9.58119 12.2176C11.6853 11.0848 12.9976 8.8882 12.998 6.49852C12.998 6.28467 12.9878 6.07335 12.9672 5.86459Z" fill="url(#paint2_linear_1667_18482)"/>
<g id="Group_3">
<g id="Clip path group">
<mask id="mask0_1667_18482" style="mask-type:luminance" maskUnits="userSpaceOnUse" x="0" y="0" width="13" height="13">
<g id="SVGID_5_">
<path id="SVGID_4_" d="M6.50034 12.9929C10.0882 12.9929 12.9968 10.0843 12.9968 6.49643C12.9968 2.90855 10.0882 0 6.50034 0C2.91246 0 0.00390625 2.90855 0.00390625 6.49643C0.00390625 10.0843 2.91246 12.9929 6.50034 12.9929Z" fill="white"/>
</g>
</mask>
<g mask="url(#mask0_1667_18482)">
<g id="Group_4">
<path id="Vector_4" d="M10.607 1.46094C9.6694 1.89755 8.54498 2.70986 6.67345 4.29826C6.0974 4.80067 5.44654 5.21017 4.74428 5.51202C4.22008 5.73768 3.6567 5.8584 3.08608 5.86742C2.45493 5.89018 1.83804 5.67634 1.35639 5.26787C1.00069 4.94088 0.845885 4.42875 0.866977 3.7553C0.874032 3.53199 0.886212 3.34929 0.899171 3.20637C-0.917407 6.30032 0.118155 10.2811 3.21214 12.0977C6.30613 13.9143 10.287 12.8788 12.1036 9.78479C13.7264 7.02088 13.0909 3.4865 10.607 1.46094Z" fill="url(#paint3_linear_1667_18482)"/>
</g>
</g>
</g>
</g>
<path id="Vector_5" d="M12.9675 5.86223C12.8764 4.9182 12.5784 4.00588 12.0948 3.19003C11.7515 2.6108 11.3206 2.08815 10.8174 1.64062C9.83918 2.07371 8.65334 2.94722 6.83539 4.49013C4.4095 6.5487 2.21346 6.3979 1.18592 5.45295C0.718974 5.02365 0.586372 4.39321 0.615856 3.74439C-0.902508 6.99515 0.501895 10.8613 3.75269 12.3796C7.00349 13.898 10.8696 12.4936 12.3879 9.2428C12.7896 8.38284 12.998 7.44531 12.9983 6.49616C12.9984 6.28231 12.9881 6.07099 12.9675 5.86223Z" fill="url(#paint4_linear_1667_18482)"/>
<path id="Vector_6" d="M6.50322 12.9939C10.0911 12.9942 12.9999 10.0859 13.0002 6.498C13.0003 5.20956 12.6173 3.95024 11.8999 2.88003C11.7728 2.85586 11.6437 2.84371 11.5144 2.84375H11.47C10.9078 2.85511 10.3743 3.14312 9.73983 3.77761C8.97649 4.60084 8.27104 5.47588 7.62849 6.39648C7.03051 7.23813 6.30363 7.98034 5.47468 8.59578C4.76172 9.14732 3.89385 9.46161 2.99305 9.49447C2.51645 9.49217 2.04583 9.38827 1.61256 9.18969C1.1634 8.99526 0.778555 8.67747 0.502769 8.27313C0.348964 8.04688 0.212241 7.80946 0.09375 7.56286C0.615467 10.6965 3.32639 12.9936 6.50322 12.9939Z" fill="url(#paint5_linear_1667_18482)"/>
<path id="Vector_7" d="M12.9678 5.86298C12.8766 4.91895 12.5787 4.00663 12.0951 3.19079C11.8951 3.1212 11.6841 3.08852 11.4725 3.09443C10.4585 3.11474 9.54656 4.21803 7.82935 6.54511C6.20092 8.75363 3.89872 10.4933 1.50725 9.4179C1.01517 9.20502 0.593968 8.85626 0.292969 8.41256C1.34795 11.8418 4.98319 13.7666 8.41245 12.7115C11.1403 11.8723 13.001 9.35099 12.9987 6.49691C12.9986 6.28307 12.9883 6.07174 12.9678 5.86298Z" fill="url(#paint6_linear_1667_18482)"/>
</g>
<g id="Layer_2_copy_23_">
<path id="Vector_8" d="M10.9668 4.28224C10.7018 4.14381 10.3747 4.24641 10.2363 4.51139C10.2361 4.51161 10.236 4.51183 10.2359 4.51202L10.0194 4.92943C9.15338 2.98864 6.87803 2.11736 4.93724 2.98337C2.99645 3.84938 2.12517 6.1247 2.99118 8.06549C3.8572 10.0063 6.13251 10.8776 8.0733 10.0115C8.503 9.81983 8.89386 9.55091 9.22654 9.21817C9.43801 9.00677 9.43805 8.664 9.22669 8.45252C9.01529 8.24105 8.67251 8.24101 8.46104 8.45237C7.38103 9.5358 5.62721 9.53851 4.54378 8.4585C3.46036 7.37849 3.45765 5.62467 4.53766 4.54124C5.61767 3.45782 7.37149 3.45511 8.45492 4.53512C8.73118 4.81053 8.94615 5.14116 9.08577 5.50543L8.33301 5.11268C8.06996 4.97054 7.74152 5.06857 7.59937 5.33158C7.45723 5.59463 7.55526 5.92307 7.81827 6.06521C7.82288 6.0677 7.82755 6.07015 7.83223 6.07249L9.5611 6.97497C9.63815 7.01548 9.72389 7.03657 9.81093 7.03642C10.013 7.0368 10.1985 6.92462 10.292 6.74545L11.196 5.01305C11.3346 4.74811 11.2322 4.42101 10.9672 4.28243C10.9671 4.28239 10.9669 4.28232 10.9668 4.28224Z" fill="white"/>
</g>
</g>
</g>
</g>
<defs>
<linearGradient id="paint0_linear_1667_18482" x1="13.4088" y1="6.49644" x2="-0.0569919" y2="6.49644" gradientUnits="userSpaceOnUse">
<stop stop-color="#FAAD37"/>
<stop offset="1" stop-color="#F78B1F"/>
</linearGradient>
<linearGradient id="paint1_linear_1667_18482" x1="6.59959" y1="6.54459" x2="1.50666" y2="4.68393" gradientUnits="userSpaceOnUse">
<stop stop-color="#F4841A"/>
<stop offset="1" stop-color="#F26F11"/>
</linearGradient>
<linearGradient id="paint2_linear_1667_18482" x1="0.116979" y1="6.88622" x2="12.9599" y2="6.88622" gradientUnits="userSpaceOnUse">
<stop stop-color="#F4841A"/>
<stop offset="1" stop-color="#F26F11"/>
</linearGradient>
<linearGradient id="paint3_linear_1667_18482" x1="7.94606" y1="7.17012" x2="1.40228" y2="6.00322" gradientUnits="userSpaceOnUse">
<stop stop-color="#F16430"/>
<stop offset="1" stop-color="#E73D14"/>
</linearGradient>
<linearGradient id="paint4_linear_1667_18482" x1="-0.349079" y1="7.31609" x2="12.8281" y2="7.31609" gradientUnits="userSpaceOnUse">
<stop stop-color="#F16430"/>
<stop offset="1" stop-color="#E73D14"/>
</linearGradient>
<linearGradient id="paint5_linear_1667_18482" x1="8.22555" y1="8.01799" x2="0.704066" y2="8.83789" gradientUnits="userSpaceOnUse">
<stop offset="0.003" stop-color="#CE3814"/>
<stop offset="0.999" stop-color="#D63914"/>
</linearGradient>
<linearGradient id="paint6_linear_1667_18482" x1="-0.0538152" y1="8.0471" x2="12.8321" y2="8.0471" gradientUnits="userSpaceOnUse">
<stop offset="0.003" stop-color="#DD3814"/>
<stop offset="0.999" stop-color="#D63914"/>
</linearGradient>
<clipPath id="clip0_1667_18482">
<rect width="13" height="13" fill="white"/>
</clipPath>
</defs>
</svg>
