<svg width="15" height="15" viewBox="0 0 15 15" fill="none" xmlns="http://www.w3.org/2000/svg">
<g clip-path="url(#clip0_1667_18468)">
<path d="M13.2148 8.92773V13.0937L7.50195 15.001H7.49314C7.24709 14.9131 2.05273 13.1816 1.78906 13.0937V8.92773L2.28127 8.84866L5.72652 10.044L7.45801 8.3125H7.5459L9.27739 10.044L12.7138 8.84866H12.7226L13.2148 8.92773Z" fill="#FFB64C"/>
<path d="M13.2129 8.92773V13.0937L7.5 15.001V8.3125H7.54395L9.27544 10.044L12.7119 8.84866H12.7207L13.2129 8.92773Z" fill="#FF9100"/>
<path d="M12.9932 6.32413L10.5762 6.18359L7.5 7.86221L5.30273 6.18359L2.04197 6.29781C1.49769 6.90388 0.322494 8.1799 0 8.53902C0.322838 8.65037 5.51605 10.4315 5.83889 10.5429C6.03973 10.3419 7.29778 9.08398 7.5 8.88177C7.70096 9.08273 8.95889 10.3407 9.16111 10.5429C9.48395 10.4315 14.6772 8.65037 15 8.53902C14.4645 7.93935 13.3094 6.67821 12.9932 6.32413Z" fill="#FFD396"/>
<path d="M12.9942 6.32515L7.501 7.86324L2.04297 6.29883L6.64853 4.80469L7.501 4.8135L8.52055 4.83101L12.9942 6.32515Z" fill="#FFB64C"/>
<path d="M12.9932 6.32415L7.5 7.86224V4.8125L8.51955 4.83001L12.9932 6.32415Z" fill="#FF9100"/>
<path d="M7.5 0L4.86328 3.51562H6.18164V7.06352H8.81836V3.51562H10.1367L7.5 0Z" fill="#64E1DC"/>
<path d="M10.1367 3.51562H8.81836V7.06352H7.5V0L10.1367 3.51562Z" fill="#00C8C8"/>
<path d="M15 8.53911L9.16111 10.543L7.5 8.88186V7.8623L12.9932 6.32422L15 8.53911Z" fill="#FFB64C"/>
</g>
<defs>
<clipPath id="clip0_1667_18468">
<rect width="15" height="15" fill="white"/>
</clipPath>
</defs>
</svg>
