<svg width="13" height="13" viewBox="0 0 13 13" fill="none" xmlns="http://www.w3.org/2000/svg">
<g id="checked 1" clip-path="url(#clip0_1667_18505)">
<path id="Vector" d="M6.5 13C10.0899 13 13 10.0899 13 6.5C13 2.91015 10.0899 0 6.5 0C2.91015 0 0 2.91015 0 6.5C0 10.0899 2.91015 13 6.5 13Z" fill="#32BA7C"/>
<path id="Vector_2" d="M4.83984 9.43471L8.18212 12.777C10.9503 12.0388 13.0007 9.51673 13.0007 6.50254C13.0007 6.44102 13.0007 6.37951 13.0007 6.318L10.3761 3.89844L4.83984 9.43471Z" fill="#0AA06E"/>
<g id="Group">
<path id="Vector_3" d="M6.66388 7.95709C6.95094 8.24416 6.95094 8.73627 6.66388 9.02334L6.06924 9.61798C5.78217 9.90504 5.29006 9.90504 5.00299 9.61798L2.39889 6.99337C2.11183 6.7063 2.11183 6.21419 2.39889 5.92712L2.99353 5.33249C3.2806 5.04542 3.77271 5.04542 4.05978 5.33249L6.66388 7.95709Z" fill="white"/>
<path id="Vector_4" d="M8.93728 3.42233C9.22434 3.13526 9.71646 3.13526 10.0035 3.42233L10.5982 4.01697C10.8852 4.30403 10.8852 4.79615 10.5982 5.08321L6.08712 9.57375C5.80005 9.86082 5.30794 9.86082 5.02087 9.57375L4.42624 8.97911C4.13917 8.69205 4.13917 8.19993 4.42624 7.91287L8.93728 3.42233Z" fill="white"/>
</g>
</g>
<defs>
<clipPath id="clip0_1667_18505">
<rect width="13" height="13" fill="white"/>
</clipPath>
</defs>
</svg>
