<svg width="17" height="17" viewBox="0 0 17 17" fill="none" xmlns="http://www.w3.org/2000/svg">
<path d="M16.8815 7.79291C16.8815 8.76496 16.7263 9.65601 16.4158 10.4661C16.1052 11.2693 15.6665 11.9005 15.0994 12.3595C14.5324 12.8186 13.8743 13.0481 13.125 13.0481C12.6254 13.0481 12.1833 12.9299 11.7985 12.6937C11.4137 12.4507 11.137 12.1334 10.9682 11.7419H10.8062C10.0772 12.6127 9.149 13.0481 8.02169 13.0481C6.82687 13.0481 5.8852 12.6903 5.19666 11.9748C4.50812 11.2525 4.16386 10.2669 4.16386 9.0181C4.16386 7.59377 4.61613 6.44621 5.52068 5.57542C6.42523 4.70462 7.60654 4.26922 9.06462 4.26922C9.64515 4.26922 10.2831 4.3266 10.9783 4.44136C11.6804 4.54936 12.2575 4.68099 12.7098 4.83625L12.4769 9.78764C12.4769 10.7259 12.7334 11.1951 13.2465 11.1951C13.6785 11.1951 14.0228 10.8812 14.2793 10.2534C14.5358 9.61888 14.664 8.79196 14.664 7.77266C14.664 6.68585 14.4379 5.7273 13.9856 4.89701C13.5334 4.05996 12.8954 3.42205 12.0719 2.98328C11.2551 2.5445 10.3202 2.32512 9.26713 2.32512C7.90356 2.32512 6.71887 2.60526 5.71306 3.16554C4.70726 3.72582 3.93434 4.53586 3.39431 5.59567C2.86104 6.64872 2.5944 7.86716 2.5944 9.25099C2.5944 11.1141 3.09055 12.5452 4.08285 13.5442C5.0819 14.5365 6.52648 15.0327 8.41658 15.0327C9.13212 15.0327 9.91854 14.955 10.7758 14.7998C11.6331 14.6378 12.4769 14.4049 13.3072 14.1011V16.0452C11.8626 16.6595 10.2594 16.9667 8.49759 16.9667C5.93245 16.9667 3.93097 16.2916 2.49314 14.9415C1.06206 13.5915 0.346526 11.7149 0.346526 9.31174C0.346526 7.6444 0.711046 6.13232 1.44008 4.7755C2.17587 3.41193 3.2188 2.34537 4.56888 1.57583C5.9257 0.799536 7.48503 0.41139 9.24688 0.41139C10.732 0.41139 12.0584 0.715157 13.2262 1.32269C14.394 1.93022 15.2952 2.79427 15.9297 3.91483C16.5643 5.03539 16.8815 6.32808 16.8815 7.79291ZM6.51298 9.0586C6.51298 10.4829 7.09351 11.1951 8.25457 11.1951C8.86211 11.1951 9.32451 10.9825 9.64177 10.5572C9.95904 10.1252 10.1514 9.4265 10.2189 8.4612L10.3506 6.22345C10.0063 6.1492 9.61815 6.11207 9.18612 6.11207C8.34233 6.11207 7.68417 6.37533 7.21164 6.90186C6.74587 7.42839 6.51298 8.1473 6.51298 9.0586Z" fill="url(#paint0_linear_189_2088)"/>
<defs>
<linearGradient id="paint0_linear_189_2088" x1="8.5587" y1="-6.59268" x2="8.5587" y2="21.2133" gradientUnits="userSpaceOnUse">
<stop stop-color="#2F4C8F"/>
<stop offset="1" stop-color="#2581BF"/>
</linearGradient>
</defs>
</svg>
