<svg width="327" height="64" viewBox="0 0 327 64" fill="none" xmlns="http://www.w3.org/2000/svg">
<path d="M40.2133 3.25156C40.7807 3.15142 41.4984 3.61871 42.3662 4.65342C42.9336 5.32097 43.0838 5.68812 42.8168 5.75488L21.6387 10.1607C21.6387 10.1607 21.6387 10.1774 21.6387 10.2108C21.3383 10.4111 21.0546 10.7115 20.7875 11.112C20.5205 11.4791 20.2201 11.9631 19.8863 12.5639C19.5859 13.1313 19.4024 13.4818 19.3356 13.6153C17.867 15.9851 16.2982 18.7555 14.6294 21.9263C12.3263 26.2988 10.4405 30.1873 8.97185 33.5918L27.6466 28.485C28.1473 28.3182 28.8315 28.7354 29.6994 29.7367C30.3335 30.471 30.5004 30.8715 30.2 30.9383L7.51992 37.1966C6.45184 39.9336 5.53396 42.7039 4.76627 45.5076C3.73156 48.812 3.28097 52.1832 3.41448 55.6211C3.78163 59.9268 6.23489 61.4288 10.7742 60.127C13.845 59.2258 16.8657 57.7739 19.8363 55.7713C22.8069 53.7686 25.8609 51.3487 28.9984 48.5116C29.2321 48.3114 29.6159 48.3781 30.15 48.7119C30.7174 49.0457 31.1847 49.4462 31.5518 49.9135C31.9524 50.3808 32.0692 50.6979 31.9023 50.8648C24.893 57.1731 18.7181 61.095 13.3777 62.6304C11.7088 63.0309 10.1067 63.131 8.57132 62.9308C7.03595 62.7305 5.6174 62.1464 4.31567 61.1784C3.01394 60.2105 2.01261 58.9421 1.31168 57.3734C0.744265 56.1384 0.3938 54.7866 0.260289 53.318C0.126779 51.8494 0.226912 50.2473 0.560688 48.5116C0.894464 46.8094 1.21155 45.4075 1.51195 44.306C1.81235 43.2046 2.24626 41.786 2.81368 40.0504C3.34772 38.4149 3.94852 36.7293 4.61607 34.9937C4.58269 34.9269 4.59938 34.8602 4.66614 34.7934C6.90244 29.2194 9.45583 23.7955 12.3263 18.5218C13.7615 15.8182 15.13 13.3984 16.4318 11.2622L14.7796 11.6127C14.2121 11.7462 13.4945 11.2789 12.6267 10.2108C12.0593 9.54324 11.9091 9.17609 12.1761 9.10933L40.2133 3.25156ZM68.7109 35.194C69.1782 34.5264 69.9459 33.9924 71.014 33.5918C71.815 33.3248 72.1822 33.4249 72.1154 33.8922C72.082 34.0925 71.9318 34.3929 71.6648 34.7934C71.1642 35.461 70.7803 35.995 70.5133 36.3955C70.2463 36.7627 69.7623 37.4303 69.0614 38.3982C68.3604 39.3328 67.7263 40.1005 67.1588 40.7013C66.6248 41.2687 65.9573 41.9696 65.1562 42.8041C64.3885 43.6385 63.6542 44.2727 62.9533 44.7066C62.2523 45.1405 61.518 45.541 60.7503 45.9082C60.016 46.2419 59.2817 46.3755 58.5474 46.3087C57.8131 46.2419 57.1289 45.9749 56.4947 45.5076C56.0274 45.1405 55.6936 44.5063 55.4934 43.6051C55.2931 42.7039 55.193 41.7527 55.193 40.7513C55.2263 39.75 55.2263 38.7987 55.193 37.8975C55.193 36.963 55.0595 36.2453 54.7924 35.7447C54.5588 35.2106 54.1416 35.0438 53.5408 35.244C52.9734 35.4109 52.3225 35.8448 51.5882 36.5457C50.8539 37.2133 50.2698 37.8308 49.8359 38.3982C49.4019 38.9322 48.8011 39.75 48.0335 40.8515C47.2658 41.9529 46.8319 42.5704 46.7317 42.7039C46.3646 43.2046 45.7137 43.6385 44.7791 44.0056C44.0448 44.306 43.6944 44.2059 43.7277 43.7052C43.7277 43.5384 43.7778 43.3381 43.8779 43.1045C44.6123 41.3354 45.1797 39.533 45.5802 37.6973C45.7471 36.7293 45.7972 35.9616 45.7304 35.3942C45.697 34.7934 45.4634 34.5097 45.0295 34.5431C44.6289 34.5765 44.0115 34.977 43.177 35.7447C40.3065 38.5818 37.7031 41.6525 35.3666 44.9569C35.0663 45.3574 34.4488 45.7747 33.5142 46.2086C32.6464 46.6091 32.2458 46.5423 32.3126 46.0083C32.3126 45.9416 32.3293 45.8581 32.3627 45.758L36.3179 31.8395C36.5182 31.2053 37.2191 30.5044 38.4207 29.7367C39.5555 29.0024 40.1063 28.919 40.0729 29.4864C40.0729 29.5531 40.0562 29.6199 40.0228 29.6866L37.5195 38.4483C40.6236 34.5431 43.4941 32.0565 46.1309 30.9884C47.2992 30.4877 48.167 30.4543 48.7344 30.8882C49.3018 31.2888 49.5688 31.9897 49.5355 32.991C49.5021 33.959 49.3686 35.0271 49.1349 36.1953C52.8065 32.0565 55.6769 30.4543 57.7464 31.3889C58.4473 31.7227 58.9146 32.2233 59.1482 32.8909C59.3819 33.5251 59.4486 34.2427 59.3485 35.0438C59.2483 35.8114 59.1148 36.5958 58.9479 37.3969C58.7811 38.1646 58.7143 38.9489 58.7477 39.75C58.7811 40.5177 58.9813 41.1352 59.3485 41.6025C61.1175 43.8054 64.1715 41.7527 68.5106 35.4443C68.6108 35.3442 68.6775 35.2607 68.7109 35.194ZM79.83 32.0398C80.6978 31.706 81.5823 31.6559 82.4835 31.8896C83.4181 32.1232 84.1857 32.5905 84.7865 33.2914C85.4207 33.959 85.8046 34.76 85.9381 35.6946C86.0716 36.5958 85.9381 37.4636 85.5375 38.2981C84.5362 40.6011 82.8339 42.8875 80.4308 45.1572C78.0609 47.3935 75.7245 48.8621 73.4215 49.563C70.9181 50.3307 69.0824 49.296 67.9141 46.4589L66.8127 49.0624C66.7459 49.2292 66.4455 49.1792 65.9115 48.9122C65.3774 48.6451 64.8935 48.2947 64.4596 47.8608C63.9923 47.3935 63.8254 47.0096 63.9589 46.7092L78.328 11.3123C78.3947 11.1454 78.6951 11.1954 79.2292 11.4625C79.7632 11.7295 80.2472 12.0966 80.6811 12.5639C81.1484 12.9978 81.332 13.365 81.2318 13.6654L72.0196 36.2954C74.4228 34.493 77.0262 33.0745 79.83 32.0398ZM83.1844 34.3929C82.9841 34.493 82.6003 34.6265 82.0329 34.7934C81.4988 34.9269 81.1651 35.0271 81.0316 35.0938C79.9968 35.5945 78.9788 36.1619 77.9775 36.7961C75.1738 38.5317 72.4535 40.4176 69.8167 42.4536C69.8167 42.4536 69.8 42.4536 69.7666 42.4536C69.8334 42.5871 69.8667 42.7206 69.8667 42.8541C69.8667 43.6552 70.0336 45.0904 70.3674 47.1598C70.4342 47.1265 70.5677 47.0931 70.7679 47.0597C70.9682 47.0263 71.1184 46.9929 71.2185 46.9596C72.053 46.5924 72.8373 46.1585 73.5717 45.6578C77.1764 43.3882 80.0636 40.4342 82.2332 36.7961C82.6337 36.0284 82.9508 35.2273 83.1844 34.3929ZM118.813 32.8909C119.38 32.2901 119.697 32.2067 119.764 32.6406C119.764 32.9743 119.664 33.3081 119.464 33.6419C119.297 33.9089 119.03 34.3261 118.663 34.8936C117.628 36.5291 116.744 37.8475 116.009 38.8488C115.308 39.8501 114.29 41.1018 112.955 42.6038C111.653 44.0724 110.335 45.0904 109 45.6578C107.665 46.1919 106.346 46.2419 105.045 45.808C102.074 44.8067 100.555 42.5704 100.489 39.0991C99.6208 40.1338 98.7864 41.0851 97.9853 41.9529C97.1842 42.7874 96.3164 43.6051 95.3818 44.4062C94.4473 45.2072 93.5628 45.8247 92.7283 46.2586C91.8939 46.6592 91.0761 46.9095 90.2751 47.0096C89.5074 47.0764 88.7898 46.8594 88.1222 46.3588C87.4547 45.8581 86.8872 45.057 86.42 43.9556C86.0194 43.0878 85.936 42.0864 86.1696 40.9516C86.4033 39.8168 86.7704 38.7153 87.2711 37.6472C87.7717 36.5791 88.4226 35.4944 89.2237 34.3929C90.0581 33.258 90.8258 32.2901 91.5267 31.489C92.261 30.6546 92.962 29.9203 93.6295 29.2861C94.1302 28.8522 94.5975 28.5351 95.0314 28.3348C95.4653 28.1346 95.8324 28.0178 96.1328 27.9844C96.4666 27.951 96.8004 28.0511 97.1342 28.2848C97.5013 28.485 97.785 28.702 97.9853 28.9356C98.2189 29.1359 98.486 29.4864 98.7864 29.987C99.0868 30.4877 99.3037 30.8882 99.4372 31.1886C99.6041 31.489 99.8378 31.9563 100.138 32.5905C100.305 32.9243 100.422 33.1913 100.489 33.3916C101.356 32.2233 102.141 31.0217 102.842 29.7868C103.042 29.4196 103.626 29.6366 104.594 30.4376C105.529 31.1719 105.912 31.7394 105.746 32.1399C104.611 34.3094 103.893 36.6125 103.593 39.0491C103.459 40.3174 103.643 41.5357 104.143 42.7039C104.511 43.3715 104.945 43.6719 105.445 43.6051C106.547 43.4049 107.615 43.0544 108.649 42.5537C109.718 42.0197 110.752 41.3021 111.754 40.4009C112.755 39.4997 113.573 38.7153 114.207 38.0477C114.874 37.3468 115.709 36.4122 116.71 35.244C117.745 34.0758 118.446 33.2914 118.813 32.8909ZM89.1235 44.256C89.3572 44.4562 90.0748 44.0891 91.2764 43.1545C92.478 42.1866 93.8965 40.8682 95.532 39.1993C97.2009 37.497 98.6862 35.7781 99.988 34.0424C99.7543 33.6085 99.2537 33.0077 98.486 32.24C97.7517 31.439 97.2844 31.0551 97.0841 31.0885C96.8838 31.1219 96.3832 31.6059 95.5821 32.5404C94.7811 33.475 94.0634 34.3929 93.4293 35.2941C91.9606 37.1632 90.7757 39.1826 89.8745 41.3521C89.8412 41.4523 89.7577 41.6525 89.6242 41.9529C89.4907 42.2199 89.3906 42.4369 89.3238 42.6038C89.2571 42.7707 89.1736 43.0043 89.0735 43.3047C89.0067 43.5717 88.9733 43.772 88.9733 43.9055C89.0067 44.0056 89.0568 44.1225 89.1235 44.256ZM136.951 36.1452C137.352 35.6112 137.986 35.194 138.854 34.8936C139.388 34.7267 139.638 34.8101 139.605 35.1439C139.572 35.3108 139.455 35.5444 139.255 35.8448C137.419 38.515 135.366 40.8515 133.096 42.8541C130.86 44.8568 128.507 46.0751 126.037 46.509C125.136 46.7092 124.385 46.776 123.784 46.7092C123.183 46.6091 122.666 46.4756 122.232 46.3087C121.831 46.1084 121.531 45.808 121.331 45.4075C121.164 45.007 121.047 44.6064 120.98 44.2059C120.914 43.8054 120.93 43.3214 121.03 42.754C121.13 42.1866 121.247 41.6525 121.381 41.1519C121.548 40.6512 121.748 40.1172 121.982 39.5497C122.249 38.9489 122.482 38.4149 122.683 37.9476C122.916 37.4803 123.167 37.013 123.434 36.5457C123.6 36.212 123.717 35.9449 123.784 35.7447C123.884 35.5444 123.918 35.3775 123.884 35.244C123.851 35.1105 123.801 35.0271 123.734 34.9937C123.667 34.9269 123.534 34.8936 123.333 34.8936C123.133 34.8602 122.933 34.8435 122.733 34.8435C122.566 34.8435 122.315 34.8602 121.982 34.8936C121.648 34.8936 121.364 34.8936 121.13 34.8936C121.03 34.8936 120.813 34.8936 120.48 34.8936C120.146 34.8936 119.862 34.8936 119.628 34.8936C119.428 34.8936 119.195 34.8769 118.928 34.8435C118.661 34.7767 118.427 34.6933 118.227 34.5932C118.026 34.4596 117.859 34.3094 117.726 34.1426C117.259 33.3749 117.375 32.4069 118.076 31.2387C118.811 30.0705 119.612 29.1526 120.48 28.485C121.614 27.5839 122.632 27.1499 123.534 27.1833C124.235 27.2501 124.518 27.7341 124.385 28.6352C124.285 29.6032 123.467 30.8215 121.932 32.2901C122.199 32.2901 122.95 32.24 124.185 32.1399C125.42 32.0064 126.054 32.0231 126.087 32.19C126.488 32.3569 126.755 32.5738 126.888 32.8408C127.055 33.1079 127.088 33.4249 126.988 33.7921C126.888 34.1592 126.771 34.4763 126.638 34.7434C126.504 35.0104 126.287 35.3775 125.987 35.8448C125.687 36.2787 125.503 36.5624 125.436 36.6959C125.369 36.7961 125.203 37.0798 124.936 37.5471C124.702 37.981 124.535 38.2981 124.435 38.4983C124.335 38.6986 124.185 38.999 123.984 39.3995C123.817 39.7667 123.701 40.1172 123.634 40.4509C123.567 40.7513 123.534 41.0517 123.534 41.3521C123.534 42.0531 123.717 42.6038 124.084 43.0043C124.452 43.4049 124.919 43.6552 125.486 43.7553C126.087 43.8221 126.688 43.8221 127.289 43.7553C127.889 43.6886 128.474 43.555 129.041 43.3548C131.745 42.3201 134.381 39.9169 136.951 36.1452ZM159.694 37.0965C160.228 36.4623 160.846 36.1285 161.547 36.0951C162.147 36.0951 162.197 36.4623 161.697 37.1966C161.63 37.2967 161.547 37.3969 161.446 37.497C160.812 38.2313 160.145 38.9823 159.444 39.75C158.743 40.4843 157.858 41.3521 156.79 42.3535C155.756 43.3214 154.721 44.1892 153.686 44.9569C152.651 45.7246 151.533 46.4255 150.332 47.0597C149.164 47.6605 148.045 48.061 146.977 48.2613C145.943 48.4616 144.908 48.3781 143.873 48.011C142.872 47.6438 142.004 46.9596 141.27 45.9582C140.502 45.0904 140.202 44.1058 140.369 43.0043C139.768 43.6051 138.983 44.6398 138.015 46.1084C137.047 47.5437 136.213 48.8287 135.512 49.9636C134.778 51.1318 134.394 51.7159 134.361 51.7159C134.06 51.7159 133.526 51.3153 132.758 50.5143C131.957 49.7466 131.607 49.2459 131.707 49.0123L146.126 13.6153C146.193 13.4484 146.493 13.4985 147.027 13.7655C147.561 14.0325 148.045 14.3997 148.479 14.867C148.947 15.3009 149.113 15.668 148.98 15.9684L137.965 43.0544C139.1 41.8862 140.869 40.2173 143.272 38.0477C143.272 38.0144 143.423 37.8809 143.723 37.6472C144.023 37.3802 144.29 37.1465 144.524 36.9463C144.758 36.7126 145.075 36.4289 145.475 36.0951C145.876 35.728 146.243 35.4276 146.577 35.194C146.911 34.9269 147.278 34.6599 147.678 34.3929C148.112 34.0925 148.479 33.8755 148.78 33.742C149.113 33.5751 149.431 33.4583 149.731 33.3916C150.031 33.2914 150.265 33.2914 150.432 33.3916C150.632 33.4917 150.766 33.692 150.832 33.9924C150.899 34.1592 150.899 34.3595 150.832 34.5932C150.766 34.8268 150.649 35.0604 150.482 35.2941C150.348 35.4944 150.165 35.728 149.931 35.995C149.698 36.2287 149.464 36.4456 149.23 36.6459C149.03 36.8461 148.78 37.0631 148.479 37.2967C148.179 37.5304 147.929 37.714 147.728 37.8475C147.561 37.981 147.344 38.1479 147.077 38.3481C146.844 38.515 146.694 38.6152 146.627 38.6485C146.46 38.782 146.093 39.0324 145.525 39.3995C144.991 39.7667 144.624 40.0337 144.424 40.2006C144.224 40.3675 143.99 40.6345 143.723 41.0017C143.489 41.3354 143.389 41.7026 143.423 42.1031C143.489 42.4703 143.656 42.8875 143.923 43.3548C144.658 44.523 145.726 45.2072 147.127 45.4075C148.229 45.5744 149.38 45.4075 150.582 44.9068C151.817 44.4062 153.019 43.6552 154.187 42.6539C155.388 41.6191 156.373 40.7013 157.141 39.9002C157.908 39.0991 158.76 38.1646 159.694 37.0965ZM191.259 33.7921C191.993 33.2914 192.327 33.3081 192.26 33.8422C192.16 34.5097 191.793 35.1606 191.159 35.7948C191.058 35.8949 190.958 35.9783 190.858 36.0451C186.519 38.9156 182.914 40.6178 180.044 41.1519C178.809 42.4536 177.39 43.5717 175.788 44.5063C174.186 45.4075 172.851 45.9249 171.783 46.0584C169.179 46.3254 167.978 45.4743 168.178 43.505C168.378 41.6025 169.58 39.2326 171.783 36.3955C171.85 36.2954 171.916 36.1953 171.983 36.0951C172.117 35.9616 172.267 35.8281 172.434 35.6946C172.667 34.8936 173.135 34.1592 173.836 33.4917C174.57 32.8241 175.371 32.3235 176.239 31.9897C177.14 31.6559 178.075 31.5558 179.042 31.6893C180.01 31.7894 180.812 32.1566 181.446 32.7908C182.981 34.3261 183.215 36.1786 182.147 38.3481C183.148 38.1479 184.299 37.7307 185.601 37.0965C186.936 36.4623 187.888 35.9616 188.455 35.5945C189.056 35.2273 189.99 34.6265 191.259 33.7921ZM172.183 43.2547C173.018 43.5884 173.919 43.5717 174.887 43.2046C175.888 42.8041 176.806 42.2033 177.641 41.4022C176.673 41.4022 175.755 41.1519 174.887 40.6512C174.019 40.1505 173.335 39.483 172.834 38.6485C172.734 38.4483 172.651 38.2647 172.584 38.0978C170.615 40.8682 170.481 42.5871 172.183 43.2547ZM179.493 38.4483C179.727 37.5805 179.627 36.746 179.193 35.9449C179.093 35.7447 178.876 35.5277 178.542 35.2941C178.241 35.0604 177.908 34.8769 177.54 34.7434C177.173 34.5765 176.806 34.443 176.439 34.3428C176.072 34.2427 175.755 34.226 175.488 34.2928C175.221 34.3261 175.071 34.443 175.037 34.6432C174.904 35.244 175.137 35.8782 175.738 36.5457C176.372 37.2133 177.006 37.6973 177.641 37.9977C178.208 38.2647 178.809 38.4316 179.443 38.4983C179.443 38.465 179.46 38.4483 179.493 38.4483ZM219.106 35.7447C219.74 34.8435 220.491 34.3762 221.359 34.3428C221.993 34.3094 222.177 34.6265 221.91 35.2941C221.81 35.5611 221.643 35.8782 221.409 36.2453C220.441 37.5137 218.555 39.1659 215.752 41.2019C212.948 43.238 210.128 44.7733 207.291 45.808C204.487 46.8094 202.618 46.2086 201.683 44.0056C201.383 43.3715 201.366 42.2033 201.633 40.501C201.9 38.7987 201.983 37.6138 201.883 36.9463C201.817 36.5457 201.716 36.2287 201.583 35.995C201.483 35.728 201.333 35.5778 201.132 35.5444C200.965 35.511 200.799 35.511 200.632 35.5444C200.465 35.5778 200.248 35.6946 199.981 35.8949C199.747 36.0618 199.53 36.2287 199.33 36.3955C199.163 36.5624 198.946 36.7794 198.679 37.0464C198.412 37.3134 198.195 37.5137 198.028 37.6472C195.725 39.5831 192.905 42.1866 189.567 45.4576C188.933 46.0584 188.282 46.3921 187.614 46.4589C187.047 46.5257 186.88 46.1585 187.114 45.3574L191.119 32.8408C191.319 32.2067 191.954 31.5725 193.022 30.9383C194.156 30.2374 194.707 30.2374 194.674 30.9383C194.674 31.1052 194.64 31.2888 194.574 31.489L191.67 40.6512C193.439 38.9823 195.024 37.5471 196.426 36.3455C196.459 36.3121 196.91 35.8782 197.778 35.0438C198.679 34.2093 199.397 33.5918 199.931 33.1913C200.465 32.7574 201.132 32.3402 201.933 31.9396C202.734 31.5391 203.419 31.4056 203.986 31.5391C204.62 31.706 205.071 32.0565 205.338 32.5905C205.638 33.0912 205.772 33.6753 205.738 34.3428C205.705 35.0104 205.638 35.7447 205.538 36.5457C205.471 37.3468 205.388 38.0978 205.288 38.7987C205.188 39.4997 205.204 40.1672 205.338 40.8014C205.471 41.4022 205.755 41.8528 206.189 42.1532C206.99 42.5871 208.008 42.6372 209.243 42.3034C210.511 41.9362 211.797 41.3688 213.098 40.6011C214.433 39.8001 215.652 38.9489 216.753 38.0477C217.855 37.1465 218.639 36.3789 219.106 35.7447ZM261.704 1.0987C261.737 0.931811 262.004 0.981878 262.505 1.2489C263.039 1.48254 263.54 1.81632 264.007 2.25023C264.474 2.68414 264.674 3.01791 264.608 3.25156C263.54 7.69078 262.171 12.7976 260.502 18.5719C258.132 27.0164 255.345 35.3275 252.141 43.505C251.974 43.9055 251.707 44.5731 251.34 45.5076C250.973 46.4088 250.672 47.1598 250.439 47.7606C250.205 48.3614 249.871 49.1291 249.437 50.0637C249.037 51.0316 248.67 51.8327 248.336 52.4669C248.002 53.1344 247.585 53.8687 247.084 54.6698C246.584 55.5042 246.083 56.2052 245.582 56.7726C245.115 57.34 244.581 57.8907 243.98 58.4248C243.379 58.9588 242.779 59.3927 242.178 59.7265C241.043 60.3273 239.891 60.5109 238.723 60.2772C237.588 60.077 236.554 59.6431 235.619 58.9755C234.685 58.3413 233.934 57.4735 233.366 56.3721C232.799 55.304 232.548 54.2025 232.615 53.0677C232.749 50.9315 233.333 48.6785 234.367 46.3087C235.402 43.9389 236.704 41.7026 238.273 39.5998C239.841 37.497 241.46 35.5611 243.129 33.7921C244.831 31.9897 246.567 30.3709 248.336 28.9356C248.57 28.7354 248.954 28.8188 249.488 29.186C250.055 29.5198 250.522 29.9203 250.889 30.3876C251.257 30.8549 251.373 31.1553 251.24 31.2888C246.634 35.0938 242.812 39.5664 239.775 44.7066C239.541 45.1071 239.324 45.4743 239.124 45.808C238.924 46.1418 238.623 46.6592 238.223 47.3601C237.855 48.0277 237.538 48.6618 237.271 49.2626C237.004 49.8634 236.704 50.531 236.37 51.2653C236.036 52.033 235.786 52.7339 235.619 53.3681C235.486 54.0022 235.386 54.603 235.319 55.1705C235.285 55.7713 235.352 56.2886 235.519 56.7225C235.719 57.1898 236.02 57.5236 236.42 57.7239C237.555 58.358 238.74 58.2412 239.975 57.3734C241.243 56.5056 242.445 55.0536 243.58 53.0176C244.748 51.015 245.632 49.3961 246.233 48.1612C246.834 46.9262 247.468 45.491 248.136 43.8554C248.269 43.5217 248.353 43.3047 248.386 43.2046C251.69 35.3275 254.528 27.3001 256.897 19.1226C252.759 25.0305 248.386 27.7174 243.78 27.1833C241.544 26.9497 239.758 26.1987 238.423 24.9303C237.088 23.6286 236.22 22.1266 235.819 20.4244C235.452 18.6887 235.352 16.7528 235.519 14.6166C235.686 12.4471 236.02 10.4611 236.52 8.65873C237.021 6.82296 237.605 5.07064 238.273 3.40176C238.339 3.23487 238.64 3.28493 239.174 3.55196C239.708 3.81898 240.192 4.18613 240.626 4.65342C241.093 5.08733 241.277 5.45448 241.177 5.75488C239.708 9.19278 238.773 12.7642 238.373 16.4691C237.972 20.441 238.406 22.9777 239.675 24.0792C240.075 24.4464 240.559 24.6967 241.126 24.8302C241.727 24.9303 242.311 24.947 242.879 24.8803C243.446 24.7801 244.03 24.6299 244.631 24.4297C245.265 24.196 245.833 23.9457 246.333 23.6787C246.834 23.4116 247.285 23.1279 247.685 22.8275C253.026 19.2228 257.698 11.9798 261.704 1.0987ZM279.022 33.7921C279.756 33.2914 280.09 33.3081 280.023 33.8422C279.923 34.5097 279.556 35.1606 278.922 35.7948C278.821 35.8949 278.721 35.9783 278.621 36.0451C274.282 38.9156 270.677 40.6178 267.807 41.1519C266.572 42.4536 265.153 43.5717 263.551 44.5063C261.949 45.4075 260.614 45.9249 259.546 46.0584C256.942 46.3254 255.741 45.4743 255.941 43.505C256.141 41.6025 257.343 39.2326 259.546 36.3955C259.613 36.2954 259.679 36.1953 259.746 36.0951C259.88 35.9616 260.03 35.8281 260.197 35.6946C260.43 34.8936 260.898 34.1592 261.599 33.4917C262.333 32.8241 263.134 32.3235 264.002 31.9897C264.903 31.6559 265.837 31.5558 266.805 31.6893C267.773 31.7894 268.574 32.1566 269.209 32.7908C270.744 34.3261 270.978 36.1786 269.91 38.3481C270.911 38.1479 272.062 37.7307 273.364 37.0965C274.699 36.4623 275.651 35.9616 276.218 35.5945C276.819 35.2273 277.753 34.6265 279.022 33.7921ZM259.946 43.2547C260.781 43.5884 261.682 43.5717 262.65 43.2046C263.651 42.8041 264.569 42.2033 265.404 41.4022C264.436 41.4022 263.518 41.1519 262.65 40.6512C261.782 40.1505 261.098 39.483 260.597 38.6485C260.497 38.4483 260.414 38.2647 260.347 38.0978C258.378 40.8682 258.244 42.5871 259.946 43.2547ZM267.256 38.4483C267.49 37.5805 267.39 36.746 266.956 35.9449C266.856 35.7447 266.639 35.5277 266.305 35.2941C266.004 35.0604 265.671 34.8769 265.303 34.7434C264.936 34.5765 264.569 34.443 264.202 34.3428C263.835 34.2427 263.518 34.226 263.251 34.2928C262.984 34.3261 262.834 34.443 262.8 34.6432C262.667 35.244 262.9 35.8782 263.501 36.5457C264.135 37.2133 264.769 37.6973 265.404 37.9977C265.971 38.2647 266.572 38.4316 267.206 38.4983C267.206 38.465 267.223 38.4483 267.256 38.4483ZM303.815 35.194C304.85 34.2928 305.417 34.2427 305.517 35.0438C305.551 35.8114 305.334 36.4623 304.867 36.9963C302.931 38.8321 300.911 40.5511 298.808 42.1532C298.642 42.2867 298.341 42.537 297.907 42.9042C297.473 43.238 297.106 43.5217 296.806 43.7553C296.505 43.9556 296.122 44.2226 295.654 44.5564C295.22 44.8902 294.803 45.1739 294.403 45.4075C294.035 45.6078 293.635 45.8247 293.201 46.0584C292.767 46.2586 292.333 46.4088 291.899 46.509C291.499 46.5757 291.098 46.6091 290.698 46.6091C287.994 46.509 287.427 43.3715 288.995 37.1966C287.927 38.465 287.193 39.2994 286.793 39.6999C286.659 39.8668 286.292 40.2674 285.691 40.9015C285.124 41.5357 284.69 42.0197 284.389 42.3535C284.089 42.6539 283.638 43.0878 283.038 43.6552C282.47 44.2226 281.969 44.6565 281.536 44.9569C281.102 45.2573 280.601 45.5577 280.034 45.8581C279.466 46.1251 278.932 46.3087 278.431 46.4088C277.463 46.5757 276.779 46.3921 276.379 45.8581C275.945 45.3241 275.811 44.523 275.978 43.4549C276.145 42.3868 276.379 41.3187 276.679 40.2507C276.946 39.1826 277.38 37.9643 277.981 36.5958C278.615 35.2273 279.066 34.226 279.333 33.5918C279.633 32.9577 279.95 32.3068 280.284 31.6392C280.618 31.0384 281.369 30.421 282.537 29.7868C283.538 29.2527 284.006 29.236 283.939 29.7367C283.939 29.8702 283.872 30.0538 283.738 30.2874C282.737 32.2567 281.853 34.2594 281.085 36.2954C280.05 38.9322 279.55 40.6512 279.583 41.4523C279.65 42.3201 280.084 42.6872 280.885 42.5537C281.285 42.487 281.736 42.27 282.236 41.9029C282.771 41.5023 283.305 41.0017 283.839 40.4009C284.373 39.8001 284.857 39.2326 285.291 38.6986C285.724 38.1312 286.175 37.5304 286.642 36.8962C287.143 36.262 287.477 35.8448 287.644 35.6446C288.912 34.1759 290.03 32.7908 290.998 31.489C291.299 31.1219 291.933 30.7047 292.901 30.2374C293.869 29.7701 294.236 29.9203 294.002 30.688C293.969 30.7881 293.919 30.955 293.852 31.1886C291.482 38.5317 291.165 42.4369 292.901 42.9042C293.335 43.0043 293.919 42.8875 294.653 42.5537C295.421 42.1866 296.288 41.6191 297.256 40.8515C298.258 40.0838 299.092 39.4162 299.76 38.8488C300.461 38.248 301.295 37.497 302.263 36.5958C303.231 35.6946 303.748 35.2273 303.815 35.194ZM323.625 36.1452C324.026 35.6112 324.66 35.194 325.528 34.8936C326.062 34.7267 326.312 34.8101 326.279 35.1439C326.245 35.3108 326.128 35.5444 325.928 35.8448C324.092 38.515 322.04 40.8515 319.77 42.8541C317.534 44.8568 315.18 46.0751 312.711 46.509C311.809 46.7092 311.058 46.776 310.458 46.7092C309.857 46.6091 309.339 46.4756 308.905 46.3087C308.505 46.1084 308.205 45.808 308.004 45.4075C307.837 45.007 307.721 44.6064 307.654 44.2059C307.587 43.8054 307.604 43.3214 307.704 42.754C307.804 42.1866 307.921 41.6525 308.054 41.1519C308.221 40.6512 308.421 40.1172 308.655 39.5497C308.922 38.9489 309.156 38.4149 309.356 37.9476C309.59 37.4803 309.84 37.013 310.107 36.5457C310.274 36.212 310.391 35.9449 310.458 35.7447C310.558 35.5444 310.591 35.3775 310.558 35.244C310.524 35.1105 310.474 35.0271 310.407 34.9937C310.341 34.9269 310.207 34.8936 310.007 34.8936C309.807 34.8602 309.606 34.8435 309.406 34.8435C309.239 34.8435 308.989 34.8602 308.655 34.8936C308.321 34.8936 308.038 34.8936 307.804 34.8936C307.704 34.8936 307.487 34.8936 307.153 34.8936C306.819 34.8936 306.536 34.8936 306.302 34.8936C306.102 34.8936 305.868 34.8769 305.601 34.8435C305.334 34.7767 305.1 34.6933 304.9 34.5932C304.7 34.4596 304.533 34.3094 304.399 34.1426C303.932 33.3749 304.049 32.4069 304.75 31.2387C305.484 30.0705 306.285 29.1526 307.153 28.485C308.288 27.5839 309.306 27.1499 310.207 27.1833C310.908 27.2501 311.192 27.7341 311.058 28.6352C310.958 29.6032 310.14 30.8215 308.605 32.2901C308.872 32.2901 309.623 32.24 310.858 32.1399C312.093 32.0064 312.727 32.0231 312.761 32.19C313.161 32.3569 313.428 32.5738 313.562 32.8408C313.729 33.1079 313.762 33.4249 313.662 33.7921C313.562 34.1592 313.445 34.4763 313.311 34.7434C313.178 35.0104 312.961 35.3775 312.66 35.8448C312.36 36.2787 312.176 36.5624 312.11 36.6959C312.043 36.7961 311.876 37.0798 311.609 37.5471C311.375 37.981 311.209 38.2981 311.108 38.4983C311.008 38.6986 310.858 38.999 310.658 39.3995C310.491 39.7667 310.374 40.1172 310.307 40.4509C310.241 40.7513 310.207 41.0517 310.207 41.3521C310.207 42.0531 310.391 42.6038 310.758 43.0043C311.125 43.4049 311.592 43.6552 312.16 43.7553C312.761 43.8221 313.361 43.8221 313.962 43.7553C314.563 43.6886 315.147 43.555 315.715 43.3548C318.418 42.3201 321.055 39.9169 323.625 36.1452Z" fill="#161D25"/>
</svg>
