<svg width="25" height="28" viewBox="0 0 25 28" fill="none" xmlns="http://www.w3.org/2000/svg">
<path d="M11.8931 0.809902C11.7297 0.867867 11.2291 1.33685 9.7168 2.84918C8.63656 3.92942 7.71441 4.89373 7.66698 4.99385C7.44566 5.46283 7.53524 5.94762 7.91465 6.32703C8.17285 6.58523 8.41524 6.68535 8.77884 6.68535C9.17405 6.68008 9.41644 6.51673 10.2701 5.66834L11.0711 4.86738V10.9852C11.0711 17.8408 11.05 17.4561 11.4452 17.8513C11.6507 18.0516 12.0354 18.2255 12.283 18.2255C12.5307 18.2255 12.9154 18.0516 13.1209 17.8513C13.5161 17.4561 13.495 17.8461 13.495 10.9325V4.762L14.3803 5.642C14.9283 6.19002 15.334 6.55361 15.4552 6.60631C16.2088 6.9172 17.0782 6.3323 17.0782 5.51553C17.0782 5.34691 17.0413 5.12032 16.9992 5.00966C16.9412 4.87792 16.2878 4.18762 15.0073 2.89661C12.9628 0.841518 12.8205 0.73086 12.3357 0.73613C12.204 0.73613 12.0037 0.767746 11.8931 0.809902Z" fill="#2A62A3"/>
<path d="M3.57779 10.1421C1.91791 10.4424 0.584734 11.5174 0.24222 12.8347C0.126291 13.2827 0.126291 24.4803 0.24222 24.9176C0.368687 25.3971 0.62689 25.8556 1.00102 26.2455C1.5912 26.8726 2.28677 27.2731 3.24581 27.5365L3.77276 27.6841H12.2039C18.9172 27.6841 20.7035 27.6683 20.9775 27.6156C21.5098 27.5102 21.9629 27.3468 22.4793 27.0886C22.864 26.8937 23.0484 26.7514 23.4278 26.3667C23.9495 25.8503 24.2341 25.3708 24.35 24.8122C24.3922 24.6014 24.4027 22.9363 24.3922 18.6997L24.3763 12.8769L24.2551 12.5713C23.8494 11.5753 23.001 10.8007 21.8312 10.3739C21.025 10.0788 20.7668 10.0577 18.2058 10.0577H15.8662V11.2434V12.429H18.0425C20.3926 12.429 20.6508 12.4553 21.2305 12.7188C21.5519 12.8664 21.8365 13.1088 21.9577 13.3353C22.0209 13.4565 22.0314 14.326 22.0314 18.8946C22.0314 24.1799 22.0262 24.3169 21.926 24.4803C21.6995 24.8597 21.0513 25.1811 20.3189 25.2865C19.7919 25.3603 4.77922 25.355 4.24174 25.2812C3.53036 25.1811 2.9033 24.8755 2.65563 24.5013L2.53443 24.3222L2.54497 18.8261L2.56078 13.3301L2.79264 13.0929C2.91911 12.9665 3.1615 12.7979 3.33012 12.7188C3.92557 12.4553 4.17324 12.429 6.52869 12.429H8.6997V11.2434V10.0577L6.34425 10.063C4.57899 10.0683 3.88342 10.0841 3.57779 10.1421Z" fill="#2A62A3"/>
</svg>
