<svg width="31" height="18" viewBox="0 0 31 18" fill="none" xmlns="http://www.w3.org/2000/svg">
<path d="M15.342 17.3185C11.7261 17.3158 8.49494 16.1347 5.53837 14.1352C3.4518 12.7245 1.67448 10.9889 0.158433 8.98674C0.0206907 8.80488 -0.0877256 8.66099 0.101559 8.41381C2.76398 4.94092 6.03424 2.25372 10.2456 0.858912C15.2194 -0.789253 19.9097 -0.00357147 24.3246 2.6854C26.7373 4.15524 28.7546 6.06118 30.4714 8.2911C30.667 8.54534 30.7185 8.72455 30.4972 9.01057C27.6873 12.6318 24.226 15.3508 19.7649 16.6891C18.3244 17.1207 16.8474 17.3194 15.3429 17.3194L15.342 17.3185ZM9.71595 8.63715C9.70262 11.7384 12.198 14.2623 15.2896 14.2738C18.4248 14.2852 20.9388 11.7984 20.9477 8.67776C20.9557 5.60213 18.4639 3.08001 15.3971 3.06235C12.2584 3.04381 9.73017 5.52444 9.71684 8.63804L9.71595 8.63715ZM10.7059 2.81605C7.31746 3.92395 4.56351 5.93582 2.29388 8.6345C3.6944 10.8362 8.94548 14.4627 10.7184 14.4688C7.10952 11.5786 6.88557 5.88904 10.7059 2.81605ZM19.9435 14.5103C23.3533 13.4122 26.1001 11.3932 28.4018 8.66805C26.0992 5.94553 23.3542 3.92483 19.9462 2.82841C21.7217 4.37859 22.7215 6.28894 22.7277 8.65039C22.7339 11.0277 21.7288 12.9496 19.9435 14.5095V14.5103Z" fill="#979797"/>
<path d="M15.2855 6.04448C16.5031 5.80788 17.8354 6.53763 18.3683 7.699C18.948 8.9635 18.6174 10.4403 17.5603 11.3044C16.4702 12.1963 14.9557 12.2275 13.8317 11.3807C12.7798 10.5877 12.3667 9.15591 12.8692 7.94341C13.5219 8.41229 14.2136 8.56309 14.888 8.03094C15.5623 7.49879 15.5988 6.79244 15.2846 6.04448H15.2855Z" fill="#979797"/>
</svg>
