<svg width="18" height="18" viewBox="0 0 18 18" fill="none" xmlns="http://www.w3.org/2000/svg">
<g clip-path="url(#clip0_69_778)">
<path d="M8.98477 0.518799C4.28842 0.518799 0.484009 4.32321 0.484009 9.01956C0.484009 13.7159 4.28842 17.5203 8.98477 17.5203C13.6811 17.5203 17.4855 13.7144 17.4855 9.01956C17.4855 4.32472 13.6796 0.518799 8.98477 0.518799ZM9.62642 16.2067V15.6348C9.62642 15.2798 9.33972 14.9931 8.98477 14.9931C8.62981 14.9931 8.34311 15.2798 8.34311 15.6348V16.2067C4.86788 15.8987 2.09497 13.1182 1.79614 9.64149H2.34829C2.70325 9.64149 2.98994 9.35479 2.98994 8.99984C2.98994 8.64488 2.70325 8.35818 2.34829 8.35818H1.79917C2.11469 4.89812 4.88153 2.13886 8.34311 1.83244V2.36336C8.34311 2.71832 8.62981 3.00501 8.98477 3.00501C9.33972 3.00501 9.62642 2.71832 9.62642 2.36336V1.83244C13.088 2.13886 15.8548 4.89963 16.1704 8.35818H15.6212C15.2663 8.35818 14.9796 8.64488 14.9796 8.99984C14.9796 9.35479 15.2663 9.64149 15.6212 9.64149H16.1734C15.8746 13.1198 13.1017 15.8987 9.62642 16.2067Z" fill="white"/>
<path d="M12.8058 4.87876L9.00596 8.86064C9.00596 8.86064 8.99231 8.86064 8.98473 8.86064C8.9377 8.86064 8.89068 8.8652 8.84517 8.8743L5.66573 6.47151C5.45488 6.31375 5.15301 6.35319 4.99222 6.56708C4.83143 6.77793 4.8739 7.08131 5.08627 7.24059L8.26571 9.64337C8.29605 10.0135 8.60702 10.3047 8.98473 10.3047C9.38367 10.3047 9.70677 9.98164 9.70677 9.58269C9.70677 9.56297 9.70677 9.54477 9.70374 9.52657L13.5036 5.54468C13.6871 5.35203 13.6811 5.04865 13.4869 4.86359C13.2958 4.68004 12.9909 4.68763 12.8058 4.88028V4.87876Z" fill="white"/>
</g>
<defs>
<clipPath id="clip0_69_778">
<rect width="17" height="17" fill="white" transform="translate(0.484009 0.518799)"/>
</clipPath>
</defs>
</svg>
