<svg width="55" height="56" viewBox="0 0 55 56" fill="none" xmlns="http://www.w3.org/2000/svg">
<g id="Frame 18509" filter="url(#filter0_d_192_16890)">
<rect x="2" y="2" width="50.79" height="50.79" rx="25.395" fill="white"/>
<g id="Group 18674">
<g id="Group">
<path id="Vector" d="M20.8442 16.2417C20.9472 16.2322 21.0082 16.2217 21.0692 16.2217C22.1777 16.2217 23.2863 16.2217 24.3948 16.2274C25.672 16.2341 26.9483 16.2484 28.2256 16.2541C30.2091 16.2636 32.1936 16.2703 34.1771 16.276C34.4021 16.276 34.6261 16.2617 34.851 16.255C35.6154 16.2312 36.3751 16.2808 37.1338 16.3733C37.5809 16.4276 38.0203 16.5201 38.4616 16.6011C38.7132 16.6469 38.9611 16.7213 39.207 16.7937C39.8608 16.9873 40.5023 17.2142 41.1238 17.4992C41.7586 17.791 42.3638 18.1313 42.9405 18.5242C43.6115 18.9808 44.2187 19.5109 44.763 20.1087C45.4054 20.8152 45.9478 21.5922 46.3643 22.4503C46.5311 22.7935 46.6931 23.1405 46.8342 23.4952C47.0105 23.9385 47.1554 24.3933 47.2746 24.8567C47.4232 25.4354 47.5433 26.0198 47.6196 26.6119C47.7035 27.2592 47.7797 27.9085 47.734 28.5625C47.6959 29.0945 47.6368 29.6246 47.5262 30.1471C47.4404 30.5513 47.3489 30.9556 47.2393 31.3541C47.1106 31.8222 46.9448 32.278 46.7579 32.728C46.5292 33.2809 46.2642 33.8158 45.9544 34.3278C45.2005 35.5729 44.2349 36.6245 43.0273 37.4502C42.3248 37.9307 41.5718 38.3149 40.7711 38.6124C40.1449 38.845 39.5024 39.0214 38.8505 39.151C38.372 39.2464 37.8906 39.3417 37.3988 39.3675C37.0061 39.3884 36.6153 39.4361 36.2226 39.4638C35.9424 39.4828 35.6612 39.4981 35.381 39.4981C31.6865 39.5038 27.9911 39.5067 24.2966 39.5105C20.9958 39.5143 17.694 39.5181 14.3932 39.5219C14.1445 39.5219 13.8957 39.5238 13.6459 39.5238C13.5907 39.5238 13.5363 39.5143 13.4648 39.5076C13.4772 39.4599 13.4801 39.4218 13.4963 39.3894C13.8309 38.7373 14.1664 38.0851 14.5009 37.433C14.7735 36.902 15.0442 36.369 15.3168 35.838C15.3893 35.6969 15.4674 35.5586 15.5485 35.407C15.6533 35.4032 15.7563 35.3965 15.8592 35.3965C16.9029 35.3965 17.9476 35.3984 18.9913 35.4004C20.646 35.4032 22.3007 35.4051 23.9554 35.408C27.2724 35.4128 30.5904 35.4185 33.9074 35.4213C34.3811 35.4213 34.8558 35.4309 35.3285 35.4051C35.9691 35.3698 36.6086 35.3126 37.2434 35.2011C37.6705 35.1258 38.0927 35.0285 38.5131 34.9246C39.0078 34.8026 39.4634 34.5842 39.8952 34.3182C40.4432 33.9798 40.9322 33.5708 41.3535 33.0845C41.8272 32.5373 42.2123 31.9376 42.4887 31.2673C42.7022 30.7497 42.8738 30.2186 42.971 29.6704C43.0806 29.0516 43.1474 28.4272 43.1292 27.7951C43.1149 27.2936 43.0692 26.7949 43.0196 26.2963C42.9805 25.9073 42.9167 25.524 42.8166 25.1455C42.8023 25.0922 42.7928 25.0359 42.7728 24.9844C42.6555 24.6717 42.5488 24.3542 42.4134 24.0491C42.1532 23.4637 41.8129 22.927 41.3783 22.4493C40.8769 21.8982 40.2812 21.4787 39.6054 21.1603C38.9534 20.8524 38.2643 20.6817 37.5599 20.5511C37.0519 20.4567 36.5419 20.4243 36.0272 20.4224C33.385 20.4138 30.7419 20.4052 28.0997 20.3976C27.9968 20.3976 27.8919 20.3814 27.7757 20.4271C27.7871 20.4805 27.7881 20.5368 27.81 20.5835C27.8767 20.7275 27.9491 20.8695 28.0235 21.0106C28.4372 21.7924 28.8537 22.5723 29.2674 23.3541C29.479 23.7555 29.6839 24.1607 29.8945 24.563C30.0871 24.9301 30.2844 25.2933 30.4779 25.6594C30.7162 26.1104 30.9516 26.5623 31.1899 27.0133C31.4168 27.4432 31.6474 27.8713 31.8733 28.3013C32.1402 28.8085 32.4042 29.3186 32.6711 29.8258C32.9637 30.3826 33.2602 30.9384 33.5537 31.4962C33.7692 31.9052 33.9817 32.3151 34.1962 32.7232C34.3372 32.9911 34.4812 33.2571 34.6213 33.525C34.6604 33.6003 34.7137 33.6718 34.728 33.77C34.6909 33.7824 34.6623 33.7977 34.6327 33.7996C34.5765 33.8044 34.5203 33.8034 34.464 33.8034C33.0981 33.8034 31.7332 33.8034 30.3673 33.8034C30.2882 33.8034 30.2091 33.7977 30.1319 33.7948C29.9737 33.5794 29.8726 33.3448 29.7525 33.1208C29.4447 32.5449 29.1396 31.9662 28.8356 31.3875C28.4943 30.7392 28.1569 30.0889 27.8147 29.4406C27.3496 28.5597 26.8806 27.6816 26.4145 26.8007C25.9523 25.9273 25.4938 25.0531 25.0315 24.1807C24.6702 23.4971 24.3042 22.8164 23.943 22.1337C23.679 21.6342 23.4206 21.1308 23.1566 20.6312C22.7277 19.8208 22.2959 19.0132 21.866 18.2029C21.6649 17.8224 21.4676 17.4401 21.2684 17.0597C21.1798 16.891 21.0863 16.7232 20.9977 16.5544C20.95 16.4638 20.9072 16.3695 20.8433 16.2388L20.8442 16.2417Z" fill="#1027C3"/>
<path id="Vector_2" d="M7.08167 39.5313C7.08167 39.5084 7.07309 39.4808 7.08262 39.4627C11.0888 31.7611 15.0949 24.0595 19.1039 16.3598C19.1097 16.3493 19.1316 16.3483 19.163 16.3359C22.1398 22.1174 25.1146 27.9017 28.077 33.6698C28.0437 33.746 27.9998 33.7422 27.9617 33.7441C27.8978 33.748 27.833 33.747 27.7692 33.747C26.4357 33.747 25.1022 33.747 23.7697 33.747C23.682 33.747 23.5943 33.747 23.498 33.747C23.4532 33.6822 23.4065 33.6278 23.3741 33.5659C22.8708 32.6058 22.3695 31.6457 21.8681 30.6847C21.5402 30.0564 21.2171 29.4252 20.8892 28.7979C20.5937 28.2335 20.2935 27.671 19.998 27.1065C19.7321 26.5984 19.47 26.0893 19.2059 25.5801C19.1916 25.5525 19.1726 25.5277 19.1611 25.5096C19.0849 25.4905 19.0639 25.5372 19.0429 25.5792C18.7103 26.2237 18.3795 26.8682 18.0469 27.5127C17.8277 27.937 17.6027 28.3584 17.3825 28.7826C17.1709 29.1926 16.9641 29.6054 16.7525 30.0154C16.4189 30.6589 16.0824 31.3015 15.7488 31.9451C15.3971 32.6239 15.0473 33.3037 14.6956 33.9825C14.2733 34.7948 13.8482 35.6061 13.4259 36.4184C13.2277 36.7998 13.0351 37.184 12.8369 37.5663C12.6462 37.9343 12.4547 38.3024 12.2631 38.6704C12.143 38.9011 12.0143 39.3511 11.796 39.5103C11.6073 39.6533 10.9029 39.5466 10.6675 39.5475C10.1594 39.5513 9.65236 39.5523 9.14432 39.5513C9.01755 39.5513 7.08548 39.5542 7.08453 39.5294L7.08167 39.5313Z" fill="#EF1C23"/>
</g>
</g>
</g>
<defs>
<filter id="filter0_d_192_16890" x="0.230198" y="0.938119" width="54.3287" height="54.3296" filterUnits="userSpaceOnUse" color-interpolation-filters="sRGB">
<feFlood flood-opacity="0" result="BackgroundImageFix"/>
<feColorMatrix in="SourceAlpha" type="matrix" values="0 0 0 0 0 0 0 0 0 0 0 0 0 0 0 0 0 0 127 0" result="hardAlpha"/>
<feOffset dy="0.707921"/>
<feGaussianBlur stdDeviation="0.884901"/>
<feComposite in2="hardAlpha" operator="out"/>
<feColorMatrix type="matrix" values="0 0 0 0 0 0 0 0 0 0.507 0 0 0 0 0.975 0 0 0 0.15 0"/>
<feBlend mode="normal" in2="BackgroundImageFix" result="effect1_dropShadow_192_16890"/>
<feBlend mode="normal" in="SourceGraphic" in2="effect1_dropShadow_192_16890" result="shape"/>
</filter>
</defs>
</svg>
