<svg width="47" height="46" viewBox="0 0 47 46" fill="none" xmlns="http://www.w3.org/2000/svg">
<path d="M22.0917 11.099C20.3975 11.4079 19.0167 12.6888 18.5761 14.3648C18.4671 14.7691 18.4534 14.9235 18.4307 15.8047L18.4126 16.7949H16.8773C15.9008 16.7949 15.2921 16.813 15.2104 16.8448C15.0559 16.8993 14.847 17.0946 14.7652 17.2491C14.7335 17.3127 14.6926 17.4535 14.6789 17.567C14.6608 17.6806 14.3337 21.3052 13.9431 25.6293C13.171 34.2547 13.1982 33.7188 13.4889 34.014C13.7705 34.3002 13.0892 34.282 22.8729 34.282C30.2902 34.282 31.8481 34.2729 31.9708 34.2184C32.1752 34.1321 32.4068 33.8823 32.4568 33.687C32.5204 33.4508 31.0896 17.458 30.9897 17.2627C30.8988 17.0946 30.6944 16.9039 30.5355 16.8448C30.4537 16.813 29.8451 16.7949 28.8685 16.7949H27.3333L27.3151 15.8047C27.2924 14.9235 27.2788 14.7691 27.1698 14.3648C26.5747 12.121 24.3537 10.6903 22.0917 11.099ZM23.577 12.7978C24.549 13.0476 25.3393 13.8561 25.5709 14.8417C25.6209 15.0507 25.6436 15.3823 25.6436 15.9636V16.7949H22.8729H20.1022V15.9636C20.1022 15.0143 20.1522 14.7282 20.4111 14.2059C20.62 13.7789 21.0879 13.2883 21.5148 13.0522C22.1235 12.716 22.8865 12.6207 23.577 12.7978ZM18.4307 19.3521C18.4444 20.1924 18.4489 20.2378 18.5534 20.3922C18.9395 20.9554 19.7343 20.8918 20.0159 20.2696C20.0886 20.1151 20.1022 19.9653 20.1022 19.2794V18.4754H22.8729H25.6436V19.2794C25.6436 19.9653 25.6572 20.1151 25.7299 20.2696C26.0115 20.8918 26.8064 20.9554 27.1925 20.3922C27.2969 20.2378 27.3015 20.1924 27.3151 19.3521L27.3333 18.4754L28.4052 18.4845L29.4817 18.4981L30.104 25.4249C30.4446 29.2357 30.7262 32.4061 30.7308 32.4742V32.6014H22.8729C18.5488 32.6014 15.0151 32.5878 15.0105 32.5651C15.0105 32.5469 15.2921 29.372 15.6373 25.5066L16.2641 18.4754H17.3406H18.4126L18.4307 19.3521Z" fill="url(#paint0_linear_192_15289)"/>
<defs>
<linearGradient id="paint0_linear_192_15289" x1="22.8798" y1="34.2822" x2="22.8798" y2="11.0294" gradientUnits="userSpaceOnUse">
<stop stop-color="#0A3E89"/>
<stop offset="1" stop-color="#1D73AC"/>
</linearGradient>
</defs>
</svg>
