<svg width="17" height="16" viewBox="0 0 17 16" fill="none" xmlns="http://www.w3.org/2000/svg">
<path d="M0.00044357 14.6079C0.0656483 14.3703 0.106457 14.1224 0.199606 13.8963C0.653822 12.7961 1.48685 12.1637 2.65521 11.9583C2.7071 11.949 2.75856 11.9388 2.85614 11.9203C1.59818 11.6919 1.014 10.6709 1.10538 9.75262C1.20695 8.73076 2.05151 7.96115 3.06462 7.95009C4.08705 7.93902 4.93249 8.67809 5.06645 9.72252C5.17734 10.5873 4.64994 11.6684 3.36625 11.9242C4.11012 12.0225 4.7697 12.3017 5.32727 12.8337C6.0596 11.9141 7.00529 11.3936 8.17543 11.2609C7.3668 11.1219 6.71919 10.7338 6.27473 10.0474C5.8254 9.35388 5.72293 8.60064 5.97178 7.81245C6.35635 6.59631 7.59524 5.82006 8.80974 5.97717C10.1005 6.14401 11.13 7.22562 11.1549 8.56657C11.1775 9.81635 10.2877 11.0294 8.82615 11.2591C9.98786 11.3918 10.9371 11.9065 11.6712 12.8324C12.2248 12.3079 12.8813 12.0212 13.6313 11.9211C13.0636 11.8105 12.6031 11.537 12.2767 11.0652C11.9493 10.5921 11.8415 10.0664 11.9702 9.50479C12.1955 8.52187 13.111 7.85803 14.0904 7.9554C15.084 8.05409 15.8629 8.86441 15.9015 9.8398C15.9423 10.8692 15.2393 11.7224 14.1938 11.9265C14.2408 11.9366 14.2874 11.9499 14.3344 11.9561C15.8625 12.1623 16.9963 13.4488 16.9998 14.9832C16.9998 15.1434 17.0002 15.3036 16.9998 15.4634C16.9985 15.786 16.8845 15.8975 16.5558 15.8984C16.5447 15.8984 16.5336 15.8984 16.5225 15.8984C11.1717 15.8984 5.82096 15.8975 0.470184 15.9011C0.263924 15.9011 0.103352 15.8515 0 15.6665C0.00044357 15.3147 0.00044357 14.9611 0.00044357 14.6079ZM11.8278 15.2306C11.7599 13.9339 11.2086 12.9342 10.0708 12.3292C8.88603 11.699 7.69682 11.7773 6.591 12.5403C5.66217 13.1811 5.21638 14.0999 5.17867 15.231H11.8278V15.2306ZM8.51343 10.5992C9.60993 10.5926 10.5006 9.69022 10.4922 8.59489C10.4833 7.50753 9.58643 6.62242 8.49569 6.62507C7.39874 6.62773 6.50406 7.52612 6.50894 8.621C6.51338 9.715 7.41604 10.6059 8.51387 10.5992H8.51343ZM0.680436 15.2297H4.50267C4.50888 15.208 4.51643 15.193 4.51687 15.1775C4.53772 14.592 4.66502 14.0326 4.91431 13.5002C4.93471 13.4564 4.9081 13.3603 4.86995 13.324C4.16911 12.6602 3.34496 12.4372 2.41036 12.6881C1.2828 12.9908 0.532283 14.1003 0.680436 15.2297ZM16.3571 15.2297C16.3313 14.9575 16.3376 14.6889 16.2763 14.4371C16.0581 13.5418 15.4792 12.9563 14.6067 12.6965C13.7001 12.4261 12.8844 12.65 12.1738 13.2718C12.0655 13.3661 12.0363 13.4484 12.1108 13.5794C12.1755 13.6931 12.2288 13.8188 12.2585 13.9463C12.357 14.3676 12.4421 14.7916 12.5357 15.2301H16.3571V15.2297ZM3.09301 8.61304C2.37487 8.60905 1.77295 9.20164 1.76141 9.92433C1.74988 10.6439 2.35624 11.2569 3.0837 11.2613C3.80184 11.2653 4.40376 10.6727 4.41529 9.95C4.42682 9.2304 3.82046 8.61746 3.09301 8.61304ZM15.2397 9.9292C15.2326 9.20872 14.6329 8.61348 13.913 8.61304C13.1873 8.61304 12.5787 9.22332 12.5854 9.94469C12.5925 10.6652 13.1922 11.2604 13.9121 11.2609C14.6378 11.2609 15.2464 10.6506 15.2397 9.9292Z" fill="#FCFCFC"/>
<path d="M6.72576 4.7004C6.79673 4.27998 6.87568 3.83476 6.94355 3.38778C6.95287 3.32582 6.92492 3.23598 6.88101 3.19129C6.58603 2.89256 6.28396 2.60047 5.98056 2.31016C5.86701 2.20173 5.80402 2.07914 5.85237 1.92558C5.90382 1.7636 6.03689 1.70651 6.19658 1.68527C6.59624 1.63172 6.99501 1.5702 7.39511 1.51665C7.50201 1.50249 7.56854 1.46178 7.61778 1.35645C7.7921 0.981603 7.98195 0.613839 8.16115 0.241207C8.22902 0.100474 8.32394 0.00134085 8.48673 1.31768e-05C8.64996 -0.00131449 8.74666 0.0978183 8.81408 0.238109C8.99595 0.615609 9.18491 0.989569 9.36455 1.3684C9.40758 1.45912 9.46524 1.50072 9.56239 1.514C9.96781 1.56888 10.3719 1.63039 10.7773 1.68527C10.9357 1.70651 11.0687 1.75829 11.1229 1.92292C11.177 2.08711 11.1029 2.20925 10.9876 2.31989C10.7006 2.59561 10.4202 2.8784 10.1293 3.14924C10.0374 3.23466 10.0082 3.31609 10.0312 3.43779C10.1066 3.83875 10.1701 4.24192 10.2437 4.64287C10.2712 4.79246 10.2437 4.9208 10.1226 5.01329C9.9993 5.10756 9.86357 5.09384 9.73183 5.02524C9.3548 4.82874 8.97732 4.63269 8.60295 4.43089C8.52133 4.38663 8.45878 4.38575 8.37628 4.43044C7.99703 4.63491 7.61645 4.83671 7.23187 5.03011C6.97061 5.1611 6.71334 5.00134 6.7262 4.7004H6.72576ZM9.48077 4.14411C9.43331 3.85822 9.40448 3.61172 9.34859 3.37185C9.29536 3.14349 9.34592 2.97178 9.52246 2.81113C9.71143 2.63898 9.87466 2.43806 10.0472 2.2513C9.80014 2.21589 9.53932 2.17119 9.27673 2.14331C9.06781 2.12119 8.93562 2.02382 8.85134 1.82998C8.74489 1.58392 8.6167 1.34715 8.48762 1.0856C8.35721 1.35158 8.23079 1.59012 8.12256 1.83618C8.0405 2.02294 7.91275 2.11897 7.7096 2.1411C7.4439 2.17031 7.17997 2.21545 6.90052 2.25617C7.07751 2.43629 7.22699 2.61464 7.40265 2.76068C7.62487 2.94523 7.69673 3.14969 7.61911 3.43115C7.55789 3.65332 7.53882 3.88699 7.49668 4.14411C7.77303 3.99895 8.01921 3.87548 8.25962 3.74183C8.41443 3.65597 8.55726 3.6542 8.71295 3.7405C8.95336 3.87415 9.19955 3.99674 9.48033 4.14367L9.48077 4.14411Z" fill="#FCFCFC"/>
<path d="M1.4864 6.3824C1.52544 6.15758 1.56669 5.88452 1.62258 5.61501C1.65008 5.4818 1.62435 5.38886 1.51967 5.29681C1.34135 5.14014 1.17945 4.96489 1.00557 4.80336C0.881816 4.68829 0.81395 4.5573 0.873388 4.3909C0.928834 4.236 1.06057 4.18776 1.21272 4.16829C1.45934 4.13687 1.70464 4.09615 1.95126 4.06517C2.05905 4.05145 2.12558 4.00808 2.1726 3.90276C2.27773 3.66643 2.40149 3.43807 2.5146 3.20484C2.58024 3.06986 2.67872 2.98091 2.83397 2.98047C2.98966 2.98047 3.08769 3.07119 3.15334 3.20529C3.26955 3.44294 3.39198 3.67794 3.50198 3.91869C3.54412 4.01074 3.60312 4.05057 3.69937 4.06252C3.95132 4.09483 4.20238 4.13643 4.45433 4.16829C4.61401 4.1882 4.74531 4.24574 4.79987 4.40727C4.85531 4.57102 4.77724 4.6936 4.66192 4.80336C4.47384 4.98259 4.28399 5.16006 4.10568 5.34859C4.06221 5.39461 4.03427 5.48268 4.04269 5.54552C4.07729 5.80752 4.12653 6.06774 4.17443 6.32796C4.20238 6.48065 4.18064 6.61607 4.0489 6.71299C3.91583 6.81079 3.7801 6.78601 3.64392 6.71299C3.41016 6.58819 3.17773 6.46029 2.93865 6.34655C2.88143 6.31911 2.78917 6.31779 2.73239 6.34478C2.47822 6.4656 2.23382 6.60722 1.98098 6.73025C1.72504 6.85461 1.48063 6.70192 1.4864 6.38284V6.3824ZM2.22982 5.82743C2.46225 5.73361 2.645 5.60261 2.82687 5.60306C3.0145 5.60306 3.20213 5.73184 3.38798 5.80354C3.37512 5.61368 3.30548 5.39594 3.36403 5.22069C3.42391 5.04013 3.60888 4.90028 3.76502 4.71175C3.25757 4.77017 2.96748 4.53915 2.83308 4.05986C2.70444 4.54756 2.40015 4.7622 1.89582 4.74051C2.31676 5.01534 2.43786 5.36762 2.22982 5.82743Z" fill="#FCFCFC"/>
<path d="M12.777 6.36825C12.8165 6.14299 12.8608 5.87126 12.9127 5.60042C12.9353 5.48358 12.9202 5.39551 12.8222 5.30966C12.6315 5.14193 12.4572 4.9565 12.2726 4.78124C12.1573 4.67193 12.1094 4.54403 12.1617 4.39268C12.2132 4.24442 12.3374 4.19043 12.4833 4.17052C12.7353 4.13644 12.9863 4.0975 13.2387 4.06519C13.3456 4.05147 13.4139 4.0112 13.4614 3.90454C13.5661 3.66777 13.6903 3.43986 13.8034 3.20663C13.869 3.07165 13.9662 2.98181 14.1219 2.98048C14.278 2.97916 14.3769 3.06988 14.4426 3.20353C14.5566 3.43632 14.6768 3.666 14.7832 3.90189C14.8294 4.00412 14.8941 4.05191 15.0037 4.06519C15.2561 4.09572 15.5071 4.13688 15.7591 4.16963C15.913 4.18999 16.0368 4.25062 16.0896 4.40507C16.1428 4.56085 16.0767 4.683 15.9654 4.78965C15.7742 4.97331 15.5799 5.15432 15.3971 5.34639C15.3532 5.39241 15.324 5.48004 15.3324 5.54288C15.3679 5.81019 15.4198 6.07572 15.4668 6.3417C15.493 6.48863 15.4655 6.61874 15.3404 6.71123C15.2148 6.80461 15.0831 6.79045 14.9505 6.72008C14.726 6.60104 14.4971 6.48995 14.2776 6.3625C14.1627 6.29567 14.0726 6.3032 13.9609 6.36692C13.7311 6.49836 13.4964 6.62316 13.2569 6.73602C13.0041 6.85551 12.7637 6.68955 12.7774 6.36737L12.777 6.36825ZM13.5412 5.84205C13.9338 5.52562 14.3064 5.52253 14.7007 5.83895C14.5171 5.36586 14.6431 5.01491 15.0587 4.74009C14.557 4.75779 14.247 4.55289 14.1263 4.05634C13.9897 4.53341 13.6961 4.77062 13.1837 4.7423C13.6167 5.01713 13.7173 5.37516 13.5408 5.84205H13.5412Z" fill="#FCFCFC"/>
<path d="M9.82362 12.9731C9.86221 12.9913 9.94205 13.0156 10.0073 13.0607C10.3759 13.3165 10.6642 13.6445 10.8687 14.0437C10.9698 14.241 10.9317 14.422 10.7671 14.5199C10.6007 14.619 10.4078 14.5743 10.304 14.3813C10.1275 14.0547 9.89281 13.7865 9.59296 13.5692C9.459 13.4723 9.41021 13.3342 9.47142 13.1754C9.52421 13.0382 9.63199 12.9713 9.82317 12.9727L9.82362 12.9731Z" fill="#FCFCFC"/>
<path d="M8.49705 13.2471C8.32228 13.2444 8.16925 13.0873 8.17191 12.9143C8.17457 12.7399 8.33159 12.5872 8.50547 12.5899C8.68024 12.5925 8.83327 12.7496 8.83061 12.9227C8.82795 13.097 8.67048 13.2497 8.49705 13.2471Z" fill="#FCFCFC"/>
</svg>
