<svg width="16" height="16" viewBox="0 0 16 16" fill="none" xmlns="http://www.w3.org/2000/svg">
<path d="M8.00835 0C8.22245 0.0395088 8.43889 0.0701862 8.65067 0.119456C10.4838 0.547081 11.8395 2.12743 11.9877 4.00712C12.0012 4.17585 11.9603 4.36317 12.0216 4.50958C12.0792 4.64577 12.2473 4.73176 12.3532 4.85168C12.8441 5.4062 12.9742 6.04252 12.6936 6.72579C12.4103 7.41511 11.8646 7.77348 11.1206 7.82275C10.9719 7.83251 10.7913 7.78138 10.6821 7.84924C10.5744 7.91617 10.5419 8.1007 10.4708 8.23038C10.1912 8.73935 9.80249 9.14559 9.30554 9.44447C9.22751 9.49141 9.18432 9.54068 9.19918 9.63225C9.2015 9.64666 9.19872 9.662 9.19918 9.67687C9.20847 9.81817 9.21822 9.95948 9.22797 10.1008C9.43093 10.1742 9.60835 10.3067 9.84382 10.3025C10.4703 10.2918 11.0973 10.2844 11.7146 10.4359C13.6476 10.9095 15.1036 12.5977 15.2745 14.5755C15.2871 14.7191 15.2978 14.8641 15.2964 15.0082C15.295 15.1872 15.1747 15.3025 14.9949 15.3127C14.955 15.315 14.915 15.3136 14.8756 15.3136C12.9584 15.3136 11.0411 15.3136 9.12393 15.3136C9.07935 15.3136 9.0343 15.3155 8.98972 15.3122C8.8188 15.3001 8.69665 15.1746 8.69665 15.0138C8.69665 14.853 8.81973 14.728 8.99111 14.7168C9.0357 14.714 9.08074 14.7159 9.12533 14.7159C10.9181 14.7159 12.7108 14.7159 14.5036 14.7159C14.5621 14.7159 14.6206 14.7159 14.6796 14.7159C14.5653 12.6461 12.7851 10.9653 10.8396 10.9188C10.7606 11.069 10.6998 11.2126 10.6148 11.34C10.2075 11.9484 9.79412 12.5526 9.38217 13.1578C9.195 13.4325 9.02826 13.4465 8.79047 13.2085C8.41381 12.832 8.03761 12.455 7.65166 12.0688C7.60707 12.1101 7.56713 12.145 7.52997 12.1822C7.18443 12.5271 6.83982 12.8734 6.49428 13.2183C6.27181 13.4404 6.09439 13.4265 5.92069 13.1713C5.48086 12.5252 5.04011 11.8791 4.60492 11.2298C4.54687 11.1433 4.51948 11.0364 4.4735 10.9281C2.73788 10.9072 0.741252 12.4815 0.620498 14.7159C0.679946 14.7159 0.738457 14.7159 0.796976 14.7159C2.5795 14.7159 4.36249 14.7159 6.14502 14.7159C6.17985 14.7159 6.21468 14.7159 6.24952 14.7159C6.46595 14.7182 6.60248 14.8349 6.60202 15.0157C6.60155 15.1965 6.46501 15.3136 6.24766 15.3136C4.28586 15.3141 2.3236 15.3127 0.361801 15.3164C0.190422 15.3164 0.0812771 15.243 0 15.1049C0 14.9552 0 14.806 0 14.6564C0.0292598 14.4751 0.0566572 14.2934 0.0882392 14.1125C0.410561 12.27 2.00545 10.673 3.8516 10.389C4.38896 10.3062 4.9435 10.3415 5.4869 10.2913C5.68614 10.2732 5.89701 10.1942 6.06281 10.0831C6.12969 10.038 6.09068 9.83398 6.09904 9.70244C6.10043 9.6778 6.09672 9.65224 6.09997 9.6276C6.11111 9.54347 6.07767 9.4942 6.00243 9.44911C5.39959 9.0861 4.9579 8.58039 4.68481 7.93012C4.65369 7.85528 4.61654 7.81949 4.53202 7.8246C4.42287 7.83111 4.3128 7.82972 4.20365 7.82368C3.45358 7.78324 2.89903 7.42905 2.60876 6.73649C2.32359 6.05647 2.44899 5.41829 2.93666 4.86051C3.04534 4.73641 3.21811 4.64763 3.2771 4.50726C3.34026 4.35666 3.29939 4.16376 3.31193 3.99039C3.44337 2.22086 4.7215 0.655382 6.4325 0.179417C6.71303 0.101329 7.00376 0.0590309 7.28986 0.000464909C7.52905 0.000464909 7.76777 0.000464909 8.00695 0.000464909L8.00835 0ZM5.04104 5.19192C5.03686 5.2147 5.02943 5.23794 5.02943 5.26118C5.02943 5.75946 5.00945 6.25913 5.035 6.75601C5.09212 7.86272 5.62855 8.67381 6.64939 9.10051C7.64097 9.51512 8.57218 9.33663 9.39099 8.63756C9.56051 8.493 9.69613 8.30847 9.84754 8.14207C9.83778 8.12998 9.82802 8.11744 9.81781 8.10535C9.47087 8.10535 9.12347 8.10256 8.77653 8.10953C8.73938 8.11046 8.69061 8.16345 8.66925 8.20435C8.52945 8.4679 8.31767 8.64221 8.02461 8.68636C7.83465 8.71518 7.63773 8.70542 7.44359 8.70263C7.00284 8.69659 6.62014 8.35309 6.57369 7.92872C6.52214 7.45648 6.79709 7.03489 7.24667 6.941C7.44313 6.9001 7.65212 6.90893 7.85508 6.90986C8.22106 6.91079 8.49323 7.08137 8.66135 7.40488C8.70222 7.48343 8.74403 7.50993 8.82949 7.509C9.2029 7.50482 9.57677 7.49738 9.94925 7.51179C10.1085 7.51783 10.162 7.46112 10.1926 7.31564C10.3352 6.63841 10.2372 5.95514 10.2753 5.27141C10.2223 5.25793 10.1852 5.24445 10.1466 5.23887C9.55122 5.15474 9.00226 4.94604 8.50252 4.61184C8.42681 4.56118 8.3748 4.55374 8.29306 4.60626C7.48772 5.12499 6.60667 5.34856 5.65131 5.26769C5.44928 5.25049 5.24911 5.21842 5.03965 5.19192H5.04104ZM10.273 4.65181C10.2558 4.41337 10.2553 4.19909 10.2228 3.98993C10.0133 2.6536 8.79093 1.69051 7.45241 1.80021C6.07349 1.91316 5.01828 3.07053 5.03872 4.44265C5.04011 4.53515 5.06891 4.57001 5.15855 4.59046C5.67036 4.70759 6.1831 4.72014 6.69816 4.62021C7.23924 4.51516 7.72829 4.29391 8.1723 3.96808C8.34182 3.84351 8.45097 3.84444 8.61863 3.9639C8.66321 3.9955 8.7064 4.02943 8.75145 4.06058C9.2001 4.37107 9.69195 4.57094 10.273 4.65135V4.65181ZM11.4127 4.2888C11.344 2.9441 10.7736 1.86435 9.61253 1.16388C8.26193 0.349072 6.87651 0.380679 5.55842 1.24615C4.47628 1.95685 3.94681 3.00592 3.8869 4.3125C4.08568 4.30088 4.26124 4.29066 4.4368 4.28043C4.45166 4.15679 4.46188 4.04849 4.47767 3.94066C4.82414 1.53806 7.64051 0.376961 9.57444 1.8439C10.3412 2.42538 10.762 3.20626 10.8503 4.16655C10.854 4.20885 10.893 4.28136 10.9195 4.28322C11.0765 4.29438 11.2344 4.2888 11.4127 4.2888ZM4.41961 7.22268V4.89305C3.91941 4.85958 3.51303 5.01111 3.24783 5.43734C2.99099 5.85009 2.99472 6.28051 3.2562 6.69C3.52279 7.1074 3.92684 7.25335 4.41961 7.22268ZM10.8772 7.2078C11.298 7.29519 11.7791 7.08649 12.0332 6.71185C12.2947 6.32559 12.2989 5.81105 12.0425 5.41829C11.7922 5.03389 11.3245 4.82658 10.8767 4.907V7.20827L10.8772 7.2078ZM10.0431 11.121C9.71842 10.976 9.4156 10.8389 9.11046 10.7074C9.07888 10.6939 9.01804 10.6976 8.99621 10.719C8.68736 11.0216 8.38269 11.3283 8.09148 11.6198C8.41613 11.9456 8.73101 12.2617 9.05055 12.5824C9.3738 12.1069 9.70263 11.6221 10.0435 11.1206L10.0431 11.121ZM7.2123 11.6254C7.02095 11.4348 6.82821 11.2419 6.63454 11.0499C6.511 10.9277 6.39906 10.7306 6.25787 10.7064C6.10972 10.6809 5.9323 10.8194 5.76928 10.89C5.59883 10.9639 5.43024 11.0429 5.25283 11.1229C5.59466 11.6258 5.92394 12.1101 6.25045 12.5903C6.57045 12.2696 6.88255 11.9563 7.21277 11.6254H7.2123ZM6.69816 9.76565C6.69816 9.91764 6.69491 10.0417 6.70002 10.1654C6.70188 10.2119 6.70792 10.2723 6.73718 10.302C7.03396 10.6084 7.33631 10.9095 7.6433 11.2186C7.95959 10.9026 8.26239 10.6009 8.56289 10.2974C8.58471 10.2755 8.59865 10.2365 8.59958 10.2049C8.60329 10.0664 8.60144 9.9274 8.60144 9.76565C7.96562 9.95064 7.34281 9.95157 6.69816 9.76565ZM7.66188 8.10535C7.73619 8.10535 7.81143 8.11046 7.88527 8.10442C8.04644 8.09141 8.15976 7.96591 8.16022 7.80741C8.16068 7.64891 8.0483 7.51876 7.88713 7.50946C7.73851 7.50063 7.58896 7.5011 7.44034 7.50946C7.27825 7.5183 7.16632 7.64612 7.16586 7.80555C7.16586 7.96544 7.27685 8.09048 7.43801 8.10442C7.51186 8.11046 7.5871 8.10535 7.66141 8.10581L7.66188 8.10535Z" fill="#FCFCFC"/>
<path d="M7.64186 15.3107C7.48163 15.3065 7.34972 15.1698 7.35158 15.0095C7.35344 14.8431 7.49834 14.7064 7.66368 14.7152C7.82392 14.7236 7.95302 14.8645 7.94652 15.0239C7.94048 15.1842 7.80162 15.3149 7.64186 15.3111V15.3107Z" fill="#FCFCFC"/>
</svg>
