<svg width="23" height="14" viewBox="0 0 23 14" fill="none" xmlns="http://www.w3.org/2000/svg">
<path d="M22.6529 8.91932C22.6529 8.86259 22.631 8.80586 22.6091 8.74913L18.2598 0.45818C18.1136 0.187633 17.6896 0 17.2145 0H5.44577C4.96331 0 4.53937 0.187633 4.40049 0.45818L0.0511756 8.74913C0.0219512 8.8146 0.00731706 8.88004 0 8.9455V12.8728C0 13.235 0.489739 13.5273 1.09646 13.5273H21.5638C22.1705 13.5273 22.6602 13.235 22.6602 12.8728C22.6529 12.8466 22.6676 8.94113 22.6529 8.91932ZM14.985 8.29095C14.3783 8.29095 13.8885 8.58331 13.8885 8.9455C13.8008 10.9571 8.85942 10.9615 8.77171 8.9455C8.77171 8.58331 8.28197 8.29095 7.67524 8.29095H2.58764L6.24983 1.3091H16.4104L20.0726 8.29095H14.985Z" fill="#FCFCFC"/>
</svg>
