<svg width="19" height="12" viewBox="0 0 19 12" fill="none" xmlns="http://www.w3.org/2000/svg">
<path d="M18.2474 9.50083C18.1613 9.66179 18.0236 9.71012 17.8474 9.70453C17.5816 9.69614 17.3154 9.70253 17.0352 9.70253C17.0063 10.2973 16.7862 10.7857 16.3222 11.1472C15.9767 11.4164 15.5804 11.5402 15.1432 11.5254C14.387 11.4995 13.4695 10.9363 13.393 9.71611H6.96854C6.94012 10.3324 6.69512 10.8389 6.1859 11.1995C5.83922 11.4452 5.4485 11.5518 5.02535 11.5227C4.26593 11.4707 3.40123 10.8992 3.32917 9.70293C3.26872 9.70293 3.20587 9.70293 3.14342 9.70293C2.71547 9.70293 2.28751 9.70493 1.85956 9.70213C1.44482 9.69973 1.20663 9.46168 1.20303 9.05069C1.20143 8.86816 1.20303 8.68523 1.20303 8.48073C0.914396 8.48073 0.642572 8.48232 0.37075 8.47993C0.300292 8.47913 0.205819 8.49191 0.164185 8.45357C0.0885228 8.38367 -0.00235534 8.27902 4.66221e-05 8.19115C0.00244858 8.10408 0.100127 8.00543 0.178992 7.93952C0.224229 7.90198 0.31551 7.91276 0.385967 7.91236C1.22385 7.91077 2.06213 7.91117 2.90001 7.91156C2.94165 7.91156 2.98369 7.90997 3.02452 7.91516C3.19386 7.93513 3.30554 8.05495 3.30034 8.20753C3.29514 8.3617 3.18065 8.47513 3.00651 8.47833C2.66783 8.48392 2.32875 8.48073 1.99007 8.48073C1.92602 8.48073 1.86197 8.48073 1.78591 8.48073V9.13337C1.98807 9.13337 2.18263 9.13337 2.37679 9.13337C2.68585 9.13337 2.99489 9.12937 3.30395 9.13576C3.40243 9.13776 3.44647 9.10341 3.4877 9.01434C3.81717 8.30818 4.37642 7.91676 5.15666 7.91995C5.92809 7.92275 6.48455 8.30858 6.81041 9.00995C6.85045 9.09582 6.89128 9.13616 6.99257 9.13616C8.88851 9.13297 10.7849 9.13377 12.6808 9.13337C12.7096 9.13337 12.7385 9.12897 12.7837 9.12538C12.7869 9.05668 12.7917 8.99397 12.7921 8.93126C12.7929 8.30858 12.7857 7.6855 12.7989 7.06321C12.8013 6.95417 12.859 6.81118 12.9406 6.74608C13.1172 6.60469 13.3594 6.76006 13.3626 7.00649C13.3678 7.43946 13.3642 7.87242 13.3642 8.30538C13.3642 8.53065 13.361 8.75632 13.3666 8.98159C13.3678 9.03152 13.4006 9.08104 13.419 9.13057C13.4622 9.09223 13.5239 9.06267 13.5463 9.01474C13.7969 8.47673 14.2001 8.11646 14.7785 7.97068C15.63 7.75579 16.4935 8.17358 16.8586 8.976C16.9135 9.09622 16.9731 9.14735 17.108 9.13736C17.2898 9.12418 17.4735 9.13417 17.6657 9.13417V7.87082C17.5436 7.87082 17.4267 7.87522 17.3098 7.87003C16.837 7.84846 16.4735 7.481 16.4599 7.00929C16.4543 6.80759 16.4551 6.60588 16.4591 6.40418C16.4631 6.19289 16.566 6.09064 16.7806 6.08745C17.0528 6.08345 17.325 6.08625 17.5992 6.08625C17.548 5.76672 17.2073 5.45558 16.8458 5.45158C15.6937 5.438 14.5415 5.44639 13.3638 5.44639C13.3638 5.55263 13.367 5.65129 13.363 5.74954C13.3558 5.93128 13.2409 6.0495 13.0779 6.0479C12.9234 6.04631 12.8093 5.93248 12.7945 5.76193C12.7901 5.7088 12.7929 5.65528 12.7929 5.60176C12.7929 4.00052 12.7929 2.39887 12.7929 0.797627V0.579148H1.7735C1.7735 0.65264 1.7735 0.721739 1.7735 0.790437C1.7735 2.39767 1.7735 4.00531 1.7735 5.61255C1.7735 5.67166 1.7763 5.73157 1.76989 5.79028C1.75428 5.94086 1.66381 6.02953 1.51769 6.04471C1.36997 6.05989 1.26388 5.9856 1.22185 5.84301C1.20223 5.7767 1.20303 5.70281 1.20263 5.63212C1.20183 3.98933 1.20183 2.34615 1.20183 0.703366C1.20183 0.220476 1.42561 0 1.91321 0C5.49734 0 9.08147 0 12.6656 0C13.1444 0 13.363 0.218079 13.3638 0.694179C13.3638 0.859137 13.3638 1.02409 13.3638 1.20623C13.4398 1.20982 13.5031 1.21501 13.5659 1.21501C14.178 1.21581 14.7905 1.2274 15.4026 1.21222C16.1741 1.19305 16.8422 1.72586 16.7077 2.76473C16.6953 2.85939 16.5944 2.94207 16.5115 3.06429C16.6476 3.60789 16.7938 4.19942 16.9467 4.78936C16.9583 4.83489 17.0115 4.89161 17.056 4.90319C17.6941 5.06775 18.0812 5.46876 18.2217 6.11021C18.2253 6.12659 18.2381 6.14097 18.247 6.15655V9.50242L18.2474 9.50083ZM16.3654 4.86405C16.3526 4.80294 16.3438 4.75181 16.331 4.70149C16.2061 4.19583 16.0748 3.69177 15.9579 3.18412C15.9247 3.03953 15.8594 3.00238 15.7165 3.00358C14.9979 3.01117 14.2789 3.00718 13.5603 3.00718C13.5023 3.00718 13.4442 3.00718 13.3794 3.00718V4.86365H16.365L16.3654 4.86405ZM15.2097 10.9575C15.8862 10.9611 16.4483 10.4091 16.4575 9.73169C16.4667 9.05229 15.899 8.48232 15.2149 8.48432C14.5363 8.48632 13.9775 9.0423 13.9759 9.71771C13.9743 10.3915 14.5339 10.9535 15.2097 10.9571V10.9575ZM5.15987 10.9575C5.83682 10.9531 6.39247 10.3923 6.39007 9.71611C6.38767 9.03831 5.83082 8.48512 5.15106 8.48432C4.4661 8.48392 3.90443 9.04989 3.91124 9.73368C3.91805 10.4083 4.48291 10.9619 5.15987 10.9575ZM13.375 2.42124H16.134C16.1476 2.05458 15.8782 1.78977 15.4879 1.78737C14.823 1.78338 14.158 1.78577 13.4931 1.78737C13.4538 1.78737 13.4142 1.79855 13.375 1.80455V2.42124ZM17.6625 7.29168V6.66979H17.0408C16.9919 7.23536 17.0912 7.33441 17.6625 7.29168Z" fill="#FCFCFC"/>
<path d="M6.96816 5.37707C7.7552 4.59103 8.51102 3.83574 9.26724 3.08045C9.3469 3.00056 9.42457 2.91868 9.50743 2.842C9.64475 2.71538 9.80328 2.70979 9.92137 2.82203C10.0419 2.93706 10.0419 3.1112 9.90616 3.2478C9.45499 3.70353 8.99942 4.15487 8.54585 4.6082C8.11309 5.04036 7.68034 5.47253 7.24679 5.90389C7.04502 6.1044 6.91692 6.1048 6.71756 5.90629C6.24597 5.43738 5.77679 4.96607 5.3044 4.49796C5.20552 4.39971 5.13867 4.29506 5.18911 4.15047C5.26157 3.94238 5.50577 3.89685 5.68031 4.0674C6.05782 4.43725 6.43012 4.8123 6.80322 5.18615C6.85727 5.24007 6.90371 5.30158 6.96816 5.37667V5.37707Z" fill="#FCFCFC"/>
<path d="M9.71696 8.47898C9.05122 8.47898 8.38588 8.47898 7.72013 8.47898C7.66088 8.47898 7.60044 8.48058 7.54239 8.47179C7.39867 8.44983 7.32101 8.35397 7.3098 8.21817C7.29859 8.08077 7.36585 7.97373 7.50236 7.93339C7.57482 7.91222 7.65488 7.91102 7.73134 7.91102C9.06243 7.90982 10.3939 7.91022 11.725 7.91022C11.743 7.91022 11.7606 7.91022 11.7786 7.91022C12.0132 7.91421 12.151 8.02365 12.1474 8.20259C12.1437 8.37753 12.0148 8.47858 11.7855 8.47898C11.0961 8.48018 10.4067 8.47938 9.71736 8.47938L9.71696 8.47898Z" fill="#FCFCFC"/>
<path d="M2.71148 7.26097C2.1234 7.26097 1.53532 7.26177 0.947641 7.26097C0.722657 7.26097 0.592557 7.15433 0.593758 6.97739C0.594959 6.80364 0.730267 6.693 0.951648 6.6926C2.12781 6.69141 3.30356 6.6926 4.47973 6.69141C4.61463 6.69141 4.74275 6.72336 4.78718 6.85477C4.81521 6.93864 4.8144 7.07324 4.76396 7.13156C4.70151 7.20385 4.57541 7.25378 4.47573 7.25578C3.88805 7.26696 3.29996 7.26137 2.71188 7.26137L2.71148 7.26097Z" fill="#FCFCFC"/>
<path d="M15.2079 9.13712C15.5374 9.13392 15.8008 9.38955 15.8052 9.71587C15.8096 10.037 15.5442 10.3086 15.2215 10.3138C14.9013 10.319 14.6299 10.053 14.6251 9.72945C14.6203 9.40393 14.8797 9.13991 15.2079 9.13672V9.13712Z" fill="#FCFCFC"/>
<path d="M5.14868 9.13712C5.47895 9.13592 5.73676 9.39194 5.73756 9.72106C5.73836 10.0478 5.47654 10.313 5.15228 10.3138C4.83282 10.3146 4.5602 10.0438 4.5586 9.72425C4.557 9.40113 4.82162 9.13792 5.14868 9.13672V9.13712Z" fill="#FCFCFC"/>
</svg>
