<svg width="22" height="22" viewBox="0 0 22 22" fill="none" xmlns="http://www.w3.org/2000/svg">
<g id="Group 18612">
<path id="Vector" d="M2.46259 7.58077C3.1607 7.23463 3.87626 7.31801 4.58019 7.3151C5.7825 7.30929 6.98577 7.31219 8.18808 7.3151C8.69712 7.31607 9.01902 7.65543 8.97345 8.13441C8.94243 8.46311 8.68839 8.7249 8.3597 8.76175C8.26952 8.77144 8.17741 8.77241 8.0853 8.77241C6.62023 8.77338 5.15517 8.77047 3.6901 8.77532C3.01235 8.77726 2.51495 9.20195 2.45677 9.82928C2.4335 10.0775 2.44513 10.3296 2.44513 10.5797C2.44513 12.6246 2.44416 14.6695 2.44513 16.7144C2.44513 17.4591 2.44126 18.2037 2.45095 18.9484C2.45871 19.5641 2.95127 20.0586 3.56599 20.0896C3.63871 20.0935 3.7124 20.0925 3.78609 20.0925C6.68617 20.0925 9.58527 20.0925 12.4853 20.0925C13.2843 20.0925 13.7633 19.6203 13.7662 18.8194C13.771 17.4271 13.7672 16.0357 13.7672 14.6433C13.7672 14.5823 13.7672 14.5212 13.7672 14.4601C13.7778 14.0092 14.0677 13.7096 14.4934 13.7116C14.9142 13.7125 15.2216 14.0218 15.2245 14.462C15.2293 15.2309 15.2245 15.9998 15.2245 16.7697C15.2245 17.4901 15.2303 18.2105 15.2235 18.9309C15.2109 20.173 14.3887 21.1988 13.1786 21.481C13.008 21.5207 12.8286 21.542 12.6541 21.542C9.89457 21.545 7.13606 21.543 4.37658 21.5401C3.98098 21.5401 3.5786 21.5653 3.19076 21.5052C1.90119 21.3074 0.997521 20.2321 0.996552 18.927C0.994612 16.7416 0.99946 14.5561 0.99946 12.3706C0.99946 9.3309 0.996551 6.29024 0.997521 3.25054C0.997521 1.74087 2.14068 0.605469 3.6552 0.605469C6.43892 0.605469 9.22264 0.608378 12.0064 0.609347C14.4294 0.609347 16.8534 0.605469 19.2764 0.605469C20.7997 0.605469 21.936 1.74281 21.936 3.26799C21.937 7.43146 21.936 11.5939 21.936 15.7574C21.936 16.8133 21.938 17.8692 21.9351 18.9251C21.9312 20.3979 20.7822 21.5411 19.3055 21.544C18.7625 21.545 18.2186 21.545 17.6756 21.544C17.2277 21.544 16.9009 21.2327 16.9048 20.8139C16.9077 20.4047 17.2335 20.0954 17.6688 20.0935C18.1934 20.0915 18.7189 20.0935 19.2435 20.0935C19.9862 20.0935 20.4845 19.597 20.4845 18.8543C20.4845 16.3944 20.4826 13.9346 20.4826 11.4747C20.4826 8.77047 20.4836 6.06626 20.4845 3.36204C20.4845 2.53013 20.0094 2.05696 19.1814 2.05696C14.4381 2.05793 9.69484 2.05793 4.95155 2.0589C4.50553 2.0589 4.06049 2.05308 3.61447 2.0589C2.96193 2.06666 2.45192 2.57182 2.44901 3.22436C2.4432 4.60992 2.44707 5.99548 2.44804 7.38104C2.44804 7.43436 2.4558 7.48769 2.46259 7.58368V7.58077Z" fill="url(#paint0_linear_251_5380)"/>
<path id="Vector_2" d="M16.1535 7.42966C16.107 7.47426 16.0585 7.51789 16.013 7.56346C15.1539 8.42156 14.2948 9.27965 13.4377 10.1397C13.2098 10.3685 12.9432 10.449 12.6368 10.3452C12.1636 10.1853 11.9988 9.59574 12.3149 9.20403C12.3799 9.12355 12.4565 9.05277 12.5292 8.97908C13.3446 8.16364 14.16 7.34821 14.9755 6.53278C15.022 6.48624 15.0657 6.43775 15.1461 6.35437C15.0414 6.34661 14.9794 6.33886 14.9183 6.33886C14.448 6.33789 13.9787 6.34273 13.5085 6.33595C13.1565 6.3311 12.8647 6.08579 12.8016 5.75613C12.7367 5.4158 12.9064 5.07644 13.2205 4.94457C13.3126 4.90579 13.4212 4.88833 13.5221 4.88833C14.6565 4.88349 15.7919 4.88252 16.9263 4.88543C17.3626 4.88543 17.6564 5.186 17.6564 5.62717C17.6574 6.74997 17.6574 7.87276 17.6564 8.99556C17.6564 9.44061 17.3588 9.74797 16.938 9.74894C16.5104 9.74894 16.2069 9.43576 16.2049 8.98489C16.203 8.53306 16.2049 8.0822 16.2049 7.63036C16.2049 7.57122 16.2049 7.5111 16.2049 7.45196C16.1885 7.44517 16.172 7.43838 16.1545 7.43063L16.1535 7.42966Z" fill="url(#paint1_linear_251_5380)"/>
<path id="Vector_3" d="M7.84716 15.8082C8.36493 15.8082 8.88269 15.8053 9.40046 15.8082C9.84745 15.8111 10.1587 16.1398 10.1422 16.582C10.1286 16.9436 9.83775 17.2539 9.47609 17.2558C8.30481 17.2636 7.13353 17.2646 5.96226 17.2578C5.57829 17.2558 5.28257 16.9504 5.28063 16.5626C5.27578 15.4097 5.27675 14.2569 5.28063 13.103C5.28257 12.6987 5.5909 12.3991 5.9894 12.3952C6.39664 12.3914 6.72048 12.689 6.72824 13.0963C6.73794 13.5723 6.73115 14.0484 6.73212 14.5245C6.73212 14.5827 6.73794 14.6399 6.74278 14.7475C6.82714 14.6689 6.8795 14.6234 6.92798 14.5749C7.78704 13.7168 8.64611 12.8587 9.50421 11.9987C9.72818 11.7747 9.98998 11.6991 10.2906 11.7941C10.755 11.9415 10.9344 12.5271 10.6377 12.9179C10.5717 13.0051 10.4903 13.0807 10.4127 13.1583C9.59341 13.9786 8.77313 14.7979 7.95381 15.6182C7.90824 15.6638 7.86655 15.7113 7.82195 15.7578C7.82971 15.7733 7.83843 15.7898 7.84619 15.8053L7.84716 15.8082Z" fill="url(#paint2_linear_251_5380)"/>
</g>
<defs>
<linearGradient id="paint0_linear_251_5380" x1="11.4664" y1="0.605469" x2="11.4664" y2="21.5454" gradientUnits="userSpaceOnUse">
<stop stop-color="#0A3E89"/>
<stop offset="1" stop-color="#1D73AC"/>
</linearGradient>
<linearGradient id="paint1_linear_251_5380" x1="14.9047" y1="4.88379" x2="14.9047" y2="10.3899" gradientUnits="userSpaceOnUse">
<stop stop-color="#0A3E89"/>
<stop offset="1" stop-color="#1D73AC"/>
</linearGradient>
<linearGradient id="paint2_linear_251_5380" x1="8.03005" y1="11.7539" x2="8.03005" y2="17.2623" gradientUnits="userSpaceOnUse">
<stop stop-color="#0A3E89"/>
<stop offset="1" stop-color="#1D73AC"/>
</linearGradient>
</defs>
</svg>
