<svg width="248" height="50" viewBox="0 0 248 50" fill="none" xmlns="http://www.w3.org/2000/svg">
<path d="M28.1824 0.943614C28.3906 0.923961 28.514 0.902344 28.6374 0.902344C30.8794 0.902344 33.1213 0.902344 35.3633 0.914135C37.9465 0.927892 40.5277 0.95737 43.1109 0.969162C47.1226 0.988814 51.1361 1.00257 55.1478 1.01436C55.6027 1.01436 56.0557 0.984884 56.5107 0.971127C58.0567 0.921996 59.5932 1.02419 61.1276 1.21482C62.0317 1.32683 62.9204 1.51746 63.813 1.68451C64.3219 1.77884 64.8231 1.93213 65.3205 2.08148C66.6429 2.48043 67.9403 2.94815 69.1972 3.53576C70.4811 4.13712 71.7052 4.83871 72.8715 5.64839C74.2286 6.58973 75.4566 7.6824 76.5573 8.91461C77.8566 10.3708 78.9535 11.9725 79.7959 13.7412C80.1333 14.4487 80.461 15.1641 80.7463 15.8951C81.103 16.809 81.396 17.7464 81.6369 18.7015C81.9377 19.8944 82.1806 21.0991 82.3348 22.3195C82.5044 23.6539 82.6586 24.9922 82.5661 26.3403C82.489 27.4369 82.3695 28.5296 82.1459 29.6066C81.9724 30.4398 81.7873 31.2731 81.5656 32.0946C81.3054 33.0595 80.9699 33.9989 80.5921 34.9265C80.1294 36.0663 79.5935 37.1688 78.967 38.2241C77.4422 40.7907 75.4894 42.9584 73.0469 44.6603C71.6261 45.6507 70.1032 46.4427 68.4839 47.0559C67.2174 47.5354 65.9181 47.899 64.5995 48.1662C63.6318 48.3628 62.6583 48.5593 61.6636 48.6124C60.8693 48.6556 60.0789 48.7539 59.2847 48.8108C58.718 48.8501 58.1493 48.8816 57.5825 48.8816C50.1106 48.8934 42.6367 48.8993 35.1647 48.9071C28.4889 48.915 21.8112 48.9229 15.1354 48.9307C14.6323 48.9307 14.1292 48.9347 13.6241 48.9347C13.5123 48.9347 13.4024 48.915 13.2578 48.9012C13.2829 48.803 13.2887 48.7244 13.3214 48.6576C13.9981 47.3133 14.6766 45.9691 15.3533 44.6249C15.9046 43.5303 16.4521 42.4317 17.0034 41.3371C17.1499 41.0462 17.308 40.7612 17.4719 40.4488C17.6839 40.4409 17.8921 40.4272 18.1003 40.4272C20.2112 40.4272 22.324 40.4311 24.4349 40.435C27.7815 40.4409 31.128 40.4448 34.4746 40.4507C41.1832 40.4606 47.8937 40.4724 54.6022 40.4782C55.5603 40.4782 56.5203 40.4979 57.4765 40.4448C58.7719 40.3721 60.0654 40.2542 61.3493 40.0243C62.213 39.869 63.067 39.6686 63.9171 39.4544C64.9176 39.2028 65.8391 38.7528 66.7123 38.2045C67.8208 37.5068 68.8097 36.6637 69.6618 35.6615C70.6199 34.5334 71.3987 33.2973 71.9577 31.9157C72.3895 30.8486 72.7365 29.754 72.9332 28.6239C73.1549 27.3485 73.2898 26.0613 73.2532 24.7583C73.2243 23.7246 73.1317 22.6968 73.0315 21.669C72.9524 20.8672 72.8233 20.0771 72.6209 19.2969C72.5919 19.1869 72.5727 19.0709 72.5322 18.9648C72.2951 18.3202 72.0792 17.6658 71.8054 17.0369C71.2792 15.8303 70.591 14.7238 69.7119 13.7393C68.6979 12.6034 67.4931 11.7386 66.1263 11.0823C64.8077 10.4475 63.4139 10.0957 61.9893 9.82648C60.9619 9.63192 59.9305 9.5651 58.8895 9.56117C53.5458 9.54348 48.2002 9.52579 42.8564 9.51007C42.6482 9.51007 42.4362 9.47666 42.201 9.571C42.2241 9.68105 42.2261 9.797 42.2704 9.89329C42.4054 10.19 42.5519 10.4829 42.7022 10.7737C43.5389 12.3852 44.3813 13.9928 45.2179 15.6043C45.6459 16.4316 46.0604 17.2669 46.4864 18.0962C46.8758 18.8528 47.2748 19.6016 47.6662 20.3562C48.1481 21.2858 48.6243 22.2173 49.1062 23.1468C49.565 24.0332 50.0315 24.9156 50.4884 25.8019C51.0282 26.8474 51.5622 27.8988 52.1019 28.9443C52.6937 30.092 53.2933 31.2377 53.887 32.3874C54.3227 33.2305 54.7526 34.0755 55.1863 34.9166C55.4716 35.4689 55.7627 36.0172 56.0461 36.5694C56.1251 36.7246 56.2331 36.872 56.262 37.0745C56.1868 37.1 56.129 37.1315 56.0692 37.1354C55.9555 37.1452 55.8418 37.1432 55.728 37.1432C52.9656 37.1432 50.205 37.1432 47.4426 37.1432C47.2826 37.1432 47.1226 37.1315 46.9664 37.1256C46.6464 36.6814 46.4421 36.198 46.1992 35.7361C45.5765 34.5491 44.9596 33.3562 44.3447 32.1633C43.6545 30.827 42.9721 29.4867 42.2801 28.1503C41.3393 26.3344 40.3909 24.5245 39.4482 22.7086C38.5132 20.9084 37.586 19.1063 36.651 17.3081C35.9204 15.8991 35.1802 14.4959 34.4495 13.0888C33.9156 12.059 33.3931 11.0213 32.8591 9.99156C31.9917 8.32111 31.1184 6.65655 30.249 4.9861C29.8422 4.20197 29.4432 3.41391 29.0403 2.62979C28.861 2.28194 28.6721 1.93606 28.4928 1.58821C28.3964 1.40151 28.3097 1.20696 28.1805 0.937718L28.1824 0.943614Z" fill="#1027C3"/>
<path d="M0.35092 48.9479C0.35092 48.9008 0.33357 48.8438 0.352848 48.8064C8.45517 32.9313 16.5575 17.0561 24.6656 1.18487C24.6772 1.16326 24.7215 1.16129 24.7851 1.13574C30.8055 13.0529 36.822 24.976 42.8134 36.8657C42.7459 37.0229 42.6573 37.015 42.5802 37.019C42.451 37.0268 42.3199 37.0249 42.1908 37.0249C39.4938 37.0249 36.7969 37.0249 34.1019 37.0249C33.9246 37.0249 33.7472 37.0249 33.5525 37.0249C33.4619 36.8912 33.3675 36.7792 33.3019 36.6515C32.2841 34.6725 31.2701 32.6935 30.2561 30.7125C29.5929 29.4174 28.9394 28.1165 28.2763 26.8233C27.6787 25.6599 27.0714 24.5004 26.4738 23.337C25.936 22.2895 25.4059 21.2401 24.8719 20.1907C24.843 20.1337 24.8044 20.0826 24.7813 20.0452C24.627 20.0059 24.5846 20.1022 24.5422 20.1887C23.8694 21.5172 23.2005 22.8457 22.5277 24.1742C22.0843 25.0487 21.6294 25.9174 21.1841 26.7919C20.7561 27.6369 20.3378 28.4879 19.9098 29.3329C19.2351 30.6595 18.5546 31.984 17.8799 33.3106C17.1686 34.7098 16.4611 36.111 15.7498 37.5103C14.8958 39.1847 14.036 40.8571 13.182 42.5315C12.781 43.3176 12.3916 44.1095 11.9907 44.8976C11.6051 45.6562 11.2176 46.4148 10.8302 47.1733C10.5873 47.6489 10.327 48.5765 9.88556 48.9047C9.50387 49.1995 8.07926 48.9794 7.60311 48.9814C6.57562 48.9892 5.55006 48.9912 4.52257 48.9892C4.26618 48.9892 0.358631 48.9951 0.356703 48.944L0.35092 48.9479Z" fill="#EF1C23"/>
<path d="M121.322 13.7993C121.25 13.9094 121.206 13.9467 121.2 13.99C121.187 14.1098 121.185 14.2317 121.183 14.3535C121.175 16.0554 121.163 17.7573 121.16 19.4572C121.156 21.2633 121.065 23.0654 120.984 24.8695C120.969 25.2154 120.951 25.5613 120.934 25.9288C120.82 25.9523 120.726 25.9877 120.629 25.9877C119.22 25.9916 117.809 25.9897 116.4 25.9877C116.333 25.9877 116.267 25.97 116.213 25.9641C116.08 25.8384 116.128 25.691 116.136 25.5593C116.215 24.0854 116.3 22.6134 116.385 21.1395C116.437 20.2394 116.493 19.3374 116.547 18.4373C116.666 16.4111 116.787 14.383 116.905 12.3569C116.998 10.7454 117.082 9.13387 117.175 7.52041C117.239 6.4297 117.312 5.33703 117.385 4.24633C117.391 4.1461 117.429 4.04784 117.453 3.94565C117.534 3.92599 117.599 3.89651 117.665 3.89651C119.006 3.89258 120.346 3.89062 121.688 3.89258C121.771 3.89258 121.856 3.9201 121.963 3.93778C122.143 4.38389 122.324 4.83393 122.501 5.28201C122.839 6.13492 123.176 6.98979 123.513 7.84467C123.997 9.06901 124.481 10.2934 124.967 11.5177C125.285 12.3234 125.603 13.1292 125.925 13.933C126.544 15.4757 127.168 17.0184 127.697 18.5965C127.866 19.1055 128.017 19.6223 128.18 20.1333C128.211 20.2296 128.26 20.32 128.319 20.4615C128.398 20.3652 128.47 20.3141 128.493 20.2473C128.653 19.7717 128.79 19.2863 128.961 18.8146C129.32 17.8202 129.686 16.8297 130.064 15.8432C130.509 14.6778 130.968 13.5183 131.427 12.3588C131.764 11.5039 132.113 10.655 132.45 9.80205C132.942 8.56198 133.428 7.31995 133.919 6.08186C134.201 5.37437 134.488 4.67082 134.781 3.94565C134.904 3.92599 135.018 3.89455 135.134 3.89455C136.371 3.89062 137.609 3.89062 138.849 3.89455C138.966 3.89455 139.082 3.92403 139.18 3.93778C139.307 4.11269 139.288 4.29153 139.298 4.4625C139.375 5.88337 139.446 7.30423 139.527 8.7251C139.664 11.1345 139.807 13.5419 139.947 15.9513C140.048 17.6846 140.144 19.416 140.25 21.1493C140.335 22.5348 140.431 23.9203 140.52 25.3058C140.533 25.5102 140.562 25.7185 140.503 25.9464C140.418 25.9622 140.337 25.9897 140.256 25.9897C138.795 25.9916 137.333 25.9897 135.872 25.9897C135.805 25.9897 135.739 25.972 135.643 25.9602C135.618 25.86 135.585 25.7656 135.571 25.6694C135.554 25.5318 135.55 25.3923 135.544 25.2547C135.413 22.0985 135.307 18.9404 135.338 15.7803C135.344 15.2595 135.356 14.7387 135.361 14.2179C135.361 14.1039 135.384 13.9742 135.24 13.874C134.966 14.3516 134.85 14.8802 134.648 15.3696C134.438 15.8825 134.253 16.4052 134.05 16.9221C133.854 17.4213 133.649 17.9185 133.447 18.4157C133.237 18.9286 133.029 19.4415 132.817 19.9544C132.61 20.4497 132.404 20.9449 132.196 21.4402C131.988 21.9354 131.778 22.4287 131.571 22.9239C131.357 23.4349 131.149 23.9478 130.933 24.4588C130.725 24.952 130.511 25.4453 130.295 25.9484C129.846 26.0447 129.399 25.9818 128.957 25.9936C128.51 26.0054 128.063 26.0015 127.616 25.9936C127.17 25.9858 126.723 26.029 126.253 25.9602C125.682 24.6258 125.115 23.2855 124.537 21.9511C123.959 20.6167 123.396 19.2745 122.877 17.9145C122.363 16.5625 121.859 15.2064 121.322 13.8013V13.7993Z" fill="#0C26B7"/>
<path d="M242.275 17.5428C242.357 16.7764 242.219 16.1436 242.207 15.5049C242.195 14.8623 242.132 14.2216 242.109 13.5809C242.086 12.9383 242.082 12.2976 242.072 11.655C242.062 11.03 242.055 10.4051 242.047 9.78016C242.037 9.13753 242.026 8.49489 242.018 7.85423C242.01 7.2116 242.007 6.56896 242.005 5.92633C242.003 5.28566 242.005 4.645 242.005 4.02595C242.161 3.85104 242.344 3.89231 242.51 3.89231C243.335 3.88838 244.16 3.89035 244.985 3.89035C245.534 3.89035 246.086 3.89035 246.635 3.89035C246.805 3.89035 246.976 3.90214 247.165 3.91C247.192 4.02791 247.225 4.12421 247.233 4.22247C247.244 4.36004 247.237 4.49957 247.237 4.6391C247.237 11.5155 247.237 18.3899 247.237 25.2662C247.237 25.4883 247.26 25.7123 247.215 25.8813C247.163 25.9383 247.154 25.956 247.14 25.9639C247.127 25.9717 247.107 25.9757 247.09 25.9757C245.783 25.9816 244.478 25.9875 243.171 25.9934C243.034 25.9934 242.897 25.9934 242.733 25.9934C241.999 24.8771 241.266 23.7667 240.536 22.6544C239.795 21.5264 239.059 20.3964 238.321 19.2683C237.592 18.154 236.85 17.0476 236.133 15.9274C235.418 14.8131 234.764 13.6576 234.06 12.5472C233.891 12.6101 233.92 12.7103 233.924 12.787C233.976 13.6183 234.041 14.4496 234.085 15.2809C234.128 16.1298 234.164 16.9808 234.176 17.8298C234.213 20.4337 234.234 23.0376 234.261 25.6416C234.261 25.7261 234.244 25.8125 234.232 25.9226C234.134 25.9462 234.039 25.9875 233.943 25.9875C232.395 25.9914 230.849 25.9914 229.301 25.9875C229.22 25.9875 229.137 25.9658 229.058 25.954C229.035 25.8794 229.008 25.8322 229.008 25.785C229.004 18.5805 229.004 11.374 229.004 4.16941C229.004 4.10259 229.027 4.03774 229.042 3.95127C229.133 3.93162 229.214 3.9041 229.295 3.89821C229.866 3.85497 232.981 3.89035 233.347 3.94537C233.555 4.25195 233.779 4.57818 233.999 4.90834C234.751 6.02852 235.5 7.15067 236.248 8.27282C237.206 9.71138 238.157 11.1578 239.123 12.5924C240.139 14.0997 241.075 15.6542 242.018 17.2068C242.07 17.2913 242.138 17.366 242.275 17.5448V17.5428Z" fill="#0C26B7"/>
<path d="M172.764 15.7556C172.807 15.7929 172.851 15.8479 172.907 15.8833C173.782 16.4434 174.437 17.2177 175.004 18.0765C175.654 19.0611 176.174 20.1184 176.647 21.1993C177.283 22.6594 177.904 24.1275 178.528 25.5935C178.573 25.6997 178.59 25.8156 178.619 25.9316C178.181 26.0082 173.493 26.0121 172.99 25.9355C172.782 25.4697 172.558 24.9843 172.346 24.493C171.642 22.8737 170.954 21.2464 170.237 19.633C169.942 18.9687 169.605 18.3202 169.157 17.7424C168.988 17.5243 168.808 17.312 168.604 17.1293C168.066 16.6458 167.422 16.5377 166.734 16.6301C166.595 16.7873 166.642 16.9701 166.642 17.1371C166.638 18.1964 166.64 19.2557 166.64 20.3149C166.64 21.9991 166.64 23.6833 166.64 25.3675C166.64 25.5542 166.626 25.7409 166.619 25.9414C166.524 25.961 166.459 25.9866 166.395 25.9866C164.745 25.9886 163.097 25.9866 161.423 25.9866C161.392 25.8706 161.356 25.7783 161.346 25.682C161.333 25.5444 161.342 25.4049 161.342 25.2653C161.342 18.389 161.342 11.5126 161.342 4.63628C161.342 4.4142 161.313 4.18624 161.379 3.99168C161.527 3.84429 161.687 3.87573 161.838 3.87376C162.68 3.86001 163.523 3.84625 164.365 3.84232C165.774 3.83446 167.185 3.84232 168.594 3.82856C169.72 3.81874 170.825 3.97399 171.906 4.27074C172.787 4.51247 173.616 4.88586 174.349 5.46364C175.374 6.27135 175.98 7.33258 176.226 8.60015C176.4 9.49041 176.41 10.3944 176.273 11.2965C176.066 12.6426 175.432 13.7412 174.405 14.6118C173.996 14.9597 173.551 15.2525 173.069 15.4903C172.953 15.5473 172.795 15.5689 172.764 15.7615V15.7556ZM166.696 7.34437C166.615 7.8062 166.586 10.7835 166.64 12.8667C166.644 12.9846 166.667 13.1005 166.678 13.1968C166.734 13.2322 166.763 13.2617 166.792 13.2637C166.979 13.2774 167.168 13.2892 167.355 13.2912C167.887 13.2951 168.415 13.2971 168.938 13.1477C169.93 12.8647 170.503 12.2024 170.725 11.2061C170.871 10.5516 170.838 9.89525 170.7 9.24672C170.607 8.8183 170.407 8.43507 170.108 8.11081C169.707 7.67453 169.206 7.41315 168.625 7.3542C168.08 7.29917 167.53 7.29917 166.981 7.28541C166.883 7.28345 166.784 7.32472 166.696 7.34633V7.34437Z" fill="#0C26B7"/>
<path d="M98.5786 25.9877C96.9053 25.9877 95.2725 25.9877 93.6397 25.9877C93.5761 25.9877 93.5125 25.9622 93.4219 25.9445C93.445 25.8266 93.4527 25.7244 93.4855 25.632C93.7689 24.8695 94.06 24.109 94.3453 23.3464C94.9467 21.7408 95.5482 20.1353 96.1516 18.5297C96.4619 17.7023 96.7762 16.8769 97.0865 16.0495C97.6128 14.6562 98.1352 13.2609 98.6634 11.8675C99.1357 10.6196 99.6138 9.37559 100.082 8.1257C100.528 6.94263 100.961 5.75366 101.403 4.56862C101.482 4.35834 101.572 4.15593 101.661 3.94172C101.783 3.92206 101.881 3.89455 101.981 3.89455C103.34 3.89062 104.697 3.89062 106.056 3.89455C106.159 3.89455 106.259 3.91617 106.396 3.93189C106.959 5.37634 107.462 6.85026 108.003 8.30847C108.545 9.7706 109.067 11.2406 109.6 12.7047C110.137 14.1865 110.677 15.6683 111.215 17.1501C111.747 18.6161 112.285 20.0783 112.807 21.5483C113.328 23.0124 113.883 24.4627 114.386 25.9464C113.947 26.0054 109.75 26.0192 109.094 25.9681C108.761 25.1328 108.543 24.2426 108.267 23.374C107.988 22.5014 107.747 21.6151 107.466 20.7877C107.255 20.6266 107.059 20.6737 106.876 20.6737C105.466 20.6698 104.055 20.6718 102.646 20.6718C102.079 20.6718 101.511 20.6718 100.944 20.6718C100.824 20.6718 100.703 20.6777 100.583 20.6718C100.381 20.6659 100.265 20.7622 100.206 20.9528C100.042 21.4834 99.8702 22.0101 99.7044 22.5387C99.3863 23.5469 99.0702 24.5551 98.7521 25.5632C98.7116 25.6929 98.6519 25.8187 98.5825 25.9917L98.5786 25.9877ZM106.17 16.6961C106.174 16.6175 106.191 16.5625 106.178 16.5153C105.463 14.2533 104.744 11.9933 104.023 9.73523C104.003 9.67234 103.953 9.61928 103.915 9.56425C103.907 9.55443 103.886 9.55443 103.863 9.54657C103.834 9.5839 103.789 9.61928 103.774 9.66644C103.041 11.9756 102.313 14.2867 101.586 16.5978C101.578 16.6253 101.603 16.6627 101.613 16.6941C102.008 16.7668 105.65 16.7747 106.17 16.6961Z" fill="#0C26B7"/>
<path d="M227.026 25.9897C225.208 25.9936 223.475 25.9897 221.715 25.9897C221.667 25.8678 221.619 25.7617 221.584 25.6517C221.152 24.2426 220.734 22.8316 220.291 21.4264C220.019 20.5656 220.158 20.6678 219.281 20.6659C217.372 20.6619 215.464 20.6639 213.555 20.6659C213.351 20.6659 213.143 20.6384 212.907 20.7307C212.576 21.5659 212.364 22.4601 212.063 23.3248C211.762 24.1915 211.544 25.0837 211.205 25.972C210.635 26.0093 210.07 25.9858 209.507 25.9897C208.923 25.9936 208.339 25.9897 207.753 25.9897C207.167 25.9897 206.621 25.9897 206.02 25.9897C206.041 25.8659 206.041 25.7814 206.07 25.7087C206.367 24.9127 206.667 24.1188 206.966 23.3248C207.454 22.0278 207.938 20.7288 208.427 19.4337C208.892 18.2015 209.36 16.9712 209.823 15.739C210.426 14.1334 211.026 12.5278 211.627 10.9222C212.053 9.78632 212.481 8.65238 212.907 7.51844C213.285 6.51421 213.663 5.50801 214.041 4.50377C214.108 4.32494 214.185 4.152 214.266 3.95154C214.376 3.93189 214.492 3.89455 214.606 3.89455C215.963 3.89062 217.322 3.89062 218.679 3.89455C218.781 3.89455 218.881 3.91617 219.016 3.92992C220.358 7.58526 221.675 11.2485 223.009 14.9077C224.343 18.567 225.661 22.2302 227.024 25.9917L227.026 25.9897ZM218.806 16.6922C218.779 16.5408 218.774 16.419 218.737 16.307C218.56 15.7646 218.371 15.2241 218.195 14.6817C217.856 13.6284 217.52 12.5711 217.185 11.5157C216.996 10.9222 216.815 10.3268 216.628 9.73326C216.601 9.64876 216.566 9.56818 216.424 9.60749C216.395 9.6861 216.354 9.78043 216.325 9.87673C216.096 10.6215 215.872 11.3683 215.639 12.1112C215.329 13.1017 215.012 14.0902 214.692 15.0787C214.548 15.5228 214.388 15.9631 214.243 16.4072C214.214 16.4976 214.22 16.6018 214.211 16.6961C214.664 16.7708 218.303 16.7727 218.808 16.6941L218.806 16.6922Z" fill="#0C26B7"/>
<path d="M144.365 3.95554C144.86 3.86711 155.923 3.82191 157.811 3.89462C157.926 3.89855 158.042 3.92606 158.179 3.94375C158.2 4.08132 158.229 4.19727 158.235 4.31518C158.287 5.4845 158.254 7.29448 158.171 7.717C158.086 7.73665 157.99 7.77203 157.892 7.77793C157.72 7.78972 157.549 7.78382 157.377 7.78382C155.021 7.78382 152.668 7.78382 150.312 7.78579C150.094 7.78579 149.863 7.73076 149.666 7.87422C149.597 8.31443 149.599 12.129 149.666 12.5554C149.832 12.6792 150.026 12.6419 150.212 12.6419C151.156 12.6458 152.103 12.6438 153.047 12.6438C154.079 12.6438 155.11 12.6419 156.141 12.6458C156.326 12.6458 156.519 12.6085 156.698 12.7205C156.708 12.7696 156.733 12.8207 156.727 12.8659C156.577 14.0333 156.375 15.1928 156.17 16.3542C155.958 16.4623 155.75 16.4289 155.549 16.4289C153.83 16.4309 152.112 16.4289 150.393 16.4289C150.239 16.4289 150.082 16.4269 149.928 16.4348C149.845 16.4407 149.764 16.4682 149.664 16.4898C149.647 16.6018 149.618 16.7001 149.618 16.8003C149.616 18.4315 149.616 20.0646 149.618 21.6957C149.618 21.7959 149.635 21.8981 149.647 22.0259C149.778 22.0436 149.893 22.0711 150.007 22.073C150.591 22.077 151.175 22.075 151.761 22.075C153.859 22.075 155.956 22.075 158.054 22.075H158.636C158.661 22.187 158.694 22.2676 158.694 22.3482C158.697 23.4762 158.696 24.6043 158.694 25.7323C158.694 25.7972 158.672 25.864 158.663 25.9288C158.597 25.9505 158.551 25.9819 158.503 25.9819C153.861 25.9858 149.221 25.9878 144.579 25.9878C144.513 25.9878 144.45 25.9622 144.388 25.9505C144.365 25.8876 144.33 25.8384 144.33 25.7913C144.326 18.5867 144.324 11.3841 144.324 4.17958C144.324 4.11276 144.349 4.04594 144.367 3.95554H144.365Z" fill="#0C26B7"/>
<path d="M205.461 6.25377C205.177 6.62913 203.08 8.7791 202.625 9.16035C202.532 9.07585 202.428 8.99331 202.342 8.89504C201.815 8.30547 201.212 7.8181 200.46 7.57048C199.178 7.14795 197.979 7.28748 196.94 8.219C196.443 8.66511 196.127 9.24486 195.876 9.85998C195.49 10.7994 195.33 11.7918 195.219 12.7941C195.118 13.6922 195.107 14.5942 195.122 15.4982C195.141 16.5595 195.257 17.6109 195.481 18.6485C195.627 19.3285 195.868 19.979 196.227 20.5803C196.865 21.6455 197.781 22.2606 199.014 22.3982C199.915 22.4984 200.797 22.406 201.675 22.2095C202.261 22.0778 202.841 21.9206 203.402 21.6986C203.527 21.6494 203.662 21.6278 203.787 21.5964C204.046 22.1093 204.855 24.6484 204.915 25.1436C204.564 25.3401 204.173 25.4561 203.782 25.5701C202.721 25.8786 201.64 26.0633 200.539 26.1459C198.989 26.2618 197.445 26.2441 195.926 25.8766C194.621 25.5602 193.433 25.0021 192.423 24.0902C191.496 23.2511 190.843 22.2252 190.37 21.0716C189.994 20.1519 189.751 19.1909 189.622 18.2103C189.514 17.4045 189.476 16.585 189.445 15.7714C189.403 14.6945 189.447 13.6175 189.597 12.5504C189.692 11.8822 189.831 11.216 190.012 10.5655C190.339 9.39028 190.819 8.27993 191.523 7.27569C192.547 5.81749 193.885 4.77788 195.56 4.18241C197.355 3.54371 199.196 3.47296 201.054 3.74416C202.654 3.97803 204.017 4.70516 205.141 5.88234C205.247 5.99436 205.341 6.1162 205.461 6.25573V6.25377Z" fill="#0C26B7"/>
<path d="M180.788 3.94841C181.278 3.86194 183.416 3.83639 185.563 3.88749C185.698 3.89142 185.831 3.91304 185.985 3.92876C186.003 4.04864 186.026 4.1469 186.032 4.24516C186.039 4.36701 186.034 4.48885 186.034 4.60873C186.034 11.4969 186.034 18.385 186.034 25.2732C186.034 25.4795 186.034 25.6859 186.034 25.9158C185.914 25.9433 185.818 25.9826 185.723 25.9826C184.16 25.9866 182.596 25.9846 181.033 25.9826C180.965 25.9826 180.898 25.9669 180.805 25.9571C180.782 25.8608 180.748 25.7665 180.74 25.6682C180.728 25.5306 180.736 25.3911 180.736 25.2516C180.736 18.3811 180.736 11.5106 180.736 4.64018C180.736 4.4181 180.705 4.19014 180.788 3.94645V3.94841Z" fill="#0C26B7"/>
<path d="M93.5348 47.4461C93.5251 47.3911 93.5039 47.3243 93.5039 47.2574C93.5039 41.8019 93.5039 36.3464 93.5039 30.9224C93.635 30.7632 93.7815 30.7966 93.9126 30.7947C95.237 30.7789 96.5613 30.773 97.8857 30.7495C98.5912 30.7377 99.2949 30.7436 100 30.7868C101.099 30.8556 102.138 31.1464 103.112 31.6476C104.413 32.3177 105.352 33.3534 105.98 34.6799C106.354 35.47 106.607 36.3012 106.734 37.162C106.884 38.1761 106.933 39.2019 106.863 40.2278C106.802 41.1318 106.665 42.0201 106.375 42.8828C105.809 44.567 104.802 45.868 103.202 46.6757C102.393 47.0845 101.541 47.3262 100.648 47.45C99.8616 47.5601 99.0732 47.5778 98.2789 47.5679C96.8852 47.5483 95.4914 47.5444 94.0977 47.5306C93.9126 47.5306 93.7179 47.5778 93.5328 47.4422L93.5348 47.4461ZM97.5271 44.6673C97.6081 44.6948 97.6871 44.7439 97.7662 44.7439C98.2809 44.7439 98.7956 44.7439 99.3103 44.7203C99.5474 44.7105 99.7922 44.6751 100.02 44.6063C101.007 44.3115 101.672 43.6591 102.071 42.704C102.431 41.8393 102.526 40.9254 102.578 40.0077C102.638 38.9818 102.568 37.9599 102.383 36.9498C102.25 36.2285 102.019 35.5368 101.593 34.9315C101.117 34.2535 100.484 33.8133 99.6631 33.6521C98.9961 33.5204 98.3291 33.5617 97.6601 33.5971C97.6158 33.5991 97.5734 33.6443 97.5233 33.6737C97.5117 33.7425 97.4886 33.8093 97.4886 33.8761C97.4886 37.3998 97.4886 40.9235 97.4886 44.4491C97.4886 44.5159 97.5117 44.5847 97.5271 44.6653V44.6673Z" fill="#0C26B7"/>
<path d="M220.389 39.2553C220.399 39.9176 220.352 40.8353 220.144 41.7393C219.928 42.6748 219.633 43.5768 219.132 44.4022C218.563 45.3377 217.825 46.0904 216.882 46.6504C216.034 47.1536 215.115 47.411 214.157 47.5604C212.846 47.7647 211.546 47.6861 210.261 47.3756C208.649 46.9865 207.371 46.112 206.509 44.6616C206.072 43.9247 205.779 43.1268 205.613 42.2857C205.401 41.2087 205.281 40.12 205.326 39.0214C205.378 37.7145 205.545 36.4214 206.01 35.1912C206.505 33.8823 207.263 32.7621 208.408 31.9367C209.162 31.3943 209.993 31.0249 210.893 30.8264C211.685 30.6515 212.489 30.5611 213.303 30.5964C214.426 30.6436 215.525 30.7989 216.566 31.2745C217.652 31.7697 218.498 32.5243 219.13 33.5364C219.747 34.525 220.054 35.6235 220.25 36.7614C220.379 37.5023 220.385 38.2491 220.389 39.2572V39.2553ZM216.113 39.2297C216.094 38.8131 216.071 38.3807 216.052 37.9464C216.017 37.1603 215.884 36.3939 215.631 35.651C215.421 35.032 215.103 34.4778 214.598 34.0612C214.012 33.5777 213.314 33.4225 212.57 33.45C211.718 33.4814 211.057 33.8548 210.581 34.5682C210.251 35.0634 210.031 35.6117 209.914 36.1934C209.532 38.0683 209.511 39.947 209.871 41.8317C209.968 42.3328 210.135 42.8025 210.359 43.2526C210.662 43.8618 211.124 44.3236 211.755 44.585C212.221 44.7795 212.717 44.8326 213.22 44.811C214.139 44.7717 214.802 44.3256 215.28 43.5454C215.566 43.0796 215.716 42.5667 215.847 42.0459C216.077 41.1281 216.067 40.1868 216.113 39.2337V39.2297Z" fill="#0C26B7"/>
<path d="M171.915 38.777C172.129 38.8713 172.248 38.9342 172.373 38.9774C172.911 39.1681 173.418 39.4137 173.887 39.7517C175.113 40.6322 175.591 41.8427 175.454 43.3245C175.412 43.7726 175.333 44.2168 175.151 44.6373C174.762 45.5394 174.107 46.1722 173.251 46.6104C172.219 47.1391 171.111 47.3906 169.97 47.4319C168.456 47.4849 166.941 47.4692 165.428 47.479C165.05 47.481 164.67 47.4731 164.292 47.4673C164.121 47.4653 163.951 47.4574 163.758 47.4515C163.729 47.3395 163.693 47.2452 163.683 47.1469C163.67 47.027 163.679 46.9032 163.679 46.7814C163.679 41.6718 163.679 36.5602 163.681 31.4506C163.681 31.2482 163.631 31.034 163.762 30.8256C163.857 30.8158 163.957 30.7962 164.057 30.7962C165.727 30.7804 167.396 30.7608 169.065 30.7569C170.174 30.7549 171.261 30.8984 172.304 31.3091C173.139 31.6392 173.868 32.1129 174.376 32.8754C174.747 33.4335 174.968 34.0467 174.995 34.7266C175.018 35.3221 174.978 35.9038 174.725 36.458C174.39 37.1969 173.848 37.7393 173.17 38.1481C172.906 38.3073 172.616 38.4252 172.339 38.5608C172.233 38.6139 172.125 38.6669 171.917 38.7711L171.915 38.777ZM167.722 40.3767C167.697 40.5162 167.668 40.6007 167.668 40.6833C167.666 41.9666 167.664 43.2518 167.67 44.5351C167.67 44.6314 167.72 44.7277 167.747 44.826C168.177 44.9065 168.589 44.8515 168.998 44.8692C169.401 44.8869 169.788 44.7965 170.157 44.657C170.608 44.486 170.939 44.1657 171.105 43.692C171.36 42.9708 171.327 42.2515 171.034 41.5578C170.833 41.0822 170.48 40.7324 169.989 40.5359C169.26 40.243 168.518 40.2568 167.722 40.3747V40.3767ZM167.716 37.7806C168.221 37.8337 168.684 37.8199 169.145 37.7865C169.898 37.7315 170.465 37.2579 170.681 36.5288C170.833 36.0178 170.839 35.5009 170.754 34.9821C170.702 34.6559 170.602 34.3434 170.392 34.0742C170.022 33.6006 169.509 33.4296 168.946 33.3863C168.622 33.3608 168.292 33.3785 167.967 33.3863C167.888 33.3863 167.809 33.4276 167.726 33.4492C167.703 33.5377 167.672 33.6025 167.672 33.6674C167.668 34.9349 167.666 36.2025 167.666 37.4681C167.666 37.5507 167.691 37.6352 167.714 37.7786L167.716 37.7806Z" fill="#0C26B7"/>
<path d="M235.954 47.432C235.842 47.4536 235.761 47.4772 235.68 47.4831C234.905 47.5263 232.125 47.4929 231.724 47.4359C231.593 47.1608 231.443 46.868 231.313 46.5692C230.895 45.5984 230.494 44.6197 230.068 43.6509C229.796 43.0318 229.511 42.4187 229.203 41.8173C229.014 41.4478 228.773 41.1059 228.458 40.8249C228.048 40.4593 227.572 40.3257 227.011 40.3945C226.984 40.5104 226.945 40.6067 226.941 40.705C226.932 40.9487 226.936 41.1924 226.936 41.4341C226.936 43.2421 226.936 45.0501 226.936 46.8581C226.936 47.0468 226.966 47.2394 226.87 47.432C226.804 47.4497 226.741 47.4791 226.675 47.4791C225.523 47.4811 224.368 47.4811 223.215 47.4791C223.149 47.4791 223.086 47.4516 222.995 47.43C222.982 47.3219 222.964 47.2237 222.959 47.1234C222.953 47.0193 222.957 46.9151 222.957 46.811C222.957 41.6994 222.957 36.5878 222.957 31.4762C222.957 31.2719 222.934 31.0616 223.005 30.8336C223.109 30.8199 223.207 30.7982 223.306 30.7982C224.888 30.7805 226.473 30.7589 228.056 30.753C228.744 30.7511 229.432 30.7766 230.113 30.9004C230.862 31.036 231.583 31.264 232.248 31.6433C232.989 32.0678 233.55 32.6672 233.887 33.4611C234.12 34.0075 234.236 34.5872 234.269 35.1827C234.307 35.8843 234.219 36.5721 233.974 37.2324C233.714 37.934 233.266 38.502 232.686 38.9579C232.43 39.1603 232.14 39.3175 231.865 39.4964C231.765 39.5612 231.664 39.6221 231.539 39.7007C231.612 39.7813 231.659 39.856 231.726 39.9012C232.53 40.4534 233.089 41.2218 233.567 42.0531C234.209 43.1674 234.699 44.3544 235.204 45.5336C235.422 46.0445 235.632 46.5575 235.842 47.0704C235.886 47.1785 235.909 47.2944 235.952 47.4339L235.954 47.432ZM226.995 33.3825C226.968 33.5004 226.947 33.5496 226.945 33.6007C226.941 34.937 226.941 36.2714 226.945 37.6078C226.945 37.6883 226.986 37.767 227.015 37.8711C227.562 37.9085 228.088 37.9261 228.613 37.8063C229.363 37.6333 229.796 37.1322 229.995 36.4149C230.141 35.8902 230.128 35.3458 229.989 34.8191C229.831 34.2197 229.486 33.7638 228.888 33.5358C228.277 33.3039 227.653 33.3236 226.997 33.3825H226.995Z" fill="#0C26B7"/>
<path d="M141.937 30.8335C142.1 30.8178 142.199 30.8001 142.299 30.8001C143.901 30.7844 145.501 30.7608 147.103 30.7569C147.93 30.7549 148.755 30.7962 149.563 31.0045C150.149 31.1558 150.721 31.3465 151.242 31.6609C152.1 32.1797 152.715 32.901 153.002 33.8875C153.291 34.878 153.314 35.8744 153.056 36.8727C152.83 37.7472 152.321 38.4351 151.623 38.9834C151.421 39.1426 151.194 39.2723 150.976 39.4098C150.831 39.5022 150.685 39.5867 150.509 39.6909C150.579 39.7754 150.619 39.852 150.683 39.8972C151.506 40.4789 152.082 41.2689 152.572 42.1395C153.177 43.2145 153.663 44.3445 154.133 45.4824C154.345 45.9953 154.569 46.5043 154.783 47.0153C154.835 47.1391 154.872 47.2688 154.924 47.4221C154.831 47.4496 154.77 47.4771 154.708 47.483C154.255 47.5204 151.047 47.4889 150.702 47.4437C150.656 47.3572 150.596 47.2551 150.548 47.147C150.141 46.2076 149.744 45.2643 149.329 44.3288C148.971 43.5211 148.603 42.7173 148.219 41.9214C148.022 41.5146 147.762 41.1471 147.429 40.8366C147.02 40.4593 146.544 40.3315 145.977 40.4003C145.948 40.5025 145.906 40.5949 145.898 40.6931C145.885 40.8661 145.888 41.041 145.888 41.2139C145.888 43.075 145.888 44.9361 145.888 46.7952C145.888 46.9996 145.915 47.2099 145.823 47.4319C145.744 47.4496 145.663 47.483 145.582 47.483C144.462 47.4869 143.344 47.4869 142.224 47.483C142.156 47.483 142.089 47.4614 141.998 47.4476C141.973 47.3533 141.933 47.259 141.927 47.1607C141.913 46.9878 141.919 46.8129 141.919 46.6399C141.919 41.6325 141.919 36.6231 141.919 31.6157C141.919 31.374 141.929 31.1323 141.937 30.8335ZM145.95 37.8691C146.609 37.9202 147.238 37.9398 147.853 37.7256C147.934 37.6981 148.013 37.6588 148.084 37.6136C148.608 37.2795 148.915 36.8039 149.002 36.181C149.052 35.8174 149.046 35.4558 149.002 35.0922C148.898 34.255 148.421 33.7008 147.621 33.4611C147.167 33.3255 146.704 33.351 146.241 33.353C146.145 33.353 146.048 33.3903 145.942 33.4139C145.923 33.5554 145.896 33.6733 145.896 33.7912C145.892 35.0057 145.892 36.2203 145.896 37.4348C145.896 37.5684 145.931 37.702 145.952 37.8691H145.95Z" fill="#0C26B7"/>
<path d="M187.45 30.8538C188.011 30.7987 190.839 30.8066 191.284 30.8636C191.303 30.9481 191.336 31.0444 191.342 31.1427C191.353 31.2979 191.348 31.4551 191.348 31.6123C191.348 34.7076 191.344 37.8028 191.35 40.8981C191.35 41.7215 191.261 42.5273 191.033 43.3192C190.523 45.1056 189.429 46.3713 187.716 47.0532C186.262 47.631 184.749 47.7784 183.199 47.5976C182.443 47.5091 181.703 47.3657 180.999 47.0571C179.748 46.5069 178.825 45.6225 178.245 44.3706C177.792 43.392 177.583 42.3602 177.582 41.2872C177.576 37.9836 177.578 34.6801 177.582 31.3745C177.582 31.2055 177.545 31.0267 177.636 30.8872C177.666 30.8616 177.678 30.8459 177.693 30.84C177.709 30.8321 177.726 30.8302 177.743 30.8302C178.896 30.8262 180.051 30.8223 181.204 30.8184C181.271 30.8184 181.339 30.8302 181.435 30.84C181.456 30.9363 181.491 31.0306 181.497 31.1269C181.508 31.2822 181.501 31.4394 181.501 31.5966C181.501 34.5523 181.501 37.508 181.501 40.4657C181.501 41.1988 181.566 41.92 181.784 42.6275C182.177 43.899 183.099 44.4689 184.259 44.5691C184.548 44.5947 184.847 44.5829 185.133 44.5318C186.106 44.3589 186.719 43.7457 187.045 42.8279C187.218 42.3366 187.324 41.8237 187.334 41.297C187.346 40.6367 187.371 39.9764 187.371 39.3161C187.375 36.7259 187.371 34.1337 187.374 31.5436C187.374 31.3215 187.342 31.0935 187.444 30.8538H187.45Z" fill="#0C26B7"/>
<path d="M247.634 32.1366C247.621 32.2133 247.626 32.288 247.595 32.345C247.173 33.1566 246.747 33.9663 246.325 34.772C246.088 34.7622 245.951 34.6128 245.787 34.5303C245.618 34.4458 245.452 34.3554 245.284 34.267C244.658 33.9348 244.006 33.6695 243.308 33.532C242.807 33.4337 242.317 33.4534 241.835 33.6401C241.203 33.8837 240.925 34.434 241.08 35.0983C241.184 35.5424 241.431 35.8824 241.762 36.1752C242.128 36.4995 242.551 36.7353 242.984 36.9436C243.574 37.2266 244.176 37.4841 244.766 37.7651C245.375 38.054 245.949 38.3979 246.464 38.842C247.262 39.5318 247.698 40.4142 247.809 41.4558C247.933 42.6015 247.796 43.708 247.26 44.7476C246.863 45.5199 246.308 46.1429 245.598 46.6342C244.875 47.1373 244.066 47.4065 243.21 47.5618C242.298 47.7269 241.396 47.6679 240.49 47.5244C239.131 47.3083 237.874 46.8091 236.667 46.1566C236.534 46.0839 236.416 45.9837 236.301 45.9012C236.395 45.4708 237.297 43.4564 237.567 43.0693C237.843 43.2265 238.126 43.3837 238.402 43.5488C239.071 43.9477 239.775 44.2641 240.505 44.5314C241.057 44.7338 241.629 44.7436 242.186 44.6493C242.799 44.5451 243.252 44.1894 243.439 43.5507C243.528 43.2461 243.565 42.9376 243.532 42.6231C243.478 42.0925 243.223 41.6779 242.797 41.3595C242.337 41.0136 241.814 40.7935 241.288 40.5734C240.461 40.2295 239.653 39.8463 238.905 39.3432C238.473 39.0523 238.086 38.7104 237.741 38.3212C237.07 37.5627 236.779 36.6469 236.719 35.6525C236.675 34.8782 236.794 34.1294 237.126 33.4219C237.562 32.4924 238.252 31.8124 239.135 31.3211C240.203 30.7276 241.355 30.5134 242.566 30.5586C244.085 30.6156 245.521 30.9909 246.886 31.6571C247.148 31.7849 247.397 31.9342 247.63 32.1327L247.634 32.1366Z" fill="#0C26B7"/>
<path d="M115.559 45.8874C115.726 45.343 116.598 43.4426 116.842 43.0908C116.956 43.1458 117.08 43.195 117.193 43.2638C118.018 43.7708 118.876 44.2051 119.788 44.5333C120.343 44.7318 120.912 44.7416 121.471 44.6512C122.088 44.551 122.537 44.1776 122.722 43.5487C122.78 43.3502 122.822 43.14 122.828 42.9356C122.851 42.3047 122.62 41.7879 122.119 41.3948C121.648 41.0273 121.111 40.8013 120.569 40.5773C119.724 40.2255 118.899 39.8364 118.142 39.3176C117.725 39.0346 117.346 38.7064 117.02 38.3212C116.519 37.7277 116.185 37.0517 116.077 36.2695C115.958 35.4146 115.963 34.5676 116.27 33.7501C116.679 32.6633 117.423 31.8733 118.425 31.3191C119.497 30.7275 120.648 30.5133 121.86 30.5624C123.397 30.6234 124.85 31.0066 126.229 31.6885C126.475 31.8104 126.707 31.9538 126.911 32.1307C126.788 32.5611 125.88 34.318 125.539 34.7877C125.197 34.6049 124.852 34.4143 124.503 34.2335C123.888 33.9171 123.252 33.6557 122.57 33.526C122.069 33.4317 121.581 33.4592 121.097 33.6439C120.486 33.8758 120.253 34.43 120.332 34.9646C120.405 35.4559 120.661 35.8332 121.02 36.1535C121.398 36.4916 121.833 36.7333 122.286 36.9495C122.878 37.2305 123.478 37.4919 124.068 37.7749C124.818 38.1345 125.519 38.5649 126.094 39.1859C126.593 39.7244 126.892 40.3591 127.031 41.0706C127.289 42.3971 127.112 43.6666 126.479 44.8615C125.968 45.8284 125.203 46.5457 124.233 47.0134C123.007 47.605 121.706 47.774 120.357 47.605C119.516 47.4988 118.695 47.3259 117.895 47.0409C117.145 46.7756 116.436 46.4278 115.746 46.0328C115.688 45.9994 115.638 45.9502 115.561 45.8893L115.559 45.8874Z" fill="#0C26B7"/>
<path d="M131.803 33.7951C131.624 33.7833 131.456 33.7656 131.288 33.7656C130.342 33.7637 129.395 33.7656 128.449 33.7617C128.281 33.7617 128.102 33.8069 127.955 33.6772C127.88 33.2075 127.886 31.2836 127.969 30.8689C128.119 30.7746 128.296 30.8178 128.462 30.8158C129.734 30.8119 131.009 30.8158 132.281 30.8158C134.708 30.8158 137.133 30.8158 139.56 30.8178C139.745 30.8178 139.938 30.7746 140.113 30.8689C140.138 31.2816 139.863 32.9874 139.647 33.7185C139.533 33.7322 139.402 33.7617 139.271 33.7617C138.342 33.7656 137.413 33.7617 136.483 33.7656C136.296 33.7656 136.104 33.7303 135.903 33.8285C135.886 33.8953 135.849 33.9759 135.845 34.0585C135.834 34.2491 135.838 34.4397 135.838 34.6323C135.838 38.663 135.838 42.6937 135.838 46.7264C135.838 46.9504 135.828 47.1725 135.822 47.4142C135.716 47.4437 135.637 47.483 135.556 47.483C134.403 47.4869 133.251 47.483 132.098 47.483C132.048 47.483 131.998 47.4614 131.92 47.4417C131.899 47.3533 131.863 47.2589 131.857 47.1607C131.845 47.0054 131.853 46.8482 131.853 46.691C131.853 42.6249 131.853 38.5588 131.853 34.4928C131.853 34.2707 131.878 34.0467 131.803 33.7971V33.7951Z" fill="#0C26B7"/>
<path d="M200.588 47.4314C200.142 47.5041 197.291 47.512 196.767 47.4451C196.744 47.3606 196.699 47.2663 196.692 47.17C196.678 46.9794 196.684 46.7888 196.684 46.5962C196.684 42.5831 196.684 38.5682 196.682 34.5552C196.682 34.3154 196.722 34.0697 196.626 33.8457C196.479 33.7278 196.319 33.7651 196.169 33.7651C195.205 33.7612 194.241 33.7651 193.279 33.7612C193.112 33.7612 192.944 33.7455 192.753 33.7357C192.659 33.3996 192.711 33.0891 192.701 32.7825C192.693 32.47 192.701 32.1576 192.701 31.8451C192.701 31.5326 192.701 31.2221 192.701 30.888C192.823 30.8586 192.915 30.8271 193.011 30.8173C193.131 30.8055 193.252 30.8134 193.372 30.8134C197.019 30.8134 200.667 30.8134 204.316 30.8134C204.518 30.8134 204.726 30.7839 204.937 30.8586C204.94 30.9588 204.962 31.0453 204.946 31.1278C204.777 31.9768 204.696 32.8415 204.497 33.6551C204.337 33.7985 204.175 33.7612 204.025 33.7612C203.096 33.7651 202.166 33.7612 201.237 33.7651C201.068 33.7651 200.892 33.7317 200.726 33.828C200.613 34.0521 200.657 34.2997 200.657 34.5394C200.653 37.9098 200.655 41.2802 200.655 44.6525C200.655 45.3816 200.655 46.1127 200.655 46.8418C200.655 47.0305 200.674 47.2231 200.589 47.4314H200.588Z" fill="#0C26B7"/>
<path d="M160.543 30.8535C160.564 30.9479 160.593 31.0147 160.593 31.0795C160.593 36.4839 160.589 41.8883 160.581 47.2927C160.581 47.3399 160.543 47.3871 160.508 47.4676C159.249 47.5109 157.979 47.4794 156.693 47.4873C156.664 47.3556 156.629 47.2593 156.624 47.161C156.612 47.0058 156.62 46.8486 156.62 46.6914C156.62 41.6505 156.62 36.6117 156.62 31.5708V30.881C156.73 30.8535 156.809 30.8182 156.888 30.8182C158.04 30.8142 159.193 30.8182 160.346 30.8182C160.396 30.8182 160.446 30.8358 160.543 30.8535Z" fill="#0C26B7"/>
<path d="M109.429 47.4393C109.337 46.8694 109.296 34.7321 109.371 31.291C109.375 31.1554 109.394 31.0198 109.41 30.8685C109.853 30.7682 110.281 30.8311 110.705 30.8193C111.118 30.8075 111.53 30.8174 111.945 30.8174H113.25C113.283 30.9392 113.323 31.0335 113.333 31.1318C113.346 31.2694 113.34 31.4089 113.34 31.5484C113.34 36.605 113.34 41.6635 113.34 46.7201C113.34 46.9441 113.329 47.1681 113.323 47.404C113.217 47.4374 113.14 47.4826 113.061 47.4826C111.925 47.4885 110.79 47.4865 109.655 47.4845C109.589 47.4845 109.524 47.459 109.431 47.4393H109.429Z" fill="#0C26B7"/>
</svg>
