<svg width="15" height="15" viewBox="0 0 15 15" fill="none" xmlns="http://www.w3.org/2000/svg">
<path d="M0 13.7619C0 11.7846 0 9.80772 0 7.83045C0.00773502 7.81827 0.0195402 7.8073 0.0219829 7.7943C0.0940407 7.3995 0.310215 7.10218 0.631015 6.86741C1.12239 6.50754 1.60644 6.1371 2.09741 5.77561C2.1882 5.70899 2.22687 5.64035 2.22647 5.52378C2.22199 4.1704 2.2228 2.81661 2.22362 1.46323C2.22402 0.585481 2.81229 0.000180523 3.69327 0.000180523C6.22669 -0.000225654 8.75971 0.000180523 11.2931 0.000180523C12.192 0.000180523 12.773 0.581825 12.7734 1.48232C12.7738 2.8357 12.7746 4.18949 12.7713 5.54287C12.7713 5.64157 12.8027 5.70249 12.8809 5.76017C13.4024 6.14563 13.9222 6.53313 14.4388 6.92468C14.7898 7.19073 14.9913 7.54897 14.9933 7.98765C15.0011 9.86215 15.0039 11.7367 14.9917 13.6112C14.988 14.1567 14.7092 14.5636 14.2202 14.8122C14.0883 14.8792 13.9381 14.9117 13.7964 14.9601H1.20096C1.16921 14.9499 1.13786 14.9381 1.1057 14.9304C0.603738 14.809 0.257698 14.5108 0.0785713 14.0255C0.046817 13.9398 0.0260548 13.85 0 13.7623V13.7619ZM7.49849 0.553393C6.22466 0.553393 4.95082 0.552581 3.67658 0.553393C3.12373 0.553799 2.77972 0.894988 2.77972 1.44414C2.77891 3.64968 2.78054 5.85522 2.77647 8.06076C2.77647 8.17164 2.81107 8.21998 2.91203 8.261C4.30149 8.82599 5.69054 9.3918 7.07592 9.96694C7.36578 10.0872 7.63325 10.0872 7.92229 9.96694C9.3032 9.39464 10.6878 8.82965 12.0732 8.26791C12.1875 8.2216 12.2209 8.16514 12.2205 8.04573C12.2169 5.85481 12.2181 3.66389 12.2177 1.47257C12.2177 0.884021 11.8834 0.552581 11.2907 0.552581C10.0266 0.552175 8.76216 0.552581 7.49809 0.552581L7.49849 0.553393ZM0.556106 7.8926C0.556106 7.98399 0.556106 8.04532 0.556106 8.10665C0.556106 9.90805 0.556106 11.7094 0.556106 13.5108C0.556106 14.0588 0.901742 14.4048 1.45134 14.4052C5.48291 14.406 9.51408 14.406 13.5457 14.4052C14.0952 14.4052 14.4409 14.0588 14.4409 13.5112C14.4413 11.7098 14.4409 9.90845 14.4409 8.10706C14.4409 8.04613 14.4409 7.9848 14.4409 7.89463C12.9773 8.49415 11.5427 9.08188 10.0625 9.68831C10.1329 9.73948 10.1813 9.76589 10.2192 9.80325C11.0175 10.5973 11.8146 11.393 12.6118 12.1883C12.6496 12.2261 12.6895 12.2631 12.7204 12.3061C12.8027 12.4207 12.7868 12.5705 12.6875 12.6652C12.5918 12.7562 12.4489 12.7688 12.3382 12.6904C12.295 12.6595 12.258 12.6197 12.2197 12.5819C11.3566 11.7216 10.4928 10.8618 9.63295 9.99822C9.56008 9.92511 9.50431 9.91333 9.40905 9.95395C8.9653 10.142 8.51708 10.3199 8.07129 10.5043C7.68658 10.6631 7.30593 10.6639 6.92081 10.5019C6.48114 10.3167 6.03576 10.1436 5.5969 9.95638C5.49553 9.91292 5.43813 9.92308 5.36037 10.0015C4.50056 10.8654 3.63668 11.7249 2.77362 12.5852C2.73576 12.6229 2.6983 12.6627 2.65474 12.6928C2.5432 12.77 2.4003 12.7558 2.30626 12.6631C2.20774 12.5665 2.1939 12.4182 2.27776 12.3041C2.30911 12.2614 2.34941 12.2245 2.38727 12.1867C3.18439 11.3914 3.9815 10.5957 4.77984 9.80163C4.81689 9.76467 4.86777 9.7407 4.94227 9.69034C3.45267 9.08026 2.01803 8.49252 0.555294 7.89341L0.556106 7.8926ZM12.7815 6.37472V7.97424C13.2436 7.78496 13.6922 7.60137 14.1624 7.40884C13.6987 7.06156 13.2517 6.72647 12.7815 6.37472ZM0.837418 7.40844C1.30641 7.60056 1.75504 7.78374 2.21059 7.97018V6.3804C1.74608 6.72809 1.29908 7.06278 0.837418 7.40844Z" fill="#FCFCFC"/>
<path d="M10.5556 2.21823C10.6533 2.21823 10.7359 2.2158 10.8182 2.21864C10.9875 2.22433 11.0999 2.33196 11.1023 2.48794C11.1044 2.64431 10.9965 2.76089 10.8284 2.76901C10.668 2.77673 10.5063 2.77063 10.3455 2.77348C10.1212 2.77713 10.0019 2.86893 9.99623 3.0383C9.99053 3.20443 10.1159 3.31369 10.3288 3.32831C10.6781 3.35269 10.9713 3.58502 11.0702 3.91605C11.1838 4.29664 11.0213 4.69713 10.6643 4.88275C10.5703 4.93149 10.5389 4.98673 10.5475 5.08462C10.5536 5.15205 10.5511 5.2211 10.545 5.28852C10.532 5.43109 10.4249 5.53182 10.2861 5.53873C10.1562 5.54523 10.039 5.45912 10.008 5.32711C9.99583 5.27593 9.99624 5.2211 9.99379 5.16789C9.99176 5.11509 9.99339 5.06228 9.99339 4.98795C9.90219 4.98795 9.82118 4.9912 9.74057 4.98714C9.55574 4.9778 9.43402 4.85757 9.44175 4.69672C9.44949 4.53791 9.56593 4.43921 9.75034 4.43555C9.92581 4.4323 10.1017 4.43677 10.2767 4.42499C10.4559 4.41321 10.5515 4.30598 10.547 4.14514C10.5426 3.99485 10.4424 3.88924 10.2727 3.88193C9.65956 3.85634 9.3127 3.28364 9.48654 2.77916C9.55778 2.57201 9.68887 2.41036 9.8855 2.31612C9.97873 2.27144 10.0007 2.2162 9.99501 2.12522C9.99013 2.04805 9.99054 1.96844 10.0036 1.89289C10.0288 1.74423 10.1513 1.65365 10.2959 1.66502C10.4331 1.67558 10.5344 1.77875 10.5462 1.92294C10.5503 1.97128 10.5475 2.02002 10.5491 2.06876C10.5503 2.11182 10.5532 2.15487 10.556 2.21823H10.5556Z" fill="#FCFCFC"/>
<path d="M5.83729 3.32458C6.37386 3.32458 6.91043 3.32417 7.44659 3.32458C7.6538 3.32458 7.77187 3.42409 7.77431 3.59428C7.77634 3.76934 7.65299 3.87698 7.44089 3.87698C6.36775 3.8782 5.29503 3.8782 4.2219 3.87698C4.01712 3.87698 3.89702 3.77259 3.89458 3.60281C3.89173 3.42612 4.01142 3.32458 4.228 3.32458C4.76457 3.32377 5.30113 3.32458 5.83729 3.32458Z" fill="#FCFCFC"/>
<path d="M5.83448 7.20696C5.29791 7.20696 4.76175 7.20858 4.22519 7.20614C4.01512 7.20533 3.89869 7.10541 3.89462 6.93604C3.89136 6.79387 3.98133 6.68218 4.123 6.66065C4.18041 6.65171 4.23944 6.65252 4.29806 6.65252C5.32234 6.65212 6.34621 6.65252 7.37049 6.65252C7.41446 6.65252 7.45843 6.65171 7.50199 6.65537C7.66849 6.66918 7.77068 6.77032 7.77434 6.92182C7.77801 7.07901 7.67419 7.19071 7.50199 7.20371C7.40021 7.21142 7.29722 7.20736 7.19503 7.20736C6.74152 7.20736 6.288 7.20736 5.83448 7.20736V7.20696Z" fill="#FCFCFC"/>
<path d="M5.56104 4.99298C6.01455 4.99298 6.46807 4.99055 6.92199 4.9942C7.13246 4.99583 7.25664 5.14855 7.21104 5.3362C7.17847 5.47024 7.07384 5.54376 6.89919 5.54457C6.48476 5.5466 6.06992 5.54538 5.65548 5.54538C5.17754 5.54538 4.6996 5.5466 4.22165 5.54457C4.02869 5.54376 3.91225 5.45278 3.89638 5.29965C3.87806 5.1193 3.99734 4.99501 4.20048 4.9938C4.654 4.99136 5.10752 4.99298 5.56144 4.99298H5.56104Z" fill="#FCFCFC"/>
<path d="M5.56817 1.66092C6.00703 1.66092 6.4463 1.66011 6.88516 1.66092C7.09686 1.66133 7.22306 1.76815 7.22021 1.94037C7.21777 2.10691 7.09279 2.21454 6.89167 2.21495C6.00378 2.21617 5.11588 2.21617 4.22798 2.21495C4.01425 2.21495 3.89252 2.10894 3.89456 1.93225C3.89659 1.758 4.01669 1.66092 4.23612 1.66052C4.67987 1.6597 5.12402 1.66052 5.56776 1.66052L5.56817 1.66092Z" fill="#FCFCFC"/>
</svg>
