<svg width="16" height="17" viewBox="0 0 16 17" fill="none" xmlns="http://www.w3.org/2000/svg">
<path d="M1.34116 8.80447V14.1294H8.26645C8.26645 14.066 8.26645 14.0067 8.26645 13.9475C8.26645 13.1588 8.26749 12.3697 8.26541 11.5811C8.26541 11.4324 8.3101 11.3159 8.46281 11.2733C8.65086 11.2208 8.79786 11.3518 8.79838 11.5727C8.80045 12.2449 8.79888 12.9171 8.79888 13.5893C8.79888 13.766 8.79888 13.9428 8.79888 14.1398C8.96926 14.1398 9.12821 14.1377 9.28716 14.1398C9.49598 14.1429 9.59624 14.2391 9.59728 14.4445C9.59832 14.6664 9.61339 14.8915 9.58326 15.1099C9.48716 15.8075 8.93809 16.2718 8.22229 16.2723C5.94035 16.2738 3.65894 16.2733 1.377 16.2723C1.2835 16.2723 1.18843 16.2645 1.09597 16.2473C0.464836 16.1309 0.0155223 15.6017 0.00253605 14.9612C-0.00110009 14.7891 -0.000580645 14.6165 0.00253605 14.4445C0.0061722 14.2386 0.103828 14.144 0.313166 14.1398C0.462767 14.1372 0.612883 14.1372 0.762484 14.1357C0.767679 14.1357 0.772354 14.1325 0.801443 14.1227V13.9386C0.801443 12.1773 0.801443 10.4166 0.801443 8.65527C0.801443 8.34803 0.877807 8.27057 1.18324 8.27057C1.95515 8.27057 2.72652 8.27161 3.49842 8.26953C3.63971 8.26953 3.75192 8.31112 3.80126 8.45252C3.86723 8.64123 3.73114 8.80239 3.50466 8.80343C2.84963 8.80551 2.1946 8.80395 1.53958 8.80395C1.47932 8.80395 1.41856 8.80395 1.34116 8.80395V8.80447ZM0.535479 14.6789C0.535479 14.7787 0.533921 14.8614 0.535479 14.944C0.54431 15.3277 0.791057 15.6526 1.16818 15.714C1.39258 15.7503 1.62789 15.7207 1.86839 15.7207C1.86839 15.636 1.86372 15.5528 1.86943 15.4707C1.87982 15.3126 1.9915 15.2061 2.13695 15.2081C2.28187 15.2097 2.38993 15.3173 2.39928 15.4764C2.40448 15.5622 2.40032 15.6485 2.40032 15.7316H7.19534C7.21456 15.5174 7.13145 15.2201 7.46234 15.217C7.8057 15.2133 7.70907 15.5263 7.74284 15.7285C8.69655 15.8236 9.19004 15.4244 9.04408 14.6794H0.535479V14.6789Z" fill="#FCFCFC"/>
<path d="M4.6552 9.30227C4.86039 9.65785 5.05987 10.0025 5.25934 10.3477C5.28687 10.3955 5.31647 10.4434 5.33985 10.4933C5.40789 10.6394 5.36685 10.7849 5.24062 10.8551C5.11492 10.9248 4.96168 10.8889 4.87909 10.7537C4.73157 10.512 4.59443 10.2645 4.45262 10.0197C4.37523 9.88607 4.29678 9.75247 4.20951 9.60223C3.87758 9.7977 3.54568 9.97601 3.23245 10.1834C3.02051 10.3238 2.9696 10.6128 3.09427 10.8411C3.26724 11.1577 3.44697 11.4706 3.63553 11.7779C3.78825 12.0263 4.07344 12.0955 4.33524 11.9666C4.34043 11.964 4.3451 11.9619 4.34977 11.9588C5.43958 11.2221 6.70132 10.88 7.90592 10.4075C8.52978 10.1626 9.16091 9.93494 9.80762 9.69268C9.77489 9.6329 9.74737 9.58143 9.7188 9.53153C9.37804 8.94044 9.03677 8.34884 8.6955 7.75776C8.67887 7.72917 8.65965 7.70161 8.64459 7.67198C8.56563 7.51758 8.59992 7.37254 8.73237 7.29456C8.8612 7.21866 9.01755 7.25817 9.10378 7.40269C9.2913 7.71721 9.47206 8.03588 9.6549 8.35352C9.89593 8.77201 10.1369 9.18998 10.3769 9.60899C10.5255 9.8684 10.4777 10.0025 10.2003 10.107C8.9656 10.5718 7.73086 11.0355 6.49613 11.5002C6.43431 11.5236 6.37252 11.5476 6.29304 11.5782C6.45823 11.8688 6.62444 12.1475 6.7782 12.4334C7.00987 12.8644 6.82755 13.3811 6.38757 13.562C6.01772 13.7143 5.60735 13.5771 5.3923 13.2199C5.21205 12.921 5.04169 12.6159 4.85677 12.2967C4.34563 12.6434 3.83916 12.7016 3.34413 12.265C3.24647 12.3185 3.15139 12.3752 3.0527 12.424C2.65636 12.6216 2.19717 12.4859 1.9842 12.1111C1.77019 11.7347 1.89123 11.2736 2.26731 11.0344C2.30003 11.0137 2.33224 10.9903 2.36808 10.9762C2.50677 10.9227 2.53741 10.8421 2.51871 10.6835C2.47248 10.291 2.63041 9.96873 2.94467 9.72648C2.96649 9.70932 2.9888 9.69164 3.01374 9.67969C4.16692 9.11928 5.08946 8.24279 6.06862 7.44428C6.66235 6.95977 7.2509 6.46902 7.84203 5.98139C8.05449 5.8062 8.20617 5.83167 8.34383 6.06405C8.41759 6.18829 8.49187 6.31202 8.56043 6.43887C8.64614 6.59847 8.60769 6.7539 8.47004 6.82876C8.33602 6.90207 8.19733 6.85736 8.10072 6.71024C8.06799 6.66033 8.03786 6.60938 7.99683 6.54388C6.87845 7.46716 5.77151 8.38055 4.65678 9.30071L4.6552 9.30227ZM5.31646 12.0367C5.49983 12.3554 5.67022 12.659 5.84943 12.9574C5.9315 13.0941 6.08214 13.1285 6.20993 13.0572C6.34031 12.9845 6.38133 12.8316 6.3003 12.6814C6.20524 12.5062 6.10188 12.3357 6.00111 12.1631C5.92734 12.0362 5.85255 11.9094 5.77359 11.7753C5.61412 11.8667 5.47541 11.9458 5.31646 12.0367ZM2.76753 11.3547C2.60702 11.4602 2.39404 11.4971 2.40962 11.7227C2.41534 11.8044 2.48911 11.9156 2.56183 11.952C2.74416 12.0419 2.87766 11.9021 3.0283 11.8075C2.94051 11.6557 2.85842 11.5138 2.767 11.3547H2.76753Z" fill="#FCFCFC"/>
<path d="M15.9969 2.66439C15.9969 3.17542 15.998 3.68644 15.9969 4.19798C15.9959 4.7324 15.6676 5.06511 15.1383 5.06563C14.1113 5.06667 13.0838 5.06667 12.0569 5.06563C11.5348 5.06511 11.2003 4.73292 11.1993 4.2141C11.1977 3.71971 11.1983 3.22532 11.1993 2.73093C11.1993 2.52091 11.3001 2.39926 11.4663 2.39978C11.6325 2.4003 11.7312 2.52247 11.7317 2.73301C11.7328 3.22168 11.7312 3.71087 11.7322 4.19954C11.7328 4.43816 11.8263 4.53174 12.0657 4.53226C13.0875 4.5333 14.1087 4.5333 15.1305 4.53226C15.3694 4.53226 15.4634 4.43816 15.4634 4.19902C15.4645 3.17698 15.4645 2.15441 15.4634 1.13236C15.4634 0.892181 15.3699 0.798606 15.1315 0.798086C14.1098 0.797046 13.0885 0.797046 12.0668 0.798086C11.8257 0.798086 11.7338 0.890622 11.7317 1.12872C11.7302 1.27896 11.7348 1.42868 11.7302 1.57892C11.725 1.74943 11.6174 1.86224 11.4668 1.86328C11.3156 1.86432 11.2045 1.75255 11.1998 1.58308C11.1951 1.39437 11.192 1.20514 11.2014 1.01643C11.2206 0.613535 11.5525 0.271466 11.9561 0.268347C13.0496 0.259509 14.1435 0.259509 15.2375 0.268347C15.6619 0.271986 15.9912 0.629651 15.9954 1.06426C16.0006 1.59763 15.9964 2.13101 15.9969 2.66439Z" fill="#FCFCFC"/>
<path d="M11.1957 10.9333C11.1957 10.4222 11.1951 9.91122 11.1957 9.39968C11.1967 8.8663 11.526 8.53255 12.0538 8.53203C13.0807 8.53099 14.1082 8.53099 15.1352 8.53203C15.6572 8.53203 15.9917 8.86422 15.9933 9.38304C15.9948 9.87743 15.9943 10.3718 15.9933 10.8662C15.9933 11.0757 15.892 11.1984 15.7263 11.1979C15.5606 11.1974 15.4614 11.0752 15.4614 10.8647C15.4603 10.376 15.4619 9.88679 15.4608 9.39812C15.4603 9.1595 15.3668 9.06593 15.1274 9.06593C14.1056 9.06489 13.0844 9.06489 12.0626 9.06593C11.8231 9.06593 11.7296 9.15898 11.7296 9.39864C11.7286 10.4207 11.7286 11.4433 11.7296 12.4653C11.7296 12.7055 11.8232 12.7996 12.0611 12.7996C13.0828 12.8006 14.1041 12.8006 15.1258 12.7996C15.3663 12.7996 15.4588 12.7065 15.4614 12.4684C15.4629 12.3182 15.4583 12.1685 15.4629 12.0182C15.4681 11.8472 15.5746 11.7354 15.7258 11.7339C15.8769 11.7323 15.9886 11.8441 15.9933 12.0141C15.998 12.2028 16.0011 12.392 15.9917 12.5807C15.972 12.9846 15.6416 13.3257 15.2375 13.3288C14.1441 13.3376 13.0501 13.3382 11.9561 13.3288C11.5317 13.3252 11.2019 12.967 11.1977 12.5329C11.1931 11.9995 11.1967 11.4661 11.1962 10.9328L11.1957 10.9333Z" fill="#FCFCFC"/>
<path d="M0.00390625 5.05583C0.00390625 4.37793 0.00390625 3.70003 0.00390625 3.02213C0.00390625 2.76012 0.0916922 2.67226 0.353495 2.67226C1.36434 2.67175 2.37468 2.67175 3.38553 2.67226C3.64681 2.67226 3.7351 2.76064 3.73562 3.02213C3.73562 4.38937 3.73562 5.75609 3.73562 7.12332C3.73562 7.38481 3.6468 7.47319 3.38603 7.47371C2.37519 7.47423 1.36485 7.47423 0.354002 7.47371C0.0927189 7.47371 0.00441352 7.38481 0.00441352 7.12384C0.00389408 6.43503 0.00441352 5.74569 0.00441352 5.05687L0.00390625 5.05583ZM0.544129 6.92786H3.18969V3.21396H0.544129V6.92786Z" fill="#FCFCFC"/>
<path d="M9.06664 2.3976C9.06871 3.72377 7.99244 4.79937 6.66213 4.80093C5.35415 4.80249 4.27318 3.72637 4.26954 2.41996C4.2659 1.08599 5.33803 -0.000519676 6.65744 1.86476e-07C7.99034 1.86476e-07 9.06508 1.06988 9.06664 2.39812V2.3976ZM8.53369 2.39708C8.53265 1.36984 7.69322 0.530259 6.66938 0.532859C5.63256 0.535978 4.80093 1.37244 4.80248 2.41112C4.80404 3.42693 5.64347 4.26599 6.65848 4.26703C7.69634 4.26807 8.53421 3.43265 8.53369 2.39708Z" fill="#FCFCFC"/>
<path d="M14.6626 10.9493C14.6574 11.5373 14.1717 12.0114 13.5811 12.0046C13.0014 11.9984 12.5287 11.5165 12.5313 10.9347C12.5339 10.3447 13.0144 9.86902 13.6045 9.8711C14.1919 9.8737 14.6678 10.3587 14.6626 10.9493ZM14.1291 10.9384C14.1301 10.6493 13.8896 10.4066 13.6013 10.405C13.3094 10.4034 13.0689 10.6384 13.0642 10.929C13.0596 11.2264 13.3026 11.4723 13.6003 11.4702C13.8907 11.4681 14.1281 11.2295 14.1291 10.9384Z" fill="#FCFCFC"/>
<path d="M13.0632 2.9492C12.6258 2.90189 12.5318 2.85043 12.5312 2.66848C12.5312 2.486 12.6273 2.4335 13.0637 2.38775C13.0637 2.29781 13.0611 2.20528 13.0637 2.11274C13.0777 1.69165 13.4091 1.35218 13.8273 1.33659C14.0101 1.32983 14.194 1.33139 14.3768 1.33607C14.5472 1.34023 14.6594 1.44888 14.6605 1.59964C14.6615 1.7504 14.5493 1.86061 14.38 1.86685C14.2413 1.87153 14.1026 1.86789 13.9634 1.86841C13.6792 1.86893 13.5956 1.95211 13.5956 2.23387C13.5956 2.28326 13.5956 2.33212 13.5956 2.39087C13.8096 2.4257 14.1223 2.32901 14.1187 2.67315C14.1156 3.00431 13.8169 2.91905 13.5956 2.94192C13.5956 3.18782 13.5966 3.42539 13.5956 3.66245C13.5945 3.87508 13.5 3.99724 13.3354 4.00088C13.1639 4.00504 13.0637 3.88027 13.0632 3.65777C13.0621 3.42487 13.0632 3.19198 13.0632 2.9492Z" fill="#FCFCFC"/>
<path d="M10.951 8.00058C10.7723 7.99954 10.657 7.90648 10.6388 7.76352C10.6211 7.62524 10.7173 7.50099 10.8731 7.46876C11.3022 7.3809 11.7317 7.29408 12.1613 7.20883C12.3535 7.17088 12.4922 7.2473 12.528 7.40377C12.566 7.57013 12.4719 7.69802 12.2714 7.74013C11.859 7.82642 11.4455 7.90908 11.0325 7.99226C11.0003 7.99902 10.9666 7.99902 10.9515 8.00006L10.951 8.00058Z" fill="#FCFCFC"/>
<path d="M10.4295 4.49939C10.3833 4.59869 10.3651 4.66419 10.3272 4.71566C10.0747 5.05877 9.81971 5.40032 9.56154 5.73875C9.4509 5.88379 9.29558 5.90874 9.17091 5.81257C9.04521 5.71535 9.03014 5.56511 9.14078 5.41591C9.39375 5.07332 9.64985 4.73281 9.90646 4.39282C9.98334 4.29093 10.0919 4.22907 10.2093 4.28937C10.296 4.33408 10.3578 4.42817 10.43 4.49991L10.4295 4.49939Z" fill="#FCFCFC"/>
<path d="M10.0979 6.96071C10.0298 6.89676 9.92071 6.84114 9.8963 6.75952C9.87136 6.67738 9.89632 6.5287 9.95709 6.47983C10.3181 6.18767 10.6921 5.91163 11.0692 5.64026C11.1861 5.55604 11.3414 5.60387 11.4188 5.72084C11.4998 5.843 11.478 5.98701 11.3471 6.08786C11.0001 6.35351 10.6495 6.61448 10.2979 6.87389C10.2511 6.9082 10.1893 6.92172 10.0979 6.96019V6.96071Z" fill="#FCFCFC"/>
<path d="M1.86664 5.33129C1.6947 5.33129 1.52225 5.33545 1.35031 5.33025C1.18045 5.32505 1.06928 5.21432 1.07032 5.06304C1.07136 4.91124 1.18252 4.80155 1.35394 4.79999C1.69833 4.79584 2.0422 4.79584 2.3866 4.79999C2.55646 4.80207 2.66813 4.9154 2.66709 5.06668C2.66606 5.21744 2.55386 5.32609 2.38348 5.33025C2.21154 5.33493 2.03908 5.33129 1.86715 5.33129H1.86664Z" fill="#FCFCFC"/>
<path d="M1.87453 5.86831C2.04127 5.86831 2.2075 5.86519 2.37424 5.86935C2.55397 5.87351 2.67032 5.98476 2.66669 6.14124C2.66305 6.29148 2.5498 6.39857 2.37838 6.40065C2.0397 6.40429 1.70104 6.40429 1.36236 6.40065C1.18211 6.39857 1.06627 6.28576 1.07042 6.12876C1.07406 5.978 1.18625 5.87351 1.3587 5.86987C1.53064 5.86571 1.7031 5.86883 1.87503 5.86883L1.87453 5.86831Z" fill="#FCFCFC"/>
<path d="M2.14853 4.26508C2.0488 4.26508 1.94803 4.27184 1.84881 4.26352C1.70181 4.25105 1.60105 4.1372 1.60156 3.99839C1.6026 3.85907 1.7039 3.74366 1.85142 3.7369C2.03998 3.72859 2.22904 3.72807 2.41708 3.7369C2.56409 3.74418 2.66539 3.86219 2.66436 4.00099C2.66332 4.1398 2.56151 4.25105 2.41399 4.26352C2.32568 4.2708 2.23632 4.26508 2.14749 4.26456L2.14853 4.26508Z" fill="#FCFCFC"/>
<path d="M5.86821 2.40081C5.86821 2.15076 5.8656 1.90122 5.86872 1.65117C5.87183 1.38448 6.05469 1.26803 6.29364 1.38552C6.80114 1.63454 7.30864 1.88355 7.80783 2.14764C7.89146 2.19183 7.96832 2.3036 7.99014 2.39769C8.01923 2.52246 7.91949 2.60824 7.80729 2.66438C7.30135 2.91652 6.79697 3.17177 6.28998 3.42078C6.05104 3.53827 5.87183 3.42078 5.86872 3.15045C5.86612 2.9004 5.86821 2.65087 5.86821 2.40081ZM7.13462 2.40185C6.87594 2.27241 6.6479 2.15804 6.41363 2.04055V2.76472C6.65518 2.64307 6.87957 2.53026 7.13462 2.40133V2.40185Z" fill="#FCFCFC"/>
</svg>
