<svg width="54" height="53" viewBox="0 0 54 53" fill="none" xmlns="http://www.w3.org/2000/svg">
<g id="Modes">
<path id="Vector" d="M22.0481 13.2161C20.3595 13.8926 18.9404 14.8111 17.6314 16.0872C15.0298 18.6173 13.6272 21.7634 13.4897 25.3825C13.3852 28.1986 14.1663 30.9707 15.7283 33.3193C20.0625 39.8481 28.9563 41.3716 35.2265 36.6634C35.8536 36.1904 36.9756 35.1234 37.4816 34.5129C38.3836 33.4238 39.1537 32.1148 39.6817 30.7727C39.9622 30.0467 39.9182 29.7057 39.4837 29.3812C39.2307 29.1997 38.9667 29.2052 38.2791 29.4142C37.0361 29.7882 35.9856 29.9477 34.693 29.9477C32.4434 29.9477 30.2819 29.3152 28.3513 28.0886C27.0147 27.2361 25.6562 25.8775 24.7927 24.53C22.8786 21.5269 22.4166 17.9022 23.5111 14.4426C23.6761 13.9256 23.6706 13.6341 23.5001 13.3976C23.1701 12.9631 22.8016 12.9136 22.0481 13.2161Z" fill="black"/>
</g>
</svg>
