<svg width="18" height="19" viewBox="0 0 18 19" fill="none" xmlns="http://www.w3.org/2000/svg">
<path d="M3.88681 9.775C3.50169 9.89718 3.13386 10.0141 2.7587 10.1332C2.79381 10.5684 2.67696 10.9507 2.37515 11.2669C1.90096 11.7629 1.13754 11.8332 0.580562 11.4347C0.0225347 11.0356 -0.159804 10.2926 0.150385 9.68113C0.456907 9.07704 1.17265 8.77971 1.80141 8.99576C2.08959 9.09487 2.31752 9.27473 2.47995 9.53011C2.54702 9.63551 2.60727 9.65176 2.72307 9.61139C3.0406 9.50022 3.36336 9.40216 3.68508 9.3041C3.76891 9.2784 3.80245 9.24904 3.79511 9.14888C3.68141 7.54898 4.00732 6.58044 5.09298 5.28626C5.06259 5.25322 5.03377 5.21547 4.99919 5.184C4.50352 4.73566 4.00418 4.29098 3.51269 3.83738C3.41576 3.74771 3.35393 3.74771 3.2439 3.81798C2.50929 4.28573 1.60126 4.25637 0.904377 3.75296C0.225837 3.26266 -0.0833066 2.42102 0.112658 1.59721C0.309146 0.771305 0.990831 0.14886 1.85276 0.0287755C2.70735 -0.0907842 3.39637 0.216505 3.87528 0.923376C4.35366 1.6292 4.34685 2.3754 3.92977 3.1174C3.89624 3.17666 3.85851 3.23329 3.8124 3.30723C4.38196 3.82165 4.95046 4.3345 5.50692 4.83634C5.82811 4.6376 6.13358 4.4462 6.44273 4.26004C6.49984 4.22595 6.569 4.20236 6.63502 4.19449C6.77702 4.17823 6.88234 4.24378 6.92006 4.38222C6.95884 4.52433 6.90801 4.6376 6.77649 4.71416C6.55014 4.84578 6.3154 4.96586 6.10319 5.11741C4.69686 6.12108 4.0309 7.90189 4.42964 9.56577C4.83309 11.2475 6.22737 12.5322 7.93709 12.796C10.3494 13.1683 12.5627 11.474 12.8456 9.03823C13.116 6.70787 11.3314 4.53377 8.98869 4.34184C8.86451 4.33188 8.73928 4.32559 8.6151 4.3172C8.43171 4.30461 8.32587 4.2055 8.32325 4.04294C8.32063 3.87304 8.4359 3.74037 8.62296 3.75873C9.02537 3.79858 9.42725 3.85364 9.82495 3.92443C10.0314 3.96114 10.2294 4.04556 10.4474 4.11373C10.7985 3.67902 11.1548 3.23854 11.5079 2.8012C10.8451 1.80959 11.1988 0.879853 11.7883 0.397418C12.4359 -0.132211 13.3497 -0.133259 13.9564 0.398991C14.6035 0.966376 14.7482 1.94226 14.2923 2.66591C13.7893 3.46402 12.9415 3.65595 11.871 3.20235C11.5514 3.58568 11.2287 3.9732 10.8938 4.37488C11.6033 4.78023 12.1776 5.31615 12.6104 5.99785C13.0432 6.67955 13.2821 7.42785 13.3486 8.24536C13.7898 8.29256 14.2221 8.33818 14.6627 8.38538C14.6994 8.28469 14.7293 8.19083 14.7665 8.09959C15.0751 7.34972 15.8789 6.90661 16.646 7.06183C17.4225 7.21914 17.9915 7.90137 17.9999 8.68532C18.0083 9.48449 17.4534 10.1662 16.6596 10.3329C15.8061 10.5118 14.9363 9.97531 14.7136 9.11847C14.6774 8.98003 14.6182 8.93965 14.4909 8.92864C14.1257 8.89613 13.7615 8.85365 13.3822 8.8138C13.2611 10.2716 12.669 11.4803 11.5231 12.3849C10.3756 13.291 9.0589 13.5668 7.61904 13.3382C7.5635 13.7241 7.50638 14.0875 7.46499 14.4525C7.45975 14.5013 7.52472 14.5789 7.57712 14.6109C8.23627 15.0131 8.5758 15.5878 8.54174 16.3691C8.50192 17.2711 7.7296 18.0309 6.80898 18.075C5.87475 18.1195 5.03011 17.4373 4.90593 16.5385C4.74559 15.3775 5.56246 14.4258 6.73615 14.4043C6.79117 14.4032 6.84566 14.3985 6.91273 14.3943C6.96879 13.9858 7.02381 13.5857 7.0804 13.1699C5.45662 12.5773 4.38982 11.4546 3.88523 9.775H3.88681ZM0.624052 2.08122C0.61986 2.90031 1.26958 3.55264 2.09483 3.55894C2.94419 3.56523 3.62849 2.90765 3.63582 2.07965C3.64264 1.25164 2.97353 0.568368 2.15037 0.563124C1.30731 0.55788 0.628244 1.23329 0.624052 2.08122ZM8.01516 16.2459C8.01778 15.5579 7.45294 14.9711 6.78435 14.968C6.0487 14.9643 5.47129 15.5249 5.47286 16.2428C5.47391 16.9386 6.03822 17.5071 6.73301 17.5128C7.43512 17.5191 8.01254 16.9486 8.01516 16.2459ZM14.0534 1.71992C14.0534 1.08856 13.5284 0.563124 12.897 0.5626C12.2572 0.5626 11.7159 1.09275 11.7154 1.72044C11.7144 2.34708 12.2572 2.88143 12.8949 2.88143C13.5153 2.88143 14.0539 2.34184 14.0534 1.71992ZM16.4034 9.79597C16.9965 9.7923 17.5016 9.28365 17.499 8.69214C17.4964 8.09015 17.0023 7.60089 16.3971 7.60089C15.7757 7.60089 15.2575 8.11112 15.2679 8.71154C15.2784 9.31196 15.7898 9.80017 16.4039 9.7965L16.4034 9.79597ZM0.562224 10.3025C0.558556 10.7509 0.93267 11.1284 1.38066 11.1295C1.82708 11.1305 2.20487 10.7514 2.20225 10.3051C2.19963 9.86362 1.83337 9.49445 1.39219 9.48973C0.942103 9.48449 0.565892 9.85313 0.562224 10.3031V10.3025Z" fill="#FCFCFC"/>
<path d="M5.78446 8.70136C5.78446 8.03906 5.7897 7.37624 5.78131 6.71394C5.77869 6.50419 5.85886 6.382 6.04958 6.29391C6.83658 5.93156 7.6173 5.554 8.40587 5.1948C8.49338 5.15494 8.63223 5.16124 8.72235 5.20214C9.52874 5.56711 10.3288 5.94676 11.1337 6.31646C11.2929 6.38987 11.3516 6.50209 11.3511 6.66989C11.349 8.01337 11.3485 9.35736 11.3511 10.7008C11.3511 10.8933 11.2846 11.0087 11.0933 11.0794C10.3042 11.371 9.5214 11.6804 8.7323 11.9725C8.63747 12.0076 8.507 12.0102 8.41269 11.9756C7.62359 11.6835 6.84078 11.3747 6.05168 11.0821C5.85519 11.0092 5.78131 10.8886 5.78289 10.6883C5.7876 10.026 5.78446 9.36366 5.78446 8.70083V8.70136ZM10.7994 7.03591C10.7265 7.06738 10.671 7.09045 10.6165 7.11509C10.0889 7.35421 9.56332 7.59858 9.03254 7.83036C8.90574 7.88594 8.85806 7.95044 8.8591 8.09202C8.86539 9.10356 8.86225 10.1151 8.8633 11.1272C8.8633 11.1864 8.87063 11.2452 8.87587 11.3222C9.48263 11.0931 10.0637 10.8692 10.649 10.6578C10.78 10.6106 10.813 10.543 10.8119 10.4135C10.8072 9.35212 10.8093 8.29024 10.8088 7.22836C10.8088 7.1733 10.8036 7.11772 10.7999 7.03591H10.7994ZM8.27959 11.3159C8.28693 11.2661 8.29531 11.2362 8.29531 11.2063C8.29584 10.1502 8.29794 9.0936 8.2906 8.03749C8.2906 7.97771 8.22772 7.88961 8.17113 7.86287C7.62411 7.60539 7.07185 7.35788 6.52063 7.10828C6.47243 7.08678 6.42108 7.07262 6.36711 7.05374C6.35925 7.08678 6.35087 7.10408 6.35087 7.12191C6.34982 8.24095 6.34772 9.35946 6.35506 10.4785C6.35506 10.5341 6.42946 10.6159 6.48762 10.6395C6.8282 10.7779 7.17455 10.9027 7.51879 11.0317C7.7682 11.1251 8.01813 11.2184 8.27907 11.3154L8.27959 11.3159ZM6.75065 6.61011C7.24214 6.83927 7.70795 7.03329 8.1507 7.27084C8.44831 7.43077 8.69667 7.43707 8.99691 7.27398C9.44281 7.03224 9.91438 6.83769 10.3828 6.61903C10.3582 6.59595 10.3472 6.57865 10.3315 6.57131C9.7771 6.31436 9.22274 6.05636 8.66576 5.80623C8.61336 5.78263 8.53162 5.79155 8.47608 5.81514C8.21253 5.92841 7.95369 6.05217 7.69327 6.17225C7.38937 6.31279 7.08599 6.45384 6.75013 6.60959L6.75065 6.61011Z" fill="#FCFCFC"/>
</svg>
