<svg width="21" height="22" viewBox="0 0 21 22" fill="none" xmlns="http://www.w3.org/2000/svg">
<g id="Notification">
<path id="Vector" d="M16.8175 14.218H16.8049V10.5591C16.8049 7.7469 14.928 5.37078 12.356 4.60611C12.5456 4.29646 12.6657 3.93625 12.6657 3.54445C12.6657 2.40062 11.7367 1.47168 10.5929 1.47168C9.44903 1.47168 8.52005 2.40062 8.52005 3.54445C8.52005 3.93625 8.64012 4.29646 8.82974 4.60611C6.25771 5.37078 4.38081 7.7469 4.38081 10.5591V14.218H4.36819C3.21804 14.218 2.28906 15.1533 2.28906 16.2971C2.28906 17.4409 3.21805 18.3763 4.36819 18.3763H7.93867C8.22305 19.5517 9.27839 20.4301 10.5423 20.4301H10.6434C11.9073 20.4301 12.9626 19.5517 13.247 18.3763H16.8175C17.9677 18.3763 18.8966 17.4409 18.8966 16.2971C18.8966 15.1533 17.9677 14.218 16.8175 14.218ZM10.5929 2.73557C11.0352 2.73557 11.4018 3.09579 11.4018 3.54445C11.4018 3.98682 11.0352 4.34703 10.5929 4.34703C10.1505 4.34703 9.78394 3.98682 9.78394 3.54445C9.78394 3.09579 10.1505 2.73557 10.5929 2.73557ZM16.8175 17.1124H4.36819C3.9195 17.1124 3.55296 16.7458 3.55296 16.2971C3.55296 15.8485 3.9195 15.4819 4.36819 15.4819H16.8175C17.2662 15.4819 17.6327 15.8485 17.6327 16.2971C17.6327 16.7458 17.2662 17.1124 16.8175 17.1124Z" fill="#979797"/>
</g>
</svg>
