<svg width="16" height="18" viewBox="0 0 16 18" fill="none" xmlns="http://www.w3.org/2000/svg">
<path d="M8.10068 0C8.45547 0.177908 8.80794 0.359953 9.16504 0.532345C11.3615 1.59198 13.5584 2.65069 15.7572 3.70481C15.9304 3.78801 16.0005 3.89789 16 4.09096C15.9954 7.03863 15.9954 9.98629 16 12.934C16 13.1284 15.9263 13.2364 15.7544 13.3187C13.2363 14.5273 10.7197 15.7396 8.20435 16.955C8.06059 17.0245 7.94033 17.0235 7.79657 16.9541C5.28633 15.7414 2.77471 14.5315 0.26079 13.3265C0.0755632 13.2378 -0.000458682 13.1252 2.08098e-06 12.9179C0.00507047 9.98123 0.00507047 7.0446 2.08098e-06 4.10797C2.08098e-06 3.90156 0.0718861 3.7871 0.258495 3.69791C2.75767 2.50083 5.25408 1.2973 7.75049 0.0942407C7.80348 0.0689566 7.85048 0.0321797 7.90024 0.00045971C7.96705 0.00045971 8.03341 0.00045971 8.10022 0.00045971L8.10068 0ZM7.75049 16.373V15.7736C7.75049 13.2135 7.7482 10.6538 7.75511 8.09366C7.75511 7.91621 7.70443 7.82059 7.5404 7.76175C7.40539 7.71348 7.27913 7.64085 7.14966 7.57741C6.97457 7.49144 6.91099 7.36088 6.97412 7.22113C7.03724 7.08092 7.18283 7.04368 7.35839 7.12413C7.3888 7.13793 7.42106 7.14942 7.44732 7.16873C7.82146 7.44179 8.17532 7.41467 8.56835 7.17102C8.92913 6.94761 9.33183 6.79176 9.71795 6.60926C9.88475 6.53019 10.0248 6.56696 10.0912 6.69798C10.1603 6.83498 10.099 6.97105 9.92898 7.05839C9.8995 7.07357 9.87001 7.08874 9.84006 7.10299C9.36547 7.33146 8.8932 7.56408 8.41538 7.78566C8.2942 7.84174 8.2472 7.90748 8.24766 8.04539C8.25227 10.7549 8.25089 13.4645 8.25135 16.174C8.25135 16.2319 8.25642 16.2894 8.2601 16.3648C8.32645 16.3354 8.37161 16.3165 8.41538 16.2954C10.7326 15.1796 13.0493 14.063 15.3683 12.9514C15.4793 12.8981 15.5005 12.8324 15.5001 12.7225C15.4973 10.0019 15.4982 7.28135 15.4982 4.56079V4.38242C15.4314 4.41276 15.3867 4.43207 15.3429 4.45322C14.6735 4.77501 14.0058 5.10003 13.334 5.41677C13.2276 5.46688 13.1916 5.52526 13.1926 5.64157C13.1976 6.55593 13.1916 7.4703 13.1981 8.3842C13.1995 8.57682 13.1281 8.69083 12.9544 8.77174C12.3918 9.03423 11.8342 9.3073 11.2749 9.57577C10.9809 9.7169 10.8265 9.62266 10.8261 9.29994C10.8252 8.38558 10.8233 7.47122 10.8289 6.55731C10.8298 6.43917 10.7897 6.3817 10.686 6.33159C8.26793 5.17036 5.85169 4.00454 3.43223 2.84561C3.36634 2.81389 3.25898 2.81665 3.19171 2.84837C2.58903 3.12971 1.99142 3.42163 1.39197 3.70986C1.21457 3.79537 1.03718 3.88042 0.837205 3.97696C0.909545 4.01373 0.957933 4.03948 1.00677 4.06292C2.56461 4.81363 4.12245 5.56434 5.67983 6.31504C5.86459 6.40423 6.0512 6.48973 6.23274 6.58489C6.36913 6.65661 6.41337 6.7982 6.35116 6.92186C6.29265 7.03817 6.15994 7.08368 6.02171 7.03173C5.97011 7.01242 5.92126 6.98484 5.8715 6.96048C4.14364 6.1284 2.41578 5.29587 0.687918 4.46379C0.632166 4.43667 0.57457 4.41322 0.503152 4.3815V4.57596C0.503152 7.28549 0.504542 9.99503 0.499473 12.7046C0.499473 12.8416 0.54417 12.9059 0.663508 12.9634C2.63788 13.9099 4.60948 14.8611 6.58201 15.8113C6.96029 15.9933 7.33903 16.1749 7.74957 16.3717L7.75049 16.373ZM5.94154 1.51888C6.00835 1.55566 6.04982 1.58094 6.09313 1.60209C8.39418 2.71045 10.6948 3.81927 12.9981 4.9235C13.0557 4.95108 13.1497 4.94924 13.2082 4.92212C13.8298 4.62974 14.4481 4.32955 15.0665 4.0312C15.0937 4.01833 15.1167 3.99718 15.1513 3.97282C15.1038 3.94937 15.0697 3.9319 15.0352 3.91535C14.1367 3.48231 13.2386 3.0488 12.3402 2.61621C10.9376 1.94044 9.53503 1.26466 8.13062 0.592567C8.0698 0.563605 7.97582 0.545217 7.92006 0.57142C7.26808 0.877128 6.6207 1.19249 5.942 1.51934L5.94154 1.51888ZM3.91189 2.51048C3.96349 2.53898 3.99574 2.55875 4.02983 2.5753C6.33641 3.68688 8.64299 4.79892 10.9519 5.90544C11.0136 5.93486 11.115 5.93027 11.179 5.90084C11.5868 5.71328 11.9895 5.51469 12.3936 5.31931C12.4263 5.30368 12.4567 5.28391 12.5065 5.25541C12.4457 5.22277 12.4042 5.19795 12.3614 5.17726C11.3679 4.69824 10.3745 4.21922 9.38114 3.74066C8.08824 3.1173 6.79534 2.49347 5.50106 1.87332C5.44162 1.84482 5.35315 1.81907 5.30154 1.84252C4.84078 2.05629 4.38509 2.28108 3.91189 2.51094V2.51048ZM12.6857 5.74132C12.6212 5.76937 12.5715 5.78867 12.5231 5.81166C12.1734 5.97945 11.8259 6.15231 11.4735 6.3132C11.3629 6.36377 11.3205 6.42308 11.3219 6.54858C11.3283 7.30158 11.3251 8.05505 11.3256 8.80805C11.3256 8.86138 11.3302 8.91471 11.3329 8.97861C11.3675 8.96941 11.3891 8.96665 11.4076 8.95792C11.8071 8.76622 12.2047 8.57084 12.6074 8.38466C12.7037 8.34007 12.6954 8.27157 12.6954 8.1948C12.6954 7.43076 12.6954 6.66626 12.6954 5.90222C12.6954 5.85487 12.6903 5.80706 12.6867 5.74132H12.6857Z" fill="#FCFCFC"/>
<path d="M1.2857 10.1445C1.38016 10.1776 1.4396 10.1923 1.49351 10.2181C2.17728 10.5459 2.86105 10.875 3.54391 11.2051C3.72913 11.2947 3.79365 11.4308 3.72545 11.5724C3.65772 11.7135 3.51396 11.7429 3.32229 11.651C2.64358 11.3251 1.96533 10.9982 1.28709 10.6709C1.24239 10.6493 1.17789 10.6318 1.16176 10.5955C1.1249 10.5114 1.07699 10.4066 1.09957 10.3293C1.12168 10.2535 1.22488 10.2011 1.2857 10.1445Z" fill="#FCFCFC"/>
<path d="M1.28375 11.3208C1.37959 11.3571 1.43258 11.3732 1.48188 11.3966C1.82607 11.5607 2.17026 11.7253 2.5126 11.8927C2.6923 11.9805 2.74943 12.1073 2.6817 12.2485C2.61535 12.3855 2.47206 12.4227 2.29835 12.34C1.94356 12.1717 1.59016 12.0016 1.23721 11.8297C1.11511 11.7704 1.03356 11.6674 1.087 11.5368C1.12294 11.449 1.22109 11.3861 1.28375 11.3203V11.3208Z" fill="#FCFCFC"/>
</svg>
