<svg width="19" height="23" viewBox="0 0 19 23" fill="none" xmlns="http://www.w3.org/2000/svg">
<path d="M5.47068 8.53616C5.05754 6.59062 5.55365 4.97826 7.20678 3.87059C8.6928 2.87515 10.2873 2.87108 11.778 3.85955C13.4439 4.96488 13.9469 6.5819 13.5303 8.53674C13.6278 8.57744 13.7386 8.62628 13.8506 8.66989C14.8875 9.07458 15.9268 9.47287 16.959 9.88919C17.1 9.94617 17.2433 10.0689 17.3205 10.1997C17.8526 11.0963 18.3679 12.0033 18.8878 12.9069C19.0879 13.2552 19.027 13.4273 18.651 13.5744C18.2675 13.7244 17.8863 13.8809 17.4975 14.0175C17.3472 14.0704 17.3072 14.1472 17.3077 14.2995C17.3135 15.7717 17.3112 17.2445 17.3112 18.7168C17.3112 19.0738 17.2677 19.1407 16.9422 19.2674C14.5521 20.1995 12.1609 21.1304 9.77148 22.0648C9.59392 22.1345 9.43087 22.1427 9.24868 22.0712C6.85283 21.1327 4.45524 20.1989 2.05824 19.2639C1.73794 19.1389 1.69094 19.0738 1.69036 18.736C1.69036 17.2637 1.68688 15.7909 1.69442 14.3187C1.69558 14.146 1.64858 14.064 1.48263 14.0059C1.08052 13.8652 0.685948 13.7023 0.289639 13.5454C-0.00512751 13.4285 -0.0759178 13.2366 0.0819098 12.961C0.621541 12.0185 1.16175 11.0759 1.71415 10.1404C1.7774 10.0334 1.90505 9.94094 2.02342 9.89384C3.13112 9.45252 4.24345 9.02225 5.35405 8.58849C5.3935 8.57279 5.43122 8.55302 5.47068 8.53441V8.53616ZM9.8562 21.2705C9.92873 21.2467 9.99023 21.2298 10.0494 21.2071C12.1778 20.3786 14.305 19.5483 16.4351 18.7249C16.5871 18.6662 16.6207 18.5848 16.6202 18.4365C16.6149 17.1527 16.6173 15.8688 16.6167 14.585C16.6167 14.5228 16.6103 14.4606 16.6062 14.378C16.4948 14.4187 16.4002 14.4513 16.3074 14.4873C14.6775 15.1217 13.0481 15.7566 11.4182 16.3898C11.1235 16.5044 11.0045 16.4625 10.8461 16.1892C10.5554 15.688 10.2676 15.1856 9.97689 14.6838C9.94788 14.6332 9.91016 14.5873 9.8562 14.51V21.2699V21.2705ZM2.3855 14.371C2.3855 14.4699 2.3855 14.5414 2.3855 14.6123C2.3855 15.8816 2.38956 17.1509 2.38085 18.4208C2.37969 18.5953 2.43308 18.6697 2.59497 18.7325C4.5974 19.5058 6.59636 20.2884 8.59648 21.0676C8.77461 21.1368 8.95391 21.2019 9.13437 21.2693V14.4972C8.80711 15.0635 8.50654 15.5833 8.20655 16.1037C7.98373 16.4904 7.90656 16.5177 7.494 16.3567C5.93198 15.7473 4.36937 15.1379 2.80734 14.5292C2.67446 14.4774 2.541 14.4292 2.38608 14.3716L2.3855 14.371ZM9.50979 3.85897C7.59265 3.85141 6.02656 5.41144 6.02133 7.33488C6.01611 9.26064 7.5677 10.834 9.48078 10.8422C11.3991 10.8509 12.9721 9.29262 12.9803 7.375C12.989 5.43586 11.4397 3.86652 9.50979 3.85897ZM11.3486 15.6723C13.6243 14.785 15.8821 13.9047 18.152 13.0203C17.7 12.2359 17.2596 11.4725 16.8087 10.6898C14.54 11.5737 12.2822 12.4534 10.0053 13.3407C10.4539 14.1192 10.8931 14.8821 11.3486 15.6723ZM0.851319 13.0197C3.12705 13.9059 5.38654 14.7862 7.65531 15.67C8.10675 14.8862 8.54716 14.1216 8.99569 13.3436C8.90169 13.3052 8.82277 13.2715 8.7427 13.2401C7.80038 12.8726 6.85747 12.5051 5.91515 12.1377C4.73666 11.6783 3.55934 11.2178 2.37853 10.7649C2.31122 10.7393 2.17138 10.7468 2.14701 10.7875C1.71125 11.5207 1.28883 12.2615 0.8519 13.0191L0.851319 13.0197ZM13.2739 9.16761C13.2332 9.23797 13.2048 9.28681 13.1764 9.33623C12.3988 10.6887 11.2354 11.4649 9.67864 11.5219C7.98664 11.5841 6.70139 10.8265 5.84552 9.35949C5.75964 9.21238 5.69814 9.16587 5.53334 9.23913C5.20376 9.38566 4.86316 9.50892 4.52777 9.64266C4.03224 9.84035 3.53729 10.038 3.00984 10.2491C3.09514 10.2863 3.14446 10.3102 3.19552 10.3299C5.24844 11.1294 7.30136 11.9307 9.35718 12.7232C9.45176 12.7598 9.5858 12.7511 9.6827 12.7139C10.9105 12.2429 12.1343 11.7632 13.3597 11.2858C14.2272 10.9474 15.0953 10.6096 16.0097 10.2532C15.0721 9.88105 14.1761 9.5252 13.2744 9.16703L13.2739 9.16761Z" fill="#FCFCFC"/>
<path d="M6.69929 3.1235C6.64887 3.07659 6.52994 3.01216 6.47239 2.90519C6.21206 2.42041 5.96598 1.92562 5.72209 1.42958C5.62124 1.22504 5.67824 1.00673 5.83992 0.904769C5.99667 0.805937 6.17863 0.855979 6.28112 1.05239C6.54309 1.55469 6.80233 2.05886 7.04841 2.57116C7.17173 2.82763 7.00895 3.1235 6.69874 3.12413L6.69929 3.1235Z" fill="#FCFCFC"/>
<path d="M9.92134 1.14314C9.92134 1.39111 9.92418 1.63907 9.9204 1.88704C9.9171 2.11851 9.8034 2.26866 9.63876 2.26866C9.47412 2.26866 9.35901 2.11908 9.35759 1.88704C9.35476 1.38428 9.35476 0.88096 9.35759 0.378204C9.35901 0.14332 9.47081 0 9.63923 0C9.80812 0 9.91757 0.14332 9.92087 0.378204C9.92418 0.632994 9.92182 0.888353 9.92182 1.14314H9.92134Z" fill="#FCFCFC"/>
<path d="M3.40592 3.39908C3.52572 3.45819 3.59793 3.48389 3.66194 3.5263C4.07058 3.80001 4.47814 4.07501 4.8835 4.35387C5.09521 4.49908 5.15538 4.7079 5.05473 4.91286C4.95571 5.11462 4.76807 5.15895 4.55746 5.01759C4.13678 4.73681 3.71883 4.45089 3.30088 4.16561C3.14443 4.05895 3.07222 3.88483 3.14661 3.6985C3.19694 3.5732 3.32331 3.49032 3.40646 3.39844L3.40592 3.39908Z" fill="#FCFCFC"/>
<path d="M12.2872 3.11789C11.9894 3.10804 11.8314 2.85962 11.9495 2.64184C12.1992 2.18111 12.4654 1.72913 12.7348 1.27989C12.8283 1.12449 13.0174 1.09385 13.166 1.18031C13.3119 1.26567 13.3764 1.44624 13.2873 1.60656C13.0332 2.0651 12.772 2.51981 12.4993 2.96741C12.4501 3.04839 12.332 3.08724 12.2867 3.11789H12.2872Z" fill="#FCFCFC"/>
<path d="M15.8796 4.07685C15.8428 4.12258 15.7869 4.24104 15.6942 4.29778C15.275 4.55563 14.847 4.7997 14.4191 5.04212C14.2237 5.15286 14.0333 5.10382 13.9395 4.93578C13.8446 4.76444 13.9006 4.58703 14.1008 4.46858C14.5189 4.22175 14.9381 3.97713 15.3611 3.73912C15.6141 3.59642 15.8774 3.73581 15.8791 4.0763L15.8796 4.07685Z" fill="#FCFCFC"/>
<path d="M15.5842 7.93814C15.3361 7.93814 15.088 7.9438 14.8399 7.93672C14.6021 7.92964 14.4621 7.76614 14.4609 7.51275C14.4598 7.25653 14.5986 7.09586 14.8376 7.09303C15.3406 7.08878 15.8436 7.08878 16.3472 7.09303C16.5828 7.09515 16.729 7.26148 16.7296 7.50992C16.7296 7.75623 16.5822 7.92964 16.3495 7.93672C16.0946 7.94451 15.8391 7.93814 15.5842 7.93814Z" fill="#FCFCFC"/>
<path d="M3.11594 7.65537C2.86758 7.65537 2.61979 7.65962 2.37143 7.65443C2.11795 7.64924 1.97725 7.5384 1.98465 7.362C1.99149 7.19408 2.1282 7.09456 2.37599 7.09267C2.87214 7.0889 3.36886 7.0889 3.86501 7.09267C4.10938 7.09456 4.24837 7.19786 4.25293 7.3653C4.25748 7.54029 4.11507 7.64924 3.86045 7.65443C3.61266 7.65915 3.3643 7.65537 3.11594 7.65537Z" fill="#FCFCFC"/>
<path d="M8.65734 7.37386C9.32694 6.70106 9.97331 6.0545 10.6156 5.40502C10.8793 5.13858 11.1911 5.04239 11.5477 5.14675C12.1958 5.33506 12.4055 6.13087 11.9391 6.63809C11.679 6.92086 11.399 7.18554 11.1278 7.45839C10.5134 8.07522 9.90013 8.69321 9.28396 9.30888C8.81182 9.78053 8.23688 9.75022 7.82281 9.2325C7.46449 8.78475 7.10849 8.33524 6.75482 7.88458C6.40753 7.44207 6.44934 6.88587 6.84948 6.56347C7.26297 6.23057 7.81119 6.31161 8.16951 6.75936C8.32747 6.95642 8.4837 7.15523 8.65734 7.37444V7.37386ZM7.42442 7.02813C7.34892 7.0841 7.25251 7.12025 7.24729 7.16747C7.23683 7.25725 7.24961 7.37386 7.30188 7.44265C7.63987 7.88807 7.99064 8.323 8.33735 8.76143C8.52202 8.99522 8.60739 8.99988 8.82169 8.78533C9.66203 7.94229 10.5018 7.09926 11.3415 6.25564C11.3822 6.21483 11.4461 6.1746 11.4536 6.12679C11.4664 6.04342 11.4734 5.9239 11.4263 5.87668C11.3787 5.82945 11.2585 5.83354 11.1772 5.84986C11.1226 5.86094 11.079 5.9309 11.0332 5.97754C10.3415 6.67133 9.65041 7.36628 8.95816 8.05948C8.69567 8.32184 8.51099 8.30959 8.27753 8.0175C8.06033 7.74524 7.8472 7.46947 7.62652 7.19954C7.57483 7.13657 7.50049 7.09168 7.425 7.02871L7.42442 7.02813Z" fill="#FCFCFC"/>
</svg>
