<svg width="17" height="18" viewBox="0 0 17 18" fill="none" xmlns="http://www.w3.org/2000/svg">
<path d="M9.72676 0.000891231C9.80779 0.0668424 9.89551 0.126109 9.96898 0.199636C10.9022 1.13543 11.8319 2.07479 12.7679 3.00791C12.8966 3.13624 12.9478 3.27438 12.9469 3.45218C12.9424 4.33539 12.9451 5.21861 12.9451 6.10182C12.9451 6.16153 12.9451 6.22124 12.9451 6.32017C13.015 6.256 13.0586 6.21901 13.0992 6.17846C13.6704 5.61119 14.2408 5.04303 14.8121 4.47532C15.0574 4.23157 15.1848 4.23112 15.4279 4.47443C15.8869 4.93386 16.3456 5.39418 16.8046 5.85405C17.0669 6.11697 17.0655 6.22213 16.7979 6.48995C15.5539 7.73544 14.3107 8.98139 13.064 10.2242C12.9785 10.3098 12.9424 10.394 12.9429 10.5152C12.9464 12.5374 12.9455 14.5592 12.9446 16.5814C12.9446 16.6642 12.9411 16.7485 12.9268 16.8296C12.9019 16.9731 12.8075 17.0506 12.665 17.0666C12.6103 17.0729 12.5542 17.0693 12.4985 17.0693C8.47958 17.0693 4.46109 17.0693 0.442153 17.0693C0.090396 17.0693 0.00221761 16.9811 0.00221761 16.625C0.00221761 11.2309 0.00222631 5.83712 0 0.442942C0 0.258903 0.0365106 0.104274 0.199476 0C3.37508 0.000891231 6.5507 0.000891231 9.72676 0.000891231ZM0.60867 0.602918V16.4637H12.3382V10.988C12.0599 11.2585 11.7945 11.5267 11.5167 11.7812C11.4178 11.8716 11.2967 11.9532 11.1712 11.9969C10.5273 12.2197 9.87858 12.4287 9.23162 12.6435C9.17774 12.6613 9.12609 12.6853 9.0731 12.7063C9.23562 12.7321 9.39058 12.7317 9.54508 12.7321C9.83362 12.7321 10.1226 12.7286 10.4111 12.7357C10.5794 12.7397 10.6872 12.848 10.6983 13.0008C10.7108 13.1666 10.6186 13.282 10.4441 13.3132C10.3897 13.323 10.3336 13.3248 10.2789 13.3248C7.73643 13.3252 5.19354 13.3252 2.65109 13.3248C2.5794 13.3248 2.50549 13.3217 2.43692 13.3034C2.28865 13.2638 2.21784 13.1581 2.22674 13.0057C2.2352 12.8596 2.31891 12.7696 2.45962 12.7415C2.52952 12.7277 2.60344 12.7326 2.67557 12.7326C4.60222 12.7326 6.52844 12.7326 8.45508 12.7326H8.64654C8.38027 12.3988 8.70887 12.1363 8.69328 11.8382H8.59088C6.61436 11.8382 4.63828 11.8382 2.66177 11.8382C2.60077 11.8382 2.53845 11.8427 2.47923 11.832C2.33274 11.8053 2.2401 11.7201 2.22764 11.5651C2.21561 11.4131 2.29888 11.2973 2.45205 11.262C2.52151 11.246 2.59498 11.2438 2.66622 11.2438C4.69795 11.2429 6.73012 11.242 8.76186 11.2456C8.87896 11.2456 8.93596 11.2179 8.97203 11.0981C9.07043 10.7688 9.17863 10.4417 9.29841 10.1199C9.34338 9.99962 9.41328 9.87707 9.50278 9.78661C10.4129 8.86642 11.3306 7.95424 12.2407 7.03404C12.3021 6.9721 12.3489 6.86471 12.3498 6.77826C12.3573 5.7783 12.3547 4.77789 12.3542 3.77793C12.3542 3.72401 12.3493 3.67009 12.3462 3.6028C12.2741 3.6028 12.214 3.6028 12.1539 3.6028C11.36 3.6028 10.5661 3.6028 9.77215 3.6028C9.46982 3.6028 9.38923 3.5217 9.38879 3.21735C9.38834 2.40632 9.38879 1.59486 9.38879 0.783838C9.38879 0.725462 9.38879 0.667532 9.38879 0.605146H0.610452L0.60867 0.602918ZM13.8094 6.35181C12.5622 7.60844 11.3199 8.85973 10.0999 10.0887C10.4668 10.459 10.8479 10.8436 11.205 11.2041C12.446 9.97021 13.6967 8.72649 14.9443 7.48634C14.5676 7.1098 14.1869 6.72969 13.8094 6.35181ZM15.1256 5.05551C14.8406 5.34249 14.5485 5.63659 14.2702 5.91689C14.6371 6.28452 15.0169 6.66463 15.3865 7.03494C15.671 6.75152 15.9644 6.4592 16.2458 6.17891C15.8758 5.80771 15.4969 5.42804 15.1256 5.05551ZM9.98856 2.98874H11.872C11.2482 2.36577 10.6155 1.73345 9.98856 1.10736V2.98874ZM10.6124 11.5686C10.3176 11.2723 10.0273 10.9804 9.73521 10.6868C9.59496 11.1065 9.44935 11.5428 9.29395 12.0089C9.76192 11.8525 10.2001 11.7063 10.6128 11.5686H10.6124Z" fill="#FCFCFC"/>
<path d="M6.45155 14.8017C5.18611 14.8017 3.92112 14.8017 2.65569 14.8017C2.58934 14.8017 2.52076 14.8062 2.45665 14.7923C2.31773 14.762 2.2318 14.6747 2.22334 14.5277C2.21488 14.3753 2.28479 14.2705 2.43306 14.23C2.49629 14.2126 2.56441 14.2077 2.62986 14.2077C5.18255 14.2068 7.73524 14.2068 10.2879 14.2077C10.3538 14.2077 10.422 14.2126 10.4847 14.23C10.633 14.2705 10.7033 14.3748 10.6949 14.5272C10.6869 14.6743 10.6005 14.7612 10.462 14.7923C10.4037 14.8057 10.3405 14.8017 10.2799 14.8017C9.00379 14.8017 7.72723 14.8017 6.45111 14.8017H6.45155Z" fill="#FCFCFC"/>
<path d="M4.61788 9.76261C5.26662 9.76261 5.91539 9.76261 6.56414 9.76261C6.63048 9.76261 6.69905 9.75815 6.76272 9.77331C6.90966 9.80806 6.99291 9.90788 6.99157 10.0589C6.99024 10.2007 6.91588 10.3023 6.7734 10.3352C6.70438 10.3513 6.63048 10.3531 6.55879 10.3535C5.25551 10.3544 3.95266 10.3544 2.64938 10.3539C2.60485 10.3539 2.56032 10.3548 2.51669 10.3499C2.32166 10.3285 2.21347 10.2127 2.22327 10.0371C2.23217 9.87312 2.34749 9.76484 2.53806 9.76395C3.23133 9.76038 3.92417 9.76261 4.61744 9.76261V9.76172L4.61788 9.76261Z" fill="#FCFCFC"/>
</svg>
