<svg width="15" height="15" viewBox="0 0 15 15" fill="none" xmlns="http://www.w3.org/2000/svg">
<path d="M12.1944 6.17235C12.4743 5.92077 12.7611 5.73188 13.1175 5.6564C13.7462 5.52319 14.3927 5.78591 14.7457 6.32453C15.0958 6.85862 15.0843 7.56717 14.7118 8.08105C14.6399 8.18044 14.5547 8.272 14.4675 8.35902C13.7425 9.08407 13.0141 9.80581 12.2928 10.5346C12.2362 10.5919 12.1952 10.6925 12.1944 10.7734C12.1874 11.6329 12.1944 12.4928 12.1886 13.3522C12.1837 14.173 11.6831 14.7953 10.9138 14.945C10.7984 14.9673 10.6778 14.9706 10.5599 14.9706C7.58369 14.9718 4.60743 14.9723 1.63158 14.9714C0.811045 14.9714 0.182311 14.4757 0.0297775 13.7082C0.00497533 13.5832 0.00125743 13.4525 0.00125743 13.3242C1.73243e-05 9.43298 -0.000396852 5.54134 0.000429886 1.65011C0.000429886 0.813302 0.487793 0.188478 1.26203 0.0325815C1.38728 0.0074236 1.51832 0.00412418 1.64646 0.00412418C3.96753 0.00247449 6.28859 0.00412425 8.60966 0C8.7994 0 8.93954 0.0577394 9.07388 0.19219C10.0515 1.17459 11.0341 2.15203 12.0191 3.12742C12.1419 3.24908 12.1965 3.38147 12.1956 3.55221C12.1919 4.37046 12.194 5.18913 12.194 6.00738C12.194 6.06223 12.194 6.11708 12.194 6.17152L12.1944 6.17235ZM11.5636 11.2567C10.9485 11.8708 10.3727 12.4532 9.78612 13.0244C9.68443 13.1234 9.54636 13.2071 9.41036 13.2463C8.66836 13.4591 7.92141 13.6562 7.1761 13.8575C6.84913 13.9457 6.6565 13.7552 6.74496 13.4306C6.94875 12.6816 7.14965 11.9323 7.36294 11.1862C7.39767 11.0641 7.47125 10.9392 7.56054 10.8492C8.8581 9.54557 10.1623 8.24808 11.4603 6.94482C11.5173 6.8879 11.5586 6.78727 11.5591 6.70685C11.5657 5.77518 11.5636 4.84352 11.5632 3.91185C11.5632 3.86194 11.5586 3.81204 11.5553 3.74647C11.4908 3.74647 11.4355 3.74647 11.3805 3.74647C10.9316 3.74647 10.4831 3.74894 10.0341 3.74605C9.12845 3.74028 8.4501 3.07174 8.43646 2.1677C8.42985 1.7095 8.43522 1.25171 8.43522 0.793505C8.43522 0.73989 8.43522 0.685862 8.43522 0.625648C8.36743 0.625648 8.32651 0.625648 8.28517 0.625648C6.06745 0.625648 3.84931 0.624823 1.63158 0.626061C1.00409 0.626061 0.625444 1.0092 0.625444 1.64063C0.62503 5.53721 0.62503 9.43339 0.625444 13.33C0.625444 13.9696 1.00326 14.3495 1.64233 14.3495C4.60825 14.3503 7.57377 14.3433 10.5397 14.3557C11.1176 14.3582 11.5901 13.9379 11.5681 13.3205C11.5467 12.7192 11.5636 12.1162 11.5636 11.5141C11.5636 11.444 11.5636 11.3738 11.5636 11.2571V11.2567ZM9.44468 12.4383C10.7662 11.1198 12.0849 9.80375 13.3853 8.50626C12.9612 8.08476 12.5251 7.65213 12.103 7.2331C10.8001 8.53348 9.48187 9.8487 8.16612 11.1623C8.58899 11.5846 9.0218 12.0168 9.44468 12.4387V12.4383ZM12.583 6.72087C13.0244 7.16052 13.4606 7.59521 13.8991 8.03197C14.2327 7.76513 14.4605 7.43313 14.3485 6.9642C14.2571 6.5823 14.0087 6.34887 13.6226 6.27298C13.1662 6.18307 12.8409 6.39753 12.583 6.72087ZM9.0714 1.11726C9.0714 1.50329 9.05569 1.88891 9.07553 2.27287C9.09826 2.70757 9.43268 3.06308 9.87085 3.1035C10.2338 3.1369 10.6013 3.11999 10.9671 3.12453C11.0055 3.12494 11.044 3.11752 11.0725 3.11463C10.4066 2.4498 9.7423 1.78662 9.07182 1.11726H9.0714ZM7.85031 11.7615C7.72671 12.2164 7.60725 12.6573 7.47869 13.1304C7.95613 12.9992 8.39554 12.8784 8.84776 12.7542C8.50839 12.4165 8.18927 12.0985 7.85072 11.7611L7.85031 11.7615Z" fill="#FCFCFC"/>
<path d="M2.48944 7.79934C2.19553 7.79934 1.90163 7.80058 1.60772 7.79934C1.37045 7.7981 1.25223 7.68427 1.2514 7.45208C1.24933 6.8553 1.24975 6.25811 1.2514 5.66133C1.25223 5.43532 1.36549 5.31077 1.59036 5.30871C2.19884 5.30335 2.80732 5.30335 3.4158 5.30871C3.6324 5.31077 3.7498 5.4345 3.75104 5.65061C3.75435 6.25275 3.75476 6.85489 3.75104 7.45703C3.7498 7.68139 3.62621 7.79769 3.40257 7.79934C3.09833 7.8014 2.79409 7.79975 2.48985 7.79975L2.48944 7.79934ZM1.88344 7.16916H3.11942V5.94219H1.88344V7.16916Z" fill="#FCFCFC"/>
<path d="M1.25063 3.11617C1.25063 2.81757 1.24897 2.51898 1.25104 2.22079C1.25269 1.99726 1.37092 1.87106 1.59248 1.86982C2.196 1.86611 2.79952 1.86652 3.40263 1.86982C3.62543 1.87106 3.74944 1.99396 3.75068 2.21543C3.75399 2.81757 3.7544 3.41971 3.75068 4.02185C3.74903 4.24291 3.62295 4.36416 3.40014 4.36499C2.802 4.36746 2.20344 4.36746 1.6053 4.36499C1.37216 4.36416 1.25311 4.24332 1.25104 4.01154C1.24897 3.71295 1.25063 3.41435 1.25063 3.11617ZM3.12112 2.50083H1.8868V3.73439H3.12112V2.50083Z" fill="#FCFCFC"/>
<path d="M1.25037 9.96958C1.25037 9.68129 1.24954 9.39342 1.25037 9.10513C1.25161 8.8552 1.3595 8.74096 1.60421 8.74014C2.20236 8.73766 2.8005 8.73766 3.39864 8.74014C3.63344 8.74096 3.75001 8.85727 3.75084 9.09317C3.75332 9.685 3.75373 10.2768 3.75084 10.8682C3.7496 11.112 3.63303 11.2258 3.38707 11.2266C2.7943 11.2287 2.20112 11.2287 1.60835 11.2266C1.36198 11.2258 1.25202 11.1116 1.25078 10.8649C1.24913 10.5664 1.25078 10.2682 1.25078 9.96958H1.25037ZM1.88241 10.5944H3.11962V9.37527H1.88241V10.5944Z" fill="#FCFCFC"/>
<path d="M6.09182 6.24434C5.65861 6.24434 5.22581 6.24558 4.7926 6.24311C4.72109 6.24311 4.64669 6.23816 4.57931 6.21795C4.44744 6.17794 4.36146 6.04226 4.37676 5.90616C4.39246 5.76469 4.46811 5.66612 4.61031 5.63354C4.6748 5.6187 4.74341 5.61787 4.80997 5.61787C5.66564 5.61705 6.52173 5.61705 7.37741 5.61746C7.40303 5.61746 7.42907 5.61705 7.4547 5.61787C7.67999 5.62736 7.81475 5.74943 7.80937 5.93915C7.80441 6.12062 7.66841 6.24187 7.45305 6.24352C6.99917 6.24682 6.5457 6.24434 6.09182 6.24476V6.24434Z" fill="#FCFCFC"/>
<path d="M6.09377 9.06082C6.54227 9.06082 6.99078 9.06 7.4397 9.06082C7.67284 9.06165 7.80677 9.17135 7.81132 9.36066C7.81628 9.55491 7.67367 9.68152 7.44094 9.68193C6.53856 9.68317 5.63617 9.68193 4.73378 9.68276C4.58786 9.68276 4.47088 9.63409 4.40556 9.49675C4.35183 9.38334 4.3572 9.26044 4.44814 9.18249C4.52296 9.11856 4.63499 9.06866 4.73213 9.06577C5.18559 9.05381 5.63947 9.06041 6.09335 9.06041L6.09377 9.06082Z" fill="#FCFCFC"/>
<path d="M6.09438 2.80282C5.66117 2.80282 5.22838 2.80282 4.79517 2.80282C4.73853 2.80282 4.68108 2.80282 4.62569 2.79374C4.48721 2.77024 4.38758 2.65682 4.37601 2.51783C4.36485 2.38132 4.44711 2.24604 4.57939 2.20604C4.64677 2.18583 4.72117 2.18129 4.79268 2.18088C5.65869 2.17923 6.5247 2.17964 7.39112 2.18006C7.44238 2.18006 7.49488 2.17964 7.54531 2.1883C7.71355 2.218 7.82062 2.35286 7.80987 2.51495C7.79912 2.67125 7.6842 2.7855 7.51761 2.79911C7.44073 2.80529 7.36301 2.80241 7.28571 2.80282C6.88888 2.80282 6.49163 2.80282 6.0948 2.80282H6.09438Z" fill="#FCFCFC"/>
<path d="M5.62679 3.4304C5.92566 3.4304 6.22411 3.42834 6.52297 3.43123C6.73462 3.43329 6.87351 3.55825 6.8731 3.73931C6.8731 3.91954 6.73131 4.05028 6.52339 4.0511C5.92069 4.05357 5.318 4.05357 4.71572 4.0511C4.51028 4.05028 4.37056 3.91376 4.37511 3.73188C4.37924 3.55372 4.51111 3.43411 4.71572 3.43164C5.01955 3.42834 5.32338 3.43081 5.6272 3.43081L5.62679 3.4304Z" fill="#FCFCFC"/>
<path d="M5.6272 6.87181C5.92607 6.87181 6.22493 6.86975 6.52339 6.87263C6.73296 6.87428 6.8731 7.00131 6.87351 7.18154C6.87351 7.36177 6.73172 7.49168 6.5238 7.49251C5.92111 7.49457 5.31842 7.49457 4.71572 7.49251C4.50945 7.49168 4.37056 7.35723 4.37511 7.17453C4.37924 6.99554 4.51069 6.87511 4.71531 6.87304C5.01914 6.86975 5.32297 6.87222 5.6272 6.87222V6.87181Z" fill="#FCFCFC"/>
<path d="M5.61152 10.9194C5.31803 10.9194 5.02412 10.9214 4.73063 10.919C4.50823 10.9169 4.37017 10.7911 4.37513 10.6018C4.38009 10.422 4.52022 10.2987 4.73145 10.2983C5.32877 10.2966 5.9265 10.2962 6.52382 10.2983C6.73216 10.2991 6.87353 10.4298 6.87353 10.6101C6.87353 10.7903 6.7334 10.9169 6.52341 10.9186C6.21958 10.9214 5.91576 10.9194 5.61152 10.9194Z" fill="#FCFCFC"/>
</svg>
