<svg width="22" height="15" viewBox="0 0 22 15" fill="none" xmlns="http://www.w3.org/2000/svg">
<path d="M0.000476265 0.146989C0.128467 0.0979424 0.255978 0.00603999 0.383969 0.00603999C4.97925 -0.00110269 9.57454 -0.000150468 14.1698 0.000325711C14.4924 0.000325711 14.5528 0.0627053 14.5528 0.390792C14.5538 1.41696 14.5528 2.44265 14.5528 3.46881C14.5528 3.55119 14.5528 3.63309 14.5528 3.7469C14.6385 3.7469 14.7113 3.7469 14.7841 3.7469C15.4169 3.7469 16.0502 3.75214 16.683 3.74357C16.8714 3.74119 16.987 3.81023 17.0808 3.97261C17.7117 5.06972 18.3507 6.1616 18.9811 7.25872C19.0463 7.37205 19.1196 7.42586 19.248 7.44252C20.2753 7.57538 21.1874 8.51583 21.1394 9.71008C21.1165 10.2739 21.1355 10.8391 21.1355 11.4039C21.1355 11.7381 21.1232 11.7553 20.7996 11.8581C20.7996 12.0186 20.8034 12.1834 20.7987 12.3476C20.7887 12.7033 20.5817 12.9414 20.2334 12.9152C19.8266 12.8843 19.5992 12.9891 19.387 13.3876C18.9844 14.1433 18.2765 14.4762 17.4186 14.4057C16.5778 14.3366 15.986 13.8857 15.6472 13.1171C15.5801 12.9648 15.5068 12.9195 15.346 12.9205C14.2659 12.9281 13.1859 12.9271 12.1058 12.921C11.9683 12.92 11.9022 12.9591 11.8493 13.0905C11.5191 13.9066 10.754 14.4209 9.88952 14.4219C9.02879 14.4228 8.258 13.9057 7.92827 13.0914C7.8745 12.9591 7.80979 12.9191 7.67229 12.921C7.12892 12.9286 6.58508 12.9281 6.04172 12.921C5.9104 12.9191 5.85568 12.9643 5.80572 13.0867C5.47504 13.9033 4.71328 14.4162 3.84685 14.42C2.98565 14.4238 2.212 13.9095 1.88369 13.0943C1.82517 12.9486 1.74857 12.9171 1.61058 12.921C1.34937 12.9286 1.08768 12.9286 0.826466 12.92C0.495308 12.9095 0.294993 12.7052 0.275961 12.3738C0.274534 12.3534 0.272635 12.3324 0.274538 12.3119C0.300707 12.0486 0.298803 11.7972 0 11.6738C0 7.83108 0 3.98832 0 0.14556L0.000476265 0.146989ZM14.0409 0.514123H4.80321C4.80321 0.614596 4.80321 0.696975 4.80321 0.778878C4.80321 1.85314 4.80749 2.9274 4.79607 4.00118C4.79512 4.10403 4.71899 4.26165 4.63858 4.29308C4.55865 4.3245 4.39877 4.25832 4.32598 4.18356C3.97008 3.81976 3.63131 3.43881 3.28588 3.06501C3.25114 3.02739 3.20975 2.99549 3.16645 2.95692C2.7939 3.36643 2.43229 3.76309 2.07211 4.1607C1.976 4.26689 1.87751 4.36736 1.71907 4.30546C1.5592 4.2426 1.563 4.09927 1.563 3.95737C1.56443 2.88311 1.56396 1.80885 1.56396 0.735069C1.56396 0.662214 1.56396 0.589359 1.56396 0.507456H0.507205V7.28824H14.0409V0.514123ZM14.0352 8.96058H0.509104V11.3143C0.968728 11.3143 1.41551 11.3196 1.86133 11.3081C1.92176 11.3067 1.99836 11.2329 2.03738 11.1729C2.9 9.83865 4.79036 9.83722 5.643 11.1767C5.71246 11.2862 5.78574 11.3181 5.90707 11.3172C6.54702 11.3119 7.18649 11.3119 7.82645 11.3172C7.95015 11.3181 8.02153 11.281 8.09052 11.1739C8.9541 9.83389 10.8292 9.83675 11.6904 11.18C11.7608 11.29 11.837 11.3181 11.9578 11.3172C12.584 11.3124 13.2101 11.3153 13.8358 11.3143C13.901 11.3143 13.9667 11.3086 14.0347 11.3053V8.96058H14.0352ZM14.5785 7.91489V11.3139C14.9401 11.3139 15.2894 11.3186 15.6386 11.3081C15.6881 11.3067 15.74 11.2348 15.7818 11.1877C15.9417 11.0096 16.0759 10.8005 16.2595 10.6524C17.2701 9.83865 18.6909 10.0829 19.4027 11.1748C19.4417 11.2348 19.5193 11.3058 19.5811 11.3081C19.9289 11.321 20.2772 11.3143 20.6269 11.3143V9.96817C20.498 9.96817 20.3814 9.97436 20.2663 9.96722C19.7433 9.93341 19.4036 9.58247 19.387 9.06105C19.3827 8.93058 19.3855 8.79963 19.3855 8.66868C19.3855 8.39091 19.5175 8.21631 19.7814 8.14489C19.5145 7.98441 19.2414 7.91489 18.9478 7.91489C17.813 7.91489 16.6782 7.91489 15.5435 7.91489C15.228 7.91489 14.9125 7.91489 14.5785 7.91489ZM18.473 7.41062C18.4639 7.373 18.4634 7.35157 18.4539 7.33586C17.8758 6.33731 17.2987 5.33876 16.7135 4.3445C16.6816 4.2907 16.585 4.24974 16.5169 4.24736C16.2082 4.23689 15.8989 4.2426 15.5896 4.2426C15.2551 4.2426 14.9206 4.2426 14.5833 4.2426V7.41062H18.4725H18.473ZM14.0342 7.81108H0.510533V8.41059H14.0342V7.81108ZM2.07069 3.42357C2.30526 3.16596 2.51223 2.94025 2.7173 2.71407C3.0234 2.3763 3.32791 2.37376 3.63083 2.70645C3.84114 2.93692 4.05382 3.16549 4.28982 3.42072V0.524599H2.07069V3.42357ZM9.8919 13.9257C10.7916 13.9228 11.5229 13.1843 11.511 12.2905C11.4991 11.4015 10.7721 10.682 9.88667 10.6824C9.00025 10.6829 8.27512 11.4072 8.27084 12.2957C8.26656 13.1986 8.99264 13.9286 9.8919 13.9257ZM19.2052 12.3214C19.2152 11.431 18.5129 10.6939 17.6441 10.6829C16.7263 10.6715 15.9821 11.3862 15.975 12.2853C15.9679 13.189 16.684 13.9171 17.587 13.9247C18.4811 13.9319 19.1948 13.2248 19.2047 12.3214H19.2052ZM5.45315 12.3157C5.46124 11.4262 4.75611 10.692 3.88539 10.6829C2.98137 10.6734 2.23769 11.3762 2.22817 12.25C2.21818 13.1914 2.92189 13.9233 3.83971 13.9252C4.73517 13.9271 5.44506 13.2195 5.45268 12.3162L5.45315 12.3157ZM12.0268 12.4138H15.4673C15.4787 12.2167 15.4897 12.0348 15.5006 11.8486H11.9802C11.9964 12.0438 12.0116 12.2267 12.0268 12.4138ZM7.7979 11.8505H5.93038C5.95036 12.0476 5.96844 12.23 5.98652 12.411H7.74937C7.7665 12.2157 7.78172 12.0391 7.7979 11.8505ZM1.75 11.8496H0.770319C0.770319 12.0119 0.764613 12.1619 0.774129 12.311C0.776984 12.351 0.825989 12.421 0.855013 12.4219C1.13859 12.4305 1.42265 12.4272 1.7086 12.4272C1.72335 12.2195 1.7362 12.0429 1.75 11.85V11.8496ZM20.5993 9.45342C20.6012 8.84249 20.3857 8.61202 19.907 8.69963C19.7819 9.30057 20.0008 9.54342 20.5993 9.45342ZM19.74 12.4038C20.2824 12.5033 20.3172 12.4753 20.3038 11.9519C20.3029 11.9196 20.2958 11.8872 20.2905 11.8491H19.6872C19.7058 12.0438 19.7229 12.2248 19.74 12.4043V12.4038Z" fill="#FCFCFC"/>
<path d="M10.528 6.63667C9.81289 6.63667 9.09823 6.63763 8.3831 6.63667C8.11237 6.63667 8.03577 6.56287 8.03339 6.29811C8.03054 5.91955 8.03054 5.54099 8.03339 5.1629C8.03529 4.90862 8.1157 4.82577 8.36502 4.82529C9.80194 4.82386 11.2389 4.82386 12.6753 4.82529C12.9313 4.82529 13.0103 4.90481 13.0122 5.15528C13.0146 5.53384 13.0141 5.91241 13.0122 6.29049C13.0107 6.56906 12.9403 6.6362 12.652 6.63667C11.944 6.63763 11.236 6.63667 10.5275 6.63667H10.528ZM8.53774 6.12907H12.5064V5.33385H8.53774V6.12907Z" fill="#FCFCFC"/>
<path d="M9.5569 3.74317C9.95562 3.74317 10.3543 3.74174 10.7531 3.74364C10.9596 3.74459 11.0652 3.83078 11.0652 3.98935C11.0652 4.14839 10.9596 4.23696 10.7531 4.23744C9.94848 4.23934 9.14391 4.23934 8.3398 4.23744C8.14092 4.23696 8.0272 4.13792 8.04005 3.97935C8.0548 3.7984 8.1728 3.74078 8.3398 3.74221C8.74566 3.74459 9.15104 3.74317 9.5569 3.74317Z" fill="#FCFCFC"/>
<path d="M9.55811 1.77039C9.9497 1.77039 10.3418 1.76896 10.7333 1.77087C10.9536 1.7723 11.0669 1.85991 11.0659 2.02039C11.065 2.18181 10.9565 2.26419 10.7305 2.26467C9.94018 2.26609 9.14987 2.26467 8.35957 2.26562C8.19113 2.26562 8.05363 2.2261 8.03983 2.02753C8.02841 1.8642 8.14451 1.7723 8.3629 1.77087C8.76162 1.76849 9.16034 1.76992 9.55859 1.77039H9.55811Z" fill="#FCFCFC"/>
<path d="M11.4965 3.24973C11.1049 3.24973 10.7129 3.25068 10.3213 3.24973C10.092 3.24877 9.98728 3.17259 9.98443 3.00878C9.98157 2.84355 10.091 2.75545 10.3108 2.75498C11.1011 2.75355 11.8919 2.75355 12.6822 2.75498C12.902 2.75498 13.0115 2.84355 13.0086 3.00878C13.0058 3.17211 12.9011 3.24877 12.6718 3.24973C12.2802 3.25116 11.8881 3.24973 11.4965 3.24973Z" fill="#FCFCFC"/>
<path d="M12.2513 4.23802C12.0867 4.23802 11.922 4.24183 11.7574 4.23707C11.5956 4.23231 11.4924 4.14374 11.4962 3.98184C11.5 3.83184 11.598 3.74518 11.7527 3.74422C12.089 3.74232 12.425 3.74041 12.7614 3.74518C12.9136 3.74756 13.0078 3.83041 13.0097 3.98755C13.0116 4.14612 12.9155 4.22802 12.7656 4.23564C12.5943 4.24421 12.4226 4.23755 12.2513 4.23755V4.23802Z" fill="#FCFCFC"/>
<path d="M12.2363 2.26483C12.0717 2.26483 11.9071 2.26769 11.7429 2.26388C11.5874 2.26055 11.4931 2.17198 11.4922 2.0215C11.4912 1.87008 11.5897 1.77818 11.7415 1.77484C12.0774 1.76818 12.4133 1.7677 12.7493 1.77389C12.9068 1.77675 13.0129 1.85865 13.0076 2.02912C13.0029 2.18817 12.901 2.26007 12.7512 2.2634C12.5799 2.26721 12.4086 2.26436 12.2368 2.2634L12.2363 2.26483Z" fill="#FCFCFC"/>
<path d="M8.79749 3.25015C8.63287 3.25015 8.46824 3.25157 8.30409 3.25015C8.14232 3.24824 8.03859 3.17062 8.03906 3.00301C8.03954 2.83444 8.14945 2.75873 8.30789 2.75683C8.63667 2.75349 8.96592 2.75206 9.2947 2.75778C9.45552 2.76063 9.55639 2.85158 9.55021 3.01682C9.5445 3.1711 9.44458 3.24824 9.2909 3.24967C9.12627 3.2511 8.96164 3.24967 8.79749 3.25015Z" fill="#FCFCFC"/>
<path d="M11.0329 12.3015C11.0339 12.9338 10.5271 13.4476 9.89907 13.4519C9.26435 13.4562 8.74763 12.9362 8.75001 12.2962C8.75239 11.6662 9.26673 11.1539 9.89431 11.1563C10.5233 11.1582 11.0319 11.6701 11.0329 12.3019V12.3015ZM10.5376 12.2938C10.5338 11.9405 10.2435 11.6515 9.89241 11.651C9.53413 11.651 9.24151 11.95 9.24532 12.3134C9.24912 12.6634 9.54317 12.9557 9.89145 12.9557C10.2497 12.9557 10.5414 12.6567 10.5376 12.2938Z" fill="#FCFCFC"/>
<path d="M18.7417 12.3191C18.7351 12.9457 18.2136 13.4571 17.5874 13.4519C16.9603 13.4467 16.4512 12.9295 16.4531 12.3C16.455 11.6715 16.9703 11.1558 17.596 11.1563C18.2312 11.1567 18.7484 11.682 18.7417 12.3191ZM18.2464 12.3091C18.2493 11.9515 17.9476 11.6491 17.5912 11.6524C17.242 11.6558 16.9508 11.9491 16.9489 12.3C16.947 12.6515 17.233 12.9476 17.5827 12.9562C17.9391 12.9648 18.244 12.6672 18.2469 12.3091H18.2464Z" fill="#FCFCFC"/>
<path d="M3.83581 13.4519C3.21203 13.4481 2.69389 12.9262 2.69532 12.3019C2.69674 11.6767 3.21536 11.1577 3.84057 11.1563C4.47338 11.1548 4.99914 11.6853 4.99105 12.3172C4.98249 12.9438 4.46196 13.4557 3.83628 13.4519H3.83581ZM4.49527 12.3053C4.49622 11.9586 4.20313 11.6605 3.85389 11.6524C3.5018 11.6443 3.18967 11.9505 3.19015 12.3043C3.19015 12.651 3.48515 12.9505 3.832 12.9562C4.18838 12.9624 4.49384 12.6624 4.49479 12.3053H4.49527Z" fill="#FCFCFC"/>
</svg>
