<svg width="19" height="19" viewBox="0 0 19 19" fill="none" xmlns="http://www.w3.org/2000/svg">
<path d="M6.17815 1.20586C4.77912 1.4248 3.71037 2.43789 3.42834 3.81836C3.35412 4.19316 3.37268 4.85371 3.46916 5.22852C3.72522 6.21191 4.46741 7.05059 5.42483 7.4291C5.7885 7.57754 6.15217 7.64062 6.60491 7.64062C7.29514 7.64062 7.84436 7.47734 8.401 7.10625C9.65901 6.26758 10.1637 4.66445 9.61448 3.23945C9.38811 2.65684 8.92424 2.07793 8.39358 1.72539C7.87034 1.37656 7.37307 1.22441 6.71623 1.20215C6.48244 1.19473 6.24123 1.19844 6.17815 1.20586ZM7.2803 2.49355C8.10783 2.79414 8.64592 3.55488 8.64592 4.41953C8.64592 5.33613 8.01135 6.17109 7.14299 6.39375C6.86838 6.46797 6.35256 6.46797 6.08908 6.39746C5.44338 6.22676 4.89045 5.71836 4.67151 5.09863C4.56389 4.79062 4.53791 4.28223 4.61584 3.95195C4.80139 3.17266 5.45823 2.55293 6.27092 2.39336C6.49729 2.34883 7.03537 2.40449 7.2803 2.49355Z" fill="white"/>
<path d="M3.37845 7.99562C2.99622 8.17004 2.43587 8.71554 2.0722 9.27219C1.62317 9.95871 1.497 10.3929 1.34114 11.7437C1.21497 12.8273 1.14817 14.7607 1.22239 15.1577C1.35228 15.8591 1.94231 16.4528 2.63626 16.5864C2.76985 16.6124 4.18001 16.6236 6.76282 16.6236L10.6853 16.6198L10.9005 16.7646C11.3421 17.0652 11.9099 17.3027 12.4702 17.4251C12.9044 17.5216 13.8099 17.5179 14.2515 17.4251C16.0068 17.0503 17.3204 15.7329 17.7286 13.9443C17.814 13.562 17.814 12.5527 17.7286 12.1778C17.365 10.6044 16.3259 9.40578 14.8564 8.8714C14.348 8.68586 13.9954 8.62648 13.3609 8.63019C12.563 8.63019 12.0361 8.74894 11.3792 9.07922L11.1195 9.2091L11.0452 9.10519C10.7076 8.64133 10.2251 8.19601 9.88001 8.02531C9.61282 7.89543 9.4347 7.91769 9.14153 8.11808C8.65911 8.44465 8.08392 8.68957 7.49017 8.81574C7.0597 8.91222 6.15052 8.90851 5.71634 8.81574C5.14856 8.69328 4.53626 8.43351 4.06868 8.11437C3.81263 7.93996 3.58997 7.90285 3.37845 7.99562ZM4.06126 9.48C4.53255 9.7175 5.11888 9.91418 5.61243 10.007C6.09114 10.096 7.12649 10.096 7.60892 10.007C8.09134 9.91789 8.78157 9.68039 9.20091 9.46144C9.39017 9.35754 9.572 9.2759 9.59798 9.2759C9.64622 9.2759 9.92454 9.57648 10.0804 9.80285L10.1769 9.93644L9.93567 10.2259C8.79642 11.5804 8.59232 13.5138 9.41243 15.1021C9.49036 15.2542 9.56087 15.3915 9.56829 15.4101C9.57571 15.4249 8.04681 15.4323 6.17278 15.4286L2.75872 15.4175L2.62884 15.3173C2.38392 15.128 2.36165 15.0093 2.38763 13.9405C2.4136 12.8718 2.45071 12.4005 2.5806 11.4208C2.6845 10.6415 2.76614 10.378 3.02591 9.96242C3.20774 9.67297 3.54544 9.2759 3.61224 9.2759C3.63821 9.2759 3.8386 9.36867 4.06126 9.48ZM13.9361 9.85109C15.5429 10.1331 16.7081 11.6027 16.6154 13.228C16.5671 14.0667 16.2368 14.8015 15.6468 15.3804C14.3702 16.6421 12.3292 16.6347 11.0601 15.3618C10.2956 14.6011 9.96536 13.5546 10.1509 12.4859C10.4589 10.7232 12.1585 9.54308 13.9361 9.85109Z" fill="white"/>
<path d="M13.0989 10.3944C12.969 10.4612 12.9096 10.5206 12.8391 10.669C12.7575 10.836 12.7204 10.8694 12.52 10.9585C12.2157 11.0921 11.9708 11.3333 11.826 11.6413C11.7258 11.8602 11.711 11.927 11.7073 12.2239C11.7073 12.6395 11.7963 12.8659 12.0635 13.1145C12.2936 13.3298 12.5942 13.4708 13.136 13.6155C13.6295 13.7454 13.8411 13.8307 13.8411 13.8938C13.8411 13.9198 13.8077 13.9792 13.7706 14.0274C13.7038 14.1091 13.6704 14.1165 13.3698 14.1165C13.0618 14.1165 13.0209 14.1053 12.7055 13.9569C12.52 13.8716 12.327 13.801 12.2788 13.801C12.2268 13.801 12.1118 13.8382 12.0227 13.8827C11.7147 14.0385 11.5959 14.4653 11.7889 14.7251C11.9002 14.8698 12.16 15.0331 12.4569 15.137C12.7166 15.2298 12.7315 15.2409 12.828 15.4339C12.9096 15.5934 12.969 15.6565 13.0989 15.7196C13.3067 15.8272 13.4106 15.8272 13.6184 15.7233C13.7483 15.6565 13.804 15.5971 13.8782 15.445C13.9561 15.2854 13.9969 15.2446 14.1379 15.1889C14.7131 14.9663 15.0026 14.5321 15.0063 13.8938C15.0063 13.4745 14.9172 13.2518 14.65 13.0032C14.4237 12.788 14.1342 12.6544 13.5665 12.5059C12.8577 12.3167 12.7797 12.2647 12.9504 12.094C13.1286 11.9159 13.5627 11.9456 14.0118 12.1682C14.279 12.3018 14.3532 12.3241 14.4905 12.3092C14.5795 12.2981 14.7057 12.2499 14.7688 12.2053C14.8987 12.1126 15.0286 11.8714 15.0286 11.7229C15.0286 11.5522 14.895 11.3296 14.728 11.2145C14.5424 11.0921 14.1379 10.9065 14.0526 10.9065C14.0229 10.9065 13.9524 10.81 13.893 10.6913C13.8077 10.5206 13.752 10.4649 13.6184 10.3944C13.5293 10.3499 13.4106 10.3128 13.3586 10.3128C13.3067 10.3128 13.1879 10.3499 13.0989 10.3944Z" fill="white"/>
</svg>
