<svg width="46" height="46" viewBox="0 0 46 46" fill="none" xmlns="http://www.w3.org/2000/svg">
<path d="M12.7016 11.0712C11.9155 11.2045 11.205 11.9328 11.0718 12.7411C11.0451 12.8921 11.0273 14.362 11.0273 16.2228C11.0273 19.7667 11.0318 19.8289 11.2982 20.2907C11.5514 20.7393 11.9466 21.0679 12.4751 21.2678C12.6794 21.3433 12.9059 21.3521 15.9346 21.3655C18.0663 21.3743 19.2965 21.361 19.5318 21.3299C20.5044 21.2011 21.2017 20.5039 21.3304 19.5313C21.3615 19.296 21.3749 18.0658 21.366 15.9341C21.3526 12.9054 21.3438 12.6789 21.2683 12.4746C21.0684 11.9461 20.7398 11.5509 20.2913 11.2977C19.8294 11.0313 19.7761 11.0268 16.1789 11.0313C14.3847 11.0357 12.8171 11.0535 12.7016 11.0712Z" fill="url(#paint0_linear_251_4061)"/>
<path d="M25.0194 11.0935C24.3488 11.24 23.7937 11.7507 23.5184 12.4746C23.4429 12.6789 23.434 12.9054 23.4207 15.9341C23.4118 18.0658 23.4251 19.296 23.4562 19.5313C23.585 20.5039 24.2822 21.2011 25.2548 21.3299C25.4902 21.361 26.7203 21.3743 28.852 21.3655C31.8808 21.3521 32.1072 21.3433 32.3115 21.2678C32.84 21.0679 33.2353 20.7393 33.4884 20.2907C33.7549 19.8289 33.7593 19.7667 33.7593 16.2228C33.7593 14.362 33.7415 12.8921 33.7149 12.7411C33.5817 11.9106 32.8755 11.2045 32.0451 11.0712C31.8941 11.0446 30.4286 11.0268 28.5411 11.0313C25.9787 11.0313 25.2415 11.0446 25.0194 11.0935Z" fill="url(#paint1_linear_251_4061)"/>
<path d="M12.8481 23.4414C12.2397 23.508 11.6224 23.9255 11.2982 24.4939C11.0318 24.9558 11.0273 25.0179 11.0273 28.5619C11.0273 30.4226 11.0451 31.8926 11.0718 32.0436C11.205 32.8741 11.9111 33.5802 12.7416 33.7134C12.8926 33.74 14.3625 33.7578 16.2233 33.7578C19.7672 33.7578 19.8294 33.7534 20.2913 33.4869C20.7398 33.2338 21.0684 32.8385 21.2683 32.31C21.3438 32.1058 21.3526 31.8793 21.366 28.8505C21.3749 26.7188 21.3615 25.4887 21.3304 25.2533C21.2061 24.3029 20.5089 23.5879 19.5763 23.4547C19.2876 23.4147 13.2123 23.4014 12.8481 23.4414Z" fill="url(#paint2_linear_251_4061)"/>
<path d="M25.2388 23.4414C24.6304 23.508 24.0131 23.9255 23.6889 24.4939C23.4224 24.9558 23.418 25.0179 23.418 28.5619C23.418 30.4226 23.4357 31.8926 23.4624 32.0436C23.5956 32.8741 24.3017 33.5802 25.1322 33.7134C25.2832 33.74 26.7532 33.7578 28.6139 33.7578C32.1578 33.7578 32.22 33.7534 32.6819 33.4869C33.1304 33.2338 33.459 32.8385 33.6589 32.31C33.7344 32.1058 33.7433 31.8793 33.7566 28.8505C33.7655 26.7188 33.7522 25.4887 33.7211 25.2533C33.5967 24.3029 32.8995 23.5879 31.9669 23.4547C31.6782 23.4147 25.6029 23.4014 25.2388 23.4414Z" fill="url(#paint3_linear_251_4061)"/>
<defs>
<linearGradient id="paint0_linear_251_4061" x1="16.198" y1="21.3682" x2="16.198" y2="11.0305" gradientUnits="userSpaceOnUse">
<stop stop-color="#0A3E89"/>
<stop offset="1" stop-color="#1D73AC"/>
</linearGradient>
<linearGradient id="paint1_linear_251_4061" x1="28.5886" y1="21.3682" x2="28.5886" y2="11.0306" gradientUnits="userSpaceOnUse">
<stop stop-color="#0A3E89"/>
<stop offset="1" stop-color="#1D73AC"/>
</linearGradient>
<linearGradient id="paint2_linear_251_4061" x1="16.198" y1="33.7578" x2="16.198" y2="23.4173" gradientUnits="userSpaceOnUse">
<stop stop-color="#0A3E89"/>
<stop offset="1" stop-color="#1D73AC"/>
</linearGradient>
<linearGradient id="paint3_linear_251_4061" x1="28.5886" y1="33.7578" x2="28.5886" y2="23.4173" gradientUnits="userSpaceOnUse">
<stop stop-color="#0A3E89"/>
<stop offset="1" stop-color="#1D73AC"/>
</linearGradient>
</defs>
</svg>
