<svg width="20" height="17" viewBox="0 0 20 17" fill="none" xmlns="http://www.w3.org/2000/svg">
<g id="Eyes">
<path id="Vector" opacity="0.3" d="M9.84534 10.9935C10.4562 10.9935 11.042 10.7465 11.4739 10.3069C11.9059 9.86721 12.1485 9.27092 12.1485 8.64917C12.1485 8.58051 12.1454 8.51248 12.1397 8.44529L9.64505 10.9845C9.71106 10.9904 9.77769 10.9935 9.84534 10.9935ZM17.4689 1.39766L16.5904 0.504298C16.5595 0.472919 16.5177 0.455292 16.4741 0.455292C16.4305 0.455292 16.3886 0.472919 16.3578 0.504298L14.1097 2.79316C12.8696 2.14805 11.4755 1.8255 9.9276 1.8255C5.97517 1.8255 3.02627 3.92074 1.08091 8.11123C1.00271 8.27976 0.962158 8.46383 0.962158 8.65021C0.962158 8.83659 1.00271 9.02066 1.08091 9.1892C1.85823 10.8558 2.79424 12.1915 3.88894 13.1965L1.71346 15.41C1.68263 15.4414 1.66531 15.484 1.66531 15.5284C1.66531 15.5728 1.68263 15.6154 1.71346 15.6468L2.59134 16.5403C2.62219 16.5717 2.66402 16.5893 2.70763 16.5893C2.75125 16.5893 2.79307 16.5717 2.82392 16.5403L17.4689 1.6346C17.4842 1.61905 17.4963 1.60058 17.5046 1.58025C17.5129 1.55992 17.5171 1.53813 17.5171 1.51613C17.5171 1.49412 17.5129 1.47233 17.5046 1.452C17.4963 1.43167 17.4842 1.41321 17.4689 1.39766ZM6.22605 8.64917C6.226 8.01286 6.38786 7.38739 6.69588 6.83368C7.00389 6.27998 7.44756 5.81692 7.98366 5.48962C8.51975 5.16231 9.13 4.98193 9.75494 4.96604C10.3799 4.95014 10.9982 5.09928 11.5497 5.39892L10.5499 6.41661C10.1466 6.28519 9.71565 6.26937 9.30418 6.37087C8.8927 6.47237 8.51664 6.68727 8.21726 6.992C7.91788 7.29673 7.70675 7.6795 7.60703 8.09833C7.50731 8.51716 7.52286 8.95585 7.65197 9.36628L6.65214 10.384C6.37157 9.85038 6.22518 9.25437 6.22605 8.64917Z" fill="black"/>
<path id="Vector_2" opacity="0.3" d="M19.1084 8.21284C18.3692 6.69053 17.4894 5.4492 16.4689 4.48886L13.442 7.44895C13.6972 8.10116 13.7537 8.81167 13.6048 9.49464C13.456 10.1776 13.108 10.8038 12.6031 11.2976C12.0981 11.7914 11.4577 12.1316 10.7593 12.2772C10.0609 12.4227 9.33427 12.3674 8.66729 12.1179L6.09985 14.6285C7.29096 15.1675 8.61577 15.437 10.0743 15.437C14.1104 15.437 17.1218 13.3814 19.1084 9.27038C19.1882 9.10505 19.2297 8.92446 19.2297 8.74161C19.2297 8.55876 19.1882 8.37818 19.1084 8.21284Z" fill="black"/>
</g>
</svg>
