<?xml version="1.0" standalone="yes"?>
<svg xmlns="http://www.w3.org/2000/svg" width="300" height="300">
<path style="fill:#ffffff; stroke:none;" d="M0 0L0 300L300 300L300 0L0 0z"/>
<path style="fill:#a4a3a9; stroke:none;" d="M208 45L204 51L208 51L208 54L202 51L203 57L204 57L204 54L209 52L210 52L209 56C212.047 55.4922 213.647 55.4132 213 58L215 57L215 58C214.146 60.6973 214.149 61.386 217 62L217 63L215 63L215 64L224 61L221 52L222 52L224 59C229.46 45.8649 216.841 44.9268 208 45z"/>
<path style="fill:#987d4e; stroke:none;" d="M219 45L220 50L221 50L219 45z"/>
<path style="fill:#a4a3a9; stroke:none;" d="M204 46L204 47L207 47L204 46z"/>
<path style="fill:#987d4e; stroke:none;" d="M207.667 46.3333L208.333 46.6667L207.667 46.3333z"/>
<path style="fill:#ffffff; stroke:none;" d="M215.667 46.3333L216.333 46.6667L215.667 46.3333z"/>
<path style="fill:#a4a3a9; stroke:none;" d="M197 48L197 49L203 48L197 48z"/>
<path style="fill:#987d4e; stroke:none;" d="M203 47L202 50L202 51L208 54L208 51L204 51L206 47L203 47z"/>
<path style="fill:#44528d; stroke:none;" d="M206.667 47.3333L207.333 47.6667L206.667 47.3333z"/>
<path style="fill:#987d4e; stroke:none;" d="M200 48L201 49L200 48z"/>
<path style="fill:#44528d; stroke:none;" d="M147 92L145 95C149.542 94.4657 157.796 98.5253 160 93C156.968 93.2145 156.054 92.8677 155 90L154 90L153 93L148 87L150 90L151 87L160 88L160 87L155 86L158 79L159 79L159 82L163 82L166 74L165 77L165 82L168 82L175 74L178 75L177 73L178 73L193 70L193 65L194 65L194 69L200 66C204.533 66.754 209.336 66.0168 212 62L216 63L216 62L213 62L214 59L210 60L213 56L209 56L210 53L204 58L203 58L200 53L200 56L199 53L197 50L202 52L204 48C186.667 50.3341 166.737 58.3675 155.326 72.0008C150.731 77.4897 145.889 84.6071 147 92M220 48L221 49L220 48z"/>
<path style="fill:#a4a3a9; stroke:none;" d="M194.667 49.3333L195.333 49.6667L194.667 49.3333z"/>
<path style="fill:#987d4e; stroke:none;" d="M196 49L197 50L196 49M210.333 49.6667L210.667 50.3333L210.333 49.6667z"/>
<path style="fill:#a4a3a9; stroke:none;" d="M190.667 50.3333L191.333 50.6667L190.667 50.3333z"/>
<path style="fill:#987d4e; stroke:none;" d="M192 50L193 51L192 50M197 50L198 51L197 50z"/>
<path style="fill:#a4a3a9; stroke:none;" d="M200 50L201 51L200 50M187.667 51.3333L188.333 51.6667L187.667 51.3333z"/>
<path style="fill:#987d4e; stroke:none;" d="M189 51L190 52L189 51z"/>
<path style="fill:#a4a3a9; stroke:none;" d="M197 51L197 52L200 52L199 55L200 55L201 52L197 51M184.667 52.3333L185.333 52.6667L184.667 52.3333z"/>
<path style="fill:#987d4e; stroke:none;" d="M186 52L187 53L186 52M191 52L192 53L191 52M199 52L200 53L199 52M201 52L202 53L201 52M209 52L210 53L209 52M221 52L222 53L221 52z"/>
<path style="fill:#a4a3a9; stroke:none;" d="M182.667 53.3333L183.333 53.6667L182.667 53.3333M194 53L195 54L194 53z"/>
<path style="fill:#987d4e; stroke:none;" d="M195 53L196 54L195 53M197 53L199 55L199 53L197 53z"/>
<path style="fill:#44528d; stroke:none;" d="M221 53L221 56L223 55L223 54L221 53z"/>
<path style="fill:#a4a3a9; stroke:none;" d="M179.667 54.3333L180.333 54.6667L179.667 54.3333z"/>
<path style="fill:#987d4e; stroke:none;" d="M181 54L182 55L181 54M200 54L201 55L200 54M204 54L205 55L204 54z"/>
<path style="fill:#a4a3a9; stroke:none;" d="M177.667 55.3333L178.333 55.6667L177.667 55.3333M184 55L185 56L184 55M192 55L195 57L192 55z"/>
<path style="fill:#987d4e; stroke:none;" d="M199 55L200 56L199 55M203 55L204 56L203 55M210 55L211 56L210 55z"/>
<path style="fill:#41394b; stroke:none;" d="M222.333 55.6667L222.667 56.3333L222.333 55.6667z"/>
<path style="fill:#a4a3a9; stroke:none;" d="M175 56L176 57L175 56z"/>
<path style="fill:#987d4e; stroke:none;" d="M176 56L177 57L176 56M181 56L182 57L181 56M183 56L183 57L186 57L183 56z"/>
<path style="fill:#a4a3a9; stroke:none;" d="M178 59L178 60L188 57L178 59z"/>
<path style="fill:#987d4e; stroke:none;" d="M208 56L209 57L208 56M213 56L214 57L213 56M216 56L217 57L216 56M221 56L222 57L221 56M223 56L224 57L223 56z"/>
<path style="fill:#a4a3a9; stroke:none;" d="M173 57L174 58L173 57z"/>
<path style="fill:#987d4e; stroke:none;" d="M174 57L175 58L174 57z"/>
<path style="fill:#a4a3a9; stroke:none;" d="M189.667 57.3333L190.333 57.6667L189.667 57.3333z"/>
<path style="fill:#987d4e; stroke:none;" d="M193 57L194 58L193 57M195 57L196 58L195 57z"/>
<path style="fill:#41394b; stroke:none;" d="M200 57L201 58L200 57z"/>
<path style="fill:#987d4e; stroke:none;" d="M203 57L204 58L203 57M210 58L210 59L215 57L210 58z"/>
<path style="fill:#44528d; stroke:none;" d="M222 57L222 59L224 57L222 57z"/>
<path style="fill:#a4a3a9; stroke:none;" d="M171 58L172 59L171 58z"/>
<path style="fill:#987d4e; stroke:none;" d="M172 58L173 59L172 58M178 58L179 59L178 58M180 58L181 59L180 58M208 58L209 59L208 58z"/>
<path style="fill:#41394b; stroke:none;" d="M223 58L224 59L223 58z"/>
<path style="fill:#a4a3a9; stroke:none;" d="M169.667 59.3333L170.333 59.6667L169.667 59.3333z"/>
<path style="fill:#987d4e; stroke:none;" d="M177 59L178 60L177 59M179 59L180 60L179 59M182 59L183 60L182 59z"/>
<path style="fill:#a4a3a9; stroke:none;" d="M210 59L211 60L210 59z"/>
<path style="fill:#987d4e; stroke:none;" d="M222.667 59.3333L223.333 59.6667L222.667 59.3333z"/>
<path style="fill:#a4a3a9; stroke:none;" d="M166 62L169 61L166 62z"/>
<path style="fill:#987d4e; stroke:none;" d="M172.667 60.3333L173.333 60.6667L172.667 60.3333M178 60L179 61L178 60M180 60L181 61L180 60M205 60L206 61L205 60M211 60L212 61L211 60M213.333 60.6667L213.667 61.3333L213.333 60.6667M167 61L168 62L167 61M169.333 61.6667L169.667 62.3333L169.333 61.6667M201 61L202 62L201 61z"/>
<path style="fill:#a4a3a9; stroke:none;" d="M165 62L166 63L165 62z"/>
<path style="fill:#987d4e; stroke:none;" d="M172 62L173 63L172 62M194 62L195 63L194 62z"/>
<path style="fill:#a4a3a9; stroke:none;" d="M212 62L213 63L212 62z"/>
<path style="fill:#987d4e; stroke:none;" d="M216 62L217 63L216 62z"/>
<path style="fill:#a4a3a9; stroke:none;" d="M162 65L165 64L162 65M169 63L170 64L169 63M172.667 63.3333L173.333 63.6667L172.667 63.3333z"/>
<path style="fill:#987d4e; stroke:none;" d="M174 63L175 64L174 63M209 63L210 64L209 63M210 64L210 65L215 64L210 64M163 64L164 65L163 64z"/>
<path style="fill:#41394b; stroke:none;" d="M187 64L188 65L187 64z"/>
<path style="fill:#987d4e; stroke:none;" d="M203 64L204 65L203 64z"/>
<path style="fill:#a4a3a9; stroke:none;" d="M212.667 64.3333L213.333 64.6667L212.667 64.3333M161 65L162 66L161 65z"/>
<path style="fill:#41394b; stroke:none;" d="M191 65L192 66L191 65M193 65L193 69L194 69L193 65z"/>
<path style="fill:#987d4e; stroke:none;" d="M208 65L209 66L208 65z"/>
<path style="fill:#a4a3a9; stroke:none;" d="M209.667 65.3333L210.333 65.6667L209.667 65.3333M160 66L161 67L160 66z"/>
<path style="fill:#41394b; stroke:none;" d="M200 66L201 67L200 66z"/>
<path style="fill:#987d4e; stroke:none;" d="M203 66L204 67L203 66z"/>
<path style="fill:#a4a3a9; stroke:none;" d="M204 66L204 67L208 67L204 66M159 67L160 68L159 67z"/>
<path style="fill:#987d4e; stroke:none;" d="M166 67L167 68L166 67M196 67L197 68L196 67M200 67L201 68L200 67z"/>
<path style="fill:#a4a3a9; stroke:none;" d="M201.667 67.3333L202.333 67.6667L201.667 67.3333M158 68L159 69L158 68z"/>
<path style="fill:#41394b; stroke:none;" d="M187 68L187 69L190 70L187 68z"/>
<path style="fill:#987d4e; stroke:none;" d="M197 68L198 69L197 68z"/>
<path style="fill:#a4a3a9; stroke:none;" d="M198.667 68.3333L199.333 68.6667L198.667 68.3333M157 69L158 70L157 69z"/>
<path style="fill:#41394b; stroke:none;" d="M191 69L192 70L191 69z"/>
<path style="fill:#987d4e; stroke:none;" d="M193 69L194 70L193 69z"/>
<path style="fill:#a4a3a9; stroke:none;" d="M194 69L194 70L197 70L194 69M156 70L157 71L156 70M190 70L190 71L193 71L190 70M155 71L156 72L155 71z"/>
<path style="fill:#41394b; stroke:none;" d="M180 71L179 73L181 73L180 71M183 71L184 72L183 71z"/>
<path style="fill:#987d4e; stroke:none;" d="M186 71L187 72L186 71z"/>
<path style="fill:#a4a3a9; stroke:none;" d="M187 71L187 72L190 72L187 71M154 72L155 73L154 72z"/>
<path style="fill:#41394b; stroke:none;" d="M168 72L170 78L174 76L175 73L168 72z"/>
<path style="fill:#a4a3a9; stroke:none;" d="M184.667 72.3333L185.333 72.6667L184.667 72.3333M153 73L154 74L153 73z"/>
<path style="fill:#41394b; stroke:none;" d="M177.667 73.3333L178.333 73.6667L177.667 73.3333z"/>
<path style="fill:#a4a3a9; stroke:none;" d="M181.667 73.3333L182.333 73.6667L181.667 73.3333z"/>
<path style="fill:#987d4e; stroke:none;" d="M153 74L154 75L153 74z"/>
<path style="fill:#41394b; stroke:none;" d="M164 74L163 75L163 82L159 79L158 79L155 86L160 87L160 88L151 87L151 90L150 90L148 87L147 90L153 93L154 90L155 90C155.856 93.0303 156.919 93.283 160 93L159 96C156.171 95.498 149.942 93.8457 147.225 94.8264C144.335 95.8693 144.958 100.611 145.015 103C145.167 109.412 150.539 118.949 144 123C145.56 127.7 149.654 126.997 154 127L154 132L155 132C156.12 127.817 157.498 125.832 162 126L169 113L164 114C160.629 99.8475 161.87 94.5596 167 81L165 82L166 74L164 74M175.667 74.3333L176.333 74.6667L175.667 74.3333z"/>
<path style="fill:#987d4e; stroke:none;" d="M178 74L179 75L178 74z"/>
<path style="fill:#a4a3a9; stroke:none;" d="M179 74L180 75L179 74M152 75L153 76L152 75z"/>
<path style="fill:#987d4e; stroke:none;" d="M176 75L177 76L176 75z"/>
<path style="fill:#a4a3a9; stroke:none;" d="M177 75L178 76L177 75M151 76L152 77L151 76M175 76L176 77L175 76z"/>
<path style="fill:#987d4e; stroke:none;" d="M151 77L152 78L151 77z"/>
<path style="fill:#a4a3a9; stroke:none;" d="M173 77L174 78L173 77M150 78L151 79L150 78M153.333 78.6667L153.667 79.3333L153.333 78.6667M172 78L173 79L172 78M149.333 79.6667L149.667 80.3333L149.333 79.6667z"/>
<path style="fill:#41394b; stroke:none;" d="M169 79L167 80L167 81L169 79z"/>
<path style="fill:#a4a3a9; stroke:none;" d="M171 79L172 80L171 79z"/>
<path style="fill:#987d4e; stroke:none;" d="M169 80L168 82L169 80z"/>
<path style="fill:#a4a3a9; stroke:none;" d="M170 80L171 81L170 80M148 81L149 82L148 81M169 81L170 82L169 81z"/>
<path style="fill:#987d4e; stroke:none;" d="M148 82L149 83L148 82M167 82L166 84L167 82z"/>
<path style="fill:#a4a3a9; stroke:none;" d="M147.333 83.6667L147.667 84.3333L147.333 83.6667z"/>
<path style="fill:#41394b; stroke:none;" d="M149 83L150 87L151 87L153 83L149 83z"/>
<path style="fill:#44528d; stroke:none;" d="M159.667 83.3333L160.333 83.6667L159.667 83.3333z"/>
<path style="fill:#a4a3a9; stroke:none;" d="M167 83L168 84L167 83z"/>
<path style="fill:#44528d; stroke:none;" d="M165 84L166 85L165 84z"/>
<path style="fill:#a4a3a9; stroke:none;" d="M166 84L167 85L166 84z"/>
<path style="fill:#44528d; stroke:none;" d="M161 85L162 86L161 85z"/>
<path style="fill:#a4a3a9; stroke:none;" d="M165 85L166 86L165 85M146 86L147 87L146 86z"/>
<path style="fill:#44528d; stroke:none;" d="M164 86L162 91L163 91L164 86z"/>
<path style="fill:#987d4e; stroke:none;" d="M146 87L147 88L146 87z"/>
<path style="fill:#41394b; stroke:none;" d="M153 87L154 88L153 87z"/>
<path style="fill:#a4a3a9; stroke:none;" d="M164 87L165 88L164 87M145.333 89.6667L145.667 90.3333L145.333 89.6667M163.333 89.6667L163.667 90.3333L163.333 89.6667z"/>
<path style="fill:#41394b; stroke:none;" d="M146.333 90.6667L146.667 91.3333L146.333 90.6667z"/>
<path style="fill:#987d4e; stroke:none;" d="M145 91L146 92L145 91M162 91L163 92L162 91z"/>
<path style="fill:#a4a3a9; stroke:none;" d="M162.333 92.6667L162.667 93.3333L162.333 92.6667M144 93L144 96L145 96L144 93z"/>
<path style="fill:#44528d; stroke:none;" d="M161.333 93.6667L161.667 94.3333L161.333 93.6667z"/>
<path style="fill:#987d4e; stroke:none;" d="M161 95L162 96L161 95M144.333 96.6667L144.667 97.3333L144.333 96.6667z"/>
<path style="fill:#a4a3a9; stroke:none;" d="M161 96L161 104L162 104L161 96z"/>
<path style="fill:#44528d; stroke:none;" d="M144 98L144 104L145 104L144 98M150 98L151 99L150 98M153 99L155 101L155 99L153 99M149.333 100.667L149.667 101.333L149.333 100.667M160 100L160 104L161 104L160 100M147.333 103.667L147.667 104.333L147.333 103.667z"/>
<path style="fill:#987d4e; stroke:none;" d="M144.333 104.667L144.667 105.333L144.333 104.667z"/>
<path style="fill:#44528d; stroke:none;" d="M154 104L155 105L154 104z"/>
<path style="fill:#987d4e; stroke:none;" d="M161 104L162 105L161 104z"/>
<path style="fill:#44528d; stroke:none;" d="M161.333 105.667L161.667 106.333L161.333 105.667z"/>
<path style="fill:#a4a3a9; stroke:none;" d="M162 105L162 108L163 108L162 105M144 106L144 110L145 110L144 106z"/>
<path style="fill:#44528d; stroke:none;" d="M145 108L146 112L147 112L145 108z"/>
<path style="fill:#987d4e; stroke:none;" d="M162 108L163 109L162 108z"/>
<path style="fill:#44528d; stroke:none;" d="M153.333 109.667L153.667 110.333L153.333 109.667M162.333 109.667L162.667 110.333L162.333 109.667z"/>
<path style="fill:#a4a3a9; stroke:none;" d="M163 109L164 110L163 109z"/>
<path style="fill:#987d4e; stroke:none;" d="M163 110L164 111L163 110z"/>
<path style="fill:#a4a3a9; stroke:none;" d="M168 110L168 111L172 113L168 110z"/>
<path style="fill:#987d4e; stroke:none;" d="M145 111L146 112L145 111z"/>
<path style="fill:#44528d; stroke:none;" d="M161 111L162 112L161 111z"/>
<path style="fill:#a4a3a9; stroke:none;" d="M164 111L164 112L167 112L164 111z"/>
<path style="fill:#987d4e; stroke:none;" d="M167 111L168 112L167 111z"/>
<path style="fill:#44528d; stroke:none;" d="M164 114L169 113L168 117C170.669 115.268 170.71 114.058 170 111L164 114z"/>
<path style="fill:#a4a3a9; stroke:none;" d="M145 112L145 115L146 115L145 112z"/>
<path style="fill:#44528d; stroke:none;" d="M156.667 112.333L157.333 112.667L156.667 112.333M146.333 113.667L146.667 114.333L146.333 113.667z"/>
<path style="fill:#987d4e; stroke:none;" d="M171.333 113.667L171.667 114.333L171.333 113.667z"/>
<path style="fill:#44528d; stroke:none;" d="M159.333 114.667L159.667 115.333L159.333 114.667z"/>
<path style="fill:#987d4e; stroke:none;" d="M146 115L147 116L146 115z"/>
<path style="fill:#a4a3a9; stroke:none;" d="M171 115L172 116L171 115M146.333 116.667L146.667 117.333L146.333 116.667z"/>
<path style="fill:#987d4e; stroke:none;" d="M170 116L169 118L170 116z"/>
<path style="fill:#44528d; stroke:none;" d="M147 117L147 122L148 122L147 117z"/>
<path style="fill:#a4a3a9; stroke:none;" d="M170 117L171 118L170 117z"/>
<path style="fill:#44528d; stroke:none;" d="M154 118L155 119L154 118M168 118L169 119L168 118z"/>
<path style="fill:#a4a3a9; stroke:none;" d="M169 118L170 119L169 118M146 119L143 123L146 119z"/>
<path style="fill:#44528d; stroke:none;" d="M156.667 119.333L157.333 119.667L156.667 119.333z"/>
<path style="fill:#a4a3a9; stroke:none;" d="M168 119L170 122L168 119z"/>
<path style="fill:#987d4e; stroke:none;" d="M146.333 120.667L146.667 121.333L146.333 120.667z"/>
<path style="fill:#44528d; stroke:none;" d="M167 120L162 126C157.186 125.086 155.735 127.486 155 132L154 132L153 129L152 129L150 136L154 136L154 135L152 133L158 133L158 132L156 131L159 126L160 126L159 129L165 130L164 127L168 126L166 129L169 128L170 131L175 128L170 129L173 125L169 125L167 120M144.667 122.333L145.333 122.667L144.667 122.333z"/>
<path style="fill:#41394b; stroke:none;" d="M167.667 122.333L168.333 122.667L167.667 122.333z"/>
<path style="fill:#987d4e; stroke:none;" d="M143 123L144 124L143 123z"/>
<path style="fill:#41394b; stroke:none;" d="M169.333 123.667L169.667 124.333L169.333 123.667z"/>
<path style="fill:#987d4e; stroke:none;" d="M170 123L171 124L170 123z"/>
<path style="fill:#a4a3a9; stroke:none;" d="M112 127L109 128C104.836 127.935 103.619 130.031 103 134L104 134L108 128C114.552 135.537 126.797 124.907 135 129C131.181 123.063 116.808 121.469 112 127z"/>
<path style="fill:#44528d; stroke:none;" d="M143 124L144 125L143 124z"/>
<path style="fill:#41394b; stroke:none;" d="M164 124L164 126L166 126L164 124z"/>
<path style="fill:#987d4e; stroke:none;" d="M167 124L168 125L167 124M171 124L172 125L171 124z"/>
<path style="fill:#a4a3a9; stroke:none;" d="M172 124L173 125L172 124z"/>
<path style="fill:#987d4e; stroke:none;" d="M128 125L129 126L128 125M143 125L144 126L143 125z"/>
<path style="fill:#41394b; stroke:none;" d="M171 125L172 126L171 125z"/>
<path style="fill:#987d4e; stroke:none;" d="M170 129L175 128L171 131L170 131C166.32 126.855 157.965 132.645 153 133L154 136L150 136L151 134C147.262 136.695 148.105 139.958 152 142L152 143L146 140L141 142L143 152L141 149C139.194 149.195 136.071 149.727 139 151L139 152L128 151L128 152L131 152L131 153L120 155L120 154L124 154L124 153C118.52 152.883 113.954 151.97 110 148L115 148L115 147L111 147L111 146L115 146L115 145L109 144L109 143L112 142L109 141L111 139L104 138L104 134L103 134L102 159L104 160L104 161C100.111 164.54 105.792 174.449 107 179L108 179C111.26 174.949 115.205 175.964 120 176L104 168L104 164C108.987 166.357 117.168 171.055 120 164L113 163L116 162L117 162L116 159L128 156L128 157L121 157L121 158L128 158L128 159L124 159L124 160L132 161L132 162L129 162L129 163L139 160L138 163L140 160L147 163L143 166L144 167L162 160L163 160L163 164L168 165L169 165L169 161L167 159L172 161L172 160L169 157L173 159L177 155L175 160L176 160L177 157L180 158L180 157L178 155L179 153L188 145L188 144L186 144L186 143L190 137L188 137L188 133L185 135L188 132C185.86 127.719 179.631 124.843 179 128C176.158 123.716 172.616 125.163 170 129z"/>
<path style="fill:#a4a3a9; stroke:none;" d="M175 125L176 126L175 125M178.667 125.333L179.333 125.667L178.667 125.333z"/>
<path style="fill:#987d4e; stroke:none;" d="M111 126L112 127L111 126z"/>
<path style="fill:#ffffff; stroke:none;" d="M116 126L116 127C117.96 127.653 118.554 128 116 128L116 129L120 128L116 126M121 126L122 127L121 126M123.667 126.333L124.333 126.667L123.667 126.333M126 126L127 127L126 126z"/>
<path style="fill:#987d4e; stroke:none;" d="M108 128L104 131L111 132L111 133L108 133L109 137L116 138L116 137L113 134L129 131C125.892 133.949 122.937 135.286 124 140L119 140L119 141L128 143L128 144L126 145L137 145L137 146L128 147L128 148L137 147L137 148L134 148L134 149L140 148L140 147L137 147L137 146L140 146L137 142L137 141L140 141L141 135C137.238 132.99 134.266 126.956 129.981 126.694C122.176 126.216 115.611 133.795 108 128z"/>
<path style="fill:#a4a3a9; stroke:none;" d="M143 126L145 128L143 126z"/>
<path style="fill:#44528d; stroke:none;" d="M144 126L145 127L144 126z"/>
<path style="fill:#987d4e; stroke:none;" d="M159 126L158 129L159 129L159 126z"/>
<path style="fill:#41394b; stroke:none;" d="M164 129L168 126L164 129M170 126L171 127L170 126z"/>
<path style="fill:#44528d; stroke:none;" d="M178.333 126.667L178.667 127.333L178.333 126.667z"/>
<path style="fill:#a4a3a9; stroke:none;" d="M180 128L183 126L180 128z"/>
<path style="fill:#987d4e; stroke:none;" d="M108 127L109 128L108 127M145 127L146 128L145 127z"/>
<path style="fill:#44528d; stroke:none;" d="M146 127L146 128L154 128L146 127z"/>
<path style="fill:#a4a3a9; stroke:none;" d="M159 127L160 128L159 127M183 127L184 128L183 127z"/>
<path style="fill:#ffffff; stroke:none;" d="M109 128L110 129L109 128M113 128L114 129L113 128z"/>
<path style="fill:#987d4e; stroke:none;" d="M151.333 128.667L151.667 129.333L151.333 128.667z"/>
<path style="fill:#a4a3a9; stroke:none;" d="M152 128L153 129L152 128z"/>
<path style="fill:#987d4e; stroke:none;" d="M153.333 128.667L153.667 129.333L153.333 128.667z"/>
<path style="fill:#41394b; stroke:none;" d="M156 132L163 128L156 132M168 128L169 129L168 128z"/>
<path style="fill:#a4a3a9; stroke:none;" d="M185 128L186 129L185 128M186 129L187 130L186 129M135.333 130.667L135.667 131.333L135.333 130.667M151.333 130.667L151.667 131.333L151.333 130.667z"/>
<path style="fill:#41394b; stroke:none;" d="M152 130L153 131L152 130z"/>
<path style="fill:#44528d; stroke:none;" d="M160 130L160 132L162 130L160 130z"/>
<path style="fill:#a4a3a9; stroke:none;" d="M165 130L163 135L156 134L155 136L155 137L159 138L157 140L172 138L172 137L170 137L170 136L177 131L173 130L164 134L165 130z"/>
<path style="fill:#44528d; stroke:none;" d="M184 130L184 132L186 130L184 130z"/>
<path style="fill:#a4a3a9; stroke:none;" d="M187 130L188 131L187 130z"/>
<path style="fill:#41394b; stroke:none;" d="M104 131L104 137L107 138L110 132L104 131z"/>
<path style="fill:#44528d; stroke:none;" d="M105.667 131.333L106.333 131.667L105.667 131.333z"/>
<path style="fill:#41394b; stroke:none;" d="M119 131L120 132L119 131M113 135L113 136L123 140L129 131L113 135z"/>
<path style="fill:#44528d; stroke:none;" d="M168 131L169 132L168 131M110 132L111 133L110 132M118 132L118 133L121 133L118 132z"/>
<path style="fill:#a4a3a9; stroke:none;" d="M136 132L137 133L136 132z"/>
<path style="fill:#987d4e; stroke:none;" d="M151 132L152 133L151 132z"/>
<path style="fill:#44528d; stroke:none;" d="M159 132L160 133L159 132M182.333 132.667L182.667 133.333L182.333 132.667M185 135L186 135L188 133L185 135z"/>
<path style="fill:#a4a3a9; stroke:none;" d="M188.333 132.667L188.667 133.333L188.333 132.667z"/>
<path style="fill:#44528d; stroke:none;" d="M104 133L105 134L104 133z"/>
<path style="fill:#a4a3a9; stroke:none;" d="M137 133L138 134L137 133M150 133L151 134L150 133z"/>
<path style="fill:#41394b; stroke:none;" d="M152.333 133.667L152.667 134.333L152.333 133.667M186 133L187 134L186 133z"/>
<path style="fill:#44528d; stroke:none;" d="M108 134L107 138L108 134z"/>
<path style="fill:#a4a3a9; stroke:none;" d="M110.667 134.333L111.333 134.667L110.667 134.333z"/>
<path style="fill:#44528d; stroke:none;" d="M113.667 134.333L114.333 134.667L113.667 134.333M116 134L116 136L118 136L118 134L116 134z"/>
<path style="fill:#a4a3a9; stroke:none;" d="M139 134L140 135L139 134M149 134L150 135L149 134M189 134L188 137L189 134z"/>
<path style="fill:#44528d; stroke:none;" d="M138 135L138 138L139 138L138 135z"/>
<path style="fill:#a4a3a9; stroke:none;" d="M141 135L141 136L143 141L144 141L148 136L141 135z"/>
<path style="fill:#44528d; stroke:none;" d="M184 135L183 137L184 135z"/>
<path style="fill:#a4a3a9; stroke:none;" d="M102.333 136.667L102.667 137.333L102.333 136.667z"/>
<path style="fill:#44528d; stroke:none;" d="M110.333 136.667L110.667 137.333L110.333 136.667M114 136L115 137L114 136z"/>
<path style="fill:#41394b; stroke:none;" d="M134 136L135 137L134 136z"/>
<path style="fill:#44528d; stroke:none;" d="M135 136L136 137L135 136z"/>
<path style="fill:#41394b; stroke:none;" d="M136 136L137 137L136 136z"/>
<path style="fill:#44528d; stroke:none;" d="M141.667 136.333L142.333 136.667L141.667 136.333z"/>
<path style="fill:#987d4e; stroke:none;" d="M146 136L145 139L146 139L146 136z"/>
<path style="fill:#44528d; stroke:none;" d="M147 136L145 140L148 140L147 136z"/>
<path style="fill:#987d4e; stroke:none;" d="M158.667 136.333L159.333 136.667L158.667 136.333z"/>
<path style="fill:#44528d; stroke:none;" d="M104.667 137.333L105.333 137.667L104.667 137.333z"/>
<path style="fill:#41394b; stroke:none;" d="M109 137L110 138L109 137M111 137L109 143L109 144L115 145L115 146L111 146L111 147L115 147L115 148L110 148C113.197 152.714 118.678 152.955 124 153L124 154L120 154L120 155L131 153L131 152L128 152L128 151L139 152L139 151L137 150L141 149C140.425 151.396 140.525 151.487 143 152L143 137L137 146L137 147L140 147L140 148L134 149L134 148L137 148L137 147L128 148L128 147L137 146L137 145L126 145L127 143C123.797 141.34 122.033 140.896 119 143L111 141L111 140L114 139L111 137z"/>
<path style="fill:#44528d; stroke:none;" d="M112 137L113 138L112 137M116 137L112 142L113 142L120 139L115 140L115 139L116 137M123 137L124 138L123 137z"/>
<path style="fill:#a4a3a9; stroke:none;" d="M136 137L137 138L136 137z"/>
<path style="fill:#41394b; stroke:none;" d="M147 137L148 138L147 137z"/>
<path style="fill:#44528d; stroke:none;" d="M181 137L182 138L181 137z"/>
<path style="fill:#987d4e; stroke:none;" d="M160 138L161 139L160 138z"/>
<path style="fill:#44528d; stroke:none;" d="M169 139L169 140L177 142L179 141C176.515 137.445 172.887 138.315 169 139z"/>
<path style="fill:#a4a3a9; stroke:none;" d="M189 138L186 143L186 144L188 144L188 145L187 149L189 138M101.333 139.667L101.667 140.333L101.333 139.667z"/>
<path style="fill:#44528d; stroke:none;" d="M104 139L105 140L104 139z"/>
<path style="fill:#41394b; stroke:none;" d="M108 139L109 140L108 139z"/>
<path style="fill:#987d4e; stroke:none;" d="M115 139L115 140L118 140L115 139z"/>
<path style="fill:#44528d; stroke:none;" d="M123 139L124 140L123 139z"/>
<path style="fill:#41394b; stroke:none;" d="M127.667 139.333L128.333 139.667L127.667 139.333z"/>
<path style="fill:#987d4e; stroke:none;" d="M142 139L143 140L142 139z"/>
<path style="fill:#41394b; stroke:none;" d="M146 139L152 143L152 142L146 139z"/>
<path style="fill:#987d4e; stroke:none;" d="M162 139L163 140L162 139M173.667 139.333L174.333 139.667L173.667 139.333M176 139L177 140L176 139z"/>
<path style="fill:#41394b; stroke:none;" d="M105 140L106 141L105 140z"/>
<path style="fill:#44528d; stroke:none;" d="M109 140L110 141L109 140z"/>
<path style="fill:#987d4e; stroke:none;" d="M112 140L112 141L117 142L112 140z"/>
<path style="fill:#a4a3a9; stroke:none;" d="M130 140L130 141L134 141L130 140z"/>
<path style="fill:#44528d; stroke:none;" d="M142 140L143 141L142 140M149 140L150 141L149 140M166.667 140.333L167.333 140.667L166.667 140.333z"/>
<path style="fill:#41394b; stroke:none;" d="M179 140L180 141L179 140z"/>
<path style="fill:#44528d; stroke:none;" d="M119 141L120 142L119 141M137 141L138 142L137 141z"/>
<path style="fill:#41394b; stroke:none;" d="M138 141L139 142L138 141z"/>
<path style="fill:#44528d; stroke:none;" d="M139 141L140 142L139 141M146 141L149 143L146 141M172 141L173 142L172 141z"/>
<path style="fill:#41394b; stroke:none;" d="M104 142L107 149L107 148L105 147L104 142M108 142L109 143L108 142z"/>
<path style="fill:#987d4e; stroke:none;" d="M119 142L120 143L119 142z"/>
<path style="fill:#a4a3a9; stroke:none;" d="M132 142L133 143L132 142M92 152L97 146L98 146L100 154L100 159L96 159L101 164L102 164L104 160L102 159L102 158C106.217 154.315 102.981 147.262 101 143L92 152z"/>
<path style="fill:#987d4e; stroke:none;" d="M116 143L117 144L116 143z"/>
<path style="fill:#44528d; stroke:none;" d="M127 143L128 144L127 143z"/>
<path style="fill:#a4a3a9; stroke:none;" d="M136.667 143.333L137.333 143.667L136.667 143.333z"/>
<path style="fill:#41394b; stroke:none;" d="M107 144L108 145L107 144z"/>
<path style="fill:#a4a3a9; stroke:none;" d="M133.667 144.333L134.333 144.667L133.667 144.333M143 144L144 145L143 144M184 144L185 145L184 144z"/>
<path style="fill:#987d4e; stroke:none;" d="M98 145L99 146L98 145z"/>
<path style="fill:#41394b; stroke:none;" d="M109.667 145.333L110.333 145.667L109.667 145.333z"/>
<path style="fill:#44528d; stroke:none;" d="M131 145L132 146L131 145M141 145L142 146L141 145M149 145L150 146L149 145z"/>
<path style="fill:#a4a3a9; stroke:none;" d="M175 145L177 148L173 146L172 149L169 148L169 149L172 150L172 151L168 152L168 153C171.407 152.432 173.706 152.177 173 155L174 155L173 151L179 147L175 145M178 145L179 146L178 145M181 145L180 147L181 145z"/>
<path style="fill:#987d4e; stroke:none;" d="M97 146C93.5413 151.148 89.5055 160.906 100 159L100 154L97 146z"/>
<path style="fill:#44528d; stroke:none;" d="M132 146L133 147L132 146M151 146L152 147L151 146z"/>
<path style="fill:#ffffff; stroke:none;" d="M99.3333 147.667L99.6667 148.333L99.3333 147.667z"/>
<path style="fill:#41394b; stroke:none;" d="M108.667 147.333L109.333 147.667L108.667 147.333z"/>
<path style="fill:#a4a3a9; stroke:none;" d="M184 148L185 149L184 148M164 149L165 150L164 149z"/>
<path style="fill:#987d4e; stroke:none;" d="M175.667 149.333L176.333 149.667L175.667 149.333z"/>
<path style="fill:#a4a3a9; stroke:none;" d="M186 149L179 153L178 155L178 157L180 157L180 158L177 157L176 160L175 160L177 155L173 159L169 157L172 160L172 161L169 161L169 165L168 165L167 163L163 164L163 160L162 160L162 163L151 162L151 163C163.418 163.265 177.015 171.646 184.521 156.826C185.849 154.204 186.779 151.807 186 149z"/>
<path style="fill:#987d4e; stroke:none;" d="M135 150L136 151L135 150z"/>
<path style="fill:#a4a3a9; stroke:none;" d="M167.667 150.333L168.333 150.667L167.667 150.333M183 150L184 151L183 150M158 151L157 155L158 155L165 154L165 153L158 151M164 151L164 152L167 153L164 151M181 151L182 152L181 151M145.667 152.333L146.333 152.667L145.667 152.333M153.667 153.333L154.333 153.667L153.667 153.333z"/>
<path style="fill:#41394b; stroke:none;" d="M118 154L120 156L118 154z"/>
<path style="fill:#a4a3a9; stroke:none;" d="M149 154L150 155L149 154z"/>
<path style="fill:#987d4e; stroke:none;" d="M181 154L181 157L182 157L183 157L181 154M99 155L100 156L99 155z"/>
<path style="fill:#a4a3a9; stroke:none;" d="M169 155L170 156L169 155M92.3333 156.667L92.6667 157.333L92.3333 156.667M117 156L118 157L117 156z"/>
<path style="fill:#41394b; stroke:none;" d="M116 159L118 162L113 162L113 163L121 164L112 170L104 164L104 168L120 176L111 175L111 176L120 181L109 179C111.124 185.063 116.083 186.203 122 187L122 201L122 202L124 205L116 204L117 207L115 205L111 205L119 214L118 218L115 215L114 215C112.363 221.795 116.78 224.503 123 225L123 226L118 227L118 228L122 230L136 227L136 223L144 222L144 223L142 225L137 224L137 225L146 229L150 228L150 227L144 222L144 221C149.986 217.641 150.346 211.201 144 208L146 204L144 205L144 204L147 203L148 200L148 199L144 200L145 198L142 196L141 196L141 199L140 199L139 196L138 196L138 200L137 200L132 198C132.398 194.117 132.626 191.482 137 191C139.989 186.242 142.24 182.65 136 180L132 182L139 179L142 176L142 175L130 176L130 175C139.766 172.674 141.572 173.157 144 163L147 164L141 160L141 168L134 167L137 165L137 164L131 163L131 164L134 164L134 165L129 165L129 160L123 160L123 159L128 159L128 158L121 158L121 157L128 157L116 159z"/>
<path style="fill:#a4a3a9; stroke:none;" d="M93 158L94 159L93 158z"/>
<path style="fill:#44528d; stroke:none;" d="M159 158L160 159L159 158z"/>
<path style="fill:#a4a3a9; stroke:none;" d="M94 159L95 160L94 159z"/>
<path style="fill:#44528d; stroke:none;" d="M112.667 159.333L113.333 159.667L112.667 159.333z"/>
<path style="fill:#41394b; stroke:none;" d="M114 159L115 160L114 159z"/>
<path style="fill:#44528d; stroke:none;" d="M123 159L124 160L123 159M156 159L157 160L156 159z"/>
<path style="fill:#a4a3a9; stroke:none;" d="M165 159L164 161L165 159M107 160L108 161L107 160z"/>
<path style="fill:#44528d; stroke:none;" d="M115 160L113 161L113 162L115 160z"/>
<path style="fill:#a4a3a9; stroke:none;" d="M132 160L133 161L132 160z"/>
<path style="fill:#44528d; stroke:none;" d="M137 164L137 165L134 167L141 168L141 162L138 163L139 160C136.237 160.518 132.346 162.977 137 164z"/>
<path style="fill:#41394b; stroke:none;" d="M137 160L138 161L137 160z"/>
<path style="fill:#44528d; stroke:none;" d="M140 160L141 161L140 160M148 160L148 163L150 162L150 161L148 160z"/>
<path style="fill:#41394b; stroke:none;" d="M151 160L152 161L151 160z"/>
<path style="fill:#987d4e; stroke:none;" d="M178 160L179 161L178 160M180 160L181 161L180 160z"/>
<path style="fill:#44528d; stroke:none;" d="M117 161L118 162L117 161M129 161L129 162L132 162L129 161z"/>
<path style="fill:#987d4e; stroke:none;" d="M175.667 161.333L176.333 161.667L175.667 161.333M178 162L179 163L178 162z"/>
<path style="fill:#44528d; stroke:none;" d="M117.667 163.333L118.333 163.667L117.667 163.333M129 163L129 165L131 163L129 163M144 163L145 164L144 163z"/>
<path style="fill:#a4a3a9; stroke:none;" d="M149.667 163.333L150.333 163.667L149.667 163.333z"/>
<path style="fill:#987d4e; stroke:none;" d="M176 163L177 164L176 163z"/>
<path style="fill:#44528d; stroke:none;" d="M120.333 164.667L120.667 165.333L120.333 164.667z"/>
<path style="fill:#987d4e; stroke:none;" d="M130.667 164.333L131.333 164.667L130.667 164.333z"/>
<path style="fill:#44528d; stroke:none;" d="M132.667 164.333L133.333 164.667L132.667 164.333M143 164L144 165L143 164z"/>
<path style="fill:#a4a3a9; stroke:none;" d="M147.667 164.333L148.333 164.667L147.667 164.333M102.333 165.667L102.667 166.333L102.333 165.667z"/>
<path style="fill:#44528d; stroke:none;" d="M111 165L112 166L111 165M114 165L114 166L118 166L114 165z"/>
<path style="fill:#987d4e; stroke:none;" d="M140 165L141 166L140 165z"/>
<path style="fill:#a4a3a9; stroke:none;" d="M146 165L147 166L146 165z"/>
<path style="fill:#44528d; stroke:none;" d="M119.333 166.667L119.667 167.333L119.333 166.667M130 166L130 167L133 167L130 166M143 166L143 169L144 169L143 166z"/>
<path style="fill:#a4a3a9; stroke:none;" d="M145 166L146 167L145 166z"/>
<path style="fill:#44528d; stroke:none;" d="M111 167L112 168L111 167M113 167L114 168L113 167z"/>
<path style="fill:#a4a3a9; stroke:none;" d="M144 167L144 172L145 172L144 167M103 168L104 173L105 173L103 168z"/>
<path style="fill:#44528d; stroke:none;" d="M112 168L113 169L112 168z"/>
<path style="fill:#987d4e; stroke:none;" d="M112 169L113 170L112 169M143 169C140.064 174.296 135.185 173.463 130 175L130 176L142 175L140 177L141 185L142 185L143 169z"/>
<path style="fill:#44528d; stroke:none;" d="M107 173L109 176L107 173z"/>
<path style="fill:#a4a3a9; stroke:none;" d="M143 173L143 177L144 177L143 173M105.333 174.667L105.667 175.333L105.333 174.667z"/>
<path style="fill:#44528d; stroke:none;" d="M110 175L108 180L120 181L110 175z"/>
<path style="fill:#a4a3a9; stroke:none;" d="M106.333 176.667L106.667 177.333L106.333 176.667z"/>
<path style="fill:#987d4e; stroke:none;" d="M111 176L112 177L111 176z"/>
<path style="fill:#44528d; stroke:none;" d="M141 176L142 177L141 176M139 177L132 182L136 180L141 182L139 177z"/>
<path style="fill:#a4a3a9; stroke:none;" d="M107.333 179.667L107.667 180.333L107.333 179.667z"/>
<path style="fill:#987d4e; stroke:none;" d="M137 179L138 180L137 179z"/>
<path style="fill:#a4a3a9; stroke:none;" d="M142 179L142 182L143 182L142 179z"/>
<path style="fill:#987d4e; stroke:none;" d="M108 180C110.22 186.189 114.673 192.579 122 192L121 195L122 195C122.427 190.794 119.909 190.422 117 188L122 188L108 180z"/>
<path style="fill:#44528d; stroke:none;" d="M109 181L110 182L109 181z"/>
<path style="fill:#a4a3a9; stroke:none;" d="M108 182L109 183L108 182M109.333 183.667L109.667 184.333L109.333 183.667M110.333 185.667L110.667 186.333L110.333 185.667M141.333 185.667L141.667 186.333L141.333 185.667z"/>
<path style="fill:#44528d; stroke:none;" d="M113 186L114 187L113 186M140 186L137 190L140 191L140 186M115 187L114 189L116 189L115 187z"/>
<path style="fill:#987d4e; stroke:none;" d="M140 187L140 190L141 190L140 187z"/>
<path style="fill:#a4a3a9; stroke:none;" d="M111 188L112 189L111 188z"/>
<path style="fill:#44528d; stroke:none;" d="M117.333 188.667L117.667 189.333L117.333 188.667z"/>
<path style="fill:#41394b; stroke:none;" d="M118.333 188.667L118.667 189.333L118.333 188.667z"/>
<path style="fill:#44528d; stroke:none;" d="M119 188L119 190L121 190L119 188M121 188L122 189L121 188z"/>
<path style="fill:#a4a3a9; stroke:none;" d="M112 189L113 200L109 204L112 204L121 198L120 201L121 201L123 195L112 189z"/>
<path style="fill:#41394b; stroke:none;" d="M139 189L140 190L139 189z"/>
<path style="fill:#44528d; stroke:none;" d="M134 190L136 192L134 190z"/>
<path style="fill:#987d4e; stroke:none;" d="M137 190L136 198L137 198L141 195L141 194L138 194L140 191L137 190z"/>
<path style="fill:#a4a3a9; stroke:none;" d="M140 190L138 194L148 197L148 196L140 190z"/>
<path style="fill:#987d4e; stroke:none;" d="M133.667 191.333L134.333 191.667L133.667 191.333z"/>
<path style="fill:#a4a3a9; stroke:none;" d="M121 192L122 193L121 192z"/>
<path style="fill:#44528d; stroke:none;" d="M132 192L132 198L137 196L137 195L132 192z"/>
<path style="fill:#a4a3a9; stroke:none;" d="M133 192L136 195L133 192z"/>
<path style="fill:#ffffff; stroke:none;" d="M115 193L115 195L117 195L117 193L115 193z"/>
<path style="fill:#44528d; stroke:none;" d="M120.667 193.333L121.333 193.667L120.667 193.333M123 193L122 195L124 195L123 193z"/>
<path style="fill:#987d4e; stroke:none;" d="M133 193L134 194L133 193z"/>
<path style="fill:#41394b; stroke:none;" d="M133 194L134 195L133 194z"/>
<path style="fill:#44528d; stroke:none;" d="M138 195L140 199L141 199L141 196L142 196L145 198L138 195z"/>
<path style="fill:#987d4e; stroke:none;" d="M142 195L143 196L142 195M122 196L121 200L122 200L123 200L122 196z"/>
<path style="fill:#44528d; stroke:none;" d="M123 196L124 197L123 196z"/>
<path style="fill:#987d4e; stroke:none;" d="M134.333 196.667L134.667 197.333L134.333 196.667z"/>
<path style="fill:#a4a3a9; stroke:none;" d="M135 196L136 197L135 196z"/>
<path style="fill:#44528d; stroke:none;" d="M137 196L137 200L138 200L137 196z"/>
<path style="fill:#987d4e; stroke:none;" d="M143 196L144 197L143 196M146 196L147 197L146 196z"/>
<path style="fill:#44528d; stroke:none;" d="M122 197L123 198L122 197M135 197L136 198L135 197z"/>
<path style="fill:#987d4e; stroke:none;" d="M147 197L146 199L147 197M119 198L117 201L121 198L119 198z"/>
<path style="fill:#44528d; stroke:none;" d="M145 198L144 200L146 200L145 198M147 198L148 199L147 198z"/>
<path style="fill:#a4a3a9; stroke:none;" d="M148 198L145 206L145 207L149 210L146 207L146 206L148 198z"/>
<path style="fill:#987d4e; stroke:none;" d="M115 199L116 200L115 199z"/>
<path style="fill:#44528d; stroke:none;" d="M123 199L124 200L123 199M139 199L140 200L139 199M114 200L110 204L114 210L111 205L117 207L116 204L124 205L123 200L114 200M134 200L133 203L136 203L134 200M146 200L147 203L148 203L148 200L146 200z"/>
<path style="fill:#987d4e; stroke:none;" d="M110 201L111 202L110 201M113.333 201.667L113.667 202.333L113.333 201.667z"/>
<path style="fill:#41394b; stroke:none;" d="M116.333 201.667L116.667 202.333L116.333 201.667z"/>
<path style="fill:#987d4e; stroke:none;" d="M110 203L111 204L110 203M112 203L113 204L112 203z"/>
<path style="fill:#44528d; stroke:none;" d="M144 205L147 205L145 203L144 205z"/>
<path style="fill:#987d4e; stroke:none;" d="M109 204L110 205L109 204z"/>
<path style="fill:#a4a3a9; stroke:none;" d="M109.333 205.667L109.667 206.333L109.333 205.667z"/>
<path style="fill:#44528d; stroke:none;" d="M145 205L146 206L145 205M125 206L126 207L125 206M144.333 206.667L144.667 207.333L144.333 206.667z"/>
<path style="fill:#a4a3a9; stroke:none;" d="M110 207L111 208L110 207z"/>
<path style="fill:#987d4e; stroke:none;" d="M145 207L146 208L145 207z"/>
<path style="fill:#a4a3a9; stroke:none;" d="M111 208L112 209L111 208z"/>
<path style="fill:#44528d; stroke:none;" d="M146 208L147 209L146 208z"/>
<path style="fill:#a4a3a9; stroke:none;" d="M112 209L113 210L112 209z"/>
<path style="fill:#44528d; stroke:none;" d="M147 209L148 210L147 209z"/>
<path style="fill:#a4a3a9; stroke:none;" d="M113.667 210.333L114.333 210.667L113.667 210.333z"/>
<path style="fill:#44528d; stroke:none;" d="M115 210C114.297 216.356 111.37 218.664 115 225C101.255 225.446 94.521 248.48 105 257L104 237L105 237L112 243L120 240L121 243L122 243C120.147 238.449 117.111 231.19 125 233L124 230L128 232L132 231L131 228L129 230L122 230L118 228L118 227L123 226L123 225C117.036 223.933 113.148 221.689 114 215L115 215L118 218L119 214L115 210M143 210L143 213L145 213L145 210L143 210M148 210L149 211L148 210z"/>
<path style="fill:#987d4e; stroke:none;" d="M115 211L116 212L115 211z"/>
<path style="fill:#a4a3a9; stroke:none;" d="M149 211L150 212L149 211M114 212L112 215L114 212z"/>
<path style="fill:#987d4e; stroke:none;" d="M149 212L150 213L149 212M114 213L115 214L114 213z"/>
<path style="fill:#44528d; stroke:none;" d="M149 213L150 214L149 213z"/>
<path style="fill:#987d4e; stroke:none;" d="M113 214L114 215L113 214M149 214L151 217L149 214M112 215L113 216L112 215z"/>
<path style="fill:#a4a3a9; stroke:none;" d="M111 216L111 219L112 219L111 216z"/>
<path style="fill:#44528d; stroke:none;" d="M149 216L144 221L144 222L150 227L150 228L146 229L148 235L142 236L142 237C148.388 237.053 155.132 239.367 159 233L161 235L162 235L164 231L165 231C165.392 240.153 165.092 247.515 161 256C169.341 250.594 170.185 234.912 164.972 227C163.311 224.479 157.273 217.213 156 223L149 216z"/>
<path style="fill:#a4a3a9; stroke:none;" d="M151.667 216.333L152.333 216.667L151.667 216.333M153.667 217.333L154.333 217.667L153.667 217.333M155 218L155 219C161.817 222.246 166.635 227.438 168 235L169 235C168.55 226.33 163.156 220.603 155 218z"/>
<path style="fill:#987d4e; stroke:none;" d="M155 219L155 223L156 223L157 219L155 219z"/>
<path style="fill:#a4a3a9; stroke:none;" d="M112 220C105.919 227.036 99.4553 232.06 99 242L100 242L112 220z"/>
<path style="fill:#987d4e; stroke:none;" d="M158 220L159 221L158 220M159 221L160 222L159 221M112 222L110 225C112.251 224.527 113.118 224.14 112 222z"/>
<path style="fill:#44528d; stroke:none;" d="M136 223L139 229L140 229L140 226L137 225L137 224L142 225L144 223L136 223z"/>
<path style="fill:#987d4e; stroke:none;" d="M161 222L162 223L161 222z"/>
<path style="fill:#a4a3a9; stroke:none;" d="M113 223L113 225L115 223L113 223z"/>
<path style="fill:#987d4e; stroke:none;" d="M162 223L163 224L162 223M114 224L115 225L114 224M163 224L164 225L163 224M108 225L109 226L108 225M107 226L108 227L107 226M136 226L139 229L136 226z"/>
<path style="fill:#a4a3a9; stroke:none;" d="M140 226L141 229L137 228L135 230L135 231L140 231L140 235L129 237L128 233L134 231L126 230L125 230L126 233C117.897 231.744 118.858 237.39 122 243C127.747 241.357 141.089 238.926 145.381 235.012C149.573 231.19 143.448 226.561 140 226z"/>
<path style="fill:#44528d; stroke:none;" d="M144 226L145 227L144 226z"/>
<path style="fill:#41394b; stroke:none;" d="M160 226L162 230L163 230L163 226L160 226z"/>
<path style="fill:#987d4e; stroke:none;" d="M164 226L165 227L164 226M106 227L107 228L106 227z"/>
<path style="fill:#44528d; stroke:none;" d="M132 227L135 230L132 227z"/>
<path style="fill:#987d4e; stroke:none;" d="M134 227L136 230L134 227z"/>
<path style="fill:#44528d; stroke:none;" d="M135.667 227.333L136.333 227.667L135.667 227.333z"/>
<path style="fill:#987d4e; stroke:none;" d="M139 227L140 228L139 227z"/>
<path style="fill:#44528d; stroke:none;" d="M145 227L146 228L145 227z"/>
<path style="fill:#987d4e; stroke:none;" d="M165 227L166 228L165 227M131 228L133 230L133 228L131 228z"/>
<path style="fill:#41394b; stroke:none;" d="M136 228L137 229L136 228z"/>
<path style="fill:#987d4e; stroke:none;" d="M140 228L141 229L140 228M145 228L146 229L145 228z"/>
<path style="fill:#41394b; stroke:none;" d="M107 229L108 230L107 229z"/>
<path style="fill:#987d4e; stroke:none;" d="M128 229L129 230L128 229z"/>
<path style="fill:#41394b; stroke:none;" d="M130 229L131 230L130 229z"/>
<path style="fill:#44528d; stroke:none;" d="M136 229L137 230L136 229z"/>
<path style="fill:#987d4e; stroke:none;" d="M166 229L167 230L166 229M104 230L105 231L104 230M113 230L113 232L115 230L113 230M124 230L125 231L124 230M126 230L128 232L128 230L126 230M133 230L136 232L133 235L131 232L131 237L140 235L140 234L133 230z"/>
<path style="fill:#41394b; stroke:none;" d="M147 230L147 231L155 231L147 230z"/>
<path style="fill:#987d4e; stroke:none;" d="M103 231L104 232L103 231M121.667 231.333L122.333 231.667L121.667 231.333z"/>
<path style="fill:#44528d; stroke:none;" d="M126 231L127 232L126 231M137 231L140 234L137 231z"/>
<path style="fill:#987d4e; stroke:none;" d="M139.333 231.667L139.667 232.333L139.333 231.667z"/>
<path style="fill:#41394b; stroke:none;" d="M164 231L162 235L161 235L159 233C153.078 239.632 135.942 238.579 127.001 241.517C123.847 242.553 122.292 242.191 120 240L112 243L105 237L104 237L105 257C115.936 265.075 125.729 266 139 266L139 265L130 265L130 264L142 263L142 264L140 264L140 265L145 262C160.392 261.82 170.786 245.12 164 231z"/>
<path style="fill:#987d4e; stroke:none;" d="M167 231L168 232L167 231z"/>
<path style="fill:#a4a3a9; stroke:none;" d="M114 232L115 233L114 232z"/>
<path style="fill:#987d4e; stroke:none;" d="M119 232L120 233L119 232z"/>
<path style="fill:#41394b; stroke:none;" d="M123 232L124 233L123 232z"/>
<path style="fill:#987d4e; stroke:none;" d="M125 232L126 233L125 232z"/>
<path style="fill:#44528d; stroke:none;" d="M133 235L136 232L134 232L133 235z"/>
<path style="fill:#987d4e; stroke:none;" d="M102.333 233.667L102.667 234.333L102.333 233.667M114 233L115 234L114 233M128 233L129 237L130 237L128 233z"/>
<path style="fill:#44528d; stroke:none;" d="M129 233L130 237L131 237L129 233z"/>
<path style="fill:#41394b; stroke:none;" d="M148.667 233.333L149.333 233.667L148.667 233.333z"/>
<path style="fill:#987d4e; stroke:none;" d="M147 234L148 235L147 234M101 235L100 241L101 241L101 235M126 235L127 236L126 235M146 235L147 236L146 235M168 235L168 241L169 241L168 235M141 236L142 237L141 236z"/>
<path style="fill:#44528d; stroke:none;" d="M160 236L160 238L162 238L162 236L160 236z"/>
<path style="fill:#987d4e; stroke:none;" d="M138 237L139 238L138 237z"/>
<path style="fill:#44528d; stroke:none;" d="M139 237L140 238L139 237z"/>
<path style="fill:#a4a3a9; stroke:none;" d="M169 237L167 248L168 248L169 237z"/>
<path style="fill:#ffffff; stroke:none;" d="M130 238L131 239L130 238z"/>
<path style="fill:#987d4e; stroke:none;" d="M133 238L134 239L133 238z"/>
<path style="fill:#44528d; stroke:none;" d="M134.667 238.333L135.333 238.667L134.667 238.333z"/>
<path style="fill:#41394b; stroke:none;" d="M109.667 239.333L110.333 239.667L109.667 239.333z"/>
<path style="fill:#44528d; stroke:none;" d="M131 239L132 240L131 239z"/>
<path style="fill:#987d4e; stroke:none;" d="M128 240L129 241L128 240z"/>
<path style="fill:#44528d; stroke:none;" d="M129 240L130 241L129 240M126.667 241.333L127.333 241.667L126.667 241.333z"/>
<path style="fill:#987d4e; stroke:none;" d="M99 242L99 249L100 249L99 242z"/>
<path style="fill:#44528d; stroke:none;" d="M124 242L125 243L124 242M137 243L135 247L140 247L139 243L137 243z"/>
<path style="fill:#987d4e; stroke:none;" d="M167.333 244.667L167.667 245.333L167.333 244.667z"/>
<path style="fill:#a4a3a9; stroke:none;" d="M98 246L98 249L99 249L98 246z"/>
<path style="fill:#44528d; stroke:none;" d="M128 246L129 247L128 246M142 246L142 247L145 247L142 246z"/>
<path style="fill:#987d4e; stroke:none;" d="M166.333 247.667L166.667 248.333L166.333 247.667z"/>
<path style="fill:#a4a3a9; stroke:none;" d="M99 249L100 254L101 254L99 249z"/>
<path style="fill:#44528d; stroke:none;" d="M130 250L130 251L136 250L130 250M137.667 249.333L138.333 249.667L137.667 249.333M144.333 249.667L144.667 250.333L144.333 249.667z"/>
<path style="fill:#a4a3a9; stroke:none;" d="M166 249L163 254L163 255C165.906 253.507 167.505 252.179 166 249z"/>
<path style="fill:#987d4e; stroke:none;" d="M100 251L101 252L100 251M165 252L166 253L165 252z"/>
<path style="fill:#44528d; stroke:none;" d="M131.667 253.333L132.333 253.667L131.667 253.333z"/>
<path style="fill:#987d4e; stroke:none;" d="M164 253L165 254L164 253z"/>
<path style="fill:#a4a3a9; stroke:none;" d="M101 254L101 256L103 256L101 254M162 255L163 256L162 255M103 256L104 257L103 256z"/>
<path style="fill:#44528d; stroke:none;" d="M107 256L108 257L107 256M159 256L160 257L159 256z"/>
<path style="fill:#a4a3a9; stroke:none;" d="M160 256L161 257L160 256M104 257L104 258L109 261L104 257z"/>
<path style="fill:#987d4e; stroke:none;" d="M105 257L106 258L105 257z"/>
<path style="fill:#44528d; stroke:none;" d="M112 257L113 258L112 257M157 257L158 258L157 257z"/>
<path style="fill:#a4a3a9; stroke:none;" d="M158 257L159 258L158 257z"/>
<path style="fill:#44528d; stroke:none;" d="M107 258L108 259L107 258z"/>
<path style="fill:#987d4e; stroke:none;" d="M156 258L157 259L156 258M108 259L109 260L108 259z"/>
<path style="fill:#44528d; stroke:none;" d="M154 259L155 260L154 259z"/>
<path style="fill:#a4a3a9; stroke:none;" d="M155 259L156 260L155 259z"/>
<path style="fill:#987d4e; stroke:none;" d="M109 260L110 261L109 260z"/>
<path style="fill:#a4a3a9; stroke:none;" d="M153 260L154 261L153 260M110 261L111 262L110 261z"/>
<path style="fill:#44528d; stroke:none;" d="M113 261L113 262L128 265L128 264L113 261z"/>
<path style="fill:#a4a3a9; stroke:none;" d="M152 261L153 262L152 261z"/>
<path style="fill:#987d4e; stroke:none;" d="M111 262L112 263L111 262z"/>
<path style="fill:#44528d; stroke:none;" d="M112 262L113 263L112 262M145 262L145 263L150 263L145 262z"/>
<path style="fill:#a4a3a9; stroke:none;" d="M150.667 262.333L151.333 262.667L150.667 262.333M112 263L112 264L116 265L116 264L112 263z"/>
<path style="fill:#987d4e; stroke:none;" d="M113 263L114 264L113 263z"/>
<path style="fill:#44528d; stroke:none;" d="M114 263L115 264L114 263M130 264L130 265L142 266L142 265C140.04 264.347 139.446 264 142 264L130 264z"/>
<path style="fill:#987d4e; stroke:none;" d="M147 263L148 264L147 263z"/>
<path style="fill:#a4a3a9; stroke:none;" d="M148 263L149 264L148 263z"/>
<path style="fill:#987d4e; stroke:none;" d="M116 264L117 265L116 264z"/>
<path style="fill:#44528d; stroke:none;" d="M117.667 264.333L118.333 264.667L117.667 264.333M144 264L145 265L144 264z"/>
<path style="fill:#a4a3a9; stroke:none;" d="M145.667 264.333L146.333 264.667L145.667 264.333M117 265L117 266L142 267L142 266L117 265z"/>
<path style="fill:#987d4e; stroke:none;" d="M120.667 265.333L121.333 265.667L120.667 265.333z"/>
<path style="fill:#44528d; stroke:none;" d="M122.667 265.333L123.333 265.667L122.667 265.333z"/>
<path style="fill:#987d4e; stroke:none;" d="M142 265L143 266L142 265z"/>
<path style="fill:#a4a3a9; stroke:none;" d="M143 265L144 266L143 265z"/>
</svg>
