<?xml version="1.0" encoding="UTF-8"?>
<svg id="Layer_1" data-name="Layer 1" xmlns="http://www.w3.org/2000/svg" viewBox="0 0 50 50">
  <defs>
    <style>
      .cls-1 {
        stroke-width: 0px;
      }
    </style>
  </defs>
  <path class="cls-1" d="m43.79,23.9v2.2c-.02.11-.05.21-.06.32-.18,2.62-.86,5.12-2.15,7.4-3.46,6.16-8.74,9.5-15.8,9.94-3.04.19-5.99-.38-8.72-1.74-6.7-3.33-10.34-8.77-10.83-16.23-.22-3.42.54-6.67,2.2-9.67,2.93-5.28,7.37-8.5,13.32-9.62.71-.13,1.42-.2,2.14-.29.73,0,1.47,0,2.2,0,.09.02.19.05.28.06,2.63.18,5.13.87,7.44,2.15,5.29,2.92,8.53,7.36,9.67,13.31.14.72.2,1.45.3,2.17Zm-18.78,21.74c11.39,0,20.62-9.24,20.63-20.63.01-11.39-9.25-20.66-20.65-20.65-11.39,0-20.62,9.24-20.63,20.63-.01,11.4,9.25,20.66,20.65,20.65Z"/>
  <path class="cls-1" d="m22.11,28.35c.11-.16.18-.33.29-.44,3.2-3.21,6.4-6.41,9.6-9.61.38-.38.8-.67,1.36-.67.68,0,1.2.32,1.51.91.32.6.26,1.2-.13,1.76-.1.15-.23.28-.36.41-3.65,3.65-7.3,7.3-10.95,10.96-.95.95-1.87.95-2.82,0-1.7-1.7-3.39-3.39-5.09-5.09-.63-.63-.77-1.39-.41-2.08.55-1.05,1.88-1.22,2.79-.33,1.27,1.25,2.52,2.51,3.77,3.77.11.11.22.21.44.42Z"/>
</svg>