<?xml version="1.0" encoding="UTF-8"?>
<svg id="Layer_1" data-name="Layer 1" xmlns="http://www.w3.org/2000/svg" viewBox="0 0 25 25">
  <defs>
    <style>
      .cls-1 {
        fill: #474747;
        stroke-width: 0px;
      }
    </style>
  </defs>
  <path class="cls-1" d="m22.39,11.92v1.16c-.01.06-.03.11-.03.17-.1,1.38-.45,2.69-1.13,3.9-1.82,3.24-4.6,5-8.31,5.23-1.6.1-3.15-.2-4.59-.92-3.52-1.75-5.44-4.61-5.7-8.54-.12-1.8.29-3.51,1.16-5.09,1.54-2.78,3.88-4.47,7.01-5.06.37-.07.75-.1,1.13-.15.39,0,.77,0,1.16,0,.05.01.1.03.15.03,1.39.09,2.7.46,3.92,1.13,2.79,1.54,4.49,3.88,5.09,7.01.07.38.1.76.16,1.14Zm-9.89,10.21c5.31,0,9.62-4.31,9.62-9.62,0-5.32-4.32-9.64-9.63-9.64-5.31,0-9.62,4.31-9.62,9.62,0,5.32,4.32,9.64,9.63,9.64Z"/>
  <path class="cls-1" d="m10.98,14.26c.06-.09.09-.17.16-.23,1.68-1.69,3.37-3.37,5.05-5.06.2-.2.42-.35.72-.35.36,0,.63.17.79.48.17.32.14.63-.07.92-.06.08-.12.15-.19.22-1.92,1.92-3.84,3.84-5.77,5.77-.5.5-.98.5-1.49,0-.89-.89-1.79-1.78-2.68-2.68-.33-.33-.41-.73-.22-1.09.29-.55.99-.64,1.47-.17.67.66,1.32,1.32,1.99,1.98.06.06.12.11.23.22Z"/>
</svg>