<?xml version="1.0" encoding="UTF-8"?>
<svg id="Layer_1" data-name="Layer 1" xmlns="http://www.w3.org/2000/svg" viewBox="0 0 25 25">
  <defs>
    <style>
      .cls-1 {
        fill: #2196f2;
        stroke-width: 0px;
      }
    </style>
  </defs>
  <path class="cls-1" d="m1.09,13.17c0-.45,0-.89,0-1.34.02-.16.04-.32.05-.48.27-2.46,1.21-4.62,2.87-6.46,1.76-1.95,3.94-3.17,6.53-3.63.43-.08.86-.12,1.3-.18.45,0,.89,0,1.34,0,.38.05.77.08,1.15.15,2.38.4,4.46,1.42,6.17,3.13,2.56,2.56,3.69,5.68,3.37,9.28-.22,2.42-1.17,4.56-2.79,6.38-2.15,2.42-4.86,3.72-8.09,3.87-2.25.11-4.37-.42-6.3-1.59-2.96-1.81-4.78-4.42-5.42-7.84-.08-.43-.12-.86-.18-1.3ZM12.5,2.86c-5.32,0-9.63,4.31-9.64,9.64,0,5.31,4.3,9.63,9.63,9.65,5.32.01,9.66-4.33,9.65-9.65,0-5.32-4.32-9.64-9.64-9.64Z"/>
  <path class="cls-1" d="m11.62,13.3c-.95,0-1.86,0-2.77,0-.27,0-.54,0-.8,0-.46-.02-.82-.39-.84-.85-.02-.45.31-.83.76-.9.1-.01.21-.02.31-.02,1.02,0,2.04,0,3.05,0,.09,0,.18,0,.29,0,0-.1,0-.18,0-.26,0-1.06,0-2.12,0-3.19,0-.47.24-.82.64-.93.59-.16,1.13.26,1.13.91,0,1.05,0,2.11,0,3.16,0,.09,0,.19,0,.31.11,0,.2,0,.28,0,1.05,0,2.09,0,3.14,0,.47,0,.8.21.93.58.21.58-.21,1.18-.85,1.18-1.05,0-2.11,0-3.16,0-.1,0-.21,0-.35,0,0,.09,0,.16,0,.24,0,1.08,0,2.15,0,3.23,0,.54-.35.92-.84.94-.54.02-.93-.37-.93-.96,0-1.06,0-2.12,0-3.19,0-.08,0-.16,0-.27Z"/>
</svg>