<svg width="16" height="15" viewBox="0 0 16 15" fill="none" xmlns="http://www.w3.org/2000/svg">
<path d="M7.55952 0.535018C7.75886 -0.0784692 8.62678 -0.0784689 8.82611 0.535018L10.1392 4.57642C10.2284 4.85078 10.4841 5.03654 10.7725 5.03654H15.0219C15.667 5.03654 15.9352 5.86198 15.4133 6.24114L11.9755 8.73886C11.7421 8.90843 11.6445 9.20899 11.7336 9.48335L13.0467 13.5248C13.2461 14.1382 12.5439 14.6484 12.022 14.2692L8.58422 11.7715C8.35083 11.6019 8.03481 11.6019 7.80142 11.7715L4.3636 14.2692C3.84173 14.6484 3.13957 14.1382 3.3389 13.5247L4.65204 9.48335C4.74118 9.20899 4.64352 8.90843 4.41014 8.73886L0.972316 6.24114C0.450453 5.86198 0.718655 5.03654 1.36371 5.03654H5.6131C5.90158 5.03654 6.15725 4.85078 6.24639 4.57642L7.55952 0.535018Z" fill="#FAD75E"/>
</svg>
