<svg width="16" height="15" viewBox="0 0 16 15" fill="none" xmlns="http://www.w3.org/2000/svg">
<path d="M7.74898 0.535018C7.94831 -0.0784692 8.81623 -0.0784689 9.01557 0.535018L10.3287 4.57642C10.4178 4.85078 10.6735 5.03654 10.962 5.03654H15.2114C15.8564 5.03654 16.1246 5.86198 15.6028 6.24114L12.165 8.73886C11.9316 8.90843 11.8339 9.20899 11.9231 9.48335L13.2362 13.5248C13.4355 14.1382 12.7334 14.6484 12.2115 14.2692L8.77367 11.7715C8.54029 11.6019 8.22426 11.6019 7.99088 11.7715L4.55305 14.2692C4.03119 14.6484 3.32902 14.1382 3.52836 13.5247L4.84149 9.48335C4.93063 9.20899 4.83298 8.90843 4.59959 8.73886L1.16177 6.24114C0.639906 5.86198 0.908108 5.03654 1.55317 5.03654H5.80255C6.09103 5.03654 6.3467 4.85078 6.43585 4.57642L7.74898 0.535018Z" fill="#094C89"/>
</svg>
