<svg width="16" height="15" viewBox="0 0 16 15" fill="none" xmlns="http://www.w3.org/2000/svg">
<path d="M7.04585 0.535018C7.24519 -0.0784692 8.11311 -0.0784689 8.31244 0.535018L9.62557 4.57642C9.71472 4.85078 9.97039 5.03654 10.2589 5.03654H14.5083C15.1533 5.03654 15.4215 5.86198 14.8997 6.24114L11.4618 8.73886C11.2284 8.90843 11.1308 9.20899 11.2199 9.48335L12.5331 13.5248C12.7324 14.1382 12.0302 14.6484 11.5084 14.2692L8.07055 11.7715C7.83716 11.6019 7.52113 11.6019 7.28775 11.7715L3.84993 14.2692C3.32806 14.6484 2.6259 14.1382 2.82523 13.5247L4.13836 9.48335C4.22751 9.20899 4.12985 8.90843 3.89647 8.73886L0.458644 6.24114C-0.0632193 5.86198 0.204983 5.03654 0.850042 5.03654H5.09943C5.38791 5.03654 5.64358 4.85078 5.73272 4.57642L7.04585 0.535018Z" fill="#979797"/>
</svg>
