<svg width="14" height="14" viewBox="0 0 14 14" fill="none" xmlns="http://www.w3.org/2000/svg">
<mask id="mask0_368_10324" style="mask-type:luminance" maskUnits="userSpaceOnUse" x="0" y="0" width="14" height="14">
<rect x="0.425781" y="0.257812" width="13.3177" height="13.3177" fill="white"/>
</mask>
<g mask="url(#mask0_368_10324)">
<path fill-rule="evenodd" clip-rule="evenodd" d="M2.84758 5.70591H11.3224C11.4863 5.70591 11.6282 5.64605 11.748 5.52622C11.8677 5.40642 11.9278 5.26457 11.9278 5.10061C11.9278 4.93666 11.8677 4.79487 11.748 4.67491L7.51059 0.437503C7.39087 0.317842 7.24904 0.257812 7.08499 0.257812C6.92093 0.257812 6.77911 0.317842 6.65928 0.437503L2.42188 4.67491C2.30205 4.79473 2.24219 4.93666 2.24219 5.10061C2.24219 5.26453 2.30205 5.40642 2.42188 5.52622C2.54184 5.64605 2.68366 5.70591 2.84758 5.70591ZM11.3224 8.12764H2.84758C2.68353 8.12764 2.5417 8.18754 2.42188 8.30723C2.30205 8.42706 2.24219 8.56888 2.24219 8.73284C2.24219 8.89679 2.30205 9.03872 2.42188 9.15848L6.65928 13.3958C6.77924 13.5156 6.92107 13.5756 7.08499 13.5756C7.24891 13.5756 7.39087 13.5156 7.51059 13.3958L11.748 9.15845C11.8677 9.03872 11.9278 8.89679 11.9278 8.73281C11.9278 8.56889 11.8677 8.42706 11.748 8.3072C11.6283 8.18741 11.4863 8.12764 11.3224 8.12764V8.12764Z" fill="#094C89"/>
</g>
</svg>
