<svg width="25" height="25" viewBox="0 0 25 25" fill="none" xmlns="http://www.w3.org/2000/svg">
<g id="Menu">
<g id="Iconspace_Message_25px">
<path id="Combined Shape" fill-rule="evenodd" clip-rule="evenodd" d="M13.7345 12.9105L21.8192 7.24424C21.2249 6.29755 20.1716 5.66821 18.9714 5.66821H5.53139C4.33113 5.66821 3.27787 6.29755 2.68358 7.24424L10.7683 12.9105C11.6577 13.5019 12.8451 13.5019 13.7345 12.9105ZM9.94557 13.544L2.28134 8.17244C2.20959 8.44566 2.17139 8.73247 2.17139 9.02821V17.6682C2.17139 18.4448 2.43483 19.1598 2.87721 19.7288L9.94557 13.544ZM22.3314 9.02821C22.3314 8.73247 22.2932 8.44566 22.2214 8.17244L14.5663 13.5376L21.6322 19.7203C22.0706 19.1527 22.3314 18.4409 22.3314 17.6682V9.02821ZM3.57096 20.3973L10.6519 14.2015C10.7132 14.149 10.7568 14.0915 10.7853 14.032C11.722 14.4257 12.7958 14.4238 13.7311 14.0262C13.7595 14.0878 13.8039 14.1473 13.8672 14.2015L20.9408 20.3909C20.3874 20.7918 19.707 21.0282 18.9714 21.0282H5.53139C4.79973 21.0282 4.1227 20.7944 3.57096 20.3973Z" fill="white"/>
</g>
</g>
</svg>
