<svg width="25" height="24" viewBox="0 0 25 24" fill="none" xmlns="http://www.w3.org/2000/svg">
<g id="Menu">
<g id="Iconspace_Message_25px">
<path id="Combined Shape" fill-rule="evenodd" clip-rule="evenodd" d="M13.7345 12.0423L21.8192 6.37603C21.2249 5.42934 20.1716 4.8 18.9714 4.8H5.53139C4.33113 4.8 3.27787 5.42934 2.68358 6.37603L10.7683 12.0423C11.6577 12.6337 12.8451 12.6337 13.7345 12.0423ZM9.94557 12.6758L2.28134 7.30423C2.20959 7.57745 2.17139 7.86426 2.17139 8.16V16.8C2.17139 17.5766 2.43483 18.2916 2.87721 18.8606L9.94557 12.6758ZM22.3314 8.16C22.3314 7.86426 22.2932 7.57745 22.2214 7.30423L14.5663 12.6694L21.6322 18.8521C22.0706 18.2845 22.3314 17.5727 22.3314 16.8V8.16ZM3.57096 19.5291L10.6519 13.3333C10.7132 13.2807 10.7568 13.2233 10.7853 13.1637C11.722 13.5575 12.7958 13.5556 13.7311 13.158C13.7595 13.2196 13.8039 13.279 13.8672 13.3333L20.9408 19.5226C20.3874 19.9236 19.707 20.16 18.9714 20.16H5.53139C4.79973 20.16 4.1227 19.9261 3.57096 19.5291Z" fill="#17142A"/>
</g>
</g>
</svg>
