<svg width="21" height="20" viewBox="0 0 21 20" fill="none" xmlns="http://www.w3.org/2000/svg">
<g id="Icon/Glyph/25/Phone">
<g id="Iconspace_Call_25px">
<path id="Path" fill-rule="evenodd" clip-rule="evenodd" d="M7.89083 9.26253L10.6818 12.2004C10.9844 12.5189 11.5325 12.5644 12.143 12.2643C13.6968 11.6217 14.2137 11.465 14.5089 11.7757L17.7171 15.1528C18.0964 15.552 17.9952 16.217 17.5711 16.6634C15.369 18.9814 11.7898 18.9814 9.58769 16.6634L3.59447 10.3547C1.40341 8.04836 1.40341 4.31707 3.59447 2.01069C4.0275 1.55486 4.69251 1.44271 5.08604 1.85695L8.29432 5.23409C8.5724 5.52681 8.4233 6.07201 7.81617 7.69646C7.53393 8.33055 7.57915 8.93445 7.89083 9.26253Z" fill="#17142A"/>
</g>
</g>
</svg>
