<svg width="429" height="208" viewBox="0 0 429 208" fill="none" xmlns="http://www.w3.org/2000/svg">
<g filter="url(#filter0_d_196_6820)">
<rect x="50" y="30" width="328.191" height="107.969" rx="18" fill="url(#paint0_linear_196_6820)"/>
</g>
<path d="M118.182 59.9436C118.391 59.924 118.514 59.9023 118.637 59.9023C120.879 59.9023 123.121 59.9023 125.363 59.9141C127.946 59.9279 130.528 59.9574 133.111 59.9692C137.123 59.9888 141.136 60.0026 145.148 60.0144C145.603 60.0144 146.056 59.9849 146.511 59.9711C148.057 59.922 149.593 60.0242 151.128 60.2148C152.032 60.3268 152.92 60.5175 153.813 60.6845C154.322 60.7788 154.823 60.9321 155.32 61.0815C156.643 61.4804 157.94 61.9482 159.197 62.5358C160.481 63.1371 161.705 63.8387 162.871 64.6484C164.229 65.5897 165.457 66.6824 166.557 67.9146C167.857 69.3708 168.954 70.9725 169.796 72.7412C170.133 73.4487 170.461 74.1641 170.746 74.8951C171.103 75.809 171.396 76.7464 171.637 77.7015C171.938 78.8944 172.181 80.0991 172.335 81.3195C172.504 82.6539 172.659 83.9922 172.566 85.3403C172.489 86.4369 172.369 87.5296 172.146 88.6066C171.972 89.4398 171.787 90.2731 171.566 91.0946C171.305 92.0595 170.97 92.9989 170.592 93.9265C170.129 95.0663 169.594 96.1688 168.967 97.2241C167.442 99.7907 165.489 101.958 163.047 103.66C161.626 104.651 160.103 105.443 158.484 106.056C157.217 106.535 155.918 106.899 154.6 107.166C153.632 107.363 152.658 107.559 151.664 107.612C150.869 107.656 150.079 107.754 149.285 107.811C148.718 107.85 148.149 107.882 147.583 107.882C140.111 107.893 132.637 107.899 125.165 107.907C118.489 107.915 111.811 107.923 105.135 107.931C104.632 107.931 104.129 107.935 103.624 107.935C103.512 107.935 103.402 107.915 103.258 107.901C103.283 107.803 103.289 107.724 103.321 107.658C103.998 106.313 104.677 104.969 105.353 103.625C105.905 102.53 106.452 101.432 107.003 100.337C107.15 100.046 107.308 99.7612 107.472 99.4488C107.684 99.4409 107.892 99.4272 108.1 99.4272C110.211 99.4272 112.324 99.4311 114.435 99.435C117.781 99.4409 121.128 99.4448 124.475 99.4507C131.183 99.4606 137.894 99.4724 144.602 99.4782C145.56 99.4782 146.52 99.4979 147.476 99.4448C148.772 99.3721 150.065 99.2542 151.349 99.0243C152.213 98.869 153.067 98.6686 153.917 98.4544C154.918 98.2028 155.839 97.7528 156.712 97.2045C157.821 96.5068 158.81 95.6637 159.662 94.6615C160.62 93.5334 161.399 92.2973 161.958 90.9157C162.39 89.8486 162.737 88.754 162.933 87.6239C163.155 86.3485 163.29 85.0613 163.253 83.7583C163.224 82.7246 163.132 81.6968 163.031 80.669C162.952 79.8672 162.823 79.0771 162.621 78.2969C162.592 78.1869 162.573 78.0709 162.532 77.9648C162.295 77.3202 162.079 76.6658 161.805 76.0369C161.279 74.8303 160.591 73.7238 159.712 72.7393C158.698 71.6034 157.493 70.7386 156.126 70.0823C154.808 69.4475 153.414 69.0957 151.989 68.8265C150.962 68.6319 149.931 68.5651 148.89 68.5612C143.546 68.5435 138.2 68.5258 132.856 68.5101C132.648 68.5101 132.436 68.4767 132.201 68.571C132.224 68.681 132.226 68.797 132.27 68.8933C132.405 69.19 132.552 69.4829 132.702 69.7737C133.539 71.3852 134.381 72.9928 135.218 74.6043C135.646 75.4316 136.06 76.2669 136.486 77.0962C136.876 77.8528 137.275 78.6016 137.666 79.3562C138.148 80.2858 138.624 81.2173 139.106 82.1468C139.565 83.0332 140.032 83.9156 140.488 84.8019C141.028 85.8474 141.562 86.8988 142.102 87.9443C142.694 89.092 143.293 90.2377 143.887 91.3874C144.323 92.2305 144.753 93.0755 145.186 93.9166C145.472 94.4689 145.763 95.0172 146.046 95.5694C146.125 95.7246 146.233 95.872 146.262 96.0745C146.187 96.1 146.129 96.1315 146.069 96.1354C145.955 96.1452 145.842 96.1432 145.728 96.1432C142.966 96.1432 140.205 96.1432 137.443 96.1432C137.283 96.1432 137.123 96.1315 136.966 96.1256C136.646 95.6814 136.442 95.198 136.199 94.7361C135.576 93.5491 134.96 92.3562 134.345 91.1633C133.655 89.827 132.972 88.4867 132.28 87.1503C131.339 85.3344 130.391 83.5245 129.448 81.7086C128.513 79.9084 127.586 78.1063 126.651 76.3081C125.92 74.8991 125.18 73.4959 124.45 72.0888C123.916 71.059 123.393 70.0213 122.859 68.9916C121.992 67.3211 121.118 65.6566 120.249 63.9861C119.842 63.202 119.443 62.4139 119.04 61.6298C118.861 61.2819 118.672 60.9361 118.493 60.5882C118.396 60.4015 118.31 60.207 118.181 59.9377L118.182 59.9436Z" fill="#1027C3"/>
<path d="M90.3509 107.948C90.3509 107.901 90.3336 107.844 90.3528 107.806C98.4552 91.9313 106.557 76.0561 114.666 60.1849C114.677 60.1633 114.722 60.1613 114.785 60.1357C120.805 72.0529 126.822 83.976 132.813 95.8657C132.746 96.0229 132.657 96.015 132.58 96.019C132.451 96.0268 132.32 96.0249 132.191 96.0249C129.494 96.0249 126.797 96.0249 124.102 96.0249C123.925 96.0249 123.747 96.0249 123.553 96.0249C123.462 95.8912 123.367 95.7792 123.302 95.6515C122.284 93.6725 121.27 91.6935 120.256 89.7125C119.593 88.4174 118.939 87.1165 118.276 85.8233C117.679 84.6599 117.071 83.5004 116.474 82.337C115.936 81.2895 115.406 80.2401 114.872 79.1907C114.843 79.1337 114.804 79.0826 114.781 79.0452C114.627 79.0059 114.585 79.1022 114.542 79.1887C113.869 80.5172 113.201 81.8457 112.528 83.1742C112.084 84.0487 111.629 84.9174 111.184 85.7919C110.756 86.6369 110.338 87.4879 109.91 88.3329C109.235 89.6595 108.555 90.984 107.88 92.3106C107.169 93.7098 106.461 95.111 105.75 96.5103C104.896 98.1847 104.036 99.8571 103.182 101.531C102.781 102.318 102.392 103.11 101.991 103.898C101.605 104.656 101.218 105.415 100.83 106.173C100.587 106.649 100.327 107.577 99.8856 107.905C99.5039 108.199 98.0793 107.979 97.6031 107.981C96.5756 107.989 95.5501 107.991 94.5226 107.989C94.2662 107.989 90.3586 107.995 90.3567 107.944L90.3509 107.948Z" fill="#EF1C23"/>
<path d="M211.322 72.7993C211.25 72.9094 211.206 72.9467 211.2 72.99C211.187 73.1098 211.185 73.2317 211.183 73.3535C211.175 75.0554 211.163 76.7573 211.16 78.4572C211.156 80.2633 211.065 82.0654 210.984 83.8695C210.969 84.2154 210.951 84.5613 210.934 84.9288C210.82 84.9523 210.726 84.9877 210.629 84.9877C209.22 84.9916 207.809 84.9897 206.4 84.9877C206.333 84.9877 206.267 84.97 206.213 84.9641C206.08 84.8384 206.128 84.691 206.136 84.5593C206.215 83.0854 206.3 81.6134 206.385 80.1395C206.437 79.2394 206.493 78.3374 206.547 77.4373C206.666 75.4111 206.787 73.383 206.905 71.3569C206.998 69.7454 207.082 68.1339 207.175 66.5204C207.239 65.4297 207.312 64.337 207.385 63.2463C207.391 63.1461 207.429 63.0478 207.453 62.9456C207.534 62.926 207.599 62.8965 207.665 62.8965C209.006 62.8926 210.346 62.8906 211.688 62.8926C211.771 62.8926 211.856 62.9201 211.963 62.9378C212.143 63.3839 212.324 63.8339 212.501 64.282C212.839 65.1349 213.176 65.9898 213.513 66.8447C213.997 68.069 214.481 69.2934 214.967 70.5177C215.285 71.3234 215.603 72.1292 215.925 72.933C216.544 74.4757 217.168 76.0184 217.697 77.5965C217.866 78.1055 218.017 78.6223 218.18 79.1333C218.211 79.2296 218.26 79.32 218.319 79.4615C218.398 79.3652 218.47 79.3141 218.493 79.2473C218.653 78.7717 218.79 78.2863 218.961 77.8146C219.32 76.8202 219.686 75.8297 220.064 74.8432C220.509 73.6778 220.968 72.5183 221.427 71.3588C221.764 70.5039 222.113 69.655 222.45 68.802C222.942 67.562 223.428 66.32 223.919 65.0819C224.201 64.3744 224.488 63.6708 224.781 62.9456C224.904 62.926 225.018 62.8945 225.134 62.8945C226.371 62.8906 227.609 62.8906 228.849 62.8945C228.966 62.8945 229.082 62.924 229.18 62.9378C229.307 63.1127 229.288 63.2915 229.298 63.4625C229.375 64.8834 229.446 66.3042 229.527 67.7251C229.664 70.1345 229.807 72.5419 229.947 74.9513C230.048 76.6846 230.144 78.416 230.25 80.1493C230.335 81.5348 230.431 82.9203 230.52 84.3058C230.533 84.5102 230.562 84.7185 230.503 84.9464C230.418 84.9622 230.337 84.9897 230.256 84.9897C228.795 84.9916 227.333 84.9897 225.872 84.9897C225.805 84.9897 225.739 84.972 225.643 84.9602C225.618 84.86 225.585 84.7656 225.571 84.6694C225.554 84.5318 225.55 84.3923 225.544 84.2547C225.413 81.0985 225.307 77.9404 225.338 74.7803C225.344 74.2595 225.356 73.7387 225.361 73.2179C225.361 73.1039 225.384 72.9742 225.24 72.874C224.966 73.3516 224.85 73.8802 224.648 74.3696C224.438 74.8825 224.253 75.4052 224.05 75.9221C223.854 76.4213 223.649 76.9185 223.447 77.4157C223.237 77.9286 223.029 78.4415 222.817 78.9544C222.61 79.4497 222.404 79.9449 222.196 80.4402C221.988 80.9354 221.778 81.4287 221.571 81.9239C221.357 82.4349 221.149 82.9478 220.933 83.4588C220.725 83.952 220.511 84.4453 220.295 84.9484C219.846 85.0447 219.399 84.9818 218.957 84.9936C218.51 85.0054 218.063 85.0015 217.616 84.9936C217.17 84.9858 216.723 85.029 216.253 84.9602C215.682 83.6258 215.115 82.2855 214.537 80.9511C213.959 79.6167 213.396 78.2745 212.877 76.9145C212.363 75.5625 211.859 74.2064 211.322 72.8013V72.7993Z" fill="#0C26B7"/>
<path d="M332.275 76.5428C332.357 75.7764 332.219 75.1436 332.207 74.5049C332.195 73.8623 332.132 73.2216 332.109 72.5809C332.086 71.9383 332.082 71.2976 332.072 70.655C332.062 70.03 332.055 69.4051 332.047 68.7802C332.037 68.1375 332.026 67.4949 332.018 66.8542C332.01 66.2116 332.007 65.569 332.005 64.9263C332.003 64.2857 332.005 63.645 332.005 63.0259C332.161 62.851 332.344 62.8923 332.51 62.8923C333.335 62.8884 334.16 62.8903 334.985 62.8903C335.534 62.8903 336.086 62.8903 336.635 62.8903C336.805 62.8903 336.976 62.9021 337.165 62.91C337.192 63.0279 337.225 63.1242 337.233 63.2225C337.244 63.36 337.237 63.4996 337.237 63.6391C337.237 70.5155 337.237 77.3899 337.237 84.2662C337.237 84.4883 337.26 84.7123 337.215 84.8813C337.163 84.9383 337.154 84.956 337.14 84.9639C337.127 84.9717 337.107 84.9757 337.09 84.9757C335.783 84.9816 334.478 84.9875 333.171 84.9934C333.034 84.9934 332.897 84.9934 332.733 84.9934C331.999 83.8771 331.266 82.7667 330.536 81.6544C329.795 80.5264 329.059 79.3964 328.321 78.2683C327.592 77.154 326.85 76.0476 326.133 74.9274C325.418 73.8131 324.764 72.6576 324.06 71.5472C323.891 71.6101 323.92 71.7103 323.924 71.787C323.976 72.6183 324.041 73.4496 324.085 74.2809C324.128 75.1298 324.164 75.9808 324.176 76.8298C324.213 79.4337 324.234 82.0376 324.261 84.6416C324.261 84.7261 324.244 84.8125 324.232 84.9226C324.134 84.9462 324.039 84.9875 323.943 84.9875C322.395 84.9914 320.849 84.9914 319.301 84.9875C319.22 84.9875 319.137 84.9658 319.058 84.954C319.035 84.8794 319.008 84.8322 319.008 84.785C319.004 77.5805 319.004 70.374 319.004 63.1694C319.004 63.1026 319.027 63.0377 319.042 62.9513C319.133 62.9316 319.214 62.9041 319.295 62.8982C319.866 62.855 322.981 62.8903 323.347 62.9454C323.555 63.252 323.779 63.5782 323.999 63.9083C324.751 65.0285 325.5 66.1507 326.248 67.2728C327.206 68.7114 328.157 70.1578 329.123 71.5924C330.139 73.0997 331.075 74.6542 332.018 76.2068C332.07 76.2913 332.138 76.366 332.275 76.5448V76.5428Z" fill="#0C26B7"/>
<path d="M262.764 74.7556C262.807 74.7929 262.851 74.8479 262.907 74.8833C263.782 75.4434 264.437 76.2177 265.004 77.0765C265.654 78.0611 266.174 79.1184 266.647 80.1993C267.283 81.6594 267.904 83.1275 268.528 84.5935C268.573 84.6997 268.59 84.8156 268.619 84.9316C268.181 85.0082 263.493 85.0121 262.99 84.9355C262.782 84.4697 262.558 83.9843 262.346 83.493C261.642 81.8737 260.954 80.2464 260.237 78.633C259.942 77.9687 259.605 77.3202 259.157 76.7424C258.988 76.5243 258.808 76.312 258.604 76.1293C258.066 75.6458 257.422 75.5377 256.734 75.6301C256.595 75.7873 256.642 75.9701 256.642 76.1371C256.638 77.1964 256.64 78.2557 256.64 79.3149C256.64 80.9991 256.64 82.6833 256.64 84.3675C256.64 84.5542 256.626 84.7409 256.619 84.9414C256.524 84.961 256.459 84.9866 256.395 84.9866C254.745 84.9886 253.097 84.9866 251.423 84.9866C251.392 84.8706 251.356 84.7783 251.346 84.682C251.333 84.5444 251.342 84.4049 251.342 84.2653C251.342 77.389 251.342 70.5126 251.342 63.6363C251.342 63.4142 251.313 63.1862 251.379 62.9917C251.527 62.8443 251.687 62.8757 251.838 62.8738C252.68 62.86 253.523 62.8463 254.365 62.8423C255.774 62.8345 257.185 62.8423 258.594 62.8286C259.72 62.8187 260.825 62.974 261.906 63.2707C262.787 63.5125 263.616 63.8859 264.349 64.4636C265.374 65.2714 265.98 66.3326 266.226 67.6002C266.4 68.4904 266.41 69.3944 266.273 70.2965C266.066 71.6426 265.432 72.7412 264.405 73.6118C263.996 73.9597 263.551 74.2525 263.069 74.4903C262.953 74.5473 262.795 74.5689 262.764 74.7615V74.7556ZM256.696 66.3444C256.615 66.8062 256.586 69.7835 256.64 71.8667C256.644 71.9846 256.667 72.1005 256.678 72.1968C256.734 72.2322 256.763 72.2617 256.792 72.2637C256.979 72.2774 257.168 72.2892 257.355 72.2912C257.887 72.2951 258.415 72.2971 258.938 72.1477C259.93 71.8647 260.503 71.2024 260.725 70.2061C260.871 69.5516 260.838 68.8952 260.7 68.2467C260.607 67.8183 260.407 67.4351 260.108 67.1108C259.707 66.6745 259.206 66.4132 258.625 66.3542C258.08 66.2992 257.53 66.2992 256.981 66.2854C256.883 66.2834 256.784 66.3247 256.696 66.3463V66.3444Z" fill="#0C26B7"/>
<path d="M188.579 84.9877C186.905 84.9877 185.273 84.9877 183.64 84.9877C183.576 84.9877 183.512 84.9622 183.422 84.9445C183.445 84.8266 183.453 84.7244 183.485 84.632C183.769 83.8695 184.06 83.109 184.345 82.3464C184.947 80.7408 185.548 79.1353 186.152 77.5297C186.462 76.7023 186.776 75.8769 187.087 75.0495C187.613 73.6562 188.135 72.2609 188.663 70.8675C189.136 69.6196 189.614 68.3756 190.082 67.1257C190.528 65.9426 190.961 64.7537 191.403 63.5686C191.482 63.3583 191.572 63.1559 191.661 62.9417C191.783 62.9221 191.881 62.8945 191.981 62.8945C193.34 62.8906 194.697 62.8906 196.056 62.8945C196.159 62.8945 196.259 62.9162 196.396 62.9319C196.959 64.3763 197.462 65.8503 198.003 67.3085C198.545 68.7706 199.067 70.2406 199.6 71.7047C200.137 73.1865 200.677 74.6683 201.215 76.1501C201.747 77.6161 202.285 79.0783 202.807 80.5483C203.328 82.0124 203.883 83.4627 204.386 84.9464C203.947 85.0054 199.75 85.0192 199.094 84.9681C198.761 84.1328 198.543 83.2426 198.267 82.374C197.988 81.5014 197.747 80.6151 197.466 79.7877C197.255 79.6266 197.059 79.6737 196.876 79.6737C195.466 79.6698 194.055 79.6718 192.646 79.6718C192.079 79.6718 191.511 79.6718 190.944 79.6718C190.824 79.6718 190.703 79.6777 190.583 79.6718C190.381 79.6659 190.265 79.7622 190.206 79.9528C190.042 80.4834 189.87 81.0101 189.704 81.5387C189.386 82.5469 189.07 83.5551 188.752 84.5632C188.712 84.6929 188.652 84.8187 188.582 84.9917L188.579 84.9877ZM196.17 75.6961C196.174 75.6175 196.191 75.5625 196.178 75.5153C195.463 73.2533 194.744 70.9933 194.023 68.7352C194.003 68.6723 193.953 68.6193 193.915 68.5643C193.907 68.5544 193.886 68.5544 193.863 68.5466C193.834 68.5839 193.789 68.6193 193.774 68.6664C193.041 70.9756 192.313 73.2867 191.586 75.5978C191.578 75.6253 191.603 75.6627 191.613 75.6941C192.008 75.7668 195.65 75.7747 196.17 75.6961Z" fill="#0C26B7"/>
<path d="M317.026 84.9897C315.208 84.9936 313.475 84.9897 311.715 84.9897C311.667 84.8678 311.619 84.7617 311.584 84.6517C311.152 83.2426 310.734 81.8316 310.291 80.4264C310.019 79.5656 310.158 79.6678 309.281 79.6659C307.372 79.6619 305.464 79.6639 303.555 79.6659C303.351 79.6659 303.143 79.6384 302.907 79.7307C302.576 80.5659 302.364 81.4601 302.063 82.3248C301.762 83.1915 301.544 84.0837 301.205 84.972C300.635 85.0093 300.07 84.9858 299.507 84.9897C298.923 84.9936 298.339 84.9897 297.753 84.9897C297.167 84.9897 296.621 84.9897 296.02 84.9897C296.041 84.8659 296.041 84.7814 296.07 84.7087C296.367 83.9127 296.667 83.1188 296.966 82.3248C297.454 81.0278 297.938 79.7288 298.427 78.4337C298.892 77.2015 299.36 75.9712 299.823 74.739C300.426 73.1334 301.026 71.5278 301.627 69.9222C302.053 68.7863 302.481 67.6524 302.907 66.5184C303.285 65.5142 303.663 64.508 304.041 63.5038C304.108 63.3249 304.185 63.152 304.266 62.9515C304.376 62.9319 304.492 62.8945 304.606 62.8945C305.963 62.8906 307.322 62.8906 308.679 62.8945C308.781 62.8945 308.881 62.9162 309.016 62.9299C310.358 66.5853 311.675 70.2485 313.009 73.9077C314.343 77.567 315.661 81.2302 317.024 84.9917L317.026 84.9897ZM308.806 75.6922C308.779 75.5408 308.774 75.419 308.737 75.307C308.56 74.7646 308.371 74.2241 308.195 73.6817C307.856 72.6284 307.52 71.5711 307.185 70.5157C306.996 69.9222 306.815 69.3268 306.628 68.7333C306.601 68.6488 306.566 68.5682 306.424 68.6075C306.395 68.6861 306.354 68.7804 306.325 68.8767C306.096 69.6215 305.872 70.3683 305.639 71.1112C305.329 72.1017 305.012 73.0902 304.692 74.0787C304.548 74.5228 304.388 74.9631 304.243 75.4072C304.214 75.4976 304.22 75.6018 304.211 75.6961C304.664 75.7708 308.303 75.7727 308.808 75.6941L308.806 75.6922Z" fill="#0C26B7"/>
<path d="M234.365 62.9555C234.86 62.8671 245.923 62.8219 247.811 62.8946C247.926 62.8986 248.042 62.9261 248.179 62.9438C248.2 63.0813 248.229 63.1973 248.235 63.3152C248.287 64.4845 248.254 66.2945 248.171 66.717C248.086 66.7367 247.99 66.772 247.892 66.7779C247.72 66.7897 247.549 66.7838 247.377 66.7838C245.021 66.7838 242.668 66.7838 240.312 66.7858C240.094 66.7858 239.863 66.7308 239.666 66.8742C239.597 67.3144 239.599 71.129 239.666 71.5554C239.832 71.6792 240.026 71.6419 240.212 71.6419C241.156 71.6458 242.103 71.6438 243.047 71.6438C244.079 71.6438 245.11 71.6419 246.141 71.6458C246.326 71.6458 246.519 71.6085 246.698 71.7205C246.708 71.7696 246.733 71.8207 246.727 71.8659C246.577 73.0333 246.375 74.1928 246.17 75.3542C245.958 75.4623 245.75 75.4289 245.549 75.4289C243.83 75.4309 242.112 75.4289 240.393 75.4289C240.239 75.4289 240.082 75.4269 239.928 75.4348C239.845 75.4407 239.764 75.4682 239.664 75.4898C239.647 75.6018 239.618 75.7001 239.618 75.8003C239.616 77.4315 239.616 79.0646 239.618 80.6957C239.618 80.7959 239.635 80.8981 239.647 81.0259C239.778 81.0436 239.893 81.0711 240.007 81.073C240.591 81.077 241.175 81.075 241.761 81.075C243.859 81.075 245.956 81.075 248.054 81.075H248.636C248.661 81.187 248.694 81.2676 248.694 81.3482C248.697 82.4762 248.696 83.6043 248.694 84.7323C248.694 84.7972 248.672 84.864 248.663 84.9288C248.597 84.9505 248.551 84.9819 248.503 84.9819C243.861 84.9858 239.221 84.9878 234.579 84.9878C234.513 84.9878 234.45 84.9622 234.388 84.9505C234.365 84.8876 234.33 84.8384 234.33 84.7913C234.326 77.5867 234.324 70.3841 234.324 63.1796C234.324 63.1128 234.349 63.0459 234.367 62.9555H234.365Z" fill="#0C26B7"/>
<path d="M295.461 65.2538C295.177 65.6291 293.08 67.7791 292.625 68.1604C292.532 68.0758 292.428 67.9933 292.342 67.895C291.815 67.3055 291.212 66.8181 290.46 66.5705C289.178 66.148 287.979 66.2875 286.94 67.219C286.443 67.6651 286.127 68.2449 285.876 68.86C285.49 69.7994 285.33 70.7918 285.219 71.7941C285.118 72.6922 285.107 73.5942 285.122 74.4982C285.141 75.5595 285.257 76.6109 285.481 77.6485C285.627 78.3285 285.868 78.979 286.227 79.5803C286.865 80.6455 287.781 81.2606 289.014 81.3982C289.915 81.4984 290.797 81.406 291.675 81.2095C292.261 81.0778 292.841 80.9206 293.402 80.6986C293.527 80.6494 293.662 80.6278 293.787 80.5964C294.046 81.1093 294.855 83.6484 294.915 84.1436C294.564 84.3401 294.173 84.4561 293.782 84.5701C292.721 84.8786 291.64 85.0633 290.539 85.1459C288.989 85.2618 287.445 85.2441 285.926 84.8766C284.621 84.5602 283.433 84.0021 282.423 83.0902C281.496 82.2511 280.843 81.2252 280.37 80.0716C279.994 79.1519 279.751 78.1909 279.622 77.2103C279.514 76.4045 279.476 75.585 279.445 74.7714C279.403 73.6945 279.447 72.6175 279.597 71.5504C279.692 70.8822 279.831 70.216 280.012 69.5655C280.339 68.3903 280.819 67.2799 281.523 66.2757C282.547 64.8175 283.885 63.7779 285.56 63.1824C287.355 62.5437 289.196 62.473 291.054 62.7442C292.654 62.978 294.017 63.7052 295.141 64.8823C295.247 64.9944 295.341 65.1162 295.461 65.2557V65.2538Z" fill="#0C26B7"/>
<path d="M270.788 62.9484C271.278 62.8619 273.416 62.8364 275.563 62.8875C275.698 62.8914 275.831 62.913 275.985 62.9288C276.003 63.0486 276.026 63.1469 276.032 63.2452C276.039 63.367 276.034 63.4889 276.034 63.6087C276.034 70.4969 276.034 77.385 276.034 84.2732C276.034 84.4795 276.034 84.6859 276.034 84.9158C275.914 84.9433 275.818 84.9826 275.723 84.9826C274.16 84.9866 272.596 84.9846 271.033 84.9826C270.965 84.9826 270.898 84.9669 270.805 84.9571C270.782 84.8608 270.748 84.7665 270.74 84.6682C270.728 84.5306 270.736 84.3911 270.736 84.2516C270.736 77.3811 270.736 70.5106 270.736 63.6402C270.736 63.4181 270.705 63.1901 270.788 62.9464V62.9484Z" fill="#0C26B7"/>
<path d="M183.535 106.446C183.525 106.391 183.504 106.324 183.504 106.257C183.504 100.802 183.504 95.3464 183.504 89.9224C183.635 89.7632 183.782 89.7966 183.913 89.7947C185.237 89.7789 186.561 89.773 187.886 89.7495C188.591 89.7377 189.295 89.7436 190 89.7868C191.099 89.8556 192.138 90.1464 193.112 90.6476C194.413 91.3177 195.352 92.3534 195.98 93.6799C196.354 94.47 196.607 95.3012 196.734 96.162C196.884 97.1761 196.933 98.2019 196.863 99.2278C196.802 100.132 196.665 101.02 196.375 101.883C195.809 103.567 194.802 104.868 193.202 105.676C192.393 106.084 191.541 106.326 190.648 106.45C189.862 106.56 189.073 106.578 188.279 106.568C186.885 106.548 185.491 106.544 184.098 106.531C183.913 106.531 183.718 106.578 183.533 106.442L183.535 106.446ZM187.527 103.667C187.608 103.695 187.687 103.744 187.766 103.744C188.281 103.744 188.796 103.744 189.31 103.72C189.547 103.71 189.792 103.675 190.02 103.606C191.007 103.312 191.672 102.659 192.071 101.704C192.431 100.839 192.526 99.9254 192.578 99.0077C192.638 97.9818 192.568 96.9599 192.383 95.9498C192.25 95.2285 192.019 94.5368 191.593 93.9315C191.117 93.2535 190.484 92.8133 189.663 92.6521C188.996 92.5204 188.329 92.5617 187.66 92.5971C187.616 92.5991 187.573 92.6443 187.523 92.6737C187.512 92.7425 187.489 92.8093 187.489 92.8761C187.489 96.3998 187.489 99.9235 187.489 103.449C187.489 103.516 187.512 103.585 187.527 103.665V103.667Z" fill="#0C26B7"/>
<path d="M310.389 98.2553C310.399 98.9176 310.352 99.8353 310.144 100.739C309.928 101.675 309.633 102.577 309.132 103.402C308.563 104.338 307.825 105.09 306.882 105.65C306.034 106.154 305.115 106.411 304.157 106.56C302.846 106.765 301.546 106.686 300.261 106.376C298.649 105.987 297.371 105.112 296.509 103.662C296.072 102.925 295.779 102.127 295.613 101.286C295.401 100.209 295.281 99.12 295.326 98.0214C295.378 96.7145 295.545 95.4214 296.01 94.1912C296.505 92.8823 297.263 91.7621 298.408 90.9367C299.162 90.3943 299.993 90.0249 300.893 89.8264C301.685 89.6515 302.489 89.5611 303.303 89.5964C304.426 89.6436 305.525 89.7989 306.566 90.2745C307.652 90.7697 308.498 91.5243 309.13 92.5364C309.747 93.525 310.054 94.6235 310.25 95.7614C310.379 96.5023 310.385 97.2491 310.389 98.2572V98.2553ZM306.113 98.2297C306.094 97.8131 306.071 97.3807 306.052 96.9464C306.017 96.1603 305.884 95.3939 305.631 94.651C305.421 94.032 305.103 93.4778 304.598 93.0612C304.012 92.5777 303.314 92.4225 302.57 92.45C301.718 92.4814 301.057 92.8548 300.581 93.5682C300.251 94.0634 300.031 94.6117 299.914 95.1934C299.532 97.0683 299.511 98.947 299.871 100.832C299.968 101.333 300.135 101.803 300.359 102.253C300.662 102.862 301.124 103.324 301.755 103.585C302.221 103.78 302.717 103.833 303.22 103.811C304.139 103.772 304.802 103.326 305.28 102.545C305.566 102.08 305.716 101.567 305.847 101.046C306.077 100.128 306.067 99.1868 306.113 98.2337V98.2297Z" fill="#0C26B7"/>
<path d="M261.915 97.777C262.129 97.8713 262.248 97.9342 262.373 97.9774C262.911 98.1681 263.418 98.4137 263.887 98.7517C265.113 99.6322 265.591 100.843 265.454 102.325C265.412 102.773 265.333 103.217 265.151 103.637C264.762 104.539 264.107 105.172 263.251 105.61C262.219 106.139 261.111 106.391 259.97 106.432C258.456 106.485 256.941 106.469 255.428 106.479C255.05 106.481 254.67 106.473 254.292 106.467C254.121 106.465 253.951 106.457 253.758 106.452C253.729 106.34 253.693 106.245 253.683 106.147C253.67 106.027 253.679 105.903 253.679 105.781C253.679 100.672 253.679 95.5602 253.681 90.4506C253.681 90.2482 253.631 90.034 253.762 89.8256C253.857 89.8158 253.957 89.7962 254.057 89.7962C255.727 89.7804 257.396 89.7608 259.065 89.7569C260.174 89.7549 261.261 89.8984 262.304 90.3091C263.139 90.6392 263.868 91.1129 264.376 91.8754C264.747 92.4335 264.968 93.0467 264.995 93.7266C265.018 94.3221 264.978 94.9038 264.725 95.458C264.39 96.1969 263.848 96.7393 263.17 97.1481C262.906 97.3073 262.616 97.4252 262.339 97.5608C262.233 97.6139 262.125 97.6669 261.917 97.7711L261.915 97.777ZM257.722 99.3767C257.697 99.5162 257.668 99.6007 257.668 99.6833C257.666 100.967 257.664 102.252 257.67 103.535C257.67 103.631 257.72 103.728 257.747 103.826C258.177 103.907 258.589 103.852 258.998 103.869C259.401 103.887 259.788 103.796 260.157 103.657C260.608 103.486 260.939 103.166 261.105 102.692C261.36 101.971 261.327 101.252 261.034 100.558C260.833 100.082 260.48 99.7324 259.989 99.5359C259.26 99.243 258.518 99.2568 257.722 99.3747V99.3767ZM257.716 96.7806C258.221 96.8337 258.684 96.8199 259.145 96.7865C259.898 96.7315 260.465 96.2579 260.681 95.5288C260.833 95.0178 260.839 94.5009 260.754 93.9821C260.702 93.6559 260.602 93.3434 260.392 93.0742C260.022 92.6006 259.509 92.4296 258.946 92.3863C258.622 92.3608 258.292 92.3785 257.967 92.3863C257.888 92.3863 257.809 92.4276 257.726 92.4492C257.703 92.5377 257.672 92.6025 257.672 92.6674C257.668 93.9349 257.666 95.2025 257.666 96.4681C257.666 96.5507 257.691 96.6352 257.714 96.7786L257.716 96.7806Z" fill="#0C26B7"/>
<path d="M325.954 106.432C325.842 106.454 325.761 106.477 325.68 106.483C324.905 106.526 322.125 106.493 321.724 106.436C321.593 106.161 321.443 105.868 321.313 105.569C320.895 104.598 320.494 103.62 320.068 102.651C319.796 102.032 319.511 101.419 319.203 100.817C319.014 100.448 318.773 100.106 318.458 99.8249C318.048 99.4593 317.572 99.3257 317.011 99.3945C316.984 99.5104 316.945 99.6067 316.941 99.705C316.932 99.9487 316.936 100.192 316.936 100.434C316.936 102.242 316.936 104.05 316.936 105.858C316.936 106.047 316.966 106.239 316.87 106.432C316.804 106.45 316.741 106.479 316.675 106.479C315.523 106.481 314.368 106.481 313.215 106.479C313.149 106.479 313.086 106.452 312.995 106.43C312.982 106.322 312.964 106.224 312.959 106.123C312.953 106.019 312.957 105.915 312.957 105.811C312.957 100.699 312.957 95.5878 312.957 90.4762C312.957 90.2719 312.934 90.0616 313.005 89.8336C313.109 89.8199 313.207 89.7982 313.306 89.7982C314.888 89.7805 316.473 89.7589 318.056 89.753C318.744 89.7511 319.432 89.7766 320.113 89.9004C320.862 90.036 321.583 90.264 322.248 90.6433C322.989 91.0678 323.55 91.6672 323.887 92.4611C324.12 93.0075 324.236 93.5872 324.269 94.1827C324.307 94.8843 324.219 95.5721 323.974 96.2324C323.714 96.934 323.266 97.502 322.686 97.9579C322.43 98.1603 322.14 98.3175 321.865 98.4964C321.765 98.5612 321.664 98.6221 321.539 98.7007C321.612 98.7813 321.659 98.856 321.726 98.9012C322.53 99.4534 323.089 100.222 323.567 101.053C324.209 102.167 324.699 103.354 325.204 104.534C325.422 105.045 325.632 105.557 325.842 106.07C325.886 106.178 325.909 106.294 325.952 106.434L325.954 106.432ZM316.995 92.3825C316.968 92.5004 316.947 92.5496 316.945 92.6007C316.941 93.937 316.941 95.2714 316.945 96.6078C316.945 96.6883 316.986 96.767 317.015 96.8711C317.562 96.9085 318.088 96.9261 318.613 96.8063C319.363 96.6333 319.796 96.1322 319.995 95.4149C320.141 94.8902 320.128 94.3458 319.989 93.8191C319.831 93.2197 319.486 92.7638 318.888 92.5358C318.277 92.3039 317.653 92.3236 316.997 92.3825H316.995Z" fill="#0C26B7"/>
<path d="M231.937 89.8335C232.1 89.8178 232.199 89.8001 232.299 89.8001C233.901 89.7844 235.501 89.7608 237.103 89.7569C237.93 89.7549 238.755 89.7962 239.563 90.0045C240.149 90.1558 240.721 90.3465 241.242 90.6609C242.1 91.1797 242.715 91.901 243.002 92.8875C243.291 93.878 243.314 94.8744 243.056 95.8727C242.83 96.7472 242.321 97.4351 241.623 97.9834C241.421 98.1426 241.194 98.2723 240.976 98.4098C240.831 98.5022 240.685 98.5867 240.509 98.6909C240.579 98.7754 240.619 98.852 240.683 98.8972C241.506 99.4789 242.082 100.269 242.572 101.14C243.177 102.215 243.663 103.345 244.133 104.482C244.345 104.995 244.569 105.504 244.783 106.015C244.835 106.139 244.872 106.269 244.924 106.422C244.831 106.45 244.77 106.477 244.708 106.483C244.255 106.52 241.047 106.489 240.702 106.444C240.656 106.357 240.596 106.255 240.548 106.147C240.141 105.208 239.744 104.264 239.329 103.329C238.971 102.521 238.603 101.717 238.219 100.921C238.022 100.515 237.762 100.147 237.429 99.8366C237.02 99.4593 236.544 99.3315 235.977 99.4003C235.948 99.5025 235.906 99.5949 235.898 99.6931C235.885 99.8661 235.888 100.041 235.888 100.214C235.888 102.075 235.888 103.936 235.888 105.795C235.888 106 235.915 106.21 235.823 106.432C235.744 106.45 235.663 106.483 235.582 106.483C234.462 106.487 233.344 106.487 232.224 106.483C232.156 106.483 232.089 106.461 231.998 106.448C231.973 106.353 231.933 106.259 231.927 106.161C231.913 105.988 231.919 105.813 231.919 105.64C231.919 100.633 231.919 95.6231 231.919 90.6157C231.919 90.374 231.929 90.1323 231.937 89.8335ZM235.95 96.8691C236.609 96.9202 237.238 96.9398 237.853 96.7256C237.934 96.6981 238.013 96.6588 238.084 96.6136C238.608 96.2795 238.915 95.8039 239.002 95.181C239.052 94.8174 239.046 94.4558 239.002 94.0922C238.898 93.255 238.421 92.7008 237.621 92.4611C237.167 92.3255 236.704 92.351 236.241 92.353C236.145 92.353 236.048 92.3903 235.942 92.4139C235.923 92.5554 235.896 92.6733 235.896 92.7912C235.892 94.0057 235.892 95.2203 235.896 96.4348C235.896 96.5684 235.931 96.702 235.952 96.8691H235.95Z" fill="#0C26B7"/>
<path d="M277.45 89.8538C278.011 89.7987 280.839 89.8066 281.284 89.8636C281.303 89.9481 281.336 90.0444 281.342 90.1427C281.353 90.2979 281.348 90.4551 281.348 90.6123C281.348 93.7076 281.344 96.8028 281.35 99.8981C281.35 100.722 281.261 101.527 281.033 102.319C280.523 104.106 279.429 105.371 277.716 106.053C276.262 106.631 274.749 106.778 273.199 106.598C272.443 106.509 271.703 106.366 270.999 106.057C269.748 105.507 268.825 104.623 268.245 103.371C267.792 102.392 267.583 101.36 267.582 100.287C267.576 96.9836 267.578 93.6801 267.582 90.3745C267.582 90.2055 267.545 90.0267 267.636 89.8872C267.666 89.8616 267.678 89.8459 267.693 89.84C267.709 89.8321 267.726 89.8302 267.743 89.8302C268.896 89.8262 270.051 89.8223 271.204 89.8184C271.271 89.8184 271.339 89.8302 271.435 89.84C271.456 89.9363 271.491 90.0306 271.497 90.1269C271.508 90.2822 271.501 90.4394 271.501 90.5966C271.501 93.5523 271.501 96.508 271.501 99.4657C271.501 100.199 271.566 100.92 271.784 101.627C272.177 102.899 273.099 103.469 274.259 103.569C274.548 103.595 274.847 103.583 275.133 103.532C276.106 103.359 276.719 102.746 277.045 101.828C277.218 101.337 277.324 100.824 277.334 100.297C277.346 99.6367 277.371 98.9764 277.371 98.3161C277.375 95.7259 277.371 93.1337 277.374 90.5436C277.374 90.3215 277.342 90.0935 277.444 89.8538H277.45Z" fill="#0C26B7"/>
<path d="M337.634 91.1366C337.621 91.2133 337.626 91.288 337.595 91.345C337.173 92.1566 336.747 92.9663 336.325 93.772C336.088 93.7622 335.951 93.6128 335.787 93.5303C335.618 93.4458 335.452 93.3554 335.284 93.267C334.658 92.9348 334.006 92.6695 333.308 92.532C332.807 92.4337 332.317 92.4534 331.835 92.6401C331.203 92.8837 330.925 93.434 331.08 94.0983C331.184 94.5424 331.431 94.8824 331.762 95.1752C332.128 95.4995 332.551 95.7353 332.984 95.9436C333.574 96.2266 334.176 96.4841 334.766 96.7651C335.375 97.054 335.949 97.3979 336.464 97.842C337.262 98.5318 337.698 99.4142 337.809 100.456C337.933 101.602 337.796 102.708 337.26 103.748C336.863 104.52 336.308 105.143 335.598 105.634C334.875 106.137 334.066 106.407 333.21 106.562C332.298 106.727 331.396 106.668 330.49 106.524C329.131 106.308 327.874 105.809 326.667 105.157C326.534 105.084 326.416 104.984 326.301 104.901C326.395 104.471 327.297 102.456 327.567 102.069C327.843 102.226 328.126 102.384 328.402 102.549C329.071 102.948 329.775 103.264 330.505 103.531C331.057 103.734 331.629 103.744 332.186 103.649C332.799 103.545 333.252 103.189 333.439 102.551C333.528 102.246 333.565 101.938 333.532 101.623C333.478 101.093 333.223 100.678 332.797 100.359C332.337 100.014 331.814 99.7935 331.288 99.5734C330.461 99.2295 329.653 98.8463 328.905 98.3432C328.473 98.0523 328.086 97.7104 327.741 97.3212C327.07 96.5627 326.779 95.6469 326.719 94.6525C326.675 93.8782 326.794 93.1294 327.126 92.4219C327.562 91.4924 328.252 90.8124 329.135 90.3211C330.203 89.7276 331.355 89.5134 332.566 89.5586C334.085 89.6156 335.521 89.9909 336.886 90.6571C337.148 90.7849 337.397 90.9342 337.63 91.1327L337.634 91.1366Z" fill="#0C26B7"/>
<path d="M205.559 104.887C205.726 104.343 206.598 102.443 206.842 102.091C206.956 102.146 207.08 102.195 207.193 102.264C208.018 102.771 208.876 103.205 209.788 103.533C210.343 103.732 210.912 103.742 211.471 103.651C212.088 103.551 212.537 103.178 212.722 102.549C212.78 102.35 212.822 102.14 212.828 101.936C212.851 101.305 212.62 100.788 212.119 100.395C211.648 100.027 211.111 99.8013 210.569 99.5773C209.724 99.2255 208.899 98.8364 208.142 98.3176C207.725 98.0346 207.346 97.7064 207.02 97.3212C206.519 96.7277 206.185 96.0517 206.077 95.2695C205.958 94.4146 205.963 93.5676 206.27 92.7501C206.679 91.6633 207.423 90.8733 208.425 90.3191C209.497 89.7275 210.648 89.5133 211.86 89.5624C213.397 89.6234 214.85 90.0066 216.229 90.6885C216.475 90.8104 216.707 90.9538 216.911 91.1307C216.788 91.5611 215.88 93.318 215.539 93.7877C215.197 93.6049 214.852 93.4143 214.503 93.2335C213.888 92.9171 213.252 92.6557 212.57 92.526C212.069 92.4317 211.581 92.4592 211.097 92.6439C210.486 92.8758 210.253 93.43 210.332 93.9646C210.405 94.4559 210.661 94.8332 211.02 95.1535C211.398 95.4916 211.833 95.7333 212.286 95.9495C212.878 96.2305 213.478 96.4919 214.068 96.7749C214.818 97.1345 215.519 97.5649 216.094 98.1859C216.593 98.7244 216.892 99.3591 217.031 100.071C217.289 101.397 217.112 102.667 216.479 103.861C215.968 104.828 215.203 105.546 214.233 106.013C213.007 106.605 211.706 106.774 210.357 106.605C209.516 106.499 208.695 106.326 207.895 106.041C207.145 105.776 206.436 105.428 205.746 105.033C205.688 104.999 205.638 104.95 205.561 104.889L205.559 104.887Z" fill="#0C26B7"/>
<path d="M221.803 92.7951C221.624 92.7833 221.456 92.7656 221.288 92.7656C220.342 92.7637 219.395 92.7656 218.449 92.7617C218.281 92.7617 218.102 92.8069 217.955 92.6772C217.88 92.2075 217.886 90.2836 217.969 89.8689C218.119 89.7746 218.296 89.8178 218.462 89.8158C219.734 89.8119 221.009 89.8158 222.281 89.8158C224.708 89.8158 227.133 89.8158 229.56 89.8178C229.745 89.8178 229.938 89.7746 230.113 89.8689C230.138 90.2816 229.863 91.9874 229.647 92.7185C229.533 92.7322 229.402 92.7617 229.271 92.7617C228.342 92.7656 227.413 92.7617 226.483 92.7656C226.296 92.7656 226.104 92.7303 225.903 92.8285C225.886 92.8953 225.849 92.9759 225.845 93.0585C225.834 93.2491 225.838 93.4397 225.838 93.6323C225.838 97.663 225.838 101.694 225.838 105.726C225.838 105.95 225.828 106.172 225.822 106.414C225.716 106.444 225.637 106.483 225.556 106.483C224.403 106.487 223.251 106.483 222.098 106.483C222.048 106.483 221.998 106.461 221.92 106.442C221.899 106.353 221.863 106.259 221.857 106.161C221.845 106.005 221.853 105.848 221.853 105.691C221.853 101.625 221.853 97.5588 221.853 93.4928C221.853 93.2707 221.878 93.0467 221.803 92.7971V92.7951Z" fill="#0C26B7"/>
<path d="M290.588 106.431C290.142 106.504 287.291 106.512 286.767 106.445C286.744 106.361 286.699 106.266 286.692 106.17C286.678 105.979 286.684 105.789 286.684 105.596C286.684 101.583 286.684 97.5682 286.682 93.5552C286.682 93.3154 286.722 93.0697 286.626 92.8457C286.479 92.7278 286.319 92.7651 286.169 92.7651C285.205 92.7612 284.241 92.7651 283.279 92.7612C283.112 92.7612 282.944 92.7455 282.753 92.7357C282.659 92.3996 282.711 92.0891 282.701 91.7825C282.693 91.47 282.701 91.1576 282.701 90.8451C282.701 90.5326 282.701 90.2221 282.701 89.888C282.823 89.8586 282.915 89.8271 283.011 89.8173C283.131 89.8055 283.252 89.8134 283.372 89.8134C287.019 89.8134 290.667 89.8134 294.316 89.8134C294.518 89.8134 294.726 89.7839 294.937 89.8586C294.94 89.9588 294.962 90.0453 294.946 90.1278C294.777 90.9768 294.696 91.8415 294.497 92.6551C294.337 92.7985 294.175 92.7612 294.025 92.7612C293.096 92.7651 292.166 92.7612 291.237 92.7651C291.068 92.7651 290.892 92.7317 290.726 92.828C290.613 93.0521 290.657 93.2997 290.657 93.5394C290.653 96.9098 290.655 100.28 290.655 103.653C290.655 104.382 290.655 105.113 290.655 105.842C290.655 106.03 290.674 106.223 290.589 106.431H290.588Z" fill="#0C26B7"/>
<path d="M250.543 89.8535C250.564 89.9479 250.593 90.0147 250.593 90.0795C250.593 95.4839 250.589 100.888 250.581 106.293C250.581 106.34 250.543 106.387 250.508 106.468C249.249 106.511 247.979 106.479 246.693 106.487C246.664 106.356 246.629 106.259 246.624 106.161C246.612 106.006 246.62 105.849 246.62 105.691C246.62 100.651 246.62 95.6117 246.62 90.5708V89.881C246.73 89.8535 246.809 89.8182 246.888 89.8182C248.04 89.8142 249.193 89.8182 250.346 89.8182C250.396 89.8182 250.446 89.8358 250.543 89.8535Z" fill="#0C26B7"/>
<path d="M199.429 106.439C199.337 105.869 199.296 93.7321 199.371 90.291C199.375 90.1554 199.394 90.0198 199.41 89.8685C199.853 89.7682 200.281 89.8311 200.705 89.8193C201.118 89.8075 201.53 89.8174 201.945 89.8174H203.25C203.283 89.9392 203.323 90.0335 203.333 90.1318C203.346 90.2694 203.34 90.4089 203.34 90.5484C203.34 95.605 203.34 100.664 203.34 105.72C203.34 105.944 203.329 106.168 203.323 106.404C203.217 106.437 203.14 106.483 203.061 106.483C201.925 106.488 200.79 106.486 199.655 106.485C199.589 106.485 199.524 106.459 199.431 106.439H199.429Z" fill="#0C26B7"/>
<defs>
<filter id="filter0_d_196_6820" x="0" y="0" width="428.191" height="207.97" filterUnits="userSpaceOnUse" color-interpolation-filters="sRGB">
<feFlood flood-opacity="0" result="BackgroundImageFix"/>
<feColorMatrix in="SourceAlpha" type="matrix" values="0 0 0 0 0 0 0 0 0 0 0 0 0 0 0 0 0 0 127 0" result="hardAlpha"/>
<feOffset dy="20"/>
<feGaussianBlur stdDeviation="25"/>
<feColorMatrix type="matrix" values="0 0 0 0 0 0 0 0 0 0 0 0 0 0 0 0 0 0 0.1 0"/>
<feBlend mode="normal" in2="BackgroundImageFix" result="effect1_dropShadow_196_6820"/>
<feBlend mode="normal" in="SourceGraphic" in2="effect1_dropShadow_196_6820" result="shape"/>
</filter>
<linearGradient id="paint0_linear_196_6820" x1="286.037" y1="161.373" x2="246.525" y2="20.9371" gradientUnits="userSpaceOnUse">
<stop stop-color="#E5FFFF"/>
<stop offset="1" stop-color="#FCFCFC"/>
</linearGradient>
</defs>
</svg>
