<svg width="16" height="12" viewBox="0 0 16 12" fill="none" xmlns="http://www.w3.org/2000/svg">
<path d="M0.948454 0.055851C0.482654 0.20565 0.124111 0.609194 0.032177 1.09834C-0.0107257 1.31845 -0.0107257 9.92736 0.032177 10.1475C0.127176 10.6397 0.485719 11.0432 0.957648 11.193C1.13232 11.245 1.40813 11.248 7.84658 11.248C14.285 11.248 14.5608 11.245 14.7355 11.193C15.2074 11.0432 15.566 10.6397 15.661 10.1475C15.7039 9.92736 15.7039 1.31845 15.661 1.09834C15.566 0.606136 15.2074 0.202594 14.7355 0.0527935C14.5608 0.000822067 14.2881 -0.00223446 7.83739 0.000822067C1.46941 0.000822067 1.11087 0.00387955 0.948454 0.055851ZM14.6681 0.459394C14.8918 0.541936 15.0849 0.722308 15.1921 0.942422L15.2779 1.11362V5.62291V10.1322L15.1921 10.3034C15.0849 10.5235 14.8918 10.7039 14.6681 10.7864L14.4934 10.8506H7.84658H1.19974L1.02507 10.7864C0.80136 10.7039 0.608298 10.5235 0.501041 10.3034L0.415236 10.1322V5.62291V1.11362L0.497977 0.945479C0.608298 0.722308 0.776844 0.563336 1.00055 0.471622L1.18135 0.395193H7.83739H14.4934L14.6681 0.459394Z" fill="#D0D3DE"/>
<path d="M3.77904 2.98755C2.97002 3.29021 2.63599 4.19512 3.05889 4.95024C3.31937 5.41492 3.89855 5.68701 4.44097 5.60447C5.35724 5.46384 5.85982 4.46109 5.43385 3.62955C5.13967 3.05175 4.38887 2.76132 3.77904 2.98755ZM4.63403 3.40944C4.85467 3.51032 5.04467 3.70904 5.12434 3.92304C5.21628 4.16455 5.19483 4.49167 5.07531 4.71484C4.82709 5.16729 4.27855 5.34461 3.81581 5.11532C3.07728 4.75152 3.11711 3.70904 3.88323 3.38498C4.11613 3.28715 4.38887 3.29632 4.63403 3.40944Z" fill="#D0D3DE"/>
<path d="M8.14553 3.29343C8.04134 3.40654 8.10263 3.58386 8.25585 3.62054C8.29262 3.62971 9.55519 3.63277 11.0598 3.62971C13.729 3.62054 13.7995 3.62054 13.8424 3.56246C13.9006 3.47991 13.8975 3.34846 13.8301 3.29037C13.778 3.24146 13.5359 3.2384 10.9832 3.2384C8.3202 3.2384 8.19149 3.24146 8.14553 3.29343Z" fill="#D0D3DE"/>
<path d="M8.24561 4.33168C8.11384 4.3806 8.04949 4.53345 8.11691 4.63434C8.18433 4.73522 8.25787 4.73828 10.9883 4.73828C13.7188 4.73828 13.7923 4.73522 13.8597 4.63434C13.9057 4.57014 13.8842 4.44174 13.8199 4.38365C13.7586 4.32862 13.6636 4.32557 11.022 4.31945C9.52044 4.3164 8.27013 4.32251 8.24561 4.33168Z" fill="#D0D3DE"/>
<path d="M8.24691 5.42934C8.07837 5.49048 8.04159 5.66779 8.17337 5.77174C8.25611 5.83594 8.26837 5.83594 10.9774 5.83594C12.9907 5.83594 13.7201 5.82677 13.7783 5.79925C13.9315 5.72894 13.9193 5.49659 13.7599 5.44157C13.6588 5.40794 8.34191 5.39571 8.24691 5.42934Z" fill="#D0D3DE"/>
<path d="M3.1944 5.86747C2.56618 6.03256 2.08199 6.48807 1.87667 7.10256C1.82151 7.27376 1.80006 7.41439 1.7878 7.75067C1.77861 7.98913 1.77861 8.21841 1.79087 8.26121C1.83683 8.44464 1.68668 8.43547 4.23019 8.43547C6.7737 8.43547 6.62354 8.44464 6.66951 8.26121C6.68177 8.21841 6.68177 7.98913 6.67257 7.75067C6.66031 7.3991 6.64193 7.27681 6.58064 7.09644C6.36306 6.46667 5.89113 6.0295 5.25372 5.86747C5.04534 5.81244 4.91663 5.80633 4.21793 5.80939C3.53149 5.80939 3.38746 5.81856 3.1944 5.86747ZM5.25372 6.28019C5.49275 6.36579 5.66743 6.4789 5.8421 6.65316C6.13322 6.94053 6.25274 7.25541 6.25274 7.72316V8.03804H4.23019H2.20764V7.72316C2.20764 7.25541 2.32715 6.94053 2.61828 6.65316C2.85424 6.41776 3.16069 6.26184 3.46407 6.22516C3.52229 6.21599 3.91761 6.21293 4.33744 6.21904C4.98098 6.22516 5.12808 6.23433 5.25372 6.28019Z" fill="#D0D3DE"/>
<path d="M8.17296 6.57141C8.07489 6.64784 8.0657 6.77929 8.15763 6.86184C8.21892 6.91686 8.31086 6.91992 10.9892 6.91992C13.6676 6.91992 13.7595 6.91686 13.8208 6.86184C13.8851 6.80375 13.9066 6.67535 13.8606 6.61115C13.7932 6.51026 13.7197 6.50721 10.98 6.50721C8.26795 6.50721 8.2557 6.50721 8.17296 6.57141Z" fill="#D0D3DE"/>
<path d="M8.20019 7.64902C8.16649 7.66737 8.12971 7.69794 8.11745 7.71628C8.07455 7.77742 8.09294 7.90888 8.1481 7.95779C8.20019 8.00671 8.44229 8.00977 10.995 8.00977C13.658 8.00977 13.7867 8.00671 13.8327 7.95474C13.8879 7.89665 13.9001 7.77437 13.8603 7.71628C13.7929 7.61539 13.7193 7.61234 10.9827 7.61234C9.01228 7.61539 8.2431 7.62457 8.20019 7.64902Z" fill="#D0D3DE"/>
</svg>
