<svg width="25" height="15" viewBox="0 0 25 15" fill="none" xmlns="http://www.w3.org/2000/svg">
<path d="M0.345646 10.2175H14.6428C14.8418 10.2175 14.9989 10.0824 14.9989 9.91119V0.910027C14.9989 0.405458 14.5276 0 13.941 0H1.04741C0.460861 0 0 0.405458 0 0.910027V9.9202C0 10.0824 0.157112 10.2265 0.35612 10.2265L0.345646 10.2175Z" fill="#094C89"/>
<path d="M3.74973 10.2266H0.378311C0.166902 10.2266 0 10.4271 0 10.6811V12.0446C0 12.2986 0.166902 12.4991 0.378311 12.4991H2.69269C2.80396 11.5901 3.19339 10.8014 3.74973 10.2399V10.2266Z" fill="#094C89"/>
<path d="M24.6717 11.0537H23.8828V7.15137C23.8828 6.68925 23.7289 6.24425 23.4403 5.86771L21.4778 3.28326C20.9968 2.64998 20.1984 2.27344 19.3422 2.27344H16.2927C15.9367 2.27344 15.6481 2.53017 15.6481 2.84681V11.0537H7.5C7.981 11.4131 8.3177 11.9181 8.4139 12.5H16.8121C17.0045 11.3618 18.1012 10.4803 19.4384 10.4803C20.7756 10.4803 21.8723 11.3618 22.055 12.5H24.6717C24.8448 12.5 24.9988 12.3716 24.9988 12.209V11.3361C24.9988 11.1735 24.8545 11.0452 24.6717 11.0452V11.0537ZM21.4586 6.38973H17.4374C17.2547 6.38973 17.12 6.26136 17.12 6.10732V4.12192C17.12 3.96788 17.2643 3.83095 17.4374 3.83095H19.8905C19.9964 3.83095 20.0926 3.87374 20.1503 3.95076L21.7183 5.93617C21.8723 6.12444 21.7183 6.38973 21.4586 6.38973Z" fill="#094C89"/>
<path d="M5.62936 10.2266C4.59526 10.2266 3.75 11.2487 3.75 12.4991C3.75 13.7496 4.58627 14.7717 5.62936 14.7717C6.67245 14.7717 7.49973 13.7605 7.49973 12.4991C7.49973 11.2378 6.66346 10.2266 5.62936 10.2266Z" fill="#094C89"/>
<path d="M19.371 10.2266C18.3393 10.2266 17.4961 11.2487 17.4961 12.4991C17.4961 13.7496 18.3393 14.7717 19.371 14.7717C20.4026 14.7717 21.2458 13.7605 21.2458 12.4991C21.2458 11.2378 20.4026 10.2266 19.371 10.2266Z" fill="#094C89"/>
</svg>
