<svg width="192" height="66" viewBox="0 0 192 66" fill="none" xmlns="http://www.w3.org/2000/svg">
<rect x="0.294678" y="0.868195" width="190.833" height="65.0001" rx="7" fill="url(#paint0_linear_29_3099)"/>
<path d="M41.5375 20.5408C41.6585 20.5294 41.7303 20.5168 41.802 20.5168C43.1056 20.5168 44.4092 20.5168 45.7129 20.5237C47.2149 20.5317 48.7158 20.5488 50.2178 20.5557C52.5504 20.5671 54.8841 20.5751 57.2167 20.5819C57.4813 20.5819 57.7447 20.5648 58.0092 20.5568C58.9082 20.5282 59.8016 20.5877 60.6938 20.6985C61.2195 20.7636 61.7363 20.8745 62.2552 20.9716C62.5512 21.0265 62.8426 21.1156 63.1318 21.2024C63.9007 21.4344 64.6551 21.7064 65.3859 22.048C66.1325 22.3977 66.8442 22.8057 67.5224 23.2765C68.3115 23.8238 69.0255 24.4592 69.6656 25.1756C70.4211 26.0224 71.0589 26.9537 71.5487 27.9821C71.7449 28.3935 71.9354 28.8094 72.1013 29.2345C72.3087 29.7659 72.4791 30.311 72.6192 30.8663C72.794 31.5599 72.9353 32.2604 73.0249 32.97C73.1236 33.7459 73.2133 34.5241 73.1595 35.308C73.1146 35.9457 73.0451 36.581 72.9151 37.2072C72.8142 37.6917 72.7066 38.1762 72.5777 38.6539C72.4264 39.2149 72.2313 39.7612 72.0116 40.3005C71.7426 40.9633 71.431 41.6043 71.0667 42.218C70.1801 43.7104 69.0446 44.9708 67.6244 45.9603C66.7983 46.5363 65.9128 46.9968 64.9712 47.3533C64.2348 47.6321 63.4793 47.8435 62.7126 47.9989C62.1499 48.1132 61.5838 48.2275 61.0054 48.2583C60.5436 48.2835 60.084 48.3406 59.6222 48.3737C59.2927 48.3966 58.962 48.4149 58.6325 48.4149C54.2878 48.4217 49.942 48.4252 45.5974 48.4297C41.7157 48.4343 37.8329 48.4389 33.9511 48.4435C33.6586 48.4435 33.366 48.4457 33.0723 48.4457C33.0073 48.4457 32.9434 48.4343 32.8594 48.4263C32.8739 48.3692 32.8773 48.3235 32.8964 48.2846C33.2898 47.503 33.6844 46.7214 34.0778 45.9398C34.3984 45.3033 34.7167 44.6645 35.0373 44.028C35.1225 43.8589 35.2144 43.6932 35.3097 43.5115C35.433 43.507 35.554 43.499 35.6751 43.499C36.9025 43.499 38.131 43.5012 39.3584 43.5035C41.3043 43.507 43.2502 43.5092 45.1961 43.5127C49.0969 43.5184 52.9988 43.5252 56.8995 43.5287C57.4566 43.5287 58.0148 43.5401 58.5708 43.5092C59.3241 43.467 60.0762 43.3984 60.8227 43.2647C61.3249 43.1744 61.8214 43.0579 62.3158 42.9333C62.8975 42.787 63.4333 42.5254 63.9411 42.2066C64.5856 41.8009 65.1606 41.3107 65.6561 40.7279C66.2132 40.072 66.666 39.3532 66.9911 38.5499C67.2422 37.9294 67.4439 37.2929 67.5583 36.6359C67.6872 35.8942 67.7656 35.1458 67.7443 34.3881C67.7275 33.7871 67.6737 33.1894 67.6154 32.5918C67.5695 32.1256 67.4944 31.6662 67.3767 31.2126C67.3599 31.1486 67.3487 31.0811 67.3251 31.0194C67.1872 30.6446 67.0617 30.2641 66.9025 29.8984C66.5965 29.1968 66.1964 28.5535 65.6852 27.981C65.0956 27.3205 64.3951 26.8177 63.6003 26.436C62.8336 26.0669 62.0232 25.8624 61.1949 25.7059C60.5974 25.5927 59.9977 25.5539 59.3924 25.5516C56.2853 25.5413 53.177 25.531 50.0698 25.5219C49.9488 25.5219 49.8255 25.5024 49.6887 25.5573C49.7022 25.6213 49.7033 25.6887 49.7291 25.7447C49.8075 25.9173 49.8927 26.0875 49.9802 26.2566C50.4666 27.1937 50.9565 28.1284 51.4429 29.0654C51.6918 29.5465 51.9328 30.0321 52.1805 30.5144C52.4069 30.9543 52.639 31.3897 52.8665 31.8285C53.1467 32.369 53.4236 32.9106 53.7038 33.4511C53.9706 33.9665 54.2419 34.4796 54.5075 34.9949C54.8214 35.6028 55.1319 36.2142 55.4457 36.8221C55.7898 37.4895 56.1384 38.1557 56.4837 38.8241C56.737 39.3144 56.987 39.8057 57.2392 40.2948C57.4051 40.6159 57.5743 40.9347 57.7391 41.2558C57.7851 41.3461 57.8478 41.4318 57.8646 41.5495C57.8209 41.5644 57.7873 41.5826 57.7525 41.5849C57.6864 41.5906 57.6203 41.5895 57.5541 41.5895C55.9479 41.5895 54.3427 41.5895 52.7365 41.5895C52.6434 41.5895 52.5504 41.5826 52.4596 41.5792C52.2735 41.321 52.1547 41.0398 52.0135 40.7713C51.6514 40.0811 51.2927 39.3875 50.9352 38.6939C50.5339 37.9168 50.1371 37.1375 49.7347 36.3605C49.1877 35.3046 48.6362 34.2522 48.0881 33.1963C47.5444 32.1496 47.0053 31.1017 46.4616 30.0561C46.0368 29.2368 45.6064 28.4209 45.1815 27.6027C44.871 27.004 44.5673 26.4006 44.2568 25.8018C43.7524 24.8305 43.2446 23.8627 42.7391 22.8914C42.5026 22.4354 42.2705 21.9772 42.0363 21.5213C41.932 21.319 41.8222 21.1179 41.7179 20.9156C41.6619 20.8071 41.6114 20.6939 41.5363 20.5374L41.5375 20.5408Z" fill="#1027C3"/>
<path d="M25.3538 48.4536C25.3538 48.4261 25.3437 48.393 25.3549 48.3713C30.0661 39.1405 34.7773 29.9097 39.4918 20.6812C39.4985 20.6686 39.5243 20.6675 39.5613 20.6526C43.0619 27.582 46.5603 34.5148 50.0441 41.4282C50.0048 41.5196 49.9533 41.515 49.9084 41.5173C49.8333 41.5219 49.7571 41.5207 49.682 41.5207C48.1139 41.5207 46.5457 41.5207 44.9787 41.5207C44.8756 41.5207 44.7724 41.5207 44.6592 41.5207C44.6065 41.443 44.5516 41.3779 44.5135 41.3036C43.9217 40.1529 43.3321 39.0022 42.7425 37.8504C42.3569 37.0973 41.9769 36.3409 41.5913 35.589C41.2438 34.9125 40.8907 34.2383 40.5432 33.5618C40.2305 32.9527 39.9222 32.3425 39.6118 31.7323C39.5949 31.6992 39.5725 31.6695 39.5591 31.6478C39.4694 31.6249 39.4447 31.6809 39.4201 31.7312C39.0289 32.5036 38.6399 33.2761 38.2487 34.0486C37.9909 34.5571 37.7264 35.0622 37.4675 35.5707C37.2186 36.062 36.9754 36.5568 36.7265 37.0482C36.3342 37.8195 35.9385 38.5897 35.5462 39.361C35.1326 40.1746 34.7212 40.9894 34.3076 41.803C33.811 42.7766 33.3111 43.749 32.8146 44.7226C32.5814 45.1797 32.355 45.6402 32.1218 46.0984C31.8977 46.5395 31.6723 46.9806 31.447 47.4217C31.3058 47.6982 31.1545 48.2376 30.8978 48.4284C30.6759 48.5998 29.8475 48.4718 29.5706 48.473C28.9732 48.4776 28.3769 48.4787 27.7794 48.4776C27.6303 48.4776 25.3583 48.481 25.3571 48.4513L25.3538 48.4536Z" fill="#EF1C23"/>
<path d="M95.6934 28.0158C95.6519 28.0798 95.6262 28.1015 95.6228 28.1266C95.615 28.1963 95.6138 28.2672 95.6127 28.338C95.6082 29.3276 95.6015 30.3172 95.5993 31.3056C95.597 32.3558 95.5443 33.4036 95.4973 34.4526C95.4883 34.6538 95.4782 34.8549 95.4681 35.0686C95.402 35.0823 95.3471 35.1028 95.291 35.1028C94.4716 35.1051 93.6511 35.104 92.8317 35.1028C92.7925 35.1028 92.7544 35.0926 92.723 35.0891C92.6457 35.016 92.6737 34.9303 92.6782 34.8537C92.7241 33.9967 92.7734 33.1408 92.8228 32.2838C92.853 31.7604 92.8855 31.2359 92.9169 30.7126C92.9864 29.5344 93.057 28.3552 93.1254 27.177C93.1792 26.24 93.2285 25.303 93.2823 24.3648C93.3193 23.7306 93.3619 23.0953 93.4045 22.4611C93.4079 22.4028 93.4303 22.3457 93.4437 22.2862C93.4908 22.2748 93.5289 22.2577 93.5671 22.2577C94.3472 22.2554 95.1262 22.2542 95.9064 22.2554C95.9546 22.2554 96.0039 22.2714 96.0667 22.2817C96.1709 22.5411 96.2763 22.8027 96.3794 23.0633C96.5756 23.5592 96.7717 24.0563 96.9679 24.5534C97.2492 25.2653 97.5306 25.9772 97.8131 26.6891C97.998 27.1576 98.183 27.6261 98.3702 28.0935C98.73 28.9905 99.0931 29.8875 99.4003 30.8051C99.4989 31.1011 99.5863 31.4016 99.6816 31.6987C99.6996 31.7547 99.7276 31.8073 99.7623 31.8895C99.8083 31.8336 99.8498 31.8038 99.8632 31.765C99.9562 31.4885 100.036 31.2062 100.136 30.932C100.344 30.3537 100.557 29.7778 100.777 29.2042C101.036 28.5266 101.302 27.8524 101.569 27.1782C101.765 26.6811 101.968 26.1874 102.164 25.6915C102.45 24.9705 102.733 24.2483 103.019 23.5284C103.182 23.117 103.349 22.7079 103.52 22.2862C103.591 22.2748 103.657 22.2565 103.725 22.2565C104.444 22.2542 105.164 22.2542 105.885 22.2565C105.953 22.2565 106.02 22.2737 106.078 22.2817C106.152 22.3834 106.14 22.4873 106.146 22.5868C106.191 23.4129 106.232 24.2391 106.279 25.0653C106.359 26.4663 106.442 27.8661 106.524 29.267C106.582 30.2749 106.638 31.2816 106.7 32.2895C106.749 33.0951 106.805 33.9007 106.857 34.7063C106.864 34.8252 106.881 34.9463 106.846 35.0788C106.797 35.088 106.75 35.104 106.703 35.104C105.853 35.1051 105.004 35.104 104.154 35.104C104.115 35.104 104.077 35.0937 104.021 35.0868C104.006 35.0286 103.987 34.9737 103.979 34.9177C103.969 34.8377 103.967 34.7566 103.963 34.6766C103.887 32.8414 103.826 31.0051 103.844 29.1676C103.847 28.8648 103.854 28.562 103.857 28.2592C103.857 28.1929 103.87 28.1175 103.786 28.0592C103.627 28.3369 103.56 28.6443 103.442 28.9288C103.32 29.227 103.212 29.531 103.095 29.8315C102.98 30.1218 102.862 30.4109 102.744 30.7C102.622 30.9982 102.501 31.2965 102.377 31.5947C102.257 31.8827 102.138 32.1707 102.016 32.4586C101.895 32.7466 101.773 33.0334 101.653 33.3214C101.529 33.6185 101.408 33.9167 101.282 34.2138C101.161 34.5006 101.037 34.7875 100.911 35.08C100.65 35.136 100.39 35.0994 100.133 35.1063C99.8733 35.1131 99.6132 35.1108 99.3532 35.1063C99.0943 35.1017 98.8342 35.1268 98.5607 35.0868C98.2289 34.3109 97.8994 33.5316 97.5631 32.7557C97.2268 31.9798 96.8995 31.1994 96.598 30.4086C96.2987 29.6224 96.0062 28.8339 95.6934 28.0169V28.0158Z" fill="#0C26B7"/>
<path d="M166.024 30.1929C166.072 29.7472 165.992 29.3793 165.985 29.0079C165.978 28.6342 165.941 28.2617 165.928 27.8892C165.914 27.5155 165.912 27.143 165.906 26.7693C165.901 26.406 165.896 26.0426 165.892 25.6792C165.886 25.3055 165.879 24.9319 165.875 24.5593C165.871 24.1857 165.868 23.812 165.867 23.4383C165.866 23.0658 165.867 22.6933 165.867 22.3333C165.958 22.2316 166.064 22.2556 166.161 22.2556C166.641 22.2534 167.12 22.2545 167.6 22.2545C167.92 22.2545 168.24 22.2545 168.56 22.2545C168.658 22.2545 168.758 22.2614 168.868 22.2659C168.884 22.3345 168.903 22.3905 168.907 22.4476C168.914 22.5276 168.909 22.6087 168.909 22.6899C168.909 26.6882 168.909 30.6854 168.909 34.6837C168.909 34.8129 168.923 34.9431 168.897 35.0414C168.867 35.0745 168.861 35.0848 168.853 35.0894C168.845 35.094 168.834 35.0963 168.824 35.0963C168.064 35.0997 167.305 35.1031 166.545 35.1065C166.466 35.1065 166.386 35.1065 166.291 35.1065C165.864 34.4575 165.438 33.8119 165.013 33.1651C164.583 32.5092 164.154 31.8521 163.725 31.1962C163.301 30.5483 162.87 29.9049 162.453 29.2536C162.037 28.6057 161.657 27.9338 161.248 27.2881C161.149 27.3247 161.166 27.383 161.168 27.4275C161.199 27.9109 161.237 28.3943 161.262 28.8776C161.287 29.3713 161.308 29.8661 161.315 30.3597C161.336 31.8738 161.349 33.3879 161.364 34.902C161.364 34.9511 161.354 35.0014 161.348 35.0654C161.29 35.0791 161.236 35.1031 161.18 35.1031C160.279 35.1054 159.38 35.1054 158.48 35.1031C158.433 35.1031 158.385 35.0905 158.339 35.0837C158.326 35.0403 158.31 35.0128 158.31 34.9854C158.308 30.7962 158.308 26.6059 158.308 22.4168C158.308 22.3779 158.321 22.3402 158.33 22.2899C158.383 22.2785 158.43 22.2625 158.477 22.2591C158.809 22.2339 160.62 22.2545 160.833 22.2865C160.954 22.4648 161.084 22.6544 161.212 22.8464C161.649 23.4978 162.085 24.1503 162.52 24.8027C163.077 25.6392 163.63 26.4802 164.191 27.3144C164.782 28.1909 165.327 29.0948 165.875 29.9975C165.905 30.0466 165.944 30.0901 166.024 30.194V30.1929Z" fill="#0C26B7"/>
<path d="M125.607 29.1536C125.632 29.1753 125.657 29.2073 125.69 29.2279C126.199 29.5535 126.58 30.0038 126.909 30.5031C127.287 31.0756 127.59 31.6904 127.865 32.3189C128.234 33.1679 128.595 34.0215 128.959 34.874C128.984 34.9357 128.994 35.0031 129.011 35.0705C128.757 35.1151 126.031 35.1174 125.738 35.0728C125.617 34.802 125.487 34.5198 125.364 34.2341C124.955 33.2925 124.554 32.3463 124.137 31.4082C123.966 31.0219 123.77 30.6448 123.51 30.3089C123.411 30.182 123.307 30.0586 123.188 29.9523C122.875 29.6712 122.501 29.6084 122.101 29.6621C122.02 29.7535 122.047 29.8598 122.047 29.9569C122.045 30.5728 122.046 31.1888 122.046 31.8047C122.046 32.784 122.046 33.7633 122.046 34.7426C122.046 34.8511 122.038 34.9597 122.034 35.0762C121.979 35.0877 121.941 35.1025 121.904 35.1025C120.944 35.1037 119.986 35.1025 119.013 35.1025C118.995 35.0351 118.973 34.9814 118.968 34.9254C118.96 34.8454 118.966 34.7643 118.966 34.6832C118.966 30.6848 118.966 26.6865 118.966 22.6882C118.966 22.559 118.949 22.4265 118.987 22.3133C119.073 22.2276 119.166 22.2459 119.254 22.2448C119.744 22.2368 120.233 22.2288 120.723 22.2265C121.543 22.2219 122.363 22.2265 123.182 22.2185C123.837 22.2128 124.479 22.3031 125.108 22.4756C125.62 22.6162 126.102 22.8333 126.528 23.1692C127.125 23.6389 127.477 24.2559 127.62 24.993C127.721 25.5106 127.727 26.0363 127.647 26.5608C127.527 27.3435 127.158 27.9823 126.561 28.4885C126.323 28.6908 126.064 28.8611 125.784 28.9993C125.717 29.0325 125.625 29.045 125.607 29.157V29.1536ZM122.078 24.2628C122.031 24.5313 122.014 26.2625 122.046 27.4738C122.048 27.5424 122.062 27.6098 122.068 27.6658C122.101 27.6864 122.118 27.7035 122.134 27.7046C122.243 27.7126 122.353 27.7195 122.462 27.7206C122.771 27.7229 123.078 27.7241 123.382 27.6372C123.959 27.4727 124.292 27.0876 124.421 26.5082C124.506 26.1277 124.487 25.746 124.407 25.3689C124.353 25.1198 124.236 24.897 124.062 24.7085C123.829 24.4548 123.538 24.3028 123.2 24.2685C122.883 24.2365 122.564 24.2365 122.244 24.2285C122.187 24.2274 122.13 24.2514 122.078 24.2639V24.2628Z" fill="#0C26B7"/>
<path d="M82.4704 35.1028C81.4974 35.1028 80.548 35.1028 79.5986 35.1028C79.5616 35.1028 79.5246 35.088 79.4719 35.0777C79.4854 35.0091 79.4899 34.9497 79.5089 34.896C79.6737 34.4526 79.8429 34.0104 80.0088 33.567C80.3586 32.6334 80.7083 31.6999 81.0591 30.7663C81.2396 30.2852 81.4223 29.8052 81.6028 29.3242C81.9088 28.514 82.2125 27.7027 82.5197 26.8925C82.7943 26.1669 83.0723 25.4435 83.3447 24.7168C83.6036 24.0289 83.8558 23.3375 84.1125 22.6485C84.1584 22.5262 84.2111 22.4085 84.2627 22.2839C84.3333 22.2725 84.3905 22.2565 84.4488 22.2565C85.239 22.2542 86.0281 22.2542 86.8184 22.2565C86.8778 22.2565 86.9361 22.2691 87.0157 22.2782C87.343 23.1181 87.6355 23.9752 87.9505 24.823C88.2655 25.6732 88.5692 26.528 88.8786 27.3793C89.1913 28.2409 89.5052 29.1025 89.8179 29.9641C90.1273 30.8165 90.44 31.6667 90.7438 32.5215C91.0464 33.3728 91.3693 34.2161 91.6618 35.0788C91.4063 35.1131 88.966 35.1211 88.5849 35.0914C88.391 34.6058 88.2643 34.0881 88.1041 33.583C87.9415 33.0757 87.8014 32.5603 87.6378 32.0792C87.5156 31.9855 87.4012 32.013 87.2948 32.013C86.4754 32.0107 85.6549 32.0118 84.8355 32.0118C84.5059 32.0118 84.1753 32.0118 83.8457 32.0118C83.7762 32.0118 83.7056 32.0152 83.6361 32.0118C83.5184 32.0084 83.4512 32.0644 83.4164 32.1752C83.3211 32.4838 83.2214 32.79 83.125 33.0974C82.94 33.6836 82.7562 34.2698 82.5712 34.856C82.5477 34.9314 82.513 35.0046 82.4726 35.1051L82.4704 35.1028ZM86.8845 29.7001C86.8867 29.6544 86.8968 29.6224 86.889 29.595C86.4731 28.2797 86.055 26.9656 85.6358 25.6526C85.6246 25.6161 85.5955 25.5852 85.573 25.5532C85.5686 25.5475 85.5562 25.5475 85.5428 25.5429C85.526 25.5647 85.5002 25.5852 85.4912 25.6127C85.0653 26.9553 84.6416 28.2992 84.219 29.643C84.2145 29.659 84.2291 29.6807 84.2347 29.699C84.4645 29.7413 86.5819 29.7458 86.8845 29.7001Z" fill="#0C26B7"/>
<path d="M157.16 35.104C156.102 35.1063 155.095 35.104 154.071 35.104C154.043 35.0331 154.015 34.9714 153.995 34.9074C153.744 34.0881 153.501 33.2677 153.243 32.4506C153.085 31.9501 153.166 32.0095 152.656 32.0084C151.546 32.0061 150.436 32.0072 149.327 32.0084C149.208 32.0084 149.087 31.9924 148.95 32.0461C148.757 32.5317 148.634 33.0517 148.459 33.5545C148.284 34.0584 148.157 34.5772 147.96 35.0937C147.628 35.1154 147.3 35.1017 146.973 35.104C146.633 35.1063 146.293 35.104 145.953 35.104C145.612 35.104 145.295 35.104 144.945 35.104C144.957 35.032 144.957 34.9829 144.974 34.9406C145.147 34.4778 145.322 34.0161 145.495 33.5545C145.779 32.8003 146.06 32.045 146.345 31.2919C146.615 30.5754 146.887 29.8601 147.157 29.1436C147.507 28.21 147.856 27.2764 148.206 26.3428C148.453 25.6824 148.702 25.023 148.95 24.3637C149.17 23.7797 149.389 23.1947 149.609 22.6108C149.648 22.5068 149.693 22.4062 149.74 22.2897C149.804 22.2782 149.871 22.2565 149.937 22.2565C150.727 22.2542 151.517 22.2542 152.306 22.2565C152.365 22.2565 152.424 22.2691 152.502 22.2771C153.282 24.4025 154.048 26.5325 154.824 28.6603C155.599 30.788 156.366 32.918 157.158 35.1051L157.16 35.104ZM152.38 29.6978C152.364 29.6098 152.361 29.539 152.34 29.4739C152.236 29.1585 152.127 28.8442 152.025 28.5288C151.827 27.9164 151.632 27.3016 151.437 26.6879C151.327 26.3428 151.222 25.9966 151.113 25.6515C151.098 25.6024 151.077 25.5555 150.995 25.5784C150.978 25.6241 150.954 25.6789 150.937 25.7349C150.804 26.168 150.674 26.6022 150.538 27.0342C150.358 27.6101 150.174 28.1849 149.988 28.7597C149.904 29.0179 149.811 29.2739 149.727 29.5321C149.71 29.5847 149.713 29.6453 149.708 29.7001C149.971 29.7435 152.087 29.7447 152.381 29.699L152.38 29.6978Z" fill="#0C26B7"/>
<path d="M109.094 22.2921C109.382 22.2407 115.815 22.2144 116.912 22.2567C116.979 22.259 117.046 22.275 117.126 22.2853C117.138 22.3653 117.155 22.4327 117.159 22.5013C117.189 23.1812 117.17 24.2336 117.122 24.4793C117.072 24.4907 117.016 24.5113 116.959 24.5147C116.859 24.5216 116.76 24.5181 116.66 24.5181C115.29 24.5181 113.921 24.5181 112.552 24.5193C112.425 24.5193 112.29 24.4873 112.176 24.5707C112.136 24.8267 112.137 27.0447 112.176 27.2926C112.273 27.3646 112.386 27.3429 112.493 27.3429C113.043 27.3452 113.593 27.3441 114.142 27.3441C114.742 27.3441 115.342 27.3429 115.941 27.3452C116.049 27.3452 116.161 27.3235 116.265 27.3886C116.271 27.4172 116.285 27.4469 116.282 27.4732C116.195 28.1519 116.077 28.8261 115.958 29.5015C115.835 29.5643 115.714 29.5449 115.597 29.5449C114.597 29.5461 113.599 29.5449 112.599 29.5449C112.509 29.5449 112.418 29.5438 112.329 29.5483C112.28 29.5518 112.233 29.5678 112.175 29.5803C112.165 29.6455 112.148 29.7026 112.148 29.7609C112.147 30.7093 112.147 31.6589 112.148 32.6074C112.148 32.6656 112.158 32.7251 112.165 32.7993C112.241 32.8096 112.308 32.8256 112.375 32.8268C112.714 32.8291 113.054 32.8279 113.395 32.8279C114.614 32.8279 115.834 32.8279 117.053 32.8279H117.392C117.406 32.893 117.425 32.9399 117.425 32.9867C117.428 33.6427 117.426 34.2986 117.425 34.9545C117.425 34.9922 117.413 35.0311 117.407 35.0688C117.369 35.0813 117.342 35.0996 117.314 35.0996C114.615 35.1019 111.917 35.103 109.218 35.103C109.18 35.103 109.143 35.0882 109.107 35.0813C109.094 35.0448 109.073 35.0162 109.073 34.9888C109.071 30.7996 109.07 26.6116 109.07 22.4224C109.07 22.3836 109.085 22.3447 109.095 22.2921H109.094Z" fill="#0C26B7"/>
<path d="M144.619 23.6286C144.454 23.8468 143.234 25.0969 142.97 25.3186C142.916 25.2695 142.856 25.2215 142.805 25.1644C142.499 24.8215 142.148 24.5382 141.711 24.3942C140.966 24.1485 140.269 24.2296 139.664 24.7713C139.375 25.0307 139.191 25.3678 139.046 25.7254C138.821 26.2716 138.728 26.8487 138.663 27.4315C138.605 27.9537 138.598 28.4782 138.607 29.0039C138.619 29.6209 138.686 30.2323 138.816 30.8356C138.901 31.231 139.041 31.6092 139.25 31.9589C139.621 32.5782 140.153 32.9359 140.87 33.0159C141.394 33.0742 141.907 33.0205 142.417 32.9062C142.758 32.8296 143.095 32.7382 143.422 32.6091C143.494 32.5805 143.573 32.568 143.646 32.5497C143.796 32.8479 144.267 34.3243 144.302 34.6123C144.098 34.7265 143.87 34.794 143.642 34.8602C143.026 35.0396 142.397 35.1471 141.757 35.195C140.856 35.2625 139.958 35.2522 139.075 35.0385C138.316 34.8545 137.625 34.53 137.038 33.9998C136.499 33.5118 136.119 32.9153 135.844 32.2446C135.626 31.7098 135.484 31.151 135.409 30.5808C135.347 30.1123 135.324 29.6358 135.306 29.1627C135.282 28.5365 135.307 27.9103 135.395 27.2898C135.45 26.9013 135.53 26.5139 135.636 26.1357C135.826 25.4523 136.105 24.8067 136.515 24.2228C137.11 23.3749 137.888 22.7704 138.862 22.4241C139.905 22.0528 140.976 22.0116 142.056 22.1693C142.987 22.3053 143.779 22.7281 144.433 23.4126C144.494 23.4777 144.549 23.5486 144.619 23.6297V23.6286Z" fill="#0C26B7"/>
<path d="M130.273 22.288C130.558 22.2378 131.801 22.2229 133.05 22.2526C133.128 22.2549 133.205 22.2675 133.295 22.2766C133.305 22.3463 133.319 22.4034 133.322 22.4606C133.327 22.5314 133.323 22.6023 133.323 22.672C133.323 26.6772 133.323 30.6824 133.323 34.6876C133.323 34.8075 133.323 34.9275 133.323 35.0612C133.254 35.0772 133.198 35.1001 133.143 35.1001C132.234 35.1024 131.325 35.1012 130.416 35.1001C130.376 35.1001 130.337 35.0909 130.283 35.0852C130.27 35.0292 130.25 34.9744 130.245 34.9172C130.238 34.8372 130.243 34.7561 130.243 34.675C130.243 30.6801 130.243 26.6852 130.243 22.6903C130.243 22.5611 130.225 22.4286 130.273 22.2869V22.288Z" fill="#0C26B7"/>
<path d="M79.5377 47.5803C79.5321 47.5483 79.5198 47.5095 79.5198 47.4706C79.5198 44.2985 79.5198 41.1263 79.5198 37.9724C79.596 37.8799 79.6812 37.8993 79.7574 37.8982C80.5275 37.889 81.2975 37.8856 82.0676 37.8719C82.4779 37.865 82.887 37.8685 83.2972 37.8936C83.9362 37.9336 84.5403 38.1027 85.1064 38.3941C85.863 38.7838 86.4089 39.386 86.7743 40.1573C86.9918 40.6167 87.1386 41.1 87.2126 41.6005C87.3 42.1902 87.328 42.7867 87.2877 43.3832C87.2518 43.9088 87.1722 44.4253 87.0041 44.927C86.6745 45.9063 86.0894 46.6627 85.1591 47.1324C84.6883 47.3701 84.1929 47.5106 83.6739 47.5826C83.2165 47.6466 82.7581 47.6569 82.2963 47.6512C81.4859 47.6397 80.6754 47.6375 79.865 47.6295C79.7574 47.6295 79.6442 47.6569 79.5366 47.578L79.5377 47.5803ZM81.8591 45.9645C81.9062 45.9805 81.9522 46.0091 81.9981 46.0091C82.2974 46.0091 82.5967 46.0091 82.896 45.9954C83.0338 45.9897 83.1762 45.9691 83.3085 45.9291C83.8824 45.7577 84.2691 45.3783 84.5011 44.823C84.7107 44.3202 84.7656 43.7888 84.7959 43.2552C84.8307 42.6587 84.7903 42.0645 84.6827 41.4771C84.6053 41.0578 84.4708 40.6555 84.2231 40.3036C83.9462 39.9093 83.5786 39.6534 83.1011 39.5597C82.7132 39.4831 82.3254 39.5071 81.9365 39.5277C81.9107 39.5288 81.886 39.5551 81.8569 39.5722C81.8501 39.6122 81.8367 39.6511 81.8367 39.6899C81.8367 41.7388 81.8367 43.7877 81.8367 45.8377C81.8367 45.8766 81.8502 45.9165 81.8591 45.9634V45.9645Z" fill="#0C26B7"/>
<path d="M153.299 42.8176C153.304 43.2027 153.277 43.7363 153.156 44.262C153.031 44.8059 152.859 45.3304 152.568 45.8104C152.237 46.3543 151.808 46.7919 151.26 47.1176C150.766 47.4101 150.232 47.5598 149.675 47.6467C148.912 47.7655 148.157 47.7198 147.409 47.5393C146.472 47.313 145.729 46.8045 145.228 45.9612C144.974 45.5327 144.803 45.0687 144.707 44.5797C144.583 43.9535 144.514 43.3204 144.54 42.6816C144.57 41.9217 144.668 41.1698 144.938 40.4545C145.226 39.6934 145.666 39.0421 146.332 38.5622C146.77 38.2468 147.253 38.0319 147.777 37.9165C148.238 37.8148 148.705 37.7623 149.178 37.7828C149.832 37.8103 150.471 37.9005 151.076 38.1771C151.707 38.465 152.199 38.9038 152.567 39.4923C152.925 40.0671 153.104 40.7059 153.218 41.3675C153.293 41.7983 153.296 42.2325 153.299 42.8187V42.8176ZM150.812 42.8027C150.801 42.5605 150.788 42.3091 150.777 42.0566C150.756 41.5995 150.679 41.1538 150.532 40.7219C150.41 40.3619 150.225 40.0397 149.931 39.7974C149.591 39.5163 149.185 39.426 148.752 39.442C148.257 39.4603 147.872 39.6774 147.595 40.0922C147.404 40.3802 147.276 40.699 147.208 41.0373C146.986 42.1274 146.973 43.2198 147.183 44.3157C147.239 44.6071 147.336 44.8802 147.466 45.1419C147.642 45.4961 147.911 45.7646 148.278 45.9166C148.549 46.0298 148.837 46.0606 149.13 46.048C149.665 46.0252 150.05 45.7658 150.328 45.3121C150.494 45.0413 150.581 44.7431 150.658 44.4402C150.791 43.9066 150.785 43.3592 150.812 42.805V42.8027Z" fill="#0C26B7"/>
<path d="M125.114 42.5393C125.239 42.5942 125.308 42.6308 125.381 42.6559C125.694 42.7667 125.988 42.9096 126.261 43.1061C126.974 43.6181 127.252 44.322 127.172 45.1836C127.148 45.4441 127.102 45.7023 126.996 45.9469C126.77 46.4714 126.389 46.8393 125.891 47.0942C125.291 47.4016 124.647 47.5478 123.983 47.5718C123.103 47.6027 122.222 47.5935 121.342 47.5992C121.123 47.6004 120.902 47.5958 120.682 47.5924C120.582 47.5912 120.484 47.5867 120.372 47.5832C120.355 47.5181 120.333 47.4633 120.328 47.4061C120.32 47.3364 120.326 47.2644 120.326 47.1936C120.326 44.2225 120.326 41.2504 120.327 38.2793C120.327 38.1616 120.298 38.0371 120.374 37.9159C120.429 37.9102 120.487 37.8988 120.545 37.8988C121.516 37.8897 122.487 37.8782 123.457 37.8759C124.102 37.8748 124.734 37.9582 125.341 38.197C125.826 38.389 126.25 38.6644 126.546 39.1078C126.761 39.4323 126.89 39.7888 126.905 40.1842C126.919 40.5305 126.895 40.8687 126.748 41.1909C126.553 41.6206 126.238 41.936 125.844 42.1737C125.69 42.2662 125.522 42.3348 125.361 42.4136C125.299 42.4445 125.236 42.4753 125.115 42.5359L125.114 42.5393ZM122.676 43.4695C122.662 43.5506 122.645 43.5998 122.645 43.6478C122.644 44.3939 122.643 45.1413 122.646 45.8875C122.646 45.9435 122.675 45.9995 122.691 46.0566C122.941 46.1034 123.181 46.0714 123.418 46.0817C123.653 46.092 123.878 46.0394 124.092 45.9583C124.354 45.8589 124.547 45.6726 124.643 45.3972C124.791 44.9779 124.772 44.5596 124.602 44.1563C124.485 43.8797 124.28 43.6763 123.994 43.5621C123.571 43.3918 123.139 43.3998 122.676 43.4684V43.4695ZM122.673 41.96C122.967 41.9908 123.236 41.9828 123.503 41.9634C123.942 41.9314 124.271 41.656 124.397 41.2321C124.485 40.935 124.489 40.6344 124.439 40.3328C124.409 40.1431 124.351 39.9614 124.229 39.8048C124.013 39.5294 123.715 39.43 123.388 39.4049C123.2 39.39 123.008 39.4003 122.819 39.4049C122.773 39.4049 122.727 39.4289 122.678 39.4415C122.665 39.4929 122.647 39.5306 122.647 39.5683C122.645 40.3053 122.644 41.0424 122.644 41.7783C122.644 41.8263 122.658 41.8754 122.672 41.9588L122.673 41.96Z" fill="#0C26B7"/>
<path d="M162.35 47.5724C162.285 47.585 162.238 47.5987 162.191 47.6021C161.74 47.6273 160.124 47.6078 159.891 47.5747C159.814 47.4147 159.727 47.2445 159.652 47.0708C159.409 46.5063 159.175 45.9372 158.928 45.3738C158.77 45.0139 158.604 44.6574 158.424 44.3077C158.314 44.0929 158.174 43.894 157.992 43.7306C157.753 43.5181 157.476 43.4404 157.15 43.4804C157.134 43.5478 157.112 43.6038 157.11 43.6609C157.104 43.8026 157.106 43.9443 157.106 44.0849C157.106 45.1362 157.106 46.1874 157.106 47.2387C157.106 47.3484 157.124 47.4604 157.068 47.5724C157.03 47.5827 156.993 47.5998 156.955 47.5998C156.285 47.601 155.613 47.601 154.943 47.5998C154.905 47.5998 154.868 47.5838 154.815 47.5713C154.807 47.5084 154.797 47.4513 154.794 47.393C154.79 47.3324 154.793 47.2719 154.793 47.2113C154.793 44.2391 154.793 41.2669 154.793 38.2948C154.793 38.1759 154.779 38.0537 154.821 37.9211C154.881 37.9131 154.938 37.9005 154.995 37.9005C155.916 37.8902 156.837 37.8777 157.757 37.8743C158.158 37.8731 158.558 37.888 158.953 37.96C159.389 38.0388 159.809 38.1714 160.195 38.3919C160.626 38.6387 160.952 38.9872 161.148 39.4489C161.284 39.7666 161.351 40.1037 161.37 40.4499C161.393 40.8579 161.341 41.2578 161.199 41.6418C161.047 42.0497 160.787 42.3799 160.45 42.6451C160.301 42.7628 160.133 42.8542 159.972 42.9582C159.914 42.9959 159.856 43.0313 159.783 43.077C159.825 43.1238 159.852 43.1673 159.892 43.1936C160.359 43.5147 160.684 43.9615 160.962 44.4448C161.335 45.0927 161.62 45.7829 161.914 46.4686C162.04 46.7657 162.163 47.0639 162.285 47.3622C162.311 47.425 162.324 47.4924 162.349 47.5736L162.35 47.5724ZM157.141 39.4032C157.125 39.4718 157.113 39.5003 157.112 39.53C157.11 40.3071 157.11 41.083 157.112 41.86C157.112 41.9069 157.135 41.9526 157.152 42.0131C157.47 42.0348 157.776 42.0451 158.081 41.9754C158.517 41.8749 158.77 41.5835 158.885 41.1664C158.97 40.8613 158.962 40.5448 158.882 40.2385C158.79 39.89 158.589 39.6249 158.242 39.4923C157.886 39.3575 157.523 39.3689 157.142 39.4032H157.141Z" fill="#0C26B7"/>
<path d="M107.681 37.9205C107.777 37.9114 107.834 37.9011 107.892 37.9011C108.824 37.892 109.754 37.8783 110.685 37.876C111.166 37.8748 111.646 37.8988 112.116 38.0199C112.456 38.1079 112.789 38.2188 113.092 38.4016C113.591 38.7033 113.948 39.1227 114.115 39.6963C114.283 40.2722 114.297 40.8516 114.147 41.4321C114.016 41.9406 113.72 42.3405 113.314 42.6593C113.196 42.7519 113.064 42.8273 112.937 42.9073C112.853 42.961 112.768 43.0102 112.666 43.0707C112.706 43.1199 112.73 43.1644 112.767 43.1907C113.246 43.5289 113.581 43.9883 113.865 44.4945C114.217 45.1196 114.5 45.7767 114.773 46.4383C114.897 46.7365 115.027 47.0325 115.151 47.3296C115.181 47.4016 115.203 47.477 115.233 47.5661C115.179 47.5821 115.143 47.5981 115.107 47.6016C114.844 47.6233 112.979 47.605 112.778 47.5787C112.751 47.5284 112.716 47.469 112.688 47.4062C112.452 46.8599 112.221 46.3114 111.98 45.7675C111.772 45.2979 111.557 44.8305 111.334 44.3677C111.22 44.1312 111.069 43.9175 110.875 43.7369C110.637 43.5175 110.36 43.4432 110.031 43.4832C110.014 43.5427 109.989 43.5964 109.985 43.6535C109.977 43.7541 109.979 43.8558 109.979 43.9563C109.979 45.0385 109.979 46.1206 109.979 47.2016C109.979 47.3204 109.995 47.4427 109.941 47.5718C109.895 47.5821 109.848 47.6016 109.801 47.6016C109.15 47.6038 108.5 47.6038 107.848 47.6016C107.809 47.6016 107.77 47.589 107.717 47.581C107.703 47.5261 107.679 47.4713 107.676 47.4142C107.668 47.3136 107.671 47.2119 107.671 47.1113C107.671 44.1997 107.671 41.287 107.671 38.3753C107.671 38.2348 107.677 38.0942 107.681 37.9205ZM110.015 42.0114C110.398 42.0411 110.764 42.0526 111.121 41.928C111.168 41.912 111.214 41.8892 111.256 41.8629C111.561 41.6686 111.739 41.3921 111.789 41.0298C111.819 40.8184 111.815 40.6082 111.789 40.3968C111.729 39.91 111.452 39.5877 110.987 39.4483C110.722 39.3695 110.453 39.3843 110.184 39.3855C110.128 39.3855 110.072 39.4072 110.011 39.4209C109.999 39.5032 109.984 39.5717 109.984 39.6403C109.981 40.3465 109.981 41.0527 109.984 41.7589C109.984 41.8366 110.004 41.9143 110.016 42.0114H110.015Z" fill="#0C26B7"/>
<path d="M134.146 37.9325C134.473 37.9005 136.117 37.905 136.376 37.9382C136.387 37.9873 136.406 38.0433 136.41 38.1004C136.416 38.1907 136.413 38.2821 136.413 38.3736C136.413 40.1733 136.411 41.9731 136.414 43.7729C136.414 44.2516 136.363 44.7202 136.23 45.1807C135.933 46.2194 135.298 46.9553 134.301 47.3518C133.456 47.6878 132.576 47.7735 131.675 47.6683C131.235 47.6169 130.805 47.5335 130.396 47.3541C129.668 47.0341 129.132 46.5199 128.794 45.792C128.531 45.2229 128.41 44.623 128.409 43.9991C128.405 42.0782 128.406 40.1573 128.409 38.2353C128.409 38.137 128.387 38.033 128.44 37.9519C128.458 37.937 128.465 37.9279 128.474 37.9245C128.483 37.9199 128.493 37.9188 128.503 37.9188C129.173 37.9165 129.844 37.9142 130.515 37.9119C130.554 37.9119 130.593 37.9188 130.649 37.9245C130.662 37.9805 130.682 38.0353 130.685 38.0913C130.692 38.1816 130.687 38.273 130.687 38.3644C130.687 40.083 130.687 41.8017 130.687 43.5215C130.687 43.9477 130.725 44.3671 130.852 44.7784C131.081 45.5178 131.617 45.8492 132.291 45.9074C132.46 45.9223 132.633 45.9154 132.799 45.8857C133.365 45.7852 133.722 45.4286 133.911 44.895C134.012 44.6093 134.074 44.3111 134.079 44.0048C134.086 43.6209 134.101 43.2369 134.101 42.853C134.103 41.3469 134.101 39.8397 134.103 38.3336C134.103 38.2044 134.084 38.0719 134.143 37.9325H134.146Z" fill="#0C26B7"/>
<path d="M169.141 38.6785C169.133 38.7231 169.136 38.7665 169.118 38.7996C168.873 39.2716 168.625 39.7424 168.38 40.2109C168.242 40.2052 168.162 40.1183 168.067 40.0703C167.968 40.0212 167.872 39.9686 167.774 39.9172C167.41 39.7241 167.031 39.5698 166.626 39.4898C166.334 39.4327 166.049 39.4441 165.769 39.5527C165.401 39.6944 165.24 40.0143 165.33 40.4006C165.39 40.6588 165.534 40.8565 165.727 41.0268C165.94 41.2153 166.185 41.3525 166.437 41.4736C166.78 41.6381 167.13 41.7878 167.473 41.9512C167.827 42.1192 168.161 42.3192 168.46 42.5774C168.925 42.9785 169.178 43.4916 169.243 44.0972C169.315 44.7634 169.235 45.4068 168.923 46.0113C168.692 46.4604 168.37 46.8226 167.957 47.1083C167.537 47.4008 167.066 47.5574 166.568 47.6476C166.038 47.7436 165.514 47.7093 164.987 47.6259C164.197 47.5002 163.466 47.21 162.764 46.8306C162.687 46.7883 162.618 46.73 162.551 46.682C162.606 46.4318 163.131 45.2605 163.287 45.0354C163.448 45.1268 163.613 45.2182 163.773 45.3142C164.162 45.5462 164.571 45.7302 164.996 45.8856C165.316 46.0033 165.649 46.009 165.973 45.9541C166.33 45.8936 166.593 45.6867 166.702 45.3154C166.753 45.1382 166.775 44.9588 166.756 44.776C166.724 44.4675 166.576 44.2264 166.328 44.0412C166.061 43.8401 165.757 43.7121 165.451 43.5842C164.97 43.3842 164.5 43.1614 164.065 42.8688C163.814 42.6997 163.589 42.5009 163.388 42.2746C162.998 41.8335 162.829 41.301 162.794 40.7228C162.768 40.2726 162.838 39.8372 163.031 39.4259C163.284 38.8854 163.685 38.49 164.199 38.2043C164.82 37.8592 165.49 37.7346 166.194 37.7609C167.077 37.7941 167.912 38.0123 168.706 38.3997C168.858 38.474 169.003 38.5608 169.139 38.6762L169.141 38.6785Z" fill="#0C26B7"/>
<path d="M92.3427 46.6739C92.4402 46.3573 92.9468 45.2523 93.0892 45.0478C93.1553 45.0798 93.2271 45.1084 93.2932 45.1484C93.7729 45.4432 94.2717 45.6957 94.8019 45.8865C95.1248 46.002 95.4554 46.0077 95.7805 45.9551C96.1392 45.8968 96.4003 45.6797 96.508 45.3141C96.5416 45.1986 96.5662 45.0764 96.5696 44.9575C96.5831 44.5907 96.4485 44.2902 96.1571 44.0616C95.8836 43.848 95.5709 43.7165 95.2559 43.5863C94.7649 43.3817 94.2852 43.1555 93.8447 42.8538C93.6026 42.6893 93.3817 42.4984 93.1923 42.2744C92.9009 41.9294 92.7069 41.5363 92.6442 41.0815C92.5747 40.5844 92.578 40.0919 92.7563 39.6165C92.9939 38.9846 93.4266 38.5252 94.0094 38.203C94.6327 37.859 95.3019 37.7345 96.0069 37.763C96.9003 37.7985 97.7454 38.0213 98.5469 38.4178C98.6904 38.4887 98.8249 38.5721 98.9437 38.6749C98.872 38.9252 98.344 39.9468 98.1456 40.2199C97.9472 40.1136 97.7466 40.0027 97.5437 39.8976C97.1861 39.7136 96.8162 39.5617 96.4194 39.4862C96.128 39.4314 95.8444 39.4474 95.563 39.5548C95.2077 39.6896 95.0721 40.0119 95.118 40.3227C95.1606 40.6084 95.3097 40.8278 95.5182 41.014C95.7379 41.2106 95.9912 41.3511 96.2546 41.4768C96.5987 41.6402 96.9474 41.7922 97.2904 41.9568C97.7264 42.1659 98.1344 42.4161 98.4684 42.7772C98.7587 43.0903 98.9325 43.4594 99.0132 43.8731C99.1634 44.6444 99.0603 45.3826 98.6926 46.0774C98.3956 46.6396 97.9506 47.0567 97.3867 47.3286C96.6738 47.6726 95.9172 47.7709 95.1326 47.6726C94.6439 47.6109 94.1664 47.5103 93.7012 47.3446C93.2652 47.1904 92.8527 46.9881 92.4514 46.7584C92.4178 46.739 92.3886 46.7104 92.3438 46.675L92.3427 46.6739Z" fill="#0C26B7"/>
<path d="M101.789 39.6425C101.684 39.6356 101.587 39.6253 101.489 39.6253C100.939 39.6242 100.389 39.6253 99.8383 39.623C99.7407 39.623 99.6365 39.6493 99.5513 39.5739C99.5076 39.3008 99.511 38.1821 99.5591 37.941C99.6466 37.8861 99.7497 37.9113 99.8461 37.9101C100.586 37.9078 101.327 37.9101 102.067 37.9101C103.478 37.9101 104.888 37.9101 106.299 37.9113C106.407 37.9113 106.519 37.8861 106.621 37.941C106.635 38.1809 106.475 39.1728 106.35 39.5979C106.283 39.6059 106.207 39.623 106.131 39.623C105.591 39.6253 105.05 39.623 104.51 39.6253C104.401 39.6253 104.289 39.6048 104.173 39.6619C104.163 39.7007 104.141 39.7476 104.139 39.7956C104.132 39.9064 104.135 40.0173 104.135 40.1293C104.135 42.473 104.135 44.8166 104.135 47.1615C104.135 47.2918 104.129 47.4209 104.126 47.5614C104.064 47.5786 104.018 47.6014 103.971 47.6014C103.301 47.6037 102.63 47.6014 101.96 47.6014C101.931 47.6014 101.902 47.5889 101.857 47.5774C101.845 47.526 101.823 47.4712 101.82 47.414C101.813 47.3237 101.818 47.2323 101.818 47.1409C101.818 44.7767 101.818 42.4124 101.818 40.0481C101.818 39.919 101.832 39.7887 101.789 39.6436V39.6425Z" fill="#0C26B7"/>
<path d="M141.786 47.5716C141.527 47.6139 139.869 47.6185 139.564 47.5796C139.55 47.5305 139.525 47.4756 139.52 47.4196C139.512 47.3088 139.516 47.1979 139.516 47.086C139.516 44.7525 139.516 42.418 139.515 40.0846C139.515 39.9452 139.538 39.8023 139.482 39.6721C139.397 39.6035 139.304 39.6252 139.216 39.6252C138.656 39.6229 138.096 39.6252 137.536 39.6229C137.439 39.6229 137.341 39.6138 137.23 39.6081C137.175 39.4127 137.205 39.2321 137.2 39.0539C137.195 38.8722 137.2 38.6905 137.2 38.5088C137.2 38.3271 137.2 38.1466 137.2 37.9523C137.271 37.9352 137.324 37.9169 137.38 37.9112C137.45 37.9043 137.52 37.9089 137.59 37.9089C139.711 37.9089 141.831 37.9089 143.953 37.9089C144.071 37.9089 144.192 37.8917 144.314 37.9352C144.317 37.9934 144.329 38.0437 144.32 38.0917C144.221 38.5854 144.174 39.0881 144.059 39.5612C143.966 39.6446 143.872 39.6229 143.784 39.6229C143.244 39.6252 142.704 39.6229 142.163 39.6252C142.065 39.6252 141.963 39.6058 141.866 39.6618C141.8 39.7921 141.826 39.936 141.826 40.0754C141.824 42.0352 141.825 43.9949 141.825 45.9558C141.825 46.3798 141.825 46.8048 141.825 47.2288C141.825 47.3385 141.836 47.4505 141.787 47.5716H141.786Z" fill="#0C26B7"/>
<path d="M118.501 37.9323C118.513 37.9872 118.53 38.026 118.53 38.0637C118.53 41.2062 118.528 44.3486 118.524 47.4911C118.524 47.5185 118.501 47.5459 118.481 47.5928C117.749 47.6179 117.01 47.5996 116.263 47.6042C116.246 47.5277 116.226 47.4717 116.222 47.4145C116.216 47.3243 116.22 47.2328 116.22 47.1414C116.22 44.2104 116.22 41.2805 116.22 38.3494V37.9483C116.284 37.9323 116.33 37.9118 116.376 37.9118C117.046 37.9095 117.717 37.9118 118.387 37.9118C118.416 37.9118 118.445 37.9221 118.501 37.9323Z" fill="#0C26B7"/>
<path d="M88.7796 47.5761C88.7258 47.2447 88.7022 40.1873 88.7459 38.1864C88.7482 38.1076 88.7594 38.0288 88.7684 37.9408C89.0262 37.8825 89.275 37.9191 89.5216 37.9122C89.7615 37.9053 90.0014 37.9111 90.2423 37.9111H91.0012C91.0203 37.9819 91.0438 38.0368 91.0494 38.0939C91.0573 38.1739 91.0539 38.255 91.0539 38.3361C91.0539 41.2763 91.0539 44.2177 91.0539 47.1578C91.0539 47.2881 91.0472 47.4184 91.0438 47.5555C90.9822 47.5749 90.9373 47.6012 90.8914 47.6012C90.2311 47.6046 89.5709 47.6035 88.9107 47.6024C88.8726 47.6024 88.8345 47.5875 88.7807 47.5761H88.7796Z" fill="#0C26B7"/>
<defs>
<linearGradient id="paint0_linear_29_3099" x1="137.543" y1="79.9579" x2="113.044" y2="-4.14403" gradientUnits="userSpaceOnUse">
<stop stop-color="#E5FFFF"/>
<stop offset="1" stop-color="#FCFCFC"/>
</linearGradient>
</defs>
</svg>
