<svg width="192" height="66" viewBox="0 0 192 66" fill="none" xmlns="http://www.w3.org/2000/svg">
<g id="Group 1168">
<rect id="Rectangle 298" x="0.943695" y="0.868256" width="190.833" height="65.0001" rx="7" fill="url(#paint0_linear_69_460)"/>
<g id="Group 1167">
<g id="Group 290">
<g id="Group">
<path id="Vector" d="M42.1864 20.5409C42.3074 20.5295 42.3792 20.5169 42.4509 20.5169C43.7545 20.5169 45.0581 20.5169 46.3617 20.5237C47.8638 20.5317 49.3647 20.5489 50.8667 20.5557C53.1993 20.5672 55.533 20.5752 57.8656 20.582C58.1302 20.582 58.3936 20.5649 58.6581 20.5569C59.5571 20.5283 60.4505 20.5877 61.3427 20.6986C61.8684 20.7637 62.3852 20.8746 62.9041 20.9717C63.2001 21.0265 63.4915 21.1157 63.7807 21.2025C64.5496 21.4345 65.304 21.7064 66.0348 22.0481C66.7814 22.3978 67.4931 22.8057 68.1713 23.2765C68.9604 23.8239 69.6744 24.4592 70.3145 25.1757C71.07 26.0224 71.7078 26.9538 72.1976 27.9822C72.3938 28.3936 72.5843 28.8095 72.7502 29.2346C72.9576 29.766 73.128 30.311 73.2681 30.8664C73.4429 31.56 73.5842 32.2605 73.6738 32.9701C73.7725 33.746 73.8622 34.5242 73.8083 35.3081C73.7635 35.9457 73.694 36.5811 73.564 37.2073C73.4631 37.6918 73.3555 38.1763 73.2266 38.6539C73.0753 39.215 72.8802 39.7612 72.6605 40.3006C72.3915 40.9634 72.0799 41.6044 71.7156 42.218C70.829 43.7104 69.6935 44.9708 68.2733 45.9604C67.4472 46.5363 66.5617 46.9969 65.6201 47.3534C64.8837 47.6322 64.1282 47.8436 63.3615 47.999C62.7988 48.1133 62.2327 48.2275 61.6543 48.2584C61.1925 48.2835 60.7329 48.3407 60.2711 48.3738C59.9416 48.3967 59.6109 48.415 59.2814 48.415C54.9367 48.4218 50.5909 48.4252 46.2463 48.4298C42.3646 48.4344 38.4817 48.4389 34.6 48.4435C34.3075 48.4435 34.0149 48.4458 33.7212 48.4458C33.6562 48.4458 33.5923 48.4344 33.5083 48.4264C33.5228 48.3692 33.5262 48.3235 33.5453 48.2847C33.9387 47.5031 34.3333 46.7215 34.7267 45.9398C35.0473 45.3034 35.3656 44.6646 35.6862 44.0281C35.7714 43.859 35.8633 43.6933 35.9586 43.5116C36.0819 43.507 36.2029 43.499 36.324 43.499C37.5514 43.499 38.7799 43.5013 40.0073 43.5036C41.9532 43.507 43.8991 43.5093 45.845 43.5127C49.7458 43.5184 53.6477 43.5253 57.5484 43.5287C58.1055 43.5287 58.6637 43.5402 59.2197 43.5093C59.973 43.467 60.7251 43.3985 61.4716 43.2648C61.9738 43.1745 62.4703 43.0579 62.9647 42.9334C63.5464 42.7871 64.0822 42.5254 64.59 42.2066C65.2345 41.801 65.8095 41.3107 66.305 40.728C66.8621 40.072 67.3149 39.3533 67.64 38.55C67.8911 37.9295 68.0928 37.293 68.2072 36.6359C68.3361 35.8943 68.4145 35.1458 68.3932 34.3882C68.3764 33.7871 68.3226 33.1895 68.2643 32.5919C68.2184 32.1257 68.1433 31.6663 68.0256 31.2126C68.0088 31.1486 67.9976 31.0812 67.974 31.0195C67.8361 30.6447 67.7106 30.2642 67.5514 29.8985C67.2454 29.1969 66.8453 28.5535 66.3341 27.9811C65.7445 27.3206 65.044 26.8178 64.2492 26.4361C63.4825 26.067 62.6721 25.8625 61.8438 25.7059C61.2463 25.5928 60.6466 25.5539 60.0413 25.5517C56.9342 25.5414 53.8259 25.5311 50.7187 25.5219C50.5977 25.5219 50.4744 25.5025 50.3376 25.5574C50.3511 25.6214 50.3522 25.6888 50.378 25.7448C50.4564 25.9173 50.5416 26.0876 50.6291 26.2567C51.1155 27.1937 51.6054 28.1285 52.0918 29.0655C52.3407 29.5466 52.5817 30.0322 52.8294 30.5144C53.0558 30.9544 53.2878 31.3897 53.5154 31.8285C53.7956 32.369 54.0725 32.9107 54.3527 33.4512C54.6195 33.9666 54.8908 34.4796 55.1564 34.995C55.4703 35.6029 55.7808 36.2143 56.0946 36.8222C56.4387 37.4895 56.7873 38.1557 57.1326 38.8242C57.3859 39.3144 57.6359 39.8058 57.8881 40.2949C58.054 40.616 58.2232 40.9348 58.388 41.2559C58.4339 41.3462 58.4967 41.4319 58.5135 41.5496C58.4698 41.5644 58.4362 41.5827 58.4014 41.585C58.3353 41.5907 58.2692 41.5896 58.203 41.5896C56.5968 41.5896 54.9916 41.5896 53.3854 41.5896C53.2923 41.5896 53.1993 41.5827 53.1085 41.5793C52.9224 41.321 52.8036 41.0399 52.6624 40.7714C52.3003 40.0812 51.9416 39.3876 51.5841 38.6939C51.1828 37.9169 50.786 37.1376 50.3836 36.3605C49.8366 35.3047 49.2851 34.2522 48.737 33.1964C48.1933 32.1496 47.6542 31.1018 47.1105 30.0562C46.6857 29.2369 46.2553 28.421 45.8304 27.6028C45.5199 27.004 45.2162 26.4007 44.9057 25.8019C44.4013 24.8306 43.8935 23.8627 43.388 22.8914C43.1515 22.4355 42.9194 21.9773 42.6852 21.5213C42.5809 21.3191 42.4711 21.1179 42.3668 20.9157C42.3108 20.8071 42.2603 20.694 42.1852 20.5375L42.1864 20.5409Z" fill="#1027C3"/>
<path id="Vector_2" d="M26.0027 48.4536C26.0027 48.4262 25.9926 48.3931 26.0039 48.3714C30.715 39.1406 35.4262 29.9098 40.1408 20.6813C40.1475 20.6687 40.1733 20.6675 40.2103 20.6527C43.7109 27.5821 47.2092 34.5149 50.693 41.4283C50.6538 41.5197 50.6022 41.5151 50.5574 41.5174C50.4823 41.522 50.4061 41.5208 50.331 41.5208C48.7628 41.5208 47.1947 41.5208 45.6276 41.5208C45.5245 41.5208 45.4214 41.5208 45.3082 41.5208C45.2555 41.4431 45.2006 41.378 45.1625 41.3037C44.5706 40.153 43.981 39.0023 43.3914 37.8504C43.0058 37.0974 42.6258 36.3409 42.2402 35.589C41.8928 34.9125 41.5397 34.2383 41.1922 33.5619C40.8795 32.9528 40.5712 32.3426 40.2607 31.7324C40.2439 31.6993 40.2215 31.6695 40.208 31.6478C40.1184 31.625 40.0937 31.681 40.069 31.7312C39.6778 32.5037 39.2889 33.2762 38.8977 34.0487C38.6399 34.5572 38.3753 35.0622 38.1164 35.5707C37.8676 36.0621 37.6243 36.5569 37.3755 37.0483C36.9832 37.8196 36.5875 38.5898 36.1952 39.3611C35.7816 40.1747 35.3702 40.9895 34.9566 41.8031C34.46 42.7767 33.9601 43.7491 33.4635 44.7227C33.2304 45.1798 33.0039 45.6403 32.7708 46.0985C32.5466 46.5396 32.3213 46.9807 32.096 47.4218C31.9548 47.6983 31.8034 48.2377 31.5468 48.4285C31.3248 48.5999 30.4965 48.4719 30.2196 48.4731C29.6222 48.4776 29.0258 48.4788 28.4284 48.4776C28.2793 48.4776 26.0072 48.4811 26.0061 48.4513L26.0027 48.4536Z" fill="#EF1C23"/>
</g>
<g id="Group_2">
<g id="Group_3">
<path id="Vector_3" d="M96.3424 28.0158C96.3009 28.0798 96.2751 28.1015 96.2718 28.1267C96.2639 28.1964 96.2628 28.2672 96.2617 28.3381C96.2572 29.3277 96.2505 30.3172 96.2482 31.3057C96.246 32.3558 96.1933 33.4037 96.1462 34.4527C96.1373 34.6538 96.1272 34.8549 96.1171 35.0686C96.051 35.0823 95.996 35.1029 95.94 35.1029C95.1206 35.1052 94.3001 35.104 93.4807 35.1029C93.4415 35.1029 93.4034 35.0926 93.372 35.0892C93.2946 35.0161 93.3227 34.9304 93.3271 34.8538C93.3731 33.9968 93.4224 33.1409 93.4717 32.2838C93.502 31.7605 93.5345 31.236 93.5659 30.7126C93.6354 29.5345 93.706 28.3552 93.7744 27.1771C93.8282 26.2401 93.8775 25.303 93.9313 24.3649C93.9683 23.7307 94.0109 23.0953 94.0535 22.4611C94.0569 22.4028 94.0793 22.3457 94.0927 22.2863C94.1398 22.2749 94.1779 22.2577 94.216 22.2577C94.9962 22.2554 95.7752 22.2543 96.5554 22.2554C96.6036 22.2554 96.6529 22.2714 96.7157 22.2817C96.8199 22.5411 96.9253 22.8028 97.0284 23.0633C97.2245 23.5593 97.4207 24.0563 97.6169 24.5534C97.8982 25.2653 98.1796 25.9772 98.462 26.6891C98.647 27.1577 98.8319 27.6262 99.0191 28.0935C99.3789 28.9906 99.7421 29.8876 100.049 30.8052C100.148 31.1011 100.235 31.4017 100.331 31.6988C100.349 31.7548 100.377 31.8073 100.411 31.8896C100.457 31.8336 100.499 31.8039 100.512 31.7651C100.605 31.4885 100.685 31.2063 100.785 30.932C100.993 30.3538 101.206 29.7779 101.426 29.2042C101.685 28.5266 101.951 27.8524 102.218 27.1782C102.414 26.6811 102.617 26.1875 102.813 25.6916C103.099 24.9705 103.382 24.2483 103.668 23.5284C103.831 23.117 103.998 22.708 104.169 22.2863C104.24 22.2749 104.306 22.2566 104.374 22.2566C105.093 22.2543 105.813 22.2543 106.534 22.2566C106.602 22.2566 106.669 22.2737 106.727 22.2817C106.8 22.3834 106.789 22.4874 106.795 22.5868C106.84 23.413 106.881 24.2392 106.928 25.0654C107.008 26.4663 107.091 27.8661 107.173 29.2671C107.231 30.275 107.287 31.2817 107.349 32.2896C107.398 33.0952 107.454 33.9008 107.506 34.7064C107.513 34.8252 107.53 34.9463 107.495 35.0789C107.446 35.088 107.399 35.104 107.352 35.104C106.502 35.1052 105.653 35.104 104.803 35.104C104.764 35.104 104.726 35.0938 104.67 35.0869C104.655 35.0286 104.636 34.9738 104.628 34.9178C104.618 34.8378 104.616 34.7567 104.612 34.6767C104.536 32.8415 104.475 31.0052 104.493 29.1677C104.496 28.8649 104.503 28.562 104.506 28.2592C104.506 28.1929 104.519 28.1175 104.435 28.0593C104.276 28.3369 104.209 28.6443 104.091 28.9289C103.969 29.2271 103.861 29.5311 103.744 29.8316C103.629 30.1218 103.511 30.4109 103.393 30.7C103.271 30.9983 103.15 31.2965 103.026 31.5948C102.906 31.8828 102.786 32.1707 102.665 32.4587C102.544 32.7466 102.422 33.0335 102.302 33.3214C102.178 33.6185 102.057 33.9168 101.931 34.2139C101.81 34.5007 101.686 34.7875 101.56 35.08C101.299 35.136 101.039 35.0995 100.782 35.1063C100.522 35.1132 100.262 35.1109 100.002 35.1063C99.7432 35.1018 99.4832 35.1269 99.2097 35.0869C98.8779 34.311 98.5483 33.5317 98.2121 32.7558C97.8758 31.9799 97.5485 31.1994 97.247 30.4087C96.9477 29.6225 96.6551 28.834 96.3424 28.017V28.0158Z" fill="#0C26B7"/>
<path id="Vector_4" d="M166.673 30.193C166.721 29.7473 166.64 29.3793 166.634 29.008C166.627 28.6343 166.59 28.2618 166.577 27.8893C166.563 27.5156 166.561 27.1431 166.555 26.7694C166.55 26.406 166.545 26.0426 166.541 25.6793C166.535 25.3056 166.528 24.9319 166.524 24.5594C166.519 24.1857 166.517 23.8121 166.516 23.4384C166.515 23.0659 166.516 22.6934 166.516 22.3334C166.607 22.2317 166.713 22.2557 166.81 22.2557C167.289 22.2534 167.769 22.2546 168.249 22.2546C168.568 22.2546 168.889 22.2546 169.208 22.2546C169.307 22.2546 169.407 22.2614 169.517 22.266C169.532 22.3346 169.551 22.3905 169.556 22.4477C169.563 22.5277 169.558 22.6088 169.558 22.6899C169.558 26.6883 169.558 30.6855 169.558 34.6838C169.558 34.8129 169.572 34.9432 169.546 35.0415C169.516 35.0746 169.51 35.0849 169.502 35.0895C169.494 35.094 169.483 35.0963 169.473 35.0963C168.713 35.0997 167.954 35.1032 167.194 35.1066C167.115 35.1066 167.035 35.1066 166.94 35.1066C166.513 34.4575 166.087 33.8119 165.662 33.1651C165.231 32.5092 164.803 31.8522 164.374 31.1963C163.95 30.5483 163.519 29.905 163.102 29.2536C162.686 28.6057 162.306 27.9338 161.897 27.2882C161.798 27.3248 161.815 27.383 161.817 27.4276C161.847 27.911 161.886 28.3943 161.911 28.8777C161.936 29.3713 161.957 29.8661 161.964 30.3598C161.985 31.8739 161.998 33.388 162.013 34.9021C162.013 34.9512 162.003 35.0015 161.997 35.0655C161.939 35.0792 161.884 35.1032 161.828 35.1032C160.928 35.1055 160.029 35.1055 159.129 35.1032C159.082 35.1032 159.034 35.0906 158.988 35.0837C158.975 35.0403 158.959 35.0129 158.959 34.9855C158.957 30.7963 158.957 26.606 158.957 22.4168C158.957 22.378 158.97 22.3403 158.979 22.29C159.032 22.2786 159.079 22.2626 159.126 22.2591C159.458 22.234 161.269 22.2546 161.482 22.2866C161.603 22.4648 161.733 22.6545 161.861 22.8465C162.298 23.4978 162.734 24.1503 163.169 24.8028C163.726 25.6393 164.279 26.4803 164.84 27.3145C165.431 28.1909 165.976 29.0948 166.524 29.9976C166.554 30.0467 166.593 30.0901 166.673 30.1941V30.193Z" fill="#0C26B7"/>
<path id="Vector_5" d="M126.256 29.1537C126.281 29.1754 126.306 29.2074 126.339 29.2279C126.848 29.5536 127.229 30.0038 127.558 30.5032C127.936 31.0757 128.239 31.6905 128.513 32.319C128.883 33.168 129.244 34.0216 129.607 34.8741C129.633 34.9358 129.643 35.0032 129.66 35.0706C129.406 35.1152 126.68 35.1174 126.387 35.0729C126.266 34.8021 126.136 34.5198 126.013 34.2341C125.603 33.2925 125.203 32.3464 124.786 31.4082C124.615 31.022 124.419 30.6449 124.159 30.3089C124.06 30.1821 123.956 30.0587 123.837 29.9524C123.524 29.6713 123.15 29.6085 122.75 29.6622C122.669 29.7536 122.696 29.8598 122.696 29.957C122.694 30.5729 122.695 31.1888 122.695 31.8047C122.695 32.784 122.695 33.7633 122.695 34.7426C122.695 34.8512 122.687 34.9598 122.682 35.0763C122.627 35.0877 122.589 35.1026 122.552 35.1026C121.593 35.1037 120.635 35.1026 119.662 35.1026C119.644 35.0352 119.622 34.9815 119.617 34.9255C119.609 34.8455 119.614 34.7644 119.614 34.6832C119.614 30.6849 119.614 26.6866 119.614 22.6882C119.614 22.5591 119.598 22.4265 119.636 22.3134C119.722 22.2277 119.815 22.246 119.903 22.2448C120.392 22.2368 120.882 22.2288 121.372 22.2266C122.191 22.222 123.012 22.2266 123.831 22.2186C124.486 22.2128 125.128 22.3031 125.757 22.4757C126.269 22.6162 126.751 22.8333 127.177 23.1693C127.774 23.6389 128.126 24.256 128.269 24.9931C128.37 25.5107 128.376 26.0363 128.296 26.5609C128.176 27.3436 127.807 27.9824 127.21 28.4886C126.972 28.6909 126.713 28.8611 126.433 28.9994C126.366 29.0325 126.274 29.0451 126.256 29.1571V29.1537ZM122.727 24.2629C122.68 24.5314 122.663 26.2626 122.695 27.4739C122.697 27.5424 122.71 27.6099 122.717 27.6659C122.75 27.6864 122.766 27.7036 122.783 27.7047C122.892 27.7127 123.002 27.7196 123.111 27.7207C123.42 27.723 123.727 27.7241 124.031 27.6373C124.608 27.4727 124.941 27.0876 125.07 26.5083C125.155 26.1278 125.136 25.7461 125.055 25.369C125.002 25.1199 124.885 24.8971 124.711 24.7085C124.478 24.4548 124.187 24.3029 123.849 24.2686C123.532 24.2366 123.213 24.2366 122.893 24.2286C122.836 24.2274 122.779 24.2514 122.727 24.264V24.2629Z" fill="#0C26B7"/>
<path id="Vector_6" d="M83.1193 35.1029C82.1463 35.1029 81.1969 35.1029 80.2475 35.1029C80.2105 35.1029 80.1735 35.088 80.1208 35.0778C80.1343 35.0092 80.1388 34.9498 80.1578 34.8961C80.3226 34.4527 80.4918 34.0105 80.6577 33.5671C81.0075 32.6335 81.3572 31.6999 81.708 30.7663C81.8885 30.2852 82.0712 29.8053 82.2517 29.3242C82.5577 28.514 82.8614 27.7027 83.1686 26.8925C83.4432 26.1669 83.7212 25.4436 83.9936 24.7168C84.2525 24.0289 84.5047 23.3376 84.7614 22.6485C84.8073 22.5263 84.86 22.4086 84.9116 22.284C84.9822 22.2726 85.0394 22.2566 85.0977 22.2566C85.8879 22.2543 86.677 22.2543 87.4673 22.2566C87.5267 22.2566 87.585 22.2692 87.6645 22.2783C87.9919 23.1182 88.2844 23.9752 88.5994 24.8231C88.9144 25.6733 89.2181 26.528 89.5275 27.3793C89.8402 28.2409 90.1541 29.1025 90.4668 29.9641C90.7762 30.8166 91.0889 31.6668 91.3927 32.5215C91.6953 33.3728 92.0182 34.2162 92.3107 35.0789C92.0552 35.1132 89.6149 35.1212 89.2338 35.0915C89.0399 34.6058 88.9132 34.0882 88.7529 33.5831C88.5904 33.0757 88.4503 32.5604 88.2866 32.0793C88.1645 31.9856 88.0501 32.013 87.9437 32.013C87.1243 32.0107 86.3038 32.0119 85.4844 32.0119C85.1548 32.0119 84.8242 32.0119 84.4946 32.0119C84.4251 32.0119 84.3545 32.0153 84.285 32.0119C84.1673 32.0084 84.1001 32.0644 84.0653 32.1753C83.97 32.4838 83.8703 32.7901 83.7739 33.0974C83.5889 33.6837 83.4051 34.2699 83.2201 34.8561C83.1966 34.9315 83.1618 35.0046 83.1215 35.1052L83.1193 35.1029ZM87.5334 29.7002C87.5356 29.6545 87.5457 29.6225 87.5379 29.5951C87.122 28.2798 86.7039 26.9657 86.2847 25.6527C86.2735 25.6161 86.2444 25.5853 86.2219 25.5533C86.2175 25.5476 86.2051 25.5476 86.1917 25.543C86.1749 25.5647 86.1491 25.5853 86.1401 25.6127C85.7142 26.9554 85.2905 28.2992 84.8679 29.643C84.8634 29.659 84.878 29.6808 84.8836 29.699C85.1134 29.7413 87.2307 29.7459 87.5334 29.7002Z" fill="#0C26B7"/>
<path id="Vector_7" d="M157.808 35.1041C156.751 35.1063 155.744 35.1041 154.72 35.1041C154.692 35.0332 154.664 34.9715 154.644 34.9075C154.393 34.0882 154.15 33.2677 153.892 32.4507C153.734 31.9502 153.815 32.0096 153.305 32.0085C152.195 32.0062 151.085 32.0073 149.975 32.0085C149.857 32.0085 149.736 31.9925 149.599 32.0462C149.406 32.5318 149.283 33.0517 149.108 33.5545C148.933 34.0585 148.806 34.5773 148.609 35.0938C148.277 35.1155 147.949 35.1018 147.622 35.1041C147.282 35.1063 146.942 35.1041 146.602 35.1041C146.261 35.1041 145.944 35.1041 145.594 35.1041C145.606 35.0321 145.606 34.9829 145.623 34.9406C145.796 34.4778 145.97 34.0162 146.144 33.5545C146.428 32.8004 146.709 32.045 146.994 31.292C147.264 30.5755 147.536 29.8602 147.805 29.1437C148.156 28.2101 148.505 27.2765 148.855 26.3429C149.102 25.6824 149.351 25.0231 149.599 24.3637C149.819 23.7798 150.038 23.1948 150.258 22.6108C150.297 22.5068 150.342 22.4063 150.389 22.2897C150.453 22.2783 150.52 22.2566 150.586 22.2566C151.375 22.2543 152.166 22.2543 152.955 22.2566C153.014 22.2566 153.073 22.2692 153.151 22.2772C153.931 24.4026 154.697 26.5326 155.472 28.6603C156.248 30.788 157.015 32.9181 157.807 35.1052L157.808 35.1041ZM153.029 29.6979C153.013 29.6099 153.01 29.5391 152.988 29.4739C152.885 29.1585 152.775 28.8443 152.673 28.5289C152.476 27.9164 152.281 27.3016 152.086 26.688C151.976 26.3429 151.871 25.9967 151.762 25.6516C151.746 25.6024 151.726 25.5556 151.643 25.5784C151.627 25.6241 151.603 25.679 151.586 25.735C151.453 26.1681 151.323 26.6023 151.187 27.0343C151.007 27.6102 150.823 28.185 150.637 28.7597C150.553 29.018 150.46 29.274 150.376 29.5322C150.359 29.5848 150.362 29.6453 150.357 29.7002C150.62 29.7436 152.736 29.7448 153.03 29.699L153.029 29.6979Z" fill="#0C26B7"/>
<path id="Vector_8" d="M109.743 22.2922C110.031 22.2408 116.464 22.2145 117.561 22.2568C117.628 22.2591 117.695 22.2751 117.775 22.2854C117.787 22.3653 117.804 22.4328 117.808 22.5013C117.838 23.1812 117.819 24.2337 117.771 24.4794C117.721 24.4908 117.665 24.5113 117.608 24.5148C117.508 24.5216 117.408 24.5182 117.309 24.5182C115.939 24.5182 114.57 24.5182 113.201 24.5193C113.074 24.5193 112.939 24.4874 112.825 24.5708C112.785 24.8267 112.786 27.0447 112.825 27.2927C112.921 27.3647 113.035 27.343 113.142 27.343C113.692 27.3453 114.242 27.3441 114.791 27.3441C115.391 27.3441 115.991 27.343 116.59 27.3453C116.698 27.3453 116.81 27.3236 116.914 27.3887C116.92 27.4173 116.934 27.447 116.931 27.4732C116.844 28.152 116.726 28.8262 116.607 29.5016C116.484 29.5644 116.363 29.545 116.246 29.545C115.246 29.5461 114.247 29.545 113.248 29.545C113.158 29.545 113.067 29.5438 112.978 29.5484C112.929 29.5518 112.882 29.5678 112.824 29.5804C112.814 29.6455 112.797 29.7027 112.797 29.761C112.796 30.7094 112.796 31.659 112.797 32.6074C112.797 32.6657 112.807 32.7251 112.814 32.7994C112.89 32.8097 112.957 32.8257 113.023 32.8268C113.363 32.8291 113.703 32.828 114.043 32.828C115.263 32.828 116.483 32.828 117.702 32.828H118.041C118.055 32.8931 118.074 32.94 118.074 32.9868C118.077 33.6427 118.075 34.2986 118.074 34.9546C118.074 34.9923 118.062 35.0311 118.056 35.0688C118.018 35.0814 117.991 35.0997 117.963 35.0997C115.264 35.102 112.566 35.1031 109.867 35.1031C109.829 35.1031 109.792 35.0883 109.756 35.0814C109.743 35.0448 109.722 35.0163 109.722 34.9888C109.72 30.7997 109.719 26.6116 109.719 22.4225C109.719 22.3836 109.734 22.3448 109.744 22.2922H109.743Z" fill="#0C26B7"/>
<path id="Vector_9" d="M145.268 23.6286C145.103 23.8469 143.883 25.097 143.619 25.3187C143.565 25.2696 143.504 25.2216 143.454 25.1644C143.148 24.8216 142.797 24.5382 142.36 24.3942C141.615 24.1486 140.917 24.2297 140.313 24.7713C140.024 25.0307 139.84 25.3678 139.695 25.7255C139.47 26.2717 139.377 26.8488 139.312 27.4316C139.254 27.9538 139.247 28.4783 139.256 29.0039C139.267 29.621 139.335 30.2323 139.465 30.8357C139.55 31.2311 139.69 31.6093 139.899 31.959C140.27 32.5783 140.802 32.936 141.519 33.016C142.043 33.0742 142.556 33.0205 143.066 32.9063C143.407 32.8297 143.744 32.7383 144.071 32.6092C144.143 32.5806 144.222 32.568 144.295 32.5497C144.445 32.848 144.916 34.3244 144.95 34.6123C144.746 34.7266 144.519 34.794 144.291 34.8603C143.675 35.0397 143.046 35.1471 142.406 35.1951C141.505 35.2625 140.607 35.2522 139.724 35.0386C138.965 34.8546 138.274 34.5301 137.687 33.9998C137.148 33.5119 136.768 32.9154 136.493 32.2446C136.275 31.7099 136.133 31.1511 136.058 30.5809C135.996 30.1123 135.973 29.6358 135.955 29.1628C135.93 28.5366 135.956 27.9104 136.044 27.2899C136.099 26.9013 136.179 26.514 136.285 26.1357C136.475 25.4524 136.754 24.8068 137.163 24.2228C137.759 23.3749 138.537 22.7705 139.511 22.4242C140.554 22.0528 141.625 22.0117 142.705 22.1694C143.636 22.3054 144.428 22.7282 145.082 23.4127C145.143 23.4778 145.198 23.5486 145.268 23.6298V23.6286Z" fill="#0C26B7"/>
<path id="Vector_10" d="M130.922 22.2881C131.207 22.2378 132.45 22.223 133.699 22.2527C133.777 22.255 133.854 22.2675 133.944 22.2767C133.954 22.3464 133.968 22.4035 133.971 22.4607C133.975 22.5315 133.972 22.6023 133.972 22.6721C133.972 26.6772 133.972 30.6824 133.972 34.6876C133.972 34.8076 133.972 34.9276 133.972 35.0613C133.903 35.0773 133.847 35.1001 133.792 35.1001C132.883 35.1024 131.973 35.1013 131.064 35.1001C131.025 35.1001 130.986 35.091 130.932 35.0853C130.919 35.0293 130.899 34.9744 130.894 34.9173C130.887 34.8373 130.892 34.7562 130.892 34.6751C130.892 30.6801 130.892 26.6852 130.892 22.6903C130.892 22.5612 130.874 22.4287 130.922 22.287V22.2881Z" fill="#0C26B7"/>
</g>
<g id="Group_4">
<path id="Vector_11" d="M80.1866 47.5804C80.181 47.5484 80.1686 47.5095 80.1686 47.4707C80.1686 44.2985 80.1686 41.1264 80.1686 37.9725C80.2449 37.8799 80.3301 37.8994 80.4063 37.8982C81.1763 37.8891 81.9464 37.8857 82.7165 37.8719C83.1267 37.8651 83.5359 37.8685 83.9461 37.8937C84.585 37.9336 85.1892 38.1028 85.7553 38.3942C86.5119 38.7838 87.0578 39.386 87.4232 40.1574C87.6406 40.6167 87.7875 41.1001 87.8615 41.6006C87.9489 42.1902 87.9769 42.7867 87.9365 43.3832C87.9007 43.9089 87.8211 44.4254 87.653 44.927C87.3234 45.9063 86.7383 46.6628 85.8079 47.1324C85.3372 47.3701 84.8417 47.5107 84.3227 47.5827C83.8654 47.6467 83.407 47.6569 82.9451 47.6512C82.1347 47.6398 81.3243 47.6375 80.5139 47.6295C80.4063 47.6295 80.2931 47.6569 80.1855 47.5781L80.1866 47.5804ZM82.508 45.9646C82.5551 45.9806 82.601 46.0092 82.647 46.0092C82.9463 46.0092 83.2455 46.0092 83.5448 45.9955C83.6827 45.9897 83.8251 45.9692 83.9573 45.9292C84.5312 45.7578 84.9179 45.3784 85.15 44.823C85.3596 44.3202 85.4145 43.7889 85.4448 43.2552C85.4795 42.6587 85.4392 42.0645 85.3316 41.4772C85.2542 41.0578 85.1197 40.6556 84.872 40.3036C84.5951 39.9094 84.2275 39.6534 83.7499 39.5597C83.3621 39.4832 82.9743 39.5072 82.5853 39.5277C82.5595 39.5289 82.5349 39.5552 82.5057 39.5723C82.499 39.6123 82.4856 39.6511 82.4856 39.69C82.4856 41.7389 82.4856 43.7877 82.4856 45.8378C82.4856 45.8766 82.499 45.9166 82.508 45.9635V45.9646Z" fill="#0C26B7"/>
<path id="Vector_12" d="M153.947 42.8177C153.953 43.2028 153.926 43.7364 153.805 44.2621C153.679 44.806 153.508 45.3305 153.217 45.8104C152.886 46.3544 152.457 46.792 151.908 47.1177C151.415 47.4102 150.881 47.5599 150.323 47.6468C149.561 47.7656 148.806 47.7199 148.058 47.5393C147.121 47.3131 146.378 46.8046 145.877 45.9613C145.622 45.5327 145.452 45.0688 145.356 44.5797C145.232 43.9535 145.163 43.3205 145.189 42.6817C145.219 41.9218 145.316 41.1699 145.587 40.4546C145.875 39.6935 146.315 39.0422 146.981 38.5622C147.419 38.2468 147.902 38.032 148.426 37.9166C148.886 37.8149 149.354 37.7623 149.827 37.7829C150.48 37.8103 151.119 37.9006 151.725 38.1771C152.356 38.4651 152.848 38.9039 153.215 39.4924C153.574 40.0672 153.752 40.7059 153.867 41.3676C153.942 41.7984 153.945 42.2326 153.947 42.8188V42.8177ZM151.461 42.8028C151.45 42.5606 151.437 42.3092 151.425 42.0566C151.405 41.5995 151.328 41.1539 151.181 40.7219C151.059 40.362 150.874 40.0398 150.58 39.7975C150.239 39.5164 149.834 39.4261 149.401 39.4421C148.906 39.4604 148.521 39.6775 148.244 40.0923C148.053 40.3803 147.925 40.6991 147.856 41.0373C147.634 42.1275 147.622 43.2199 147.832 44.3158C147.888 44.6072 147.985 44.8803 148.115 45.1419C148.291 45.4962 148.56 45.7647 148.927 45.9167C149.198 46.0298 149.486 46.0607 149.779 46.0481C150.313 46.0253 150.699 45.7659 150.977 45.3122C151.143 45.0414 151.23 44.7431 151.307 44.4403C151.44 43.9067 151.434 43.3593 151.461 42.8051V42.8028Z" fill="#0C26B7"/>
<path id="Vector_13" d="M125.763 42.5394C125.887 42.5943 125.957 42.6308 126.03 42.656C126.343 42.7668 126.637 42.9096 126.91 43.1062C127.623 43.6181 127.901 44.322 127.821 45.1836C127.796 45.4442 127.75 45.7024 127.645 45.947C127.419 46.4715 127.038 46.8394 126.54 47.0942C125.94 47.4016 125.296 47.5479 124.632 47.5719C123.752 47.6027 122.871 47.5936 121.991 47.5993C121.771 47.6005 121.551 47.5959 121.331 47.5925C121.231 47.5913 121.133 47.5867 121.02 47.5833C121.004 47.5182 120.982 47.4633 120.977 47.4062C120.969 47.3365 120.975 47.2645 120.975 47.1937C120.975 44.2226 120.975 41.2504 120.976 38.2794C120.976 38.1617 120.946 38.0371 121.023 37.916C121.078 37.9103 121.136 37.8989 121.194 37.8989C122.165 37.8897 123.136 37.8783 124.106 37.876C124.751 37.8749 125.383 37.9583 125.989 38.1971C126.475 38.3891 126.899 38.6645 127.194 39.1078C127.41 39.4324 127.539 39.7889 127.554 40.1843C127.568 40.5305 127.544 40.8688 127.397 41.191C127.202 41.6207 126.887 41.9361 126.493 42.1737C126.339 42.2663 126.171 42.3349 126.01 42.4137C125.948 42.4446 125.885 42.4754 125.764 42.536L125.763 42.5394ZM123.325 43.4696C123.31 43.5507 123.294 43.5998 123.294 43.6478C123.293 44.394 123.291 45.1413 123.295 45.8875C123.295 45.9435 123.324 45.9995 123.34 46.0567C123.59 46.1035 123.829 46.0715 124.067 46.0818C124.301 46.0921 124.527 46.0395 124.741 45.9584C125.003 45.859 125.196 45.6727 125.292 45.3973C125.44 44.9779 125.421 44.5597 125.251 44.1563C125.134 43.8798 124.929 43.6764 124.643 43.5621C124.22 43.3919 123.788 43.3999 123.325 43.4684V43.4696ZM123.322 41.96C123.615 41.9909 123.884 41.9829 124.152 41.9635C124.591 41.9315 124.92 41.6561 125.046 41.2321C125.134 40.935 125.138 40.6345 125.088 40.3328C125.058 40.1431 125 39.9615 124.878 39.8049C124.662 39.5295 124.364 39.4301 124.037 39.405C123.849 39.3901 123.657 39.4004 123.467 39.405C123.421 39.405 123.375 39.429 123.327 39.4415C123.314 39.4929 123.296 39.5307 123.296 39.5684C123.294 40.3054 123.293 41.0425 123.293 41.7784C123.293 41.8264 123.307 41.8755 123.321 41.9589L123.322 41.96Z" fill="#0C26B7"/>
<path id="Vector_14" d="M162.999 47.5725C162.934 47.585 162.887 47.5988 162.839 47.6022C162.389 47.6273 160.772 47.6079 160.539 47.5748C160.463 47.4148 160.376 47.2445 160.301 47.0708C160.057 46.5063 159.824 45.9373 159.576 45.3739C159.418 45.014 159.253 44.6574 159.073 44.3078C158.963 44.0929 158.823 43.8941 158.64 43.7307C158.402 43.5182 158.125 43.4404 157.799 43.4804C157.783 43.5479 157.761 43.6039 157.758 43.661C157.753 43.8027 157.755 43.9444 157.755 44.0849C157.755 45.1362 157.755 46.1875 157.755 47.2388C157.755 47.3485 157.773 47.4605 157.717 47.5725C157.679 47.5828 157.642 47.5999 157.604 47.5999C156.933 47.601 156.262 47.601 155.592 47.5999C155.554 47.5999 155.517 47.5839 155.464 47.5713C155.456 47.5085 155.446 47.4514 155.443 47.3931C155.439 47.3325 155.441 47.2719 155.441 47.2114C155.441 44.2392 155.441 41.267 155.441 38.2948C155.441 38.176 155.428 38.0537 155.469 37.9212C155.53 37.9132 155.587 37.9006 155.644 37.9006C156.565 37.8903 157.486 37.8777 158.406 37.8743C158.806 37.8732 159.207 37.888 159.602 37.96C160.038 38.0389 160.457 38.1714 160.844 38.392C161.275 38.6388 161.601 38.9873 161.797 39.449C161.933 39.7666 162 40.1037 162.019 40.45C162.041 40.8579 161.99 41.2579 161.847 41.6418C161.696 42.0498 161.436 42.38 161.099 42.6451C160.95 42.7628 160.781 42.8542 160.621 42.9582C160.563 42.9959 160.505 43.0314 160.432 43.0771C160.474 43.1239 160.501 43.1673 160.54 43.1936C161.008 43.5147 161.333 43.9615 161.611 44.4449C161.984 45.0928 162.269 45.783 162.563 46.4686C162.689 46.7657 162.811 47.064 162.934 47.3622C162.959 47.4251 162.973 47.4925 162.997 47.5736L162.999 47.5725ZM157.79 39.4033C157.774 39.4718 157.762 39.5004 157.761 39.5301C157.758 40.3071 157.758 41.083 157.761 41.8601C157.761 41.9069 157.784 41.9526 157.801 42.0132C158.119 42.0349 158.425 42.0452 158.73 41.9755C159.166 41.8749 159.418 41.5835 159.534 41.1665C159.619 40.8614 159.611 40.5448 159.531 40.2386C159.439 39.8901 159.238 39.6249 158.89 39.4924C158.535 39.3576 158.172 39.369 157.791 39.4033H157.79Z" fill="#0C26B7"/>
<path id="Vector_15" d="M108.33 37.9206C108.426 37.9115 108.483 37.9012 108.541 37.9012C109.472 37.892 110.403 37.8783 111.334 37.876C111.815 37.8749 112.295 37.8989 112.765 38.02C113.105 38.108 113.438 38.2189 113.741 38.4017C114.24 38.7034 114.597 39.1227 114.764 39.6964C114.932 40.2723 114.946 40.8516 114.796 41.4321C114.665 41.9406 114.369 42.3406 113.963 42.6594C113.845 42.752 113.713 42.8274 113.586 42.9074C113.502 42.9611 113.417 43.0102 113.315 43.0708C113.355 43.1199 113.379 43.1645 113.416 43.1908C113.894 43.529 114.23 43.9884 114.514 44.4946C114.866 45.1197 115.149 45.7767 115.422 46.4383C115.546 46.7366 115.676 47.0326 115.8 47.3297C115.83 47.4016 115.852 47.4771 115.882 47.5662C115.828 47.5822 115.792 47.5982 115.756 47.6016C115.493 47.6233 113.628 47.6051 113.427 47.5788C113.4 47.5285 113.365 47.4691 113.337 47.4062C113.101 46.86 112.87 46.3115 112.629 45.7676C112.42 45.2979 112.206 44.8306 111.983 44.3678C111.869 44.1312 111.718 43.9175 111.524 43.737C111.286 43.5176 111.009 43.4433 110.68 43.4833C110.663 43.5427 110.638 43.5964 110.634 43.6536C110.626 43.7541 110.628 43.8558 110.628 43.9564C110.628 45.0385 110.628 46.1207 110.628 47.2017C110.628 47.3205 110.644 47.4428 110.59 47.5719C110.544 47.5822 110.497 47.6016 110.45 47.6016C109.799 47.6039 109.149 47.6039 108.497 47.6016C108.458 47.6016 108.419 47.5891 108.366 47.5811C108.352 47.5262 108.328 47.4714 108.325 47.4142C108.317 47.3137 108.32 47.212 108.32 47.1114C108.32 44.1998 108.32 41.287 108.32 38.3754C108.32 38.2348 108.326 38.0943 108.33 37.9206ZM110.664 42.0115C111.047 42.0412 111.413 42.0526 111.77 41.9281C111.817 41.9121 111.863 41.8892 111.905 41.8629C112.21 41.6687 112.388 41.3921 112.438 41.0299C112.468 40.8185 112.464 40.6083 112.438 40.3969C112.378 39.9101 112.101 39.5878 111.636 39.4484C111.371 39.3696 111.102 39.3844 110.833 39.3856C110.777 39.3856 110.721 39.4073 110.66 39.421C110.648 39.5033 110.633 39.5718 110.633 39.6404C110.63 40.3466 110.63 41.0528 110.633 41.759C110.633 41.8367 110.653 41.9144 110.665 42.0115H110.664Z" fill="#0C26B7"/>
<path id="Vector_16" d="M134.795 37.9325C135.122 37.9006 136.766 37.9051 137.025 37.9383C137.036 37.9874 137.055 38.0434 137.059 38.1005C137.065 38.1908 137.062 38.2822 137.062 38.3736C137.062 40.1734 137.06 41.9732 137.063 43.7729C137.063 44.2517 137.011 44.7202 136.879 45.1807C136.582 46.2195 135.947 46.9554 134.95 47.3519C134.105 47.6878 133.225 47.7735 132.324 47.6684C131.884 47.617 131.454 47.5336 131.045 47.3542C130.317 47.0342 129.78 46.52 129.443 45.7921C129.18 45.223 129.059 44.6231 129.057 43.9992C129.054 42.0783 129.055 40.1574 129.057 38.2354C129.057 38.1371 129.036 38.0331 129.089 37.952C129.107 37.9371 129.114 37.928 129.122 37.9245C129.131 37.92 129.142 37.9188 129.152 37.9188C129.822 37.9166 130.493 37.9143 131.164 37.912C131.203 37.912 131.242 37.9188 131.298 37.9245C131.311 37.9805 131.331 38.0354 131.334 38.0914C131.341 38.1817 131.336 38.2731 131.336 38.3645C131.336 40.0831 131.336 41.8018 131.336 43.5215C131.336 43.9478 131.374 44.3671 131.501 44.7785C131.73 45.5178 132.266 45.8492 132.94 45.9075C133.108 45.9224 133.282 45.9155 133.448 45.8858C134.014 45.7852 134.371 45.4287 134.56 44.8951C134.661 44.6094 134.723 44.3111 134.728 44.0049C134.735 43.6209 134.749 43.237 134.749 42.853C134.752 41.347 134.749 39.8397 134.752 38.3336C134.752 38.2045 134.733 38.072 134.792 37.9325H134.795Z" fill="#0C26B7"/>
<path id="Vector_17" d="M169.79 38.6786C169.782 38.7232 169.785 38.7666 169.767 38.7997C169.522 39.2717 169.274 39.7425 169.029 40.211C168.891 40.2052 168.811 40.1184 168.716 40.0704C168.617 40.0213 168.521 39.9687 168.423 39.9173C168.059 39.7242 167.68 39.5699 167.274 39.4899C166.983 39.4328 166.698 39.4442 166.418 39.5528C166.05 39.6945 165.889 40.0144 165.979 40.4007C166.039 40.6589 166.183 40.8566 166.375 41.0269C166.588 41.2154 166.834 41.3525 167.086 41.4737C167.429 41.6382 167.779 41.7879 168.122 41.9513C168.476 42.1193 168.81 42.3193 169.109 42.5775C169.573 42.9786 169.827 43.4917 169.892 44.0973C169.963 44.7635 169.884 45.4069 169.572 46.0113C169.341 46.4604 169.019 46.8227 168.606 47.1083C168.186 47.4009 167.715 47.5574 167.217 47.6477C166.687 47.7437 166.162 47.7094 165.636 47.626C164.845 47.5003 164.115 47.21 163.413 46.8307C163.336 46.7884 163.267 46.7301 163.2 46.6821C163.255 46.4319 163.779 45.2606 163.936 45.0355C164.097 45.1269 164.261 45.2183 164.422 45.3143C164.811 45.5463 165.22 45.7302 165.645 45.8856C165.965 46.0033 166.298 46.0091 166.622 45.9542C166.978 45.8936 167.242 45.6868 167.351 45.3154C167.402 45.1383 167.423 44.9589 167.404 44.7761C167.373 44.4675 167.225 44.2264 166.977 44.0413C166.709 43.8402 166.406 43.7122 166.1 43.5842C165.619 43.3843 165.149 43.1614 164.714 42.8689C164.463 42.6998 164.238 42.5009 164.037 42.2747C163.647 41.8336 163.478 41.3011 163.443 40.7229C163.417 40.2727 163.487 39.8373 163.68 39.4259C163.933 38.8854 164.334 38.49 164.848 38.2044C165.469 37.8593 166.139 37.7347 166.843 37.761C167.726 37.7941 168.561 38.0124 169.355 38.3998C169.507 38.474 169.652 38.5609 169.787 38.6763L169.79 38.6786Z" fill="#0C26B7"/>
<path id="Vector_18" d="M92.9915 46.6739C93.0891 46.3574 93.5957 45.2524 93.7381 45.0479C93.8042 45.0799 93.8759 45.1084 93.9421 45.1484C94.4218 45.4432 94.9206 45.6958 95.4508 45.8866C95.7736 46.002 96.1043 46.0077 96.4294 45.9552C96.7881 45.8969 97.0492 45.6798 97.1568 45.3141C97.1905 45.1987 97.2151 45.0764 97.2185 44.9576C97.2319 44.5908 97.0974 44.2903 96.806 44.0617C96.5325 43.848 96.2198 43.7166 95.9048 43.5863C95.4138 43.3818 94.9341 43.1555 94.4936 42.8539C94.2514 42.6893 94.0306 42.4985 93.8412 42.2745C93.5497 41.9294 93.3558 41.5363 93.2931 41.0815C93.2236 40.5845 93.2269 40.0919 93.4051 39.6166C93.6428 38.9847 94.0755 38.5253 94.6583 38.203C95.2816 37.8591 95.9507 37.7345 96.6558 37.7631C97.5492 37.7985 98.3943 38.0214 99.1958 38.4179C99.3392 38.4887 99.4738 38.5721 99.5926 38.675C99.5208 38.9252 98.9929 39.9468 98.7945 40.2199C98.5961 40.1137 98.3954 40.0028 98.1926 39.8977C97.835 39.7137 97.4651 39.5617 97.0683 39.4863C96.7768 39.4315 96.4933 39.4475 96.2119 39.5549C95.8566 39.6897 95.7209 40.012 95.7669 40.3228C95.8095 40.6084 95.9586 40.8278 96.1671 41.0141C96.3868 41.2107 96.6401 41.3512 96.9035 41.4769C97.2476 41.6403 97.5962 41.7923 97.9392 41.9568C98.3753 42.166 98.7833 42.4162 99.1173 42.7773C99.4076 43.0904 99.5814 43.4595 99.6621 43.8732C99.8123 44.6445 99.7091 45.3827 99.3415 46.0774C99.0444 46.6397 98.5994 47.0567 98.0356 47.3287C97.3227 47.6727 96.5661 47.7709 95.7815 47.6727C95.2928 47.611 94.8153 47.5104 94.3501 47.3447C93.914 47.1904 93.5015 46.9882 93.1003 46.7585C93.0666 46.7391 93.0375 46.7105 92.9927 46.6751L92.9915 46.6739Z" fill="#0C26B7"/>
<path id="Vector_19" d="M102.438 39.6425C102.333 39.6357 102.236 39.6254 102.138 39.6254C101.588 39.6243 101.038 39.6254 100.487 39.6231C100.39 39.6231 100.285 39.6494 100.2 39.574C100.156 39.3009 100.16 38.1822 100.208 37.941C100.295 37.8862 100.399 37.9113 100.495 37.9102C101.235 37.9079 101.976 37.9102 102.716 37.9102C104.127 37.9102 105.537 37.9102 106.948 37.9113C107.056 37.9113 107.168 37.8862 107.27 37.941C107.284 38.181 107.124 39.1729 106.999 39.598C106.932 39.606 106.856 39.6231 106.78 39.6231C106.24 39.6254 105.699 39.6231 105.159 39.6254C105.05 39.6254 104.938 39.6048 104.822 39.662C104.812 39.7008 104.79 39.7477 104.788 39.7957C104.781 39.9065 104.784 40.0173 104.784 40.1293C104.784 42.473 104.784 44.8167 104.784 47.1616C104.784 47.2918 104.778 47.4209 104.775 47.5615C104.713 47.5786 104.667 47.6015 104.62 47.6015C103.95 47.6038 103.279 47.6015 102.609 47.6015C102.58 47.6015 102.551 47.5889 102.506 47.5775C102.494 47.5261 102.472 47.4712 102.469 47.4141C102.462 47.3238 102.467 47.2324 102.467 47.141C102.467 44.7767 102.467 42.4125 102.467 40.0482C102.467 39.9191 102.481 39.7888 102.438 39.6437V39.6425Z" fill="#0C26B7"/>
<path id="Vector_20" d="M142.434 47.5717C142.175 47.614 140.518 47.6185 140.213 47.5797C140.199 47.5305 140.174 47.4757 140.169 47.4197C140.161 47.3089 140.165 47.198 140.165 47.086C140.165 44.7526 140.165 42.4181 140.163 40.0847C140.163 39.9452 140.187 39.8024 140.131 39.6721C140.046 39.6036 139.953 39.6253 139.865 39.6253C139.305 39.623 138.744 39.6253 138.185 39.623C138.088 39.623 137.99 39.6139 137.879 39.6081C137.824 39.4127 137.854 39.2322 137.849 39.0539C137.844 38.8722 137.849 38.6906 137.849 38.5089C137.849 38.3272 137.849 38.1466 137.849 37.9524C137.919 37.9352 137.973 37.9169 138.029 37.9112C138.099 37.9044 138.169 37.9089 138.239 37.9089C140.36 37.9089 142.48 37.9089 144.602 37.9089C144.72 37.9089 144.841 37.8918 144.963 37.9352C144.965 37.9935 144.978 38.0438 144.969 38.0918C144.87 38.5854 144.823 39.0882 144.708 39.5613C144.615 39.6447 144.52 39.623 144.433 39.623C143.893 39.6253 143.352 39.623 142.812 39.6253C142.714 39.6253 142.612 39.6059 142.515 39.6619C142.449 39.7921 142.475 39.9361 142.475 40.0755C142.473 42.0353 142.474 43.995 142.474 45.9559C142.474 46.3798 142.474 46.8049 142.474 47.2289C142.474 47.3386 142.485 47.4505 142.436 47.5717H142.434Z" fill="#0C26B7"/>
<path id="Vector_21" d="M119.15 37.9324C119.162 37.9873 119.179 38.0261 119.179 38.0638C119.179 41.2063 119.177 44.3487 119.172 47.4912C119.172 47.5186 119.15 47.546 119.13 47.5929C118.398 47.618 117.659 47.5997 116.911 47.6043C116.895 47.5277 116.875 47.4717 116.871 47.4146C116.864 47.3243 116.869 47.2329 116.869 47.1415C116.869 44.2104 116.869 41.2805 116.869 38.3495V37.9484C116.933 37.9324 116.979 37.9118 117.025 37.9118C117.695 37.9096 118.365 37.9118 119.036 37.9118C119.065 37.9118 119.094 37.9221 119.15 37.9324Z" fill="#0C26B7"/>
<path id="Vector_22" d="M89.4285 47.5761C89.3747 47.2448 89.3511 40.1874 89.3948 38.1865C89.3971 38.1077 89.4083 38.0288 89.4173 37.9408C89.6751 37.8826 89.9239 37.9191 90.1705 37.9123C90.4104 37.9054 90.6503 37.9111 90.8913 37.9111H91.6501C91.6692 37.982 91.6927 38.0368 91.6983 38.094C91.7062 38.1739 91.7028 38.2551 91.7028 38.3362C91.7028 41.2764 91.7028 44.2177 91.7028 47.1579C91.7028 47.2882 91.6961 47.4185 91.6927 47.5556C91.6311 47.575 91.5862 47.6013 91.5403 47.6013C90.88 47.6047 90.2198 47.6036 89.5596 47.6024C89.5215 47.6024 89.4834 47.5876 89.4296 47.5761H89.4285Z" fill="#0C26B7"/>
</g>
</g>
</g>
</g>
</g>
<defs>
<linearGradient id="paint0_linear_69_460" x1="138.192" y1="79.9579" x2="113.693" y2="-4.14397" gradientUnits="userSpaceOnUse">
<stop stop-color="#E5FFFF"/>
<stop offset="1" stop-color="#FCFCFC"/>
</linearGradient>
</defs>
</svg>
