<svg width="214" height="42" viewBox="0 0 214 42" fill="none" xmlns="http://www.w3.org/2000/svg">
<path d="M24.1797 1.0075C24.3589 0.99091 24.4651 0.972656 24.5712 0.972656C26.5006 0.972656 28.43 0.972656 30.3594 0.982613C32.5824 0.994228 34.8038 1.01912 37.0268 1.02908C40.4791 1.04567 43.9331 1.05729 47.3855 1.06724C47.777 1.06724 48.1668 1.04235 48.5583 1.03073C49.8888 0.98925 51.2111 1.07554 52.5316 1.2365C53.3097 1.33108 54.0744 1.49205 54.8425 1.63309C55.2805 1.71274 55.7118 1.84218 56.1399 1.96829C57.2779 2.30515 58.3944 2.70008 59.4761 3.19624C60.5809 3.70401 61.6344 4.29642 62.6381 4.98008C63.806 5.77493 64.8628 6.69755 65.81 7.73799C66.9282 8.9676 67.8721 10.32 68.5971 11.8135C68.8874 12.4108 69.1694 13.0149 69.415 13.6321C69.7219 14.4038 69.9741 15.1953 70.1814 16.0018C70.4402 17.009 70.6493 18.0262 70.782 19.0567C70.928 20.1834 71.0607 21.3135 70.9811 22.4518C70.9147 23.3778 70.8118 24.3004 70.6194 25.2097C70.4701 25.9133 70.3108 26.6169 70.12 27.3105C69.8961 28.1253 69.6074 28.9185 69.2823 29.7017C68.8841 30.6641 68.4229 31.5951 67.8837 32.4861C66.5715 34.6533 64.891 36.4836 62.789 37.9207C61.5664 38.757 60.2558 39.4257 58.8622 39.9435C57.7723 40.3483 56.6541 40.6553 55.5194 40.881C54.6866 41.0469 53.8488 41.2129 52.9928 41.2577C52.3093 41.2942 51.6291 41.3772 50.9456 41.4253C50.4579 41.4585 49.9685 41.485 49.4807 41.485C43.0506 41.495 36.6187 41.5 30.1885 41.5066C24.4435 41.5132 18.6968 41.5199 12.9518 41.5265C12.5188 41.5265 12.0858 41.5298 11.6511 41.5298C11.5549 41.5298 11.4604 41.5132 11.3359 41.5016C11.3575 41.4186 11.3625 41.3523 11.3907 41.2959C11.973 40.1608 12.5569 39.0258 13.1392 37.8908C13.6137 36.9665 14.0849 36.0389 14.5593 35.1146C14.6854 34.869 14.8214 34.6284 14.9625 34.3646C15.1449 34.3579 15.3241 34.3463 15.5033 34.3463C17.3199 34.3463 19.1381 34.3496 20.9547 34.353C23.8347 34.3579 26.7146 34.3613 29.5946 34.3662C35.3678 34.3745 41.1427 34.3845 46.916 34.3895C47.7405 34.3895 48.5666 34.4061 49.3895 34.3613C50.5043 34.2999 51.6175 34.2003 52.7224 34.0061C53.4656 33.8751 54.2005 33.7058 54.9321 33.5249C55.7931 33.3125 56.5861 32.9325 57.3376 32.4696C58.2916 31.8805 59.1426 31.1686 59.8759 30.3223C60.7004 29.3698 61.3706 28.3261 61.8517 27.1595C62.2233 26.2585 62.5219 25.3342 62.6912 24.38C62.8819 23.3031 62.9981 22.2162 62.9665 21.116C62.9417 20.2432 62.862 19.3753 62.7758 18.5074C62.7077 17.8304 62.5966 17.1633 62.4224 16.5046C62.3975 16.4116 62.3809 16.3137 62.3461 16.2241C62.142 15.6798 61.9562 15.1273 61.7207 14.5963C61.2678 13.5774 60.6755 12.6432 59.919 11.8118C59.0464 10.8527 58.0095 10.1225 56.8333 9.5683C55.6986 9.03232 54.4991 8.73529 53.2732 8.50795C52.3889 8.34367 51.5014 8.28725 50.6055 8.28393C46.0068 8.269 41.4065 8.25406 36.8078 8.24079C36.6287 8.24079 36.4462 8.21258 36.2438 8.29223C36.2637 8.38515 36.2653 8.48306 36.3035 8.56437C36.4196 8.81494 36.5457 9.06219 36.6751 9.30778C37.3951 10.6685 38.1201 12.0259 38.8401 13.3866C39.2084 14.0852 39.565 14.7904 39.9317 15.4907C40.2668 16.1295 40.6102 16.7618 40.947 17.399C41.3617 18.1839 41.7715 18.9704 42.1862 19.7553C42.5811 20.5037 42.9825 21.2488 43.3757 21.9971C43.8402 22.8799 44.2998 23.7677 44.7643 24.6505C45.2736 25.6196 45.7895 26.587 46.3005 27.5578C46.6754 28.2696 47.0454 28.9832 47.4186 29.6934C47.6642 30.1597 47.9147 30.6227 48.1585 31.0889C48.2266 31.22 48.3195 31.3445 48.3443 31.5154C48.2796 31.537 48.2299 31.5635 48.1784 31.5668C48.0806 31.5751 47.9827 31.5735 47.8848 31.5735C45.5075 31.5735 43.1318 31.5735 40.7545 31.5735C40.6168 31.5735 40.4791 31.5635 40.3448 31.5585C40.0694 31.1835 39.8935 30.7753 39.6845 30.3854C39.1486 29.3831 38.6178 28.3758 38.0886 27.3686C37.4946 26.2402 36.9074 25.1085 36.3118 23.9801C35.5022 22.4468 34.686 20.9185 33.8748 19.3853C33.0702 17.8653 32.2722 16.3436 31.4676 14.8253C30.8388 13.6355 30.2018 12.4507 29.573 11.2625C29.1135 10.393 28.6639 9.51686 28.2044 8.64734C27.4579 7.23686 26.7063 5.83135 25.9581 4.42087C25.6081 3.75877 25.2647 3.09336 24.918 2.43126C24.7637 2.13755 24.6011 1.8455 24.4468 1.55178C24.3639 1.39414 24.2892 1.22986 24.1781 1.00253L24.1797 1.0075Z" fill="#1027C3"/>
<path d="M0.228827 41.5412C0.228827 41.5014 0.213896 41.4533 0.230486 41.4218C7.20316 28.0172 14.1758 14.6126 21.1535 1.21141C21.1634 1.19315 21.2016 1.19149 21.2563 1.16992C26.4373 11.2325 31.615 21.3 36.7711 31.3393C36.713 31.4721 36.6367 31.4654 36.5703 31.4687C36.4592 31.4754 36.3464 31.4737 36.2352 31.4737C33.9143 31.4737 31.5934 31.4737 29.2742 31.4737C29.1215 31.4737 28.9689 31.4737 28.8013 31.4737C28.7234 31.3609 28.6421 31.2663 28.5857 31.1584C27.7097 29.4874 26.8371 27.8164 25.9645 26.1438C25.3938 25.0502 24.8314 23.9517 24.2607 22.8598C23.7465 21.8775 23.2239 20.8984 22.7096 19.9161C22.2467 19.0316 21.7905 18.1455 21.331 17.2594C21.3061 17.2113 21.2729 17.1681 21.253 17.1366C21.1203 17.1034 21.0838 17.1847 21.0473 17.2577C20.4683 18.3795 19.8927 19.5012 19.3137 20.623C18.9321 21.3614 18.5406 22.0948 18.1574 22.8333C17.7891 23.5468 17.4291 24.2653 17.0608 24.9789C16.4801 26.099 15.8945 27.2174 15.3139 28.3375C14.7017 29.519 14.0929 30.7021 13.4807 31.8836C12.7458 33.2974 12.0059 34.7095 11.271 36.1233C10.9259 36.7871 10.5908 37.4558 10.2457 38.1212C9.91392 38.7618 9.58047 39.4023 9.24701 40.0428C9.03798 40.4444 8.81402 41.2276 8.43412 41.5047C8.10564 41.7536 6.87966 41.5678 6.46989 41.5695C5.58566 41.5761 4.70308 41.5778 3.81885 41.5761C3.5982 41.5761 0.235463 41.5811 0.233804 41.5379L0.228827 41.5412Z" fill="#EF1C23"/>
<path d="M104.335 11.86C104.273 11.9529 104.235 11.9844 104.23 12.0209C104.219 12.1221 104.217 12.225 104.215 12.3279C104.209 13.7649 104.199 15.202 104.195 16.6373C104.192 18.1623 104.114 19.684 104.044 21.2073C104.031 21.4994 104.016 21.7914 104.001 22.1017C103.903 22.1216 103.822 22.1515 103.739 22.1515C102.526 22.1548 101.312 22.1532 100.099 22.1515C100.041 22.1515 99.9849 22.1366 99.9385 22.1316C99.824 22.0254 99.8655 21.9009 99.8721 21.7898C99.9401 20.5452 100.013 19.3023 100.086 18.0578C100.131 17.2978 100.179 16.5361 100.225 15.7761C100.328 14.0653 100.433 12.3528 100.534 10.642C100.614 9.28127 100.687 7.92057 100.766 6.55821C100.821 5.63724 100.884 4.71462 100.947 3.79366C100.952 3.70903 100.985 3.62606 101.005 3.53977C101.075 3.52318 101.131 3.49829 101.188 3.49829C102.342 3.49497 103.495 3.49331 104.65 3.49497C104.721 3.49497 104.794 3.5182 104.887 3.53314C105.041 3.90982 105.197 4.28982 105.35 4.66816C105.64 5.38834 105.931 6.11017 106.221 6.83201C106.637 7.86581 107.054 8.89961 107.472 9.93341C107.746 10.6138 108.019 11.2941 108.296 11.9728C108.829 13.2754 109.366 14.578 109.821 15.9105C109.967 16.3403 110.096 16.7767 110.237 17.2082C110.264 17.2895 110.305 17.3658 110.357 17.4853C110.425 17.404 110.486 17.3608 110.506 17.3044C110.644 16.9028 110.762 16.493 110.909 16.0947C111.218 15.2551 111.533 14.4187 111.858 13.5857C112.241 12.6017 112.636 11.6227 113.031 10.6436C113.321 9.92179 113.622 9.20493 113.912 8.48476C114.335 7.43768 114.753 6.38895 115.176 5.34353C115.418 4.74615 115.666 4.15209 115.918 3.53977C116.024 3.52318 116.122 3.49663 116.221 3.49663C117.286 3.49331 118.351 3.49331 119.418 3.49663C119.519 3.49663 119.619 3.52152 119.704 3.53314C119.813 3.68082 119.796 3.83183 119.805 3.97619C119.871 5.17593 119.932 6.37567 120.002 7.57541C120.12 9.60983 120.243 11.6426 120.364 13.677C120.45 15.1406 120.533 16.6025 120.624 18.0661C120.697 19.236 120.78 20.4058 120.856 21.5757C120.868 21.7483 120.893 21.9242 120.842 22.1167C120.769 22.1299 120.699 22.1532 120.629 22.1532C119.372 22.1548 118.114 22.1532 116.857 22.1532C116.799 22.1532 116.742 22.1382 116.659 22.1283C116.638 22.0436 116.61 21.964 116.598 21.8827C116.583 21.7665 116.58 21.6487 116.575 21.5325C116.462 18.8676 116.371 16.2009 116.397 13.5326C116.402 13.0929 116.412 12.6531 116.417 12.2134C116.417 12.1172 116.437 12.0076 116.313 11.923C116.077 12.3262 115.977 12.7726 115.803 13.1858C115.622 13.6189 115.463 14.0603 115.289 14.4967C115.12 14.9182 114.944 15.338 114.77 15.7579C114.589 16.191 114.41 16.6241 114.227 17.0572C114.05 17.4753 113.872 17.8935 113.693 18.3117C113.514 18.7298 113.333 19.1463 113.156 19.5645C112.971 19.996 112.792 20.4291 112.606 20.8605C112.427 21.277 112.243 21.6935 112.057 22.1183C111.671 22.1996 111.286 22.1465 110.906 22.1565C110.521 22.1664 110.136 22.1631 109.751 22.1565C109.368 22.1498 108.983 22.1863 108.578 22.1283C108.087 21.0015 107.6 19.8698 107.102 18.7431C106.604 17.6164 106.12 16.483 105.674 15.3347C105.231 14.1931 104.798 13.0481 104.335 11.8616V11.86Z" fill="#0C26B7"/>
<path d="M208.42 15.0238C208.492 14.3766 208.372 13.8423 208.362 13.303C208.352 12.7604 208.298 12.2194 208.278 11.6784C208.258 11.1358 208.254 10.5949 208.246 10.0522C208.238 9.52456 208.231 8.99687 208.225 8.46918C208.216 7.92656 208.206 7.38394 208.2 6.84298C208.193 6.30036 208.19 5.75774 208.188 5.21512C208.186 4.67416 208.188 4.1332 208.188 3.61049C208.322 3.4628 208.48 3.49765 208.623 3.49765C209.333 3.49433 210.043 3.49599 210.753 3.49599C211.226 3.49599 211.7 3.49599 212.173 3.49599C212.319 3.49599 212.467 3.50595 212.629 3.51258C212.652 3.61215 212.681 3.69346 212.687 3.77643C212.697 3.89258 212.691 4.0104 212.691 4.12822C212.691 9.93443 212.691 15.739 212.691 21.5452C212.691 21.7327 212.71 21.9219 212.672 22.0646C212.628 22.1127 212.619 22.1276 212.608 22.1343C212.596 22.1409 212.579 22.1442 212.564 22.1442C211.44 22.1492 210.317 22.1542 209.192 22.1592C209.074 22.1592 208.956 22.1592 208.815 22.1592C208.183 21.2166 207.553 20.2791 206.924 19.3399C206.287 18.3874 205.653 17.4332 205.018 16.4807C204.391 15.5398 203.752 14.6056 203.135 13.6598C202.519 12.7189 201.957 11.7432 201.351 10.8056C201.205 10.8587 201.23 10.9433 201.234 11.0081C201.278 11.71 201.335 12.4119 201.373 13.1138C201.41 13.8307 201.441 14.5492 201.451 15.266C201.483 17.4647 201.501 19.6634 201.524 21.8621C201.524 21.9335 201.509 22.0065 201.499 22.0994C201.415 22.1193 201.333 22.1542 201.25 22.1542C199.918 22.1575 198.588 22.1575 197.255 22.1542C197.186 22.1542 197.114 22.1359 197.046 22.126C197.027 22.0629 197.003 22.0231 197.003 21.9833C197 15.8999 197 9.81495 197 3.73162C197 3.6752 197.02 3.62044 197.033 3.54743C197.111 3.53084 197.181 3.5076 197.251 3.50263C197.742 3.46612 200.422 3.49599 200.738 3.54245C200.917 3.80132 201.109 4.07678 201.298 4.35555C201.945 5.30141 202.591 6.24892 203.234 7.19643C204.059 8.4111 204.877 9.63242 205.708 10.8438C206.582 12.1165 207.389 13.4291 208.2 14.74C208.245 14.8114 208.303 14.8744 208.42 15.0254V15.0238Z" fill="#0C26B7"/>
<path d="M148.604 13.5165C148.641 13.5481 148.679 13.5945 148.727 13.6244C149.48 14.0973 150.044 14.7511 150.532 15.4763C151.091 16.3076 151.539 17.2004 151.946 18.113C152.493 19.346 153.027 20.5855 153.565 21.8234C153.603 21.913 153.618 22.011 153.643 22.1089C153.266 22.1736 149.232 22.1769 148.799 22.1122C148.619 21.7189 148.427 21.309 148.244 20.8942C147.639 19.5268 147.047 18.1529 146.43 16.7905C146.176 16.2296 145.885 15.682 145.5 15.1942C145.354 15.01 145.2 14.8308 145.024 14.6764C144.562 14.2682 144.007 14.177 143.415 14.255C143.296 14.3877 143.336 14.542 143.336 14.6831C143.332 15.5775 143.334 16.4719 143.334 17.3663C143.334 18.7884 143.334 20.2105 143.334 21.6326C143.334 21.7903 143.322 21.9479 143.316 22.1171C143.234 22.1337 143.178 22.1553 143.123 22.1553C141.703 22.157 140.285 22.1553 138.845 22.1553C138.818 22.0574 138.787 21.9794 138.778 21.8981C138.767 21.782 138.775 21.6641 138.775 21.5463C138.775 15.7401 138.775 9.9339 138.775 4.12769C138.775 3.94018 138.75 3.74769 138.807 3.58341C138.934 3.45896 139.072 3.48551 139.201 3.48385C139.926 3.47223 140.651 3.46062 141.376 3.4573C142.589 3.45066 143.803 3.4573 145.016 3.44568C145.985 3.43739 146.935 3.56848 147.866 3.81905C148.624 4.02315 149.338 4.33844 149.968 4.8263C150.851 5.50831 151.372 6.40438 151.584 7.47468C151.733 8.22639 151.742 8.98971 151.624 9.75137C151.446 10.8881 150.9 11.8157 150.016 12.5508C149.665 12.8445 149.281 13.0917 148.867 13.2925C148.767 13.3406 148.631 13.3589 148.604 13.5215V13.5165ZM143.382 6.41433C143.312 6.80429 143.287 9.31827 143.334 11.0772C143.337 11.1768 143.357 11.2747 143.367 11.356C143.415 11.3859 143.44 11.4108 143.465 11.4124C143.626 11.424 143.788 11.434 143.949 11.4357C144.407 11.439 144.862 11.4406 145.311 11.3145C146.166 11.0756 146.658 10.5163 146.849 9.67504C146.975 9.12246 146.947 8.56822 146.828 8.02062C146.748 7.65888 146.576 7.3353 146.318 7.0615C145.973 6.69311 145.542 6.47241 145.043 6.42263C144.573 6.37617 144.1 6.37617 143.628 6.36455C143.543 6.36289 143.458 6.39774 143.382 6.41599V6.41433Z" fill="#0C26B7"/>
<path d="M84.762 22.1535C83.322 22.1535 81.9168 22.1535 80.5117 22.1535C80.4569 22.1535 80.4022 22.1319 80.3242 22.1169C80.3441 22.0174 80.3508 21.9311 80.379 21.8531C80.6228 21.2093 80.8733 20.5671 81.1189 19.9232C81.6365 18.5675 82.1541 17.2118 82.6733 15.8561C82.9404 15.1575 83.2108 14.4605 83.4779 13.7619C83.9308 12.5854 84.3804 11.4072 84.835 10.2307C85.2414 9.17702 85.6528 8.12662 86.056 7.07125C86.4392 6.0723 86.8125 5.06837 87.1924 4.06775C87.2604 3.8902 87.3384 3.71928 87.4147 3.53841C87.5192 3.52181 87.6038 3.49858 87.6901 3.49858C88.8596 3.49526 90.0276 3.49526 91.1971 3.49858C91.2851 3.49858 91.3713 3.51684 91.4891 3.53011C91.9735 4.74976 92.4065 5.99431 92.8727 7.22557C93.3389 8.46016 93.7885 9.70139 94.2463 10.9376C94.7092 12.1888 95.1737 13.44 95.6366 14.6912C96.0944 15.9291 96.5573 17.1637 97.0069 18.4049C97.4548 19.6411 97.9326 20.8658 98.3656 22.1186C97.9873 22.1684 94.3757 22.18 93.8117 22.1369C93.5247 21.4316 93.3372 20.6799 93.1 19.9465C92.8594 19.2097 92.6521 18.4613 92.4099 17.7627C92.229 17.6266 92.0598 17.6665 91.9022 17.6665C90.6895 17.6631 89.4751 17.6648 88.2624 17.6648C87.7747 17.6648 87.2853 17.6648 86.7975 17.6648C86.6947 17.6648 86.5902 17.6698 86.4873 17.6648C86.3131 17.6598 86.2136 17.7411 86.1622 17.9021C86.0211 18.3501 85.8735 18.7948 85.7308 19.2412C85.4571 20.0925 85.185 20.9438 84.9113 21.795C84.8764 21.9045 84.825 22.0107 84.7653 22.1568L84.762 22.1535ZM91.295 14.3079C91.2983 14.2415 91.3133 14.195 91.3017 14.1552C90.6862 12.2452 90.0674 10.3369 89.4469 8.43029C89.4303 8.37719 89.3872 8.33239 89.354 8.28593C89.3474 8.27763 89.3291 8.27763 89.3092 8.27099C89.2843 8.30252 89.2462 8.33239 89.2329 8.37221C88.6025 10.322 87.9754 12.2734 87.35 14.2249C87.3433 14.2481 87.3649 14.2796 87.3732 14.3062C87.7133 14.3676 90.8471 14.3742 91.295 14.3079Z" fill="#0C26B7"/>
<path d="M195.304 22.1551C193.74 22.1584 192.249 22.1551 190.734 22.1551C190.692 22.0522 190.651 21.9626 190.621 21.8697C190.25 20.6799 189.89 19.4885 189.508 18.302C189.274 17.5752 189.393 17.6615 188.639 17.6598C186.996 17.6565 185.354 17.6582 183.712 17.6598C183.536 17.6598 183.356 17.6366 183.154 17.7146C182.869 18.4198 182.686 19.1748 182.427 19.905C182.169 20.6368 181.981 21.3901 181.689 22.1402C181.198 22.1717 180.712 22.1518 180.228 22.1551C179.725 22.1584 179.222 22.1551 178.718 22.1551C178.214 22.1551 177.744 22.1551 177.227 22.1551C177.245 22.0506 177.245 21.9792 177.27 21.9178C177.525 21.2458 177.784 20.5754 178.041 19.905C178.461 18.8098 178.877 17.7129 179.299 16.6194C179.698 15.5789 180.102 14.5402 180.5 13.4997C181.019 12.144 181.535 10.7883 182.053 9.43256C182.419 8.47344 182.787 7.51597 183.154 6.5585C183.479 5.71055 183.804 4.86094 184.13 4.01299C184.188 3.86199 184.254 3.71596 184.324 3.54671C184.418 3.53011 184.518 3.49858 184.616 3.49858C185.784 3.49526 186.953 3.49526 188.121 3.49858C188.209 3.49858 188.295 3.51684 188.411 3.52845C189.566 6.61492 190.699 9.70802 191.847 12.7978C192.995 15.8876 194.13 18.9807 195.303 22.1568L195.304 22.1551ZM188.231 14.3045C188.207 14.1768 188.202 14.0739 188.171 13.9793C188.018 13.5213 187.856 13.065 187.705 12.607C187.413 11.7175 187.124 10.8248 186.835 9.9337C186.673 9.43256 186.517 8.92977 186.356 8.42863C186.333 8.35728 186.303 8.28924 186.18 8.32243C186.155 8.38881 186.12 8.46846 186.095 8.54977C185.898 9.17868 185.706 9.80925 185.505 10.4365C185.238 11.2728 184.966 12.1075 184.69 12.9422C184.566 13.3172 184.428 13.6889 184.304 14.0639C184.279 14.1403 184.284 14.2282 184.276 14.3079C184.665 14.3709 187.798 14.3726 188.232 14.3062L188.231 14.3045Z" fill="#0C26B7"/>
<path d="M124.164 3.54882C124.59 3.47415 134.111 3.43598 135.735 3.49738C135.835 3.5007 135.934 3.52393 136.052 3.53887C136.07 3.65502 136.095 3.75293 136.1 3.85249C136.145 4.83983 136.117 6.36813 136.045 6.7249C135.972 6.74149 135.889 6.77136 135.805 6.77634C135.657 6.78629 135.509 6.78132 135.362 6.78132C133.335 6.78132 131.309 6.78132 129.282 6.78298C129.094 6.78298 128.895 6.73651 128.726 6.85765C128.666 7.22935 128.668 10.4502 128.726 10.8103C128.869 10.9149 129.036 10.8833 129.195 10.8833C130.008 10.8866 130.823 10.885 131.636 10.885C132.523 10.885 133.411 10.8833 134.298 10.8866C134.458 10.8866 134.624 10.8551 134.778 10.9497C134.786 10.9912 134.808 11.0343 134.803 11.0725C134.673 12.0582 134.499 13.0372 134.323 14.0179C134.141 14.1092 133.962 14.081 133.789 14.081C132.309 14.0826 130.831 14.081 129.351 14.081C129.219 14.081 129.084 14.0793 128.952 14.086C128.88 14.0909 128.811 14.1142 128.724 14.1324C128.709 14.227 128.684 14.31 128.684 14.3946C128.683 15.7719 128.683 17.1509 128.684 18.5281C128.684 18.6128 128.699 18.6991 128.709 18.8069C128.822 18.8219 128.922 18.8451 129.02 18.8467C129.522 18.8501 130.025 18.8484 130.529 18.8484C132.334 18.8484 134.139 18.8484 135.944 18.8484H136.445C136.467 18.943 136.495 19.011 136.495 19.0791C136.498 20.0316 136.497 20.984 136.495 21.9365C136.495 21.9913 136.477 22.0477 136.468 22.1025C136.412 22.1207 136.372 22.1473 136.331 22.1473C132.336 22.1506 128.343 22.1523 124.348 22.1523C124.291 22.1523 124.237 22.1307 124.184 22.1207C124.164 22.0676 124.134 22.0261 124.134 21.9863C124.131 15.903 124.129 9.82132 124.129 3.73799C124.129 3.68157 124.15 3.62515 124.165 3.54882H124.164Z" fill="#0C26B7"/>
<path d="M176.741 5.49132C176.497 5.80826 174.692 7.62363 174.301 7.94555C174.221 7.8742 174.132 7.80451 174.057 7.72154C173.604 7.22372 173.085 6.81219 172.438 6.60311C171.335 6.24634 170.303 6.36416 169.409 7.15071C168.981 7.52739 168.708 8.01691 168.493 8.5363C168.161 9.32949 168.023 10.1675 167.927 11.0138C167.841 11.7721 167.831 12.5338 167.844 13.2971C167.861 14.1932 167.96 15.0809 168.153 15.9571C168.279 16.5312 168.486 17.0805 168.795 17.5883C169.344 18.4877 170.132 19.0071 171.194 19.1232C171.968 19.2078 172.728 19.1298 173.483 18.9639C173.987 18.8527 174.487 18.72 174.969 18.5325C175.077 18.491 175.193 18.4727 175.301 18.4462C175.524 18.8793 176.22 21.0232 176.272 21.4414C175.97 21.6073 175.633 21.7052 175.296 21.8015C174.384 22.062 173.453 22.218 172.506 22.2877C171.172 22.3856 169.843 22.3706 168.536 22.0603C167.413 21.7932 166.391 21.3219 165.522 20.5519C164.724 19.8434 164.161 18.9772 163.755 18.0031C163.431 17.2265 163.222 16.4151 163.111 15.587C163.018 14.9067 162.985 14.2147 162.958 13.5277C162.922 12.6184 162.96 11.7091 163.09 10.808C163.171 10.2438 163.29 9.68128 163.446 9.13202C163.728 8.1397 164.141 7.20215 164.747 6.3542C165.628 5.12293 166.779 4.24511 168.221 3.74232C169.765 3.20302 171.35 3.14328 172.949 3.37227C174.326 3.56974 175.499 4.18372 176.466 5.17769C176.557 5.27228 176.638 5.37516 176.741 5.49298V5.49132Z" fill="#0C26B7"/>
<path d="M155.511 3.54619C155.932 3.47318 157.772 3.4516 159.62 3.49475C159.736 3.49807 159.85 3.51632 159.983 3.52959C159.998 3.63082 160.018 3.71379 160.023 3.79676C160.03 3.89964 160.025 4.00252 160.025 4.10374C160.025 9.91991 160.025 15.7361 160.025 21.5522C160.025 21.7265 160.025 21.9007 160.025 22.0949C159.922 22.1181 159.839 22.1513 159.758 22.1513C158.412 22.1546 157.067 22.1529 155.721 22.1513C155.663 22.1513 155.605 22.138 155.525 22.1297C155.506 22.0484 155.476 21.9687 155.469 21.8858C155.459 21.7696 155.466 21.6518 155.466 21.534C155.466 15.7328 155.466 9.93152 155.466 4.13029C155.466 3.94278 155.439 3.75029 155.511 3.54453V3.54619Z" fill="#0C26B7"/>
<path d="M80.4211 40.2765C80.4128 40.23 80.3945 40.1736 80.3945 40.1172C80.3945 35.5107 80.3945 30.9043 80.3945 26.3243C80.5073 26.1899 80.6334 26.2181 80.7462 26.2165C81.886 26.2032 83.0257 26.1982 84.1654 26.1783C84.7726 26.1684 85.3781 26.1733 85.9853 26.2098C86.9309 26.2679 87.8251 26.5135 88.6629 26.9367C89.7827 27.5025 90.5906 28.377 91.1314 29.4971C91.4533 30.1642 91.6706 30.8661 91.7801 31.5929C91.9095 32.4492 91.951 33.3154 91.8912 34.1816C91.8381 34.9449 91.7203 35.6949 91.4715 36.4234C90.9838 37.8455 90.1178 38.944 88.7408 39.626C88.0441 39.9712 87.3108 40.1753 86.5427 40.2798C85.8658 40.3727 85.1873 40.3877 84.5038 40.3794C83.3044 40.3628 82.1049 40.3595 80.9055 40.3479C80.7462 40.3479 80.5787 40.3877 80.4194 40.2732L80.4211 40.2765ZM83.8568 37.9301C83.9265 37.9534 83.9945 37.9948 84.0625 37.9948C84.5055 37.9948 84.9484 37.9948 85.3914 37.9749C85.5954 37.9666 85.8061 37.9368 86.0019 37.8787C86.8513 37.6298 87.4236 37.0789 87.767 36.2724C88.0772 35.5423 88.1585 34.7706 88.2033 33.9957C88.2548 33.1295 88.195 32.2666 88.0358 31.4137C87.9213 30.8047 87.7222 30.2206 87.3556 29.7095C86.9458 29.137 86.4017 28.7653 85.695 28.6292C85.1209 28.5181 84.5469 28.5529 83.9713 28.5828C83.9331 28.5844 83.8966 28.6226 83.8535 28.6475C83.8435 28.7056 83.8236 28.762 83.8236 28.8184C83.8236 31.7937 83.8236 34.769 83.8236 37.7459C83.8236 37.8024 83.8435 37.8604 83.8568 37.9285V37.9301Z" fill="#0C26B7"/>
<path d="M189.588 33.3587C189.597 33.9179 189.557 34.6928 189.378 35.4562C189.192 36.246 188.938 37.0077 188.507 37.7046C188.017 38.4945 187.382 39.1301 186.571 39.603C185.841 40.0278 185.049 40.2452 184.225 40.3713C183.097 40.5439 181.979 40.4775 180.872 40.2153C179.485 39.8867 178.385 39.1483 177.644 37.9237C177.267 37.3014 177.015 36.6277 176.872 35.9175C176.69 35.0081 176.587 34.0888 176.625 33.1612C176.67 32.0577 176.814 30.9658 177.214 29.9271C177.64 28.8219 178.292 27.8761 179.278 27.1791C179.926 26.7211 180.641 26.4092 181.416 26.2416C182.098 26.0939 182.79 26.0175 183.49 26.0474C184.457 26.0872 185.403 26.2183 186.299 26.6199C187.233 27.0381 187.961 27.6753 188.505 28.5299C189.036 29.3645 189.3 30.2921 189.469 31.2529C189.58 31.8785 189.585 32.5091 189.588 33.3604V33.3587ZM185.909 33.3371C185.892 32.9853 185.872 32.6203 185.856 32.2535C185.826 31.5898 185.711 30.9426 185.494 30.3154C185.313 29.7927 185.039 29.3247 184.605 28.9729C184.1 28.5647 183.5 28.4336 182.86 28.4569C182.126 28.4834 181.557 28.7987 181.147 29.401C180.864 29.8192 180.675 30.2822 180.573 30.7734C180.245 32.3564 180.227 33.9428 180.537 35.5342C180.62 35.9573 180.764 36.3539 180.957 36.7339C181.217 37.2483 181.615 37.6383 182.158 37.859C182.559 38.0232 182.986 38.068 183.419 38.0498C184.21 38.0166 184.781 37.6399 185.192 36.9811C185.438 36.5879 185.567 36.1548 185.68 35.715C185.877 34.9401 185.869 34.1452 185.909 33.3404V33.3371Z" fill="#0C26B7"/>
<path d="M147.875 32.9556C148.059 33.0352 148.162 33.0883 148.27 33.1248C148.733 33.2858 149.169 33.4932 149.572 33.7786C150.627 34.5221 151.038 35.5442 150.921 36.7954C150.884 37.1738 150.816 37.5488 150.66 37.9039C150.325 38.6655 149.761 39.1999 149.025 39.5699C148.137 40.0163 147.183 40.2287 146.201 40.2635C144.899 40.3083 143.595 40.2951 142.292 40.3034C141.967 40.305 141.64 40.2984 141.315 40.2934C141.168 40.2918 141.022 40.2851 140.856 40.2801C140.831 40.1856 140.799 40.1059 140.791 40.0229C140.779 39.9217 140.788 39.8172 140.788 39.7143C140.788 35.3999 140.788 31.0838 140.789 26.7694C140.789 26.5985 140.746 26.4176 140.859 26.2417C140.94 26.2334 141.027 26.2168 141.113 26.2168C142.55 26.2035 143.986 26.1869 145.423 26.1836C146.377 26.182 147.312 26.3031 148.21 26.6499C148.928 26.9287 149.555 27.3286 149.993 27.9724C150.312 28.4437 150.503 28.9614 150.526 29.5356C150.546 30.0384 150.511 30.5296 150.294 30.9975C150.005 31.6214 149.539 32.0794 148.955 32.4246C148.728 32.559 148.479 32.6586 148.24 32.7731C148.149 32.8179 148.056 32.8627 147.876 32.9506L147.875 32.9556ZM144.267 34.3063C144.245 34.4241 144.22 34.4955 144.22 34.5652C144.218 35.6488 144.217 36.734 144.222 37.8176C144.222 37.8989 144.265 37.9802 144.288 38.0632C144.658 38.1312 145.013 38.0848 145.365 38.0997C145.712 38.1146 146.045 38.0383 146.362 37.9205C146.75 37.7761 147.035 37.5056 147.178 37.1057C147.397 36.4967 147.369 35.8894 147.117 35.3036C146.944 34.9021 146.641 34.6067 146.218 34.4407C145.59 34.1935 144.952 34.2051 144.267 34.3047V34.3063ZM144.262 32.1143C144.696 32.1591 145.094 32.1475 145.491 32.1193C146.14 32.0728 146.627 31.6729 146.813 31.0572C146.944 30.6258 146.949 30.1894 146.876 29.7513C146.831 29.4758 146.745 29.212 146.564 28.9847C146.246 28.5847 145.804 28.4404 145.32 28.4039C145.041 28.3823 144.758 28.3972 144.477 28.4039C144.409 28.4039 144.341 28.4387 144.27 28.457C144.25 28.5316 144.223 28.5864 144.223 28.6412C144.22 29.7115 144.218 30.7818 144.218 31.8504C144.218 31.9201 144.24 31.9915 144.26 32.1126L144.262 32.1143Z" fill="#0C26B7"/>
<path d="M202.985 40.265C202.889 40.2832 202.819 40.3031 202.749 40.3081C202.082 40.3446 199.69 40.3164 199.345 40.2683C199.232 40.036 199.103 39.7887 198.992 39.5365C198.632 38.7168 198.287 37.8904 197.92 37.0723C197.686 36.5496 197.44 36.0319 197.175 35.5241C197.012 35.2121 196.805 34.9234 196.535 34.6861C196.181 34.3775 195.772 34.2646 195.289 34.3227C195.266 34.4206 195.232 34.5019 195.229 34.5849C195.221 34.7906 195.224 34.9964 195.224 35.2005C195.224 36.7272 195.224 38.2538 195.224 39.7804C195.224 39.9397 195.251 40.1024 195.168 40.265C195.111 40.2799 195.057 40.3048 195 40.3048C194.008 40.3065 193.014 40.3065 192.022 40.3048C191.966 40.3048 191.911 40.2816 191.833 40.2633C191.822 40.1721 191.807 40.0891 191.802 40.0045C191.797 39.9165 191.8 39.8286 191.8 39.7406C191.8 35.4245 191.8 31.1085 191.8 26.7924C191.8 26.6198 191.78 26.4423 191.841 26.2498C191.931 26.2381 192.016 26.2199 192.1 26.2199C193.462 26.205 194.826 26.1867 196.188 26.1817C196.78 26.1801 197.372 26.2016 197.958 26.3062C198.603 26.4207 199.224 26.6132 199.796 26.9334C200.433 27.2919 200.916 27.798 201.206 28.4684C201.407 28.9297 201.507 29.4192 201.535 29.922C201.568 30.5144 201.492 31.0952 201.281 31.6527C201.057 32.2451 200.672 32.7247 200.173 33.1097C199.952 33.2806 199.703 33.4134 199.466 33.5644C199.38 33.6191 199.294 33.6706 199.186 33.7369C199.249 33.805 199.289 33.868 199.347 33.9062C200.038 34.3725 200.52 35.0213 200.931 35.7232C201.483 36.6641 201.905 37.6664 202.339 38.662C202.527 39.0934 202.708 39.5265 202.889 39.9596C202.927 40.0509 202.947 40.1488 202.983 40.2666L202.985 40.265ZM195.276 28.402C195.252 28.5016 195.234 28.543 195.232 28.5862C195.229 29.7146 195.229 30.8413 195.232 31.9697C195.232 32.0377 195.267 32.1041 195.292 32.192C195.763 32.2236 196.216 32.2385 196.667 32.1373C197.313 31.9913 197.686 31.5681 197.857 30.9624C197.983 30.5194 197.971 30.0597 197.852 29.615C197.716 29.1089 197.419 28.7239 196.905 28.5314C196.379 28.3356 195.841 28.3522 195.277 28.402H195.276Z" fill="#0C26B7"/>
<path d="M122.075 26.2464C122.216 26.2331 122.3 26.2182 122.386 26.2182C123.765 26.2049 125.142 26.185 126.521 26.1817C127.232 26.18 127.942 26.2149 128.637 26.3908C129.142 26.5186 129.635 26.6795 130.082 26.945C130.821 27.3831 131.35 27.9921 131.597 28.8251C131.846 29.6614 131.866 30.5027 131.644 31.3457C131.449 32.0841 131.011 32.6649 130.411 33.1279C130.237 33.2623 130.041 33.3718 129.854 33.488C129.729 33.566 129.603 33.6373 129.452 33.7253C129.512 33.7966 129.547 33.8614 129.601 33.8995C130.31 34.3907 130.806 35.0578 131.227 35.7929C131.748 36.7006 132.166 37.6547 132.571 38.6155C132.753 39.0486 132.946 39.4784 133.13 39.9098C133.175 40.0144 133.206 40.1239 133.251 40.2533C133.171 40.2766 133.118 40.2998 133.065 40.3048C132.675 40.3363 129.915 40.3097 129.618 40.2716C129.578 40.1986 129.527 40.1123 129.485 40.021C129.135 39.2278 128.793 38.4313 128.437 37.6414C128.128 36.9594 127.811 36.2807 127.481 35.6087C127.312 35.2652 127.088 34.9549 126.801 34.6927C126.449 34.3741 126.04 34.2662 125.552 34.3243C125.527 34.4106 125.49 34.4886 125.484 34.5716C125.472 34.7176 125.475 34.8653 125.475 35.0113C125.475 36.5828 125.475 38.1542 125.475 39.724C125.475 39.8966 125.499 40.0741 125.419 40.2616C125.351 40.2766 125.281 40.3048 125.212 40.3048C124.248 40.3081 123.286 40.3081 122.322 40.3048C122.264 40.3048 122.206 40.2865 122.128 40.2749C122.106 40.1953 122.071 40.1156 122.066 40.0326C122.055 39.8866 122.06 39.7389 122.06 39.5929C122.06 35.3648 122.06 31.135 122.06 26.9068C122.06 26.7027 122.068 26.4986 122.075 26.2464ZM125.529 32.187C126.096 32.2302 126.637 32.2468 127.166 32.0659C127.236 32.0427 127.304 32.0095 127.365 31.9713C127.816 31.6892 128.08 31.2876 128.155 30.7616C128.198 30.4546 128.193 30.1493 128.155 29.8423C128.065 29.1354 127.655 28.6675 126.967 28.465C126.575 28.3505 126.177 28.3721 125.779 28.3738C125.696 28.3738 125.613 28.4053 125.522 28.4252C125.505 28.5447 125.482 28.6442 125.482 28.7438C125.479 29.7693 125.479 30.7948 125.482 31.8203C125.482 31.9331 125.512 32.046 125.53 32.187H125.529Z" fill="#0C26B7"/>
<path d="M161.241 26.262C161.724 26.2155 164.157 26.2222 164.54 26.2703C164.557 26.3417 164.585 26.423 164.59 26.5059C164.6 26.637 164.595 26.7698 164.595 26.9025C164.595 29.5161 164.592 32.1296 164.597 34.7432C164.597 35.4384 164.521 36.1188 164.325 36.7875C163.885 38.2959 162.945 39.3646 161.47 39.9404C160.219 40.4282 158.917 40.5527 157.583 40.4C156.932 40.3253 156.295 40.2042 155.69 39.9437C154.613 39.4791 153.819 38.7323 153.319 37.6753C152.929 36.8489 152.75 35.9777 152.748 35.0717C152.744 32.2823 152.745 29.4928 152.748 26.7017C152.748 26.559 152.717 26.408 152.795 26.2902C152.821 26.2686 152.831 26.2554 152.845 26.2504C152.858 26.2438 152.873 26.2421 152.888 26.2421C153.88 26.2388 154.874 26.2355 155.866 26.2321C155.924 26.2321 155.982 26.2421 156.065 26.2504C156.083 26.3317 156.113 26.4114 156.118 26.4927C156.128 26.6238 156.121 26.7565 156.121 26.8893C156.121 29.385 156.121 31.8807 156.121 34.3781C156.121 34.997 156.178 35.606 156.365 36.2034C156.703 37.277 157.496 37.7583 158.495 37.8429C158.744 37.8645 159.001 37.8545 159.247 37.8114C160.084 37.6653 160.612 37.1476 160.892 36.3727C161.042 35.9578 161.133 35.5247 161.141 35.08C161.151 34.5225 161.173 33.9649 161.173 33.4073C161.176 31.2203 161.173 29.0315 161.176 26.8445C161.176 26.6569 161.148 26.4645 161.236 26.262H161.241Z" fill="#0C26B7"/>
<path d="M213.034 27.3472C213.023 27.4119 213.028 27.475 213.001 27.5231C212.638 28.2084 212.271 28.8921 211.908 29.5724C211.704 29.5641 211.586 29.438 211.445 29.3683C211.299 29.297 211.156 29.2206 211.012 29.146C210.473 28.8655 209.912 28.6415 209.312 28.5253C208.88 28.4424 208.459 28.459 208.044 28.6166C207.5 28.8224 207.261 29.287 207.394 29.8479C207.483 30.2229 207.696 30.51 207.981 30.7572C208.296 31.031 208.66 31.2302 209.033 31.406C209.541 31.645 210.058 31.8624 210.566 32.0997C211.09 32.3436 211.584 32.634 212.027 33.009C212.714 33.5915 213.089 34.3365 213.185 35.216C213.291 36.1834 213.174 37.1177 212.713 37.9955C212.371 38.6476 211.893 39.1737 211.282 39.5885C210.66 40.0133 209.964 40.2406 209.227 40.3717C208.442 40.5111 207.666 40.4613 206.886 40.3402C205.717 40.1577 204.635 39.7362 203.596 39.1853C203.482 39.1239 203.381 39.0392 203.281 38.9696C203.363 38.6061 204.139 36.9053 204.371 36.5784C204.608 36.7111 204.852 36.8439 205.09 36.9833C205.665 37.3201 206.271 37.5873 206.899 37.813C207.374 37.9839 207.867 37.9922 208.346 37.9125C208.874 37.8246 209.264 37.5242 209.424 36.9849C209.501 36.7277 209.532 36.4672 209.504 36.2017C209.458 35.7537 209.239 35.4035 208.872 35.1347C208.475 34.8426 208.026 34.6568 207.573 34.4709C206.861 34.1805 206.166 33.857 205.523 33.4322C205.151 33.1866 204.817 32.8978 204.52 32.5693C203.943 31.9288 203.693 31.1555 203.641 30.3158C203.603 29.662 203.706 29.0298 203.991 28.4324C204.366 27.6475 204.96 27.0734 205.72 26.6585C206.639 26.1574 207.631 25.9765 208.673 26.0147C209.98 26.0628 211.216 26.3798 212.391 26.9423C212.616 27.0501 212.83 27.1763 213.031 27.3439L213.034 27.3472Z" fill="#0C26B7"/>
<path d="M99.375 38.9593C99.5193 38.4997 100.269 36.895 100.48 36.598C100.578 36.6445 100.684 36.686 100.782 36.744C101.492 37.1722 102.23 37.5389 103.015 37.816C103.493 37.9836 103.982 37.9919 104.463 37.9156C104.994 37.8309 105.38 37.5157 105.54 36.9847C105.59 36.8171 105.626 36.6395 105.631 36.4669C105.651 35.9343 105.452 35.4978 105.02 35.166C104.616 34.8557 104.153 34.6648 103.687 34.4757C102.96 34.1786 102.25 33.8501 101.598 33.412C101.24 33.173 100.913 32.8959 100.633 32.5707C100.201 32.0695 99.9142 31.4987 99.8213 30.8383C99.7184 30.1164 99.7234 29.4012 99.9872 28.7109C100.339 27.7933 100.979 27.1262 101.842 26.6583C102.764 26.1588 103.755 25.9779 104.798 26.0194C106.12 26.0708 107.371 26.3944 108.557 26.9702C108.77 27.0731 108.969 27.1942 109.145 27.3436C109.039 27.707 108.257 29.1905 107.964 29.5871C107.67 29.4328 107.373 29.2718 107.073 29.1191C106.543 28.852 105.996 28.6313 105.409 28.5218C104.977 28.4421 104.558 28.4653 104.141 28.6213C103.615 28.8171 103.415 29.2851 103.483 29.7364C103.546 30.1513 103.766 30.4699 104.075 30.7404C104.4 31.0258 104.775 31.2299 105.165 31.4124C105.674 31.6497 106.19 31.8704 106.698 32.1094C107.343 32.413 107.947 32.7764 108.441 33.3008C108.871 33.7555 109.128 34.2915 109.248 34.8922C109.47 36.0123 109.317 37.0842 108.773 38.0931C108.333 38.9095 107.675 39.5152 106.84 39.9102C105.785 40.4096 104.665 40.5523 103.504 40.4096C102.781 40.32 102.074 40.174 101.386 39.9334C100.74 39.7094 100.13 39.4157 99.5359 39.0821C99.4862 39.0539 99.443 39.0124 99.3767 38.961L99.375 38.9593Z" fill="#0C26B7"/>
<path d="M113.353 28.7472C113.199 28.7372 113.054 28.7223 112.91 28.7223C112.095 28.7206 111.281 28.7223 110.466 28.719C110.322 28.719 110.168 28.7571 110.041 28.6476C109.977 28.251 109.982 26.6265 110.053 26.2763C110.183 26.1967 110.335 26.2332 110.478 26.2315C111.573 26.2282 112.669 26.2315 113.764 26.2315C115.853 26.2315 117.94 26.2315 120.029 26.2332C120.188 26.2332 120.354 26.1967 120.505 26.2763C120.526 26.6248 120.289 28.0652 120.103 28.6825C120.005 28.6941 119.892 28.719 119.78 28.719C118.98 28.7223 118.18 28.719 117.381 28.7223C117.22 28.7223 117.054 28.6924 116.881 28.7754C116.867 28.8318 116.835 28.8998 116.832 28.9695C116.822 29.1305 116.825 29.2915 116.825 29.4541C116.825 32.8575 116.825 36.2609 116.825 39.666C116.825 39.8551 116.817 40.0426 116.812 40.2468C116.721 40.2716 116.653 40.3048 116.583 40.3048C115.591 40.3082 114.599 40.3048 113.607 40.3048C113.563 40.3048 113.52 40.2866 113.454 40.27C113.436 40.1953 113.404 40.1157 113.399 40.0327C113.389 39.9016 113.396 39.7689 113.396 39.6361C113.396 36.2028 113.396 32.7695 113.396 29.3363C113.396 29.1487 113.418 28.9596 113.353 28.7488V28.7472Z" fill="#0C26B7"/>
<path d="M172.55 40.2632C172.166 40.3246 169.713 40.3312 169.262 40.2748C169.242 40.2035 169.204 40.1238 169.197 40.0425C169.185 39.8816 169.19 39.7206 169.19 39.558C169.19 36.1695 169.19 32.7794 169.189 29.3909C169.189 29.1884 169.223 28.981 169.14 28.7918C169.014 28.6923 168.877 28.7238 168.747 28.7238C167.918 28.7205 167.088 28.7238 166.26 28.7205C166.116 28.7205 165.972 28.7072 165.808 28.6989C165.726 28.4152 165.771 28.153 165.763 27.8941C165.756 27.6303 165.763 27.3664 165.763 27.1026C165.763 26.8387 165.763 26.5766 165.763 26.2945C165.867 26.2696 165.947 26.243 166.03 26.2347C166.133 26.2248 166.237 26.2314 166.34 26.2314C169.479 26.2314 172.618 26.2314 175.758 26.2314C175.932 26.2314 176.111 26.2065 176.292 26.2696C176.296 26.3542 176.314 26.4272 176.301 26.4969C176.155 27.2138 176.085 27.9439 175.914 28.6309C175.776 28.752 175.637 28.7205 175.508 28.7205C174.708 28.7238 173.908 28.7205 173.109 28.7238C172.963 28.7238 172.812 28.6956 172.669 28.7769C172.571 28.9661 172.609 29.1752 172.609 29.3776C172.606 32.2235 172.608 35.0693 172.608 37.9168C172.608 38.5325 172.608 39.1498 172.608 39.7654C172.608 39.9247 172.624 40.0873 172.551 40.2632H172.55Z" fill="#0C26B7"/>
<path d="M138.089 26.2638C138.107 26.3434 138.132 26.3998 138.132 26.4546C138.132 31.0179 138.129 35.5812 138.122 40.1446C138.122 40.1844 138.089 40.2242 138.059 40.2923C136.976 40.3288 135.883 40.3022 134.776 40.3089C134.751 40.1977 134.721 40.1164 134.716 40.0334C134.706 39.9023 134.713 39.7695 134.713 39.6368C134.713 35.3805 134.713 31.1258 134.713 26.8694V26.287C134.808 26.2638 134.876 26.2339 134.944 26.2339C135.936 26.2306 136.928 26.2339 137.92 26.2339C137.963 26.2339 138.006 26.2488 138.089 26.2638Z" fill="#0C26B7"/>
<path d="M94.0991 40.2675C94.0195 39.7862 93.9847 29.5378 94.0494 26.6322C94.0527 26.5177 94.0693 26.4032 94.0825 26.2755C94.4641 26.1908 94.8324 26.2439 95.1974 26.234C95.5524 26.224 95.9074 26.2323 96.2641 26.2323H97.3872C97.4154 26.3352 97.4503 26.4149 97.4585 26.4978C97.4702 26.614 97.4652 26.7318 97.4652 26.8496C97.4652 31.1192 97.4652 35.3905 97.4652 39.6601C97.4652 39.8493 97.4552 40.0385 97.4503 40.2376C97.359 40.2658 97.2926 40.304 97.2246 40.304C96.2475 40.3089 95.2704 40.3073 94.2932 40.3056C94.2368 40.3056 94.1804 40.284 94.1008 40.2675H94.0991Z" fill="#0C26B7"/>
</svg>
