<svg width="64" height="58" viewBox="0 0 64 58" fill="none" xmlns="http://www.w3.org/2000/svg">
<rect opacity="0.18" width="64" height="58" rx="4" fill="#F05A64" fill-opacity="0.3"/>
<path d="M30.8197 12.9521C29.8297 13.1328 29.1287 13.5014 28.4277 14.2168C27.9436 14.701 27.5678 15.3369 20.7459 27.1596C16.8002 34.0031 13.4977 39.7555 13.4037 39.9506C13.1219 40.5504 13.0352 40.984 13.0352 41.7861C13.0352 42.3281 13.0785 42.6605 13.1725 42.9424C13.6855 44.46 14.7334 45.5006 16.2148 45.9559C16.6268 46.0787 17.2844 46.0859 31.499 46.0859C45.7137 46.0859 46.3713 46.0787 46.7832 45.9559C48.2646 45.5006 49.3125 44.46 49.8256 42.9424C49.9195 42.6605 49.9629 42.3281 49.9629 41.7861C49.9629 40.984 49.8762 40.5504 49.5943 39.9506C49.5004 39.7627 46.1979 34.0031 42.2521 27.1668C35.2063 14.9467 35.0689 14.7154 34.5342 14.1807C33.7248 13.3641 32.8865 12.9955 31.7158 12.9232C31.4195 12.9016 31.0148 12.916 30.8197 12.9521ZM32.0338 15.1562C32.5396 15.2863 32.9949 15.5898 33.2479 15.9656C33.3563 16.1174 36.6299 21.7686 40.5322 28.5254C45.0416 36.3445 47.6648 40.9551 47.7371 41.2008C48.0262 42.2125 47.4264 43.3904 46.4219 43.7807C46.0678 43.9107 45.6775 43.918 31.499 43.918C17.3205 43.918 16.9303 43.9107 16.5762 43.7807C16.1064 43.6 15.5861 43.1014 15.3766 42.6316C15.1381 42.1041 15.1453 41.3092 15.3766 40.8467C16.027 39.5965 29.7719 15.915 29.9598 15.7199C30.2344 15.4453 30.6535 15.2213 31.0438 15.1273C31.4484 15.0334 31.5713 15.0334 32.0338 15.1562Z" fill="#EE4652"/>
<path d="M30.4141 29.1387V34.5586H31.498H32.582V29.1387V23.7188H31.498H30.4141V29.1387Z" fill="#EE4652"/>
<path d="M31.0077 36.8089C30.6608 36.91 30.22 37.387 30.1188 37.7556C29.9526 38.3987 30.2055 39.0708 30.7547 39.4104C31.1666 39.6706 31.8676 39.6561 32.2723 39.3888C32.7204 39.0925 32.9082 38.7384 32.9082 38.1747C32.9082 37.6182 32.7204 37.2569 32.294 36.9751C31.9832 36.7655 31.3907 36.6932 31.0077 36.8089Z" fill="#EE4652"/>
</svg>
