<svg width="16" height="16" viewBox="0 0 16 16" fill="none" xmlns="http://www.w3.org/2000/svg">
<path d="M15 16C15.4142 16 15.75 15.6642 15.75 15.25C15.75 14.8358 15.4142 14.5 15 14.5V16ZM6 15.25H5.25V16H6V15.25ZM6.53033 0.46967C6.23744 0.176777 5.76256 0.176777 5.46967 0.46967L0.696699 5.24264C0.403806 5.53553 0.403806 6.01041 0.696699 6.3033C0.989593 6.59619 1.46447 6.59619 1.75736 6.3033L6 2.06066L10.2426 6.3033C10.5355 6.59619 11.0104 6.59619 11.3033 6.3033C11.5962 6.01041 11.5962 5.53553 11.3033 5.24264L6.53033 0.46967ZM15 14.5H6V16H15V14.5ZM6.75 15.25V1H5.25V15.25H6.75Z" fill="url(#paint0_linear_360_9810)"/>
<defs>
<linearGradient id="paint0_linear_360_9810" x1="10.9737" y1="23.9583" x2="2.72774" y2="3.76151" gradientUnits="userSpaceOnUse">
<stop offset="0.0335215" stop-color="#094C89"/>
<stop offset="1" stop-color="#019EF7"/>
</linearGradient>
</defs>
</svg>
