<svg width="9" height="9" viewBox="0 0 9 9" fill="none" xmlns="http://www.w3.org/2000/svg">
<rect width="9" height="9" fill="#F5F5F5"/>
<g id="Products - Create Product" clip-path="url(#clip0_0_1)">
<rect width="1920" height="1411" transform="translate(-861 -1159)" fill="#F3F3F9"/>
<g id="Group 18749">
<g id="Tags">
<g id="card bg" filter="url(#filter0_d_0_1)">
<rect x="-585" y="-303" width="1072" height="405" rx="4" fill="white"/>
</g>
</g>
<g id="Group 18709">
<rect id="Rectangle 5468" x="-585" y="-6.46094" width="1072" height="21.055" fill="#4DAFE6" fill-opacity="0.05"/>
<g id="Group 18420">
<path id="Star 6" d="M4.18606 1.10784C4.29197 0.781887 4.75311 0.781887 4.85902 1.10784L5.55671 3.2551C5.60407 3.40088 5.73992 3.49957 5.89319 3.49957H8.15095C8.49368 3.49957 8.63618 3.93814 8.35891 4.13959L6.53234 5.46667C6.40834 5.55677 6.35645 5.71646 6.40382 5.86223L7.1015 8.00949C7.20741 8.33545 6.83434 8.6065 6.55707 8.40505L4.7305 7.07797C4.6065 6.98787 4.43859 6.98787 4.31459 7.07797L2.48802 8.40505C2.21074 8.6065 1.83767 8.33545 1.94358 8.00949L2.64127 5.86223C2.68863 5.71646 2.63675 5.55677 2.51275 5.46667L0.686176 4.13959C0.408901 3.93814 0.551402 3.49957 0.894132 3.49957H3.1519C3.30517 3.49957 3.44101 3.40088 3.48838 3.2551L4.18606 1.10784Z" fill="url(#paint0_linear_0_1)"/>
</g>
</g>
</g>
</g>
<defs>
<filter id="filter0_d_0_1" x="-587" y="-304" width="1076" height="409" filterUnits="userSpaceOnUse" color-interpolation-filters="sRGB">
<feFlood flood-opacity="0" result="BackgroundImageFix"/>
<feColorMatrix in="SourceAlpha" type="matrix" values="0 0 0 0 0 0 0 0 0 0 0 0 0 0 0 0 0 0 127 0" result="hardAlpha"/>
<feOffset dy="1"/>
<feGaussianBlur stdDeviation="1"/>
<feColorMatrix type="matrix" values="0 0 0 0 0.219608 0 0 0 0 0.254902 0 0 0 0 0.290196 0 0 0 0.14902 0"/>
<feBlend mode="normal" in2="BackgroundImageFix" result="effect1_dropShadow_0_1"/>
<feBlend mode="normal" in="SourceGraphic" in2="effect1_dropShadow_0_1" result="shape"/>
</filter>
<linearGradient id="paint0_linear_0_1" x1="9.48259" y1="5.0323" x2="-0.4375" y2="5.0323" gradientUnits="userSpaceOnUse">
<stop stop-color="#FECC1F"/>
<stop offset="1" stop-color="#FFF500"/>
</linearGradient>
<clipPath id="clip0_0_1">
<rect width="1920" height="1411" fill="white" transform="translate(-861 -1159)"/>
</clipPath>
</defs>
</svg>
