<svg width="9" height="9" viewBox="0 0 9 9" fill="none" xmlns="http://www.w3.org/2000/svg">
<rect width="9" height="9" fill="#F5F5F5"/>
<g id="Products - Create Product" clip-path="url(#clip0_0_1)">
<rect width="1920" height="1411" transform="translate(-974 -1159)" fill="#F3F3F9"/>
<g id="Group 18749">
<g id="Tags">
<g id="card bg" filter="url(#filter0_d_0_1)">
<rect x="-698" y="-303" width="1072" height="405" rx="4" fill="white"/>
</g>
</g>
<g id="Group 18709">
<rect id="Rectangle 5468" x="-698" y="-6.46094" width="1072" height="21.055" fill="#4DAFE6" fill-opacity="0.05"/>
<g id="Group 18421">
<path id="Star 7" d="M3.68606 1.10784C3.79197 0.781887 4.25311 0.781887 4.35902 1.10784L5.05671 3.2551C5.10407 3.40088 5.23992 3.49957 5.39319 3.49957H7.65095C7.99368 3.49957 8.13618 3.93814 7.85891 4.13959L6.03234 5.46667C5.90834 5.55677 5.85645 5.71646 5.90382 5.86223L6.6015 8.00949C6.70741 8.33545 6.33434 8.6065 6.05707 8.40505L4.2305 7.07797C4.1065 6.98787 3.93859 6.98787 3.81459 7.07797L1.98802 8.40505C1.71074 8.6065 1.33767 8.33545 1.44358 8.00949L2.14127 5.86223C2.18863 5.71646 2.13675 5.55677 2.01275 5.46667L0.186176 4.13959C-0.0910985 3.93814 0.051402 3.49957 0.394132 3.49957H2.6519C2.80517 3.49957 2.94101 3.40088 2.98838 3.2551L3.68606 1.10784Z" fill="#FF6868"/>
</g>
</g>
</g>
</g>
<defs>
<filter id="filter0_d_0_1" x="-700" y="-304" width="1076" height="409" filterUnits="userSpaceOnUse" color-interpolation-filters="sRGB">
<feFlood flood-opacity="0" result="BackgroundImageFix"/>
<feColorMatrix in="SourceAlpha" type="matrix" values="0 0 0 0 0 0 0 0 0 0 0 0 0 0 0 0 0 0 127 0" result="hardAlpha"/>
<feOffset dy="1"/>
<feGaussianBlur stdDeviation="1"/>
<feColorMatrix type="matrix" values="0 0 0 0 0.219608 0 0 0 0 0.254902 0 0 0 0 0.290196 0 0 0 0.14902 0"/>
<feBlend mode="normal" in2="BackgroundImageFix" result="effect1_dropShadow_0_1"/>
<feBlend mode="normal" in="SourceGraphic" in2="effect1_dropShadow_0_1" result="shape"/>
</filter>
<clipPath id="clip0_0_1">
<rect width="1920" height="1411" fill="white" transform="translate(-974 -1159)"/>
</clipPath>
</defs>
</svg>
