<svg width="22" height="22" viewBox="0 0 22 22" fill="none" xmlns="http://www.w3.org/2000/svg">
<circle cx="11" cy="11" r="11" fill="url(#paint0_linear_203_10911)"/>
<g clip-path="url(#clip0_203_10911)">
<path d="M15.1323 10.1703H11.9898V6.9429C11.9898 6.48075 11.6121 6.10645 11.1459 6.10645C10.6796 6.10645 10.302 6.48075 10.302 6.9429V10.1703H6.94943C6.48702 10.1703 6.10938 10.5446 6.10938 11.0068C6.10938 11.4689 6.48702 11.8433 6.95329 11.8433H10.3058V15.0516C10.3058 15.5137 10.6835 15.888 11.1497 15.888C11.616 15.888 11.9936 15.5137 11.9936 15.0516V11.8433H15.1361C15.6024 11.8433 15.9801 11.4689 15.9801 11.0068C15.9743 10.5446 15.5986 10.1703 15.1323 10.1703Z" fill="#FCFCFC"/>
<path d="M15.1323 10.1703H11.9898V6.9429C11.9898 6.48075 11.6121 6.10645 11.1459 6.10645C10.6796 6.10645 10.302 6.48075 10.302 6.9429V10.1703H6.94943C6.48702 10.1703 6.10938 10.5446 6.10938 11.0068C6.10938 11.4689 6.48702 11.8433 6.95329 11.8433H10.3058V15.0516C10.3058 15.5137 10.6835 15.888 11.1497 15.888C11.616 15.888 11.9936 15.5137 11.9936 15.0516V11.8433H15.1361C15.6024 11.8433 15.9801 11.4689 15.9801 11.0068C15.9743 10.5446 15.5986 10.1703 15.1323 10.1703Z" fill="#FCFCFC"/>
</g>
<defs>
<linearGradient id="paint0_linear_203_10911" x1="11" y1="0" x2="11" y2="22" gradientUnits="userSpaceOnUse">
<stop stop-color="#2F4C8F"/>
<stop offset="1" stop-color="#2581BF"/>
</linearGradient>
<clipPath id="clip0_203_10911">
<rect width="9.8649" height="9.77778" fill="white" transform="translate(6.10938 6.11035)"/>
</clipPath>
</defs>
</svg>
