<svg width="11" height="11" viewBox="0 0 11 11" fill="none" xmlns="http://www.w3.org/2000/svg">
<path d="M9.27148 4.15625H6.08594V0.855469C6.08594 0.382812 5.70312 0 5.23047 0C4.75781 0 4.375 0.382812 4.375 0.855469V4.15625H0.976562C0.507812 4.15625 0.125 4.53906 0.125 5.01172C0.125 5.48438 0.507812 5.86719 0.980469 5.86719H4.37891V9.14844C4.37891 9.62109 4.76172 10.0039 5.23438 10.0039C5.70703 10.0039 6.08984 9.62109 6.08984 9.14844V5.86719H9.27539C9.74805 5.86719 10.1309 5.48438 10.1309 5.01172C10.125 4.53906 9.74414 4.15625 9.27148 4.15625Z" fill="#FCFCFC"/>
</svg>
