<svg width="15" height="14" viewBox="0 0 15 14" fill="none" xmlns="http://www.w3.org/2000/svg">
<path id="Star 7" d="M6.77447 1.33853C6.92415 0.877871 7.57585 0.87787 7.72553 1.33853L8.98998 5.23012C9.05692 5.43613 9.2489 5.57561 9.46551 5.57561H13.5574C14.0417 5.57561 14.2431 6.19542 13.8513 6.48012L10.5409 8.88525C10.3656 9.01258 10.2923 9.23826 10.3592 9.44427L11.6237 13.3359C11.7734 13.7965 11.2461 14.1796 10.8543 13.8949L7.54389 11.4897C7.36865 11.3624 7.13135 11.3624 6.95611 11.4897L3.64572 13.8949C3.25386 14.1796 2.72662 13.7965 2.8763 13.3359L4.14075 9.44427C4.20769 9.23826 4.13436 9.01258 3.95912 8.88525L0.648733 6.48012C0.256877 6.19542 0.458264 5.57561 0.942625 5.57561H5.03449C5.2511 5.57561 5.44308 5.43613 5.51002 5.23012L6.77447 1.33853Z" fill="#094C89"/>
</svg>
