<svg width="19" height="22" viewBox="0 0 19 22" fill="none" xmlns="http://www.w3.org/2000/svg">
<path d="M6.46467 10.2997C8.16971 10.2997 9.8753 10.2972 11.5803 10.3034C11.7302 10.3034 11.8021 10.2687 11.8544 10.0921C12.215 8.87485 13.1999 8.07227 14.3101 8.07227C15.4224 8.07227 16.4002 8.87113 16.7647 10.0927C16.8126 10.2526 16.8709 10.3084 17.0191 10.3034C17.4058 10.291 17.7937 10.2972 18.1804 10.2997C18.5808 10.3028 18.8717 10.612 18.8761 11.0328C18.8799 11.463 18.5863 11.7803 18.175 11.7834C17.7948 11.7859 17.414 11.7933 17.0338 11.7797C16.8791 11.7741 16.8131 11.8255 16.7625 11.9966C16.3861 13.2565 15.3679 14.0504 14.2022 14.0089C13.1476 13.9717 12.1975 13.1617 11.8522 11.9854C11.8031 11.8187 11.7367 11.7809 11.5945 11.7809C8.19749 11.7852 4.80048 11.784 1.40346 11.7834C1.30868 11.7834 1.21117 11.7871 1.11965 11.7642C0.790627 11.6824 0.57164 11.3291 0.609772 10.9566C0.647904 10.5829 0.919186 10.3034 1.26673 10.3015C2.10237 10.2966 2.938 10.2997 3.77364 10.2997C4.67028 10.2997 5.56748 10.2997 6.46412 10.2997H6.46467ZM14.3024 12.5265C15.0226 12.5302 15.6131 11.8621 15.6142 11.044C15.6147 10.2334 15.0367 9.56588 14.3269 9.55783C13.6052 9.54915 13.0108 10.211 13.0054 11.0285C13.0005 11.8484 13.5845 12.5234 14.303 12.5271L14.3024 12.5265Z" fill="white"/>
<path d="M13.0447 4.36017C11.326 4.36017 9.60682 4.36203 7.88816 4.35707C7.74707 4.35707 7.67898 4.39301 7.62941 4.56035C7.26498 5.79119 6.2779 6.59377 5.15845 6.58757C4.05045 6.58138 3.07155 5.77321 2.71147 4.55229C2.66626 4.39797 2.60742 4.35273 2.46906 4.35645C2.08229 4.3676 1.69444 4.36264 1.30767 4.35955C0.895844 4.35707 0.602227 4.04037 0.605496 3.61026C0.608764 3.18758 0.898023 2.87957 1.2995 2.87647C1.70043 2.87337 2.10136 2.87151 2.50174 2.87833C2.61505 2.88018 2.66244 2.84114 2.70058 2.71347C3.07917 1.45412 4.04718 0.649058 5.17044 0.648438C6.29642 0.647818 7.26552 1.44793 7.6403 2.70975C7.69369 2.88948 7.78466 2.87585 7.8996 2.87585C11.2966 2.87585 14.6936 2.87585 18.0906 2.87585C18.1789 2.87585 18.2688 2.87213 18.3543 2.89196C18.6746 2.96633 18.8963 3.30472 18.8734 3.67038C18.85 4.04471 18.5809 4.34963 18.2415 4.35645C17.7186 4.36636 17.1951 4.35955 16.6721 4.36017C15.4628 4.36017 14.2535 4.36017 13.0441 4.36017H13.0447ZM5.1748 5.10202C5.89386 5.10078 6.48055 4.42896 6.47728 3.60902C6.47401 2.79962 5.89168 2.1371 5.18079 2.13276C4.46009 2.12904 3.86959 2.79466 3.8685 3.61398C3.86741 4.43268 4.45574 5.10325 5.1748 5.10202Z" fill="white"/>
<path d="M13.0245 19.211C11.3124 19.211 9.60029 19.2129 7.88816 19.2079C7.74707 19.2079 7.67898 19.2432 7.62941 19.4106C7.26498 20.6414 6.2779 21.444 5.15845 21.4378C4.05045 21.4316 3.07155 20.6234 2.71147 19.4025C2.66626 19.2488 2.60797 19.2023 2.46906 19.2067C2.08229 19.2178 1.69444 19.2129 1.30767 19.2098C0.896388 19.2067 0.602227 18.8906 0.605496 18.4605C0.608764 18.0378 0.898023 17.7292 1.29895 17.7261C1.69988 17.723 2.10081 17.7211 2.5012 17.7279C2.61451 17.7298 2.6619 17.6914 2.70058 17.5637C3.07863 16.3044 4.04663 15.4993 5.16989 15.498C6.29588 15.4968 7.26552 16.2975 7.63976 17.5594C7.69314 17.7391 7.78411 17.7255 7.89906 17.7255C11.2961 17.7255 14.6931 17.7255 18.0901 17.7255C18.1783 17.7255 18.2682 17.7217 18.3538 17.7416C18.6741 17.8159 18.8958 18.1543 18.8734 18.52C18.85 18.8943 18.5809 19.1992 18.2421 19.2061C17.7393 19.216 17.2365 19.2092 16.7337 19.2098C15.4971 19.2098 14.2606 19.2098 13.024 19.2098L13.0245 19.211ZM5.16663 16.9842C4.44757 16.9873 3.8636 17.6604 3.86796 18.4809C3.87232 19.2885 4.45737 19.951 5.16772 19.9535C5.88786 19.956 6.47728 19.2866 6.47673 18.4679C6.47673 17.6486 5.88732 16.9817 5.16663 16.9842Z" fill="white"/>
</svg>
