<svg width="30" height="29" viewBox="0 0 30 29" fill="none" xmlns="http://www.w3.org/2000/svg">
<path fill-rule="evenodd" clip-rule="evenodd" d="M5.83191 9.66797H25.1652V25.3763C25.1652 26.0436 24.6243 26.5846 23.9569 26.5846H7.04024C6.3729 26.5846 5.83191 26.0436 5.83191 25.3763V9.66797ZM9.45573 6.04297V3.6263C9.45573 2.95896 9.99672 2.41797 10.6641 2.41797H20.3307C20.9981 2.41797 21.5391 2.95896 21.5391 3.6263V6.04297H27.5807V8.45964H3.41406V6.04297H9.45573ZM11.8712 4.83582V6.04415H19.1212V4.83582H11.8712ZM11.8712 14.5001V21.7501H14.2879V14.5001H11.8712ZM16.7069 14.5001V21.7501H19.1236V14.5001H16.7069Z" fill="#F06548"/>
</svg>
