<svg width="24" height="24" viewBox="0 0 24 24" fill="none" xmlns="http://www.w3.org/2000/svg">
<path fill-rule="evenodd" clip-rule="evenodd" d="M12 22C6.477 22 2 17.523 2 12C2 6.477 6.477 2 12 2C17.523 2 22 6.477 22 12C22 17.523 17.523 22 12 22ZM8.5 14V16H11V18H13V16H14C15.3807 16 16.5 14.8807 16.5 13.5C16.5 12.1193 15.3807 11 14 11H10C9.82137 11 9.6563 10.9047 9.56699 10.75C9.47767 10.5953 9.47767 10.4047 9.56699 10.25C9.6563 10.0953 9.82137 10 10 10H15.5V8H13V6H11V8H10C8.61929 8 7.5 9.11928 7.5 10.5C7.5 11.8807 8.61928 13 9.99999 13H14C14.1786 13 14.3437 13.0953 14.433 13.25C14.5223 13.4047 14.5223 13.5953 14.433 13.75C14.3437 13.9047 14.1786 14 14 14H8.5Z" fill="url(#paint0_linear_364_7077)"/>
<defs>
<linearGradient id="paint0_linear_364_7077" x1="13.0526" y1="34.2222" x2="5.05647" y2="3.21258" gradientUnits="userSpaceOnUse">
<stop offset="0.0335215" stop-color="#094C89"/>
<stop offset="1" stop-color="#019EF7"/>
</linearGradient>
</defs>
</svg>
