<svg width="26" height="26" viewBox="0 0 26 26" fill="none" xmlns="http://www.w3.org/2000/svg">
<path d="M13.4397 25.9367C13.8104 25.8555 14.2116 25.6321 14.5214 25.3223C15.1612 24.6824 15.3288 23.7684 14.9581 22.8848C14.8565 22.641 14.3335 22.0977 10.0425 17.8016L5.23856 12.9875L10.0425 8.17346C14.3335 3.87736 14.8565 3.334 14.9581 3.09025C15.3288 2.20666 15.1612 1.2926 14.5214 0.652754C14.0034 0.139864 13.3331 -0.0835738 12.6475 0.028145C11.9163 0.15002 12.2667 -0.169902 6.0409 6.0508C0.957696 11.1289 0.32801 11.7738 0.211212 12.0328C-0.0630064 12.6371 -0.073163 13.2821 0.1909 13.9067C0.292462 14.1504 0.891681 14.7699 5.94442 19.8328C9.04715 22.9406 11.6878 25.5508 11.8147 25.6321C11.9417 25.7133 12.1499 25.8149 12.2718 25.8606C12.5561 25.9621 13.1401 25.9977 13.4397 25.9367Z" fill="black"/>
<path d="M24.2047 24.8711C24.5754 24.7898 24.9715 24.5664 25.2863 24.2566C25.9871 23.5559 26.1699 22.4691 25.7332 21.5449C25.5656 21.1793 25.7434 21.3773 21.5945 17.0102L18.2988 13.5367L18.6797 13.1508C19.0758 12.7445 24.352 7.17383 25.134 6.34102C25.652 5.78242 25.8551 5.4168 25.9414 4.85312C26.1496 3.4668 25.1086 2.17188 23.7731 2.17187C23.2957 2.17187 22.7574 2.375 22.3918 2.69492C22.2039 2.85742 14.0078 11.4852 13.5965 11.9473C12.9617 12.6734 12.8145 13.7246 13.2359 14.598C13.4137 14.9687 13.2461 14.791 18.2074 20.0164C20.8074 22.7535 22.4578 24.4547 22.6152 24.5562C22.7524 24.6426 22.9606 24.7492 23.0723 24.7898C23.3516 24.8863 23.9203 24.927 24.2047 24.8711Z" fill="black"/>
</svg>
