<svg width="26" height="25" viewBox="0 0 26 25" fill="none" xmlns="http://www.w3.org/2000/svg">
<g clip-path="url(#clip0_360_9285)">
<path d="M25.6289 6.36153C25.6289 6.08363 25.4717 5.82957 25.223 5.70578L14.3259 0.279951C13.5764 -0.093317 12.6814 -0.093317 11.9318 0.279951L1.03479 5.70578C0.786072 5.82957 0.628906 6.08363 0.628906 6.36153V6.36305V18.0322C0.628906 18.6849 0.991874 19.2712 1.57609 19.5621L11.9318 24.7184C12.3019 24.9027 12.7158 24.9999 13.1289 24.9999C13.542 24.9999 13.9559 24.9027 14.3259 24.7184L24.6815 19.5621C25.2659 19.2712 25.6289 18.6849 25.6289 18.0322V6.36286C25.6289 6.36248 25.6289 6.36191 25.6289 6.36153ZM12.5847 1.59125C12.9256 1.4215 13.3322 1.4215 13.6731 1.59125L23.2533 6.36153L13.6729 11.1316C13.3322 11.3014 12.9256 11.3014 12.5847 11.1316L3.00451 6.36153L12.5847 1.59125ZM2.22898 18.2508C2.14563 18.2092 2.09375 18.1255 2.09375 18.0322V7.5458L2.40808 7.70087L11.9318 12.4429C12.0781 12.5158 12.23 12.5739 12.3852 12.6184L12.3965 12.6239V23.3133L2.22898 18.2508ZM24.164 18.0322C24.164 18.1255 24.1122 18.2092 24.0288 18.2508L13.8613 23.3133V12.6239L13.8728 12.6182C14.028 12.5739 14.1797 12.5158 14.3259 12.4429L23.8497 7.70087L24.164 7.54599V18.0322Z" fill="#094C89"/>
</g>
<defs>
<clipPath id="clip0_360_9285">
<rect width="25" height="25" fill="white" transform="translate(0.628906)"/>
</clipPath>
</defs>
</svg>
