<svg width="23" height="23" viewBox="0 0 23 23" fill="none" xmlns="http://www.w3.org/2000/svg">
<path d="M21.4039 0.740234C21.7171 0.857785 21.9896 1.02996 22.1192 1.34936C22.2957 1.78394 22.2117 2.17221 21.8852 2.51893C21.1578 3.29073 20.4376 4.06846 19.715 4.84501C17.7825 6.91936 15.8513 8.99371 13.9152 11.0657C13.6091 11.3934 13.4615 11.7651 13.4639 12.2139C13.4711 14.1446 13.4603 16.0752 13.4723 18.0059C13.4747 18.4773 13.3366 18.8691 13.0233 19.2218C12.0511 20.3154 11.0884 21.4185 10.121 22.5168C9.91215 22.7531 9.65769 22.8599 9.34441 22.7531C9.04193 22.6498 8.90149 22.423 8.87749 22.1166C8.87149 22.0383 8.87269 21.9587 8.87269 21.8803C8.87269 18.6649 8.86909 15.4495 8.87629 12.2341C8.87629 11.7781 8.73825 11.3993 8.42497 11.0633C5.81071 8.26466 3.21805 5.44463 0.577385 2.66973C-0.100787 1.9573 0.0552523 1.02877 0.936276 0.740234H21.4051H21.4039Z" fill="white"/>
</svg>
