<svg width="15" height="14" viewBox="0 0 15 14" fill="none" xmlns="http://www.w3.org/2000/svg">
<path d="M7.30182 0.776026C7.45149 0.315371 8.1032 0.31537 8.25287 0.776025L9.51733 4.66762C9.58426 4.87363 9.77624 5.01311 9.99286 5.01311H14.0847C14.5691 5.01311 14.7705 5.63292 14.3786 5.91762L11.0682 8.32275C10.893 8.45008 10.8197 8.67576 10.8866 8.88177L12.151 12.7734C12.3007 13.234 11.7735 13.6171 11.3816 13.3324L8.07124 10.9272C7.89599 10.7999 7.6587 10.7999 7.48345 10.9272L4.17307 13.3324C3.78121 13.6171 3.25397 13.234 3.40364 12.7734L4.6681 8.88177C4.73504 8.67576 4.66171 8.45008 4.48646 8.32275L1.17608 5.91762C0.78422 5.63292 0.985607 5.01311 1.46997 5.01311H5.56183C5.77845 5.01311 5.97042 4.87363 6.03736 4.66762L7.30182 0.776026Z" fill="#FAD75E"/>
</svg>
