<svg width="27" height="23" viewBox="0 0 27 23" fill="none" xmlns="http://www.w3.org/2000/svg">
<rect width="27" height="23" fill="#F5F5F5"/>
<g id="Products/ All" clip-path="url(#clip0_0_1)">
<rect width="1920" height="1636" transform="translate(-1385 -588)" fill="white"/>
<rect id="Rectangle 5495" x="-1133" y="-588" width="1668" height="1636" fill="#F3F3F9"/>
<g id="Rectangle 5487" filter="url(#filter0_d_0_1)">
<rect x="-1096" y="-395" width="1588" height="1335" rx="8" fill="white"/>
<rect x="-1095.5" y="-394.5" width="1587" height="1334" rx="7.5" stroke="#E9EBEC"/>
</g>
<rect id="Rectangle 5510" x="-1093" y="-50" width="1585" height="474" rx="12" stroke="#0088D4" stroke-width="2"/>
<g id="button">
<rect id="bg" x="-1096" y="-48.9844" width="1590" height="118.967" fill="#72CDFF" fill-opacity="0.05"/>
<g id="Rectangle 295" filter="url(#filter1_d_0_1)">
<rect x="-1095" y="-51" width="1588" height="123" fill="#D8FDFF"/>
</g>
</g>
<g id="Group 18786">
<g id="Group 18783">
<rect id="bg_2" x="-9.37109" y="-6" width="110" height="34" rx="4" fill="#299CDB" fill-opacity="0.101961"/>
</g>
<g id="Group">
<path id="Vector" d="M5.72652 2.15806C3.15504 3.33619 1.03668 4.33873 1.00836 4.37837C0.9857 4.41236 0.980036 4.49732 0.997028 4.55962C1.01402 4.62193 1.70504 5.35259 2.53199 6.17955L4.03863 7.69185L2.3564 9.03423C0.67984 10.3766 0.521247 10.5409 0.674176 10.7278C0.713825 10.7731 2.76422 11.8549 5.23941 13.135C9.1023 15.1401 9.748 15.4573 9.86695 15.412C9.93492 15.3836 10.8072 14.6926 11.7984 13.8827C12.7953 13.067 13.6279 12.4044 13.6562 12.4044C13.6789 12.4044 14.5455 13.0954 15.582 13.9336C17.1056 15.1854 17.4795 15.4629 17.5757 15.429C17.8873 15.3383 26.5759 10.7958 26.6269 10.6938C26.6552 10.6372 26.6666 10.5409 26.6496 10.4842C26.6326 10.4219 25.8623 9.77056 24.9447 9.03423L23.2681 7.68619L24.8031 6.15123C25.647 5.30162 26.338 4.58228 26.338 4.5483C26.338 4.37837 26.0152 4.19146 24.6105 3.54576C23.7722 3.1606 21.6878 2.20904 19.983 1.42173C18.2837 0.640093 16.8451 5.34058e-05 16.7884 5.34058e-05C16.7318 5.34058e-05 16.0238 0.657085 15.1685 1.51236L13.6505 3.03033L12.1326 1.51236C11.1527 0.538139 10.575 5.34058e-05 10.507 5.34058e-05C10.4447 0.00571823 8.29234 0.974273 5.72652 2.15806ZM17.8703 5.75474C20.1472 6.79693 22.0277 7.67486 22.0503 7.69751C22.073 7.72017 20.1982 8.61509 17.8759 9.67994L13.6562 11.6227L9.43082 9.67994C7.10855 8.61509 5.22808 7.72017 5.25074 7.69751C5.33004 7.62388 13.5656 3.85162 13.6505 3.85162C13.7015 3.85162 15.599 4.70689 17.8703 5.75474Z" fill="url(#paint0_linear_0_1)"/>
<path id="Vector_2" d="M4.19141 15.9172V18.5227L4.32168 18.602C4.53125 18.7379 13.3162 22.7821 13.3445 22.7538C13.3559 22.7424 13.3615 20.6411 13.3559 18.0866L13.3389 13.4364L11.8945 14.6258C11.1016 15.2829 10.3539 15.8663 10.2293 15.9286C9.73652 16.1778 9.74785 16.1834 6.86484 14.6768C5.42617 13.9291 4.23105 13.3118 4.21973 13.3118C4.20273 13.3118 4.19141 14.4842 4.19141 15.9172Z" fill="url(#paint1_linear_0_1)"/>
<path id="Vector_3" d="M20.4189 14.6822C18.1023 15.9 17.7852 16.0473 17.5529 16.0473C17.4113 16.0473 17.2187 16.002 17.1281 15.9566C17.0375 15.9057 16.3012 15.3166 15.4912 14.6482C14.6812 13.9742 14.0016 13.4248 13.9789 13.4248C13.9506 13.4248 13.9336 15.5318 13.9336 18.1033C13.9336 21.8246 13.9506 22.7762 14.0072 22.7535C14.0582 22.7309 18.5725 20.6465 22.7582 18.7094C22.9168 18.6301 23.0811 18.5225 23.1094 18.4658C23.2 18.2959 23.183 13.3115 23.098 13.3172C23.0584 13.3172 21.852 13.9346 20.4189 14.6822Z" fill="url(#paint2_linear_0_1)"/>
</g>
</g>
</g>
<defs>
<filter id="filter0_d_0_1" x="-1109" y="-401" width="1614" height="1361" filterUnits="userSpaceOnUse" color-interpolation-filters="sRGB">
<feFlood flood-opacity="0" result="BackgroundImageFix"/>
<feColorMatrix in="SourceAlpha" type="matrix" values="0 0 0 0 0 0 0 0 0 0 0 0 0 0 0 0 0 0 127 0" result="hardAlpha"/>
<feOffset dy="7"/>
<feGaussianBlur stdDeviation="6.5"/>
<feComposite in2="hardAlpha" operator="out"/>
<feColorMatrix type="matrix" values="0 0 0 0 0 0 0 0 0 0 0 0 0 0 0 0 0 0 0.19 0"/>
<feBlend mode="normal" in2="BackgroundImageFix" result="effect1_dropShadow_0_1"/>
<feBlend mode="normal" in="SourceGraphic" in2="effect1_dropShadow_0_1" result="shape"/>
</filter>
<filter id="filter1_d_0_1" x="-1123.94" y="-65.971" width="1645.89" height="180.888" filterUnits="userSpaceOnUse" color-interpolation-filters="sRGB">
<feFlood flood-opacity="0" result="BackgroundImageFix"/>
<feColorMatrix in="SourceAlpha" type="matrix" values="0 0 0 0 0 0 0 0 0 0 0 0 0 0 0 0 0 0 127 0" result="hardAlpha"/>
<feMorphology radius="1.99613" operator="erode" in="SourceAlpha" result="effect1_dropShadow_0_1"/>
<feOffset dy="13.9729"/>
<feGaussianBlur stdDeviation="15.47"/>
<feComposite in2="hardAlpha" operator="out"/>
<feColorMatrix type="matrix" values="0 0 0 0 0.00333333 0 0 0 0 0.3524 0 0 0 0 0.4 0 0 0 0.17 0"/>
<feBlend mode="normal" in2="BackgroundImageFix" result="effect1_dropShadow_0_1"/>
<feBlend mode="normal" in="SourceGraphic" in2="effect1_dropShadow_0_1" result="shape"/>
</filter>
<linearGradient id="paint0_linear_0_1" x1="9.34334" y1="26.0582" x2="19.4469" y2="2.48786" gradientUnits="userSpaceOnUse">
<stop stop-color="#307CB8"/>
<stop offset="0.712463" stop-color="#0F3576"/>
</linearGradient>
<linearGradient id="paint1_linear_0_1" x1="7.26043" y1="29.256" x2="15.4387" y2="18.2747" gradientUnits="userSpaceOnUse">
<stop stop-color="#307CB8"/>
<stop offset="0.712463" stop-color="#0F3576"/>
</linearGradient>
<linearGradient id="paint2_linear_0_1" x1="17.026" y1="29.2522" x2="25.1802" y2="18.2136" gradientUnits="userSpaceOnUse">
<stop stop-color="#307CB8"/>
<stop offset="0.712463" stop-color="#0F3576"/>
</linearGradient>
<clipPath id="clip0_0_1">
<rect width="1920" height="1636" fill="white" transform="translate(-1385 -588)"/>
</clipPath>
</defs>
</svg>
