<svg width="33" height="33" viewBox="0 0 33 33" fill="none" xmlns="http://www.w3.org/2000/svg">
<rect width="33" height="33" rx="4" fill="#094C89"/>
<path fill-rule="evenodd" clip-rule="evenodd" d="M11.8833 21.2514C12.2185 20.3014 13.1163 19.6661 14.1237 19.6661C15.1311 19.6661 16.0289 20.3014 16.3641 21.2514L24.4154 21.2514V22.8347H16.3641C16.0289 23.7847 15.1311 24.42 14.1237 24.42C13.1163 24.42 12.2185 23.7847 11.8833 22.8347L8.58203 22.8347V21.2514H11.8833ZM16.6333 15.7082C16.9685 14.7582 17.8663 14.1229 18.8737 14.1229C19.8811 14.1229 20.7789 14.7582 21.1141 15.7082H24.4154V17.2915H21.1141C20.7789 18.2415 19.8811 18.8768 18.8737 18.8768C17.8663 18.8768 16.9685 18.2415 16.6333 17.2915H8.58203V15.7082H16.6333ZM11.8833 10.1673C12.2185 9.21734 13.1163 8.58203 14.1237 8.58203C15.1311 8.58203 16.0289 9.21734 16.3641 10.1673L24.4154 10.1673V11.7506H16.3641C16.0289 12.7006 15.1311 13.3359 14.1237 13.3359C13.1163 13.3359 12.2185 12.7006 11.8833 11.7506L8.58203 11.7506V10.1673H11.8833Z" fill="white"/>
</svg>
