<svg width="28" height="29" viewBox="0 0 28 29" fill="none" xmlns="http://www.w3.org/2000/svg">
<g clip-path="url(#clip0_556_18814)">
<path d="M21.6918 23.1775C21.9565 23.223 22.1785 23.2458 22.3919 23.297C23.8035 23.6412 24.7029 24.9128 24.5634 26.358C24.4183 27.8601 23.3425 28.8956 21.8256 28.9951C21.7345 29.0008 21.6434 29.0008 21.5552 29.0008C16.4893 29.0008 11.4234 29.0008 6.3547 29.0008C4.90039 29.0008 3.74776 28.1104 3.4347 26.7364C3.37209 26.4547 3.35502 26.1589 3.35502 25.8687C3.34932 23.0182 3.35217 20.1705 3.35217 17.32V16.9189C3.04765 16.9189 2.7602 16.9189 2.47276 16.9189C1.30305 16.9104 0.466325 16.0996 0.460633 14.9304C0.449249 12.555 0.452095 10.1796 0.460633 7.80131C0.466325 6.61787 1.3002 5.80141 2.48983 5.80141C5.91641 5.80141 9.34584 5.80141 12.7724 5.80141C12.892 5.80141 13.0115 5.80141 13.1282 5.80141C13.2477 5.4202 13.3445 5.05322 13.4782 4.69762C14.554 1.81298 17.4029 -0.104421 20.4339 0.00652657C24.6744 0.157302 27.7708 3.6365 27.4236 7.85536C27.1618 11.033 25.1497 13.434 22.0418 14.259C21.7715 14.3301 21.6804 14.4269 21.6804 14.717C21.6946 17.4253 21.6889 20.1336 21.6889 22.8418V23.1775H21.6918ZM4.19458 6.77718C4.23727 7.29778 4.31127 7.80415 4.31127 8.30768C4.31981 14.1481 4.31696 19.9885 4.31981 25.826C4.31981 26.0451 4.32835 26.2698 4.36819 26.486C4.52757 27.3821 5.37852 28.0592 6.29493 28.0308C7.27965 28.0023 8.0253 27.3224 8.15337 26.3438C8.27859 25.3879 7.70939 24.5003 6.80437 24.2528C6.61368 24.1988 6.40877 24.1931 6.20955 24.1618C5.94772 24.122 5.76273 23.9143 5.76842 23.6697C5.77696 23.4222 5.96764 23.2259 6.23517 23.2031C6.33478 23.1946 6.43723 23.2003 6.53684 23.2003C11.1417 23.2003 15.7465 23.2003 20.3485 23.2003C20.4652 23.2003 20.5819 23.2003 20.7042 23.2003V14.4951C20.5961 14.4951 20.5079 14.4951 20.4196 14.4951C18.8515 14.5293 17.4313 14.0798 16.1336 13.2093C15.9941 13.1154 15.8063 13.0557 15.6383 13.0557C13.5579 13.0443 11.4775 13.05 9.39423 13.05C9.30315 13.05 9.21208 13.0557 9.12386 13.0471C8.85918 13.0215 8.6685 12.8224 8.6628 12.5749C8.65711 12.3189 8.85918 12.1083 9.13809 12.0856C9.21777 12.0799 9.29746 12.0856 9.38 12.0856C11.0791 12.0856 12.7781 12.0856 14.4772 12.0856H14.7789C14.426 11.5195 14.0674 10.979 13.7486 10.4157C13.6405 10.2251 13.5465 10.1454 13.3217 10.1454C11.9642 10.1568 10.6066 10.1511 9.24908 10.1511C8.88195 10.1511 8.67988 9.98043 8.67134 9.67888C8.66565 9.36595 8.87341 9.18957 9.25762 9.18673C9.63044 9.18673 10.0004 9.18673 10.3733 9.18673C11.3267 9.18673 12.2801 9.18673 13.205 9.18673C13.1196 8.37596 13.0371 7.5851 12.9546 6.78002H4.19458V6.77718ZM26.4987 6.74019C26.3137 4.94512 25.551 3.4772 24.1621 2.3535C23.1717 1.55126 22.039 1.09324 20.7441 1.00506C20.7014 1.40333 20.8266 1.9097 20.2659 1.91824C19.6654 1.92962 19.7935 1.39479 19.7451 1.02497C16.6857 1.15299 14.0901 3.93521 14.0446 6.74304C14.7817 6.83407 14.9525 6.92226 14.9297 7.25226C14.887 7.84398 14.4032 7.70458 14.0417 7.74441C14.1157 10.6746 16.791 13.3714 19.7508 13.4739C19.7935 13.1183 19.6711 12.6147 20.2147 12.5834C20.8437 12.5465 20.69 13.1126 20.7498 13.4767C23.8291 13.343 26.4076 10.5608 26.4617 7.75295C25.7388 7.68183 25.5709 7.5851 25.5709 7.24657C25.5709 6.91657 25.7274 6.82838 26.5044 6.74019H26.4987ZM8.44935 24.1675C9.3743 25.4818 9.36292 26.7449 8.44935 28.0336C8.58596 28.0336 8.69411 28.0336 8.80226 28.0336C12.8037 28.0336 16.8052 28.0336 20.8067 28.0336C21.1283 28.0336 21.4499 28.0421 21.7715 28.0308C23.0066 27.9852 23.8804 26.7904 23.5531 25.5928C23.3169 24.7222 22.5684 24.1675 21.6206 24.1675C17.3175 24.1675 13.0143 24.1675 8.71119 24.1675H8.44935ZM3.32656 15.946C3.33794 15.8863 3.34648 15.8692 3.34648 15.8493C3.34648 13.141 3.34648 10.4328 3.34648 7.7245C3.34648 7.6932 3.34648 7.66476 3.34079 7.63346C3.30379 7.23519 3.05903 6.93648 2.67767 6.82554C1.98324 6.62356 1.41974 7.07873 1.41974 7.85536C1.41404 9.6163 1.41974 11.3801 1.41974 13.141C1.41974 13.7356 1.41404 14.3301 1.41974 14.9219C1.42827 15.4795 1.78118 15.9033 2.29061 15.9403C2.62929 15.9659 2.97081 15.946 3.32371 15.946H3.32656Z" fill="url(#paint0_linear_556_18814)"/>
<path d="M13.9883 14.9844C15.5565 14.9844 17.1246 14.9844 18.6928 14.9844C18.9318 14.9844 19.1339 15.0327 19.2363 15.2745C19.3644 15.5789 19.1794 15.9032 18.8493 15.9459C18.7696 15.9573 18.6899 15.9516 18.6074 15.9516C15.5223 15.9516 12.4372 15.9516 9.35218 15.9516C9.26111 15.9516 9.17004 15.9573 9.08181 15.9431C8.83421 15.9032 8.6663 15.7041 8.68053 15.4566C8.69476 15.2063 8.82567 15.0413 9.07612 14.9958C9.17289 14.9787 9.27534 14.9872 9.3778 14.9872C10.9146 14.9872 12.4543 14.9872 13.9912 14.9872L13.9883 14.9844Z" fill="url(#paint1_linear_556_18814)"/>
<path d="M13.9582 18.8488C12.4213 18.8488 10.8816 18.8488 9.34481 18.8488C9.2452 18.8488 9.13989 18.8573 9.04598 18.8345C8.80976 18.7805 8.68453 18.6155 8.68169 18.3794C8.67884 18.129 8.80407 17.9555 9.05167 17.8986C9.14843 17.8758 9.25089 17.8844 9.3505 17.8844C12.4356 17.8844 15.5206 17.8844 18.6057 17.8844C18.6854 17.8844 18.7679 17.8787 18.8476 17.8901C19.1123 17.9299 19.2603 18.0835 19.2688 18.3538C19.2773 18.6212 19.1094 18.8146 18.8419 18.8459C18.7537 18.8573 18.6626 18.8516 18.5715 18.8516C17.0347 18.8516 15.495 18.8516 13.9582 18.8516V18.8488Z" fill="url(#paint2_linear_556_18814)"/>
<path d="M13.9794 21.752C12.4113 21.752 10.8431 21.752 9.27499 21.752C8.9107 21.752 8.73709 21.6353 8.68586 21.3651C8.63179 21.0806 8.7997 20.8388 9.08146 20.7933C9.12984 20.7847 9.18107 20.7876 9.2323 20.7876C12.3885 20.7876 15.5447 20.7876 18.7009 20.7876C19.0453 20.7876 19.2331 20.9326 19.2644 21.2029C19.3043 21.5357 19.0937 21.752 18.7123 21.752C17.4857 21.7548 16.2591 21.752 15.0324 21.752C14.6795 21.752 14.3295 21.752 13.9766 21.752H13.9794Z" fill="url(#paint3_linear_556_18814)"/>
<path d="M6.73645 10.1475C6.56569 10.1475 6.39493 10.1588 6.22417 10.1475C5.9538 10.1275 5.78019 9.93409 5.77734 9.67237C5.77734 9.41065 5.9481 9.20582 6.21847 9.19444C6.55999 9.17737 6.90151 9.17737 7.24303 9.19444C7.51625 9.20582 7.68416 9.40211 7.68416 9.66953C7.68416 9.93694 7.5191 10.1275 7.24588 10.1503C7.07512 10.1645 6.90436 10.1503 6.7336 10.1503L6.73645 10.1475Z" fill="url(#paint4_linear_556_18814)"/>
<path d="M6.7282 13.0494C6.56883 13.0494 6.40661 13.058 6.24723 13.0494C5.95979 13.0295 5.77764 12.8332 5.78333 12.5601C5.78902 12.2984 5.96263 12.105 6.23585 12.0907C6.56598 12.0765 6.89896 12.0765 7.2291 12.0907C7.52224 12.1021 7.693 12.2984 7.69015 12.5772C7.68446 12.8446 7.51655 13.0267 7.24048 13.0466C7.06972 13.058 6.89896 13.0466 6.7282 13.0494Z" fill="url(#paint5_linear_556_18814)"/>
<path d="M6.73469 15.9452C6.56393 15.9452 6.39317 15.9566 6.22241 15.9452C5.95204 15.9225 5.77844 15.7262 5.78128 15.4645C5.78128 15.2027 5.95774 15.0036 6.22811 14.9922C6.56963 14.978 6.91115 14.9752 7.25267 14.9922C7.52588 15.0036 7.69095 15.2056 7.6881 15.4702C7.6881 15.7347 7.51734 15.9253 7.24413 15.9452C7.07337 15.9595 6.90261 15.9452 6.73185 15.9452H6.73469Z" fill="url(#paint6_linear_556_18814)"/>
<path d="M6.72883 17.8853C6.88821 17.8853 7.05043 17.8797 7.20981 17.8853C7.50579 17.9024 7.68224 18.0816 7.68509 18.3576C7.68793 18.6364 7.51433 18.8327 7.22119 18.844C6.89106 18.8554 6.55807 18.8583 6.22794 18.844C5.95472 18.8327 5.78112 18.6364 5.77542 18.3746C5.77258 18.1015 5.95472 17.9053 6.24217 17.8882C6.40154 17.8768 6.56377 17.8882 6.72314 17.8882L6.72883 17.8853Z" fill="url(#paint7_linear_556_18814)"/>
<path d="M6.729 21.7487C6.56962 21.7487 6.4074 21.7572 6.24803 21.7487C5.96058 21.7288 5.77844 21.5325 5.78128 21.2594C5.78697 20.9976 5.96058 20.8042 6.2338 20.79C6.56393 20.7757 6.89691 20.7757 7.22705 20.79C7.52019 20.8013 7.69095 20.9976 7.6881 21.2764C7.68241 21.5438 7.5145 21.7259 7.23843 21.7458C7.06767 21.7572 6.89692 21.7458 6.72616 21.7487H6.729Z" fill="url(#paint8_linear_556_18814)"/>
<path d="M20.7273 4.31849C20.7273 4.76228 20.7159 5.20607 20.7358 5.64701C20.7415 5.75796 20.8297 5.90589 20.9237 5.96279C21.5469 6.32977 21.823 7.00399 21.6323 7.69528C21.6067 7.792 21.6437 7.94846 21.712 8.01958C22.1047 8.43493 22.5174 8.8332 22.9216 9.24285C23.1834 9.50742 23.209 9.80043 22.9984 10.011C22.7793 10.2243 22.5117 10.1959 22.2357 9.91992C21.8429 9.53018 21.4502 9.14044 21.066 8.74501C20.9407 8.61699 20.8383 8.57432 20.6504 8.63122C19.9048 8.85027 19.2218 8.51174 18.9286 7.80338C18.6355 7.09502 18.8802 6.36959 19.5604 5.99692C19.717 5.91158 19.7682 5.82055 19.7682 5.64986C19.7596 4.81348 19.7653 3.97995 19.7653 3.14358C19.7653 3.05254 19.7596 2.96151 19.771 2.87332C19.808 2.59169 20.0243 2.40393 20.2805 2.421C20.5309 2.43807 20.7159 2.62582 20.7216 2.90177C20.7301 3.37401 20.7216 3.84909 20.7216 4.32133L20.7273 4.31849ZM20.2179 7.73226C20.4797 7.74079 20.7131 7.53028 20.7216 7.27709C20.7301 7.00399 20.5309 6.77356 20.2776 6.76787C20.0072 6.75933 19.7739 6.967 19.7682 7.21735C19.7625 7.47907 19.9759 7.72372 20.2179 7.73226Z" fill="url(#paint9_linear_556_18814)"/>
</g>
<defs>
<linearGradient id="paint0_linear_556_18814" x1="13.9517" y1="0.00195312" x2="13.9517" y2="29.0008" gradientUnits="userSpaceOnUse">
<stop stop-color="#2F4C8F"/>
<stop offset="1" stop-color="#2581BF"/>
</linearGradient>
<linearGradient id="paint1_linear_556_18814" x1="13.9784" y1="14.9844" x2="13.9784" y2="15.953" gradientUnits="userSpaceOnUse">
<stop stop-color="#2F4C8F"/>
<stop offset="1" stop-color="#2581BF"/>
</linearGradient>
<linearGradient id="paint2_linear_556_18814" x1="13.9754" y1="17.8828" x2="13.9754" y2="18.853" gradientUnits="userSpaceOnUse">
<stop stop-color="#2F4C8F"/>
<stop offset="1" stop-color="#2581BF"/>
</linearGradient>
<linearGradient id="paint3_linear_556_18814" x1="13.9725" y1="20.7871" x2="13.9725" y2="21.7532" gradientUnits="userSpaceOnUse">
<stop stop-color="#2F4C8F"/>
<stop offset="1" stop-color="#2581BF"/>
</linearGradient>
<linearGradient id="paint4_linear_556_18814" x1="6.73075" y1="9.18164" x2="6.73075" y2="10.1566" gradientUnits="userSpaceOnUse">
<stop stop-color="#2F4C8F"/>
<stop offset="1" stop-color="#2581BF"/>
</linearGradient>
<linearGradient id="paint5_linear_556_18814" x1="6.7367" y1="12.0801" x2="6.7367" y2="13.0532" gradientUnits="userSpaceOnUse">
<stop stop-color="#2F4C8F"/>
<stop offset="1" stop-color="#2581BF"/>
</linearGradient>
<linearGradient id="paint6_linear_556_18814" x1="6.7347" y1="14.9805" x2="6.7347" y2="15.9516" gradientUnits="userSpaceOnUse">
<stop stop-color="#2F4C8F"/>
<stop offset="1" stop-color="#2581BF"/>
</linearGradient>
<linearGradient id="paint7_linear_556_18814" x1="6.73026" y1="17.8828" x2="6.73026" y2="18.8537" gradientUnits="userSpaceOnUse">
<stop stop-color="#2F4C8F"/>
<stop offset="1" stop-color="#2581BF"/>
</linearGradient>
<linearGradient id="paint8_linear_556_18814" x1="6.73469" y1="20.7793" x2="6.73469" y2="21.7525" gradientUnits="userSpaceOnUse">
<stop stop-color="#2F4C8F"/>
<stop offset="1" stop-color="#2581BF"/>
</linearGradient>
<linearGradient id="paint9_linear_556_18814" x1="20.9729" y1="2.41992" x2="20.9729" y2="10.1517" gradientUnits="userSpaceOnUse">
<stop stop-color="#2F4C8F"/>
<stop offset="1" stop-color="#2581BF"/>
</linearGradient>
<clipPath id="clip0_556_18814">
<rect width="27" height="29" fill="white" transform="translate(0.453125)"/>
</clipPath>
</defs>
</svg>
