<svg width="34" height="34" viewBox="0 0 34 34" fill="none" xmlns="http://www.w3.org/2000/svg">
<g clip-path="url(#clip0_556_18810)">
<path d="M24.0809 25.1121C23.039 24.0396 22.0067 22.9794 20.9624 21.9045C18.1412 24.4396 14.8491 25.5833 11.0883 25.0802C7.81283 24.6409 5.1225 23.053 3.0768 20.378C-0.924211 15.1408 -0.279578 7.67769 4.53495 3.21111C9.27575 -1.18675 16.5951 -1.04932 21.1955 3.53015C25.8435 8.15625 26.3074 15.8844 21.6951 21.1437C21.7355 21.1952 21.7735 21.2517 21.8211 21.2983C22.7488 22.253 23.6789 23.2052 24.5995 24.1672C24.7422 24.3145 24.8469 24.3488 25.0443 24.2482C25.9982 23.7672 26.9734 23.9316 27.7299 24.7047C29.4021 26.4128 31.0696 28.1258 32.7299 29.8486C33.6862 30.8401 33.6933 32.3298 32.7728 33.2918C31.8641 34.2391 30.3917 34.2367 29.4283 33.2575C27.7608 31.5592 26.1076 29.8511 24.4544 28.1381C23.648 27.3012 23.5481 26.3514 24.0833 25.1096L24.0809 25.1121ZM1.43786 12.586C1.43786 18.9742 6.48313 24.182 12.6773 24.1869C18.9381 24.1918 23.9762 18.9988 23.9739 12.5369C23.9715 6.12666 18.9191 1.00727 12.5774 0.992544C6.4974 0.977819 1.43786 6.24446 1.43786 12.586ZM26.2479 24.9722C25.4986 25.0016 25.0657 25.2691 24.8231 25.7992C24.5685 26.349 24.6423 26.8963 25.0538 27.3257C26.7451 29.0952 28.4482 30.8499 30.1633 32.5948C30.6961 33.1347 31.5715 33.0979 32.0829 32.5703C32.6039 32.0304 32.6181 31.1714 32.0734 30.6045C30.394 28.8571 28.7075 27.1171 27.002 25.3968C26.7712 25.1636 26.4121 25.063 26.2503 24.9746L26.2479 24.9722Z" fill="url(#paint0_linear_556_18810)"/>
<path d="M4.75671 12.5673C4.75671 11.2421 4.76147 9.91436 4.75195 8.58912C4.75195 8.27498 4.86375 8.08601 5.14206 7.94858C7.51603 6.78285 9.88523 5.60976 12.2521 4.42685C12.5494 4.27715 12.8015 4.26488 13.1036 4.41704C15.4895 5.60976 17.8801 6.79267 20.2707 7.97557C20.5205 8.09828 20.6323 8.28234 20.6323 8.56457C20.6275 11.2175 20.6228 13.868 20.6323 16.521C20.6323 16.8965 20.4896 17.1124 20.1684 17.2695C17.7659 18.4549 15.3706 19.6549 12.9633 20.8329C12.8111 20.9066 12.5661 20.9041 12.4138 20.8305C10.0089 19.65 7.61355 18.445 5.21105 17.2621C4.8804 17.1002 4.75195 16.8793 4.75433 16.5112C4.76623 15.1982 4.75909 13.8827 4.75909 12.5698C4.75909 12.5698 4.75909 12.5698 4.75671 12.5698V12.5673ZM13.1821 19.6059C13.2678 19.5715 13.3106 19.5568 13.351 19.5371C15.3848 18.5285 17.4163 17.5125 19.4525 16.5136C19.6618 16.4105 19.6642 16.2707 19.6618 16.0866C19.6618 13.9269 19.6618 11.7648 19.6618 9.60514C19.6618 9.51434 19.6523 9.42353 19.6475 9.33273C19.6047 9.33273 19.5809 9.32536 19.5619 9.33273C17.49 10.3561 15.4158 11.3795 13.3487 12.4127C13.2702 12.452 13.1893 12.5894 13.1893 12.6802C13.1798 14.9724 13.1821 17.2646 13.1821 19.6059ZM12.1878 19.6132C12.1974 19.5347 12.2045 19.493 12.2045 19.4488C12.2045 17.2032 12.2092 14.9601 12.195 12.7146C12.195 12.5943 12.0618 12.4201 11.9476 12.3612C9.96373 11.3623 7.97274 10.3782 5.98413 9.39163C5.90801 9.35481 5.82714 9.33027 5.72485 9.29101C5.72485 11.6225 5.72247 13.9147 5.73437 16.2068C5.73437 16.3148 5.86757 16.467 5.97462 16.5234C7.95133 17.5198 9.93281 18.5039 11.9119 19.4905C11.9928 19.5298 12.076 19.5641 12.1855 19.6132H12.1878ZM15.2992 6.61597C14.4595 6.20121 13.6983 5.83063 12.9466 5.44288C12.7587 5.34471 12.6136 5.36189 12.4328 5.45515C11.3933 5.98034 10.3491 6.4908 9.3072 7.00618C8.34858 7.47983 7.39233 7.95349 6.379 8.45659C7.24961 8.88607 8.06551 9.30082 8.89331 9.68858C8.99083 9.73521 9.15972 9.65913 9.27866 9.60269C10.0946 9.20756 10.9057 8.80017 11.7192 8.39769C12.8848 7.81851 14.0504 7.23932 15.2992 6.61842V6.61597ZM19.0005 8.45168C18.1941 8.05165 17.4377 7.66144 16.6693 7.30559C16.529 7.23932 16.3054 7.24423 16.1651 7.31295C14.3334 8.20136 12.509 9.1094 10.6845 10.0101C10.5037 10.0984 10.3277 10.1966 10.1136 10.307C10.8962 10.6948 11.6407 11.0506 12.371 11.431C12.5994 11.5488 12.7754 11.5562 13.0133 11.4384C14.8924 10.4911 16.7788 9.56342 18.6627 8.62838C18.7626 8.5793 18.8625 8.52285 19.0005 8.44923V8.45168Z" fill="url(#paint1_linear_556_18810)"/>
<path d="M7.67033 12.2871C7.863 12.3607 7.9748 12.3926 8.07709 12.4417C8.73362 12.7657 9.39252 13.0896 10.0467 13.4185C10.4154 13.6025 10.5367 13.8627 10.3987 14.1474C10.2608 14.437 9.99672 14.4959 9.62564 14.3143C8.93581 13.9756 8.24836 13.6344 7.56091 13.2933C7.30638 13.1657 7.17555 12.9448 7.28498 12.6822C7.35396 12.5153 7.54901 12.4049 7.67033 12.2871Z" fill="url(#paint2_linear_556_18810)"/>
</g>
<defs>
<linearGradient id="paint0_linear_556_18810" x1="16.9542" y1="0.00195312" x2="16.9542" y2="33.9971" gradientUnits="userSpaceOnUse">
<stop stop-color="#2F4C8F"/>
<stop offset="1" stop-color="#2581BF"/>
</linearGradient>
<linearGradient id="paint1_linear_556_18810" x1="12.6921" y1="4.30859" x2="12.6921" y2="20.8869" gradientUnits="userSpaceOnUse">
<stop stop-color="#2F4C8F"/>
<stop offset="1" stop-color="#2581BF"/>
</linearGradient>
<linearGradient id="paint2_linear_556_18810" x1="8.85005" y1="12.2871" x2="8.85005" y2="14.4176" gradientUnits="userSpaceOnUse">
<stop stop-color="#2F4C8F"/>
<stop offset="1" stop-color="#2581BF"/>
</linearGradient>
<clipPath id="clip0_556_18810">
<rect width="33" height="34" fill="white" transform="translate(0.453125)"/>
</clipPath>
</defs>
</svg>
