<svg width="29" height="34" viewBox="0 0 29 34" fill="none" xmlns="http://www.w3.org/2000/svg">
<path d="M8.19252 12.7821C7.57383 9.86858 8.31678 7.45402 10.7924 5.79525C13.0178 4.30454 15.4056 4.29845 17.6379 5.77871C20.1326 7.43399 20.886 9.85552 20.2621 12.783C20.4081 12.8439 20.5741 12.917 20.7418 12.9824C22.2946 13.5884 23.8508 14.1848 25.3967 14.8083C25.6078 14.8936 25.8225 15.0774 25.938 15.2733C26.7349 16.616 27.5065 17.9743 28.285 19.3275C28.5848 19.849 28.4936 20.1068 27.9305 20.3271C27.3561 20.5517 26.7853 20.7859 26.2031 20.9906C25.978 21.0698 25.9181 21.1847 25.9189 21.4129C25.9276 23.6176 25.9241 25.8232 25.9241 28.0279C25.9241 28.5625 25.859 28.6627 25.3715 28.8525C21.7923 30.2483 18.2114 31.6424 14.6331 33.0416C14.3672 33.1461 14.123 33.1583 13.8502 33.0512C10.2623 31.6458 6.67187 30.2474 3.08228 28.8473C2.60262 28.6601 2.53224 28.5625 2.53137 28.0566C2.53137 25.8519 2.52615 23.6463 2.53745 21.4416C2.53919 21.183 2.4688 21.0602 2.22029 20.9732C1.61811 20.7624 1.02723 20.5186 0.433744 20.2835C-0.00767861 20.1085 -0.113689 19.8212 0.122663 19.4084C0.930778 17.997 1.73976 16.5855 2.56699 15.1845C2.66171 15.0242 2.85288 14.8858 3.03014 14.8153C4.68895 14.1544 6.35471 13.51 8.01786 12.8605C8.07695 12.8369 8.13343 12.8073 8.19252 12.7795V12.7821ZM14.76 31.8522C14.8686 31.8165 14.9607 31.7912 15.0493 31.7573C18.2366 30.5165 21.4221 29.2731 24.612 28.0401C24.8397 27.9521 24.8901 27.8302 24.8892 27.6082C24.8814 25.6856 24.8849 23.763 24.884 21.8404C24.884 21.7472 24.8745 21.6541 24.8684 21.5304C24.7015 21.5914 24.5599 21.6401 24.4209 21.6941C21.98 22.6441 19.54 23.595 17.0992 24.5432C16.6577 24.7147 16.4796 24.652 16.2424 24.2428C15.8071 23.4922 15.3761 22.7399 14.9407 21.9884C14.8973 21.9127 14.8408 21.8439 14.76 21.7281V31.8513V31.8522ZM3.57236 21.52C3.57236 21.668 3.57236 21.7751 3.57236 21.8813C3.57236 23.7822 3.57844 25.683 3.56541 27.5847C3.56367 27.8459 3.64361 27.9574 3.88605 28.0514C6.88476 29.2095 9.87827 30.3815 12.8735 31.5483C13.1403 31.6519 13.4088 31.7495 13.679 31.8505V21.7089C13.1889 22.557 12.7388 23.3355 12.2896 24.1148C11.9559 24.6938 11.8403 24.7348 11.2225 24.4936C8.88333 23.581 6.54327 22.6685 4.20408 21.7568C4.00509 21.6793 3.80524 21.6071 3.57323 21.5208L3.57236 21.52ZM14.2412 5.77784C11.3702 5.76652 9.02497 8.10272 9.01714 10.9831C9.00932 13.867 11.3329 16.2233 14.1978 16.2354C17.0705 16.2485 19.4262 13.9149 19.4384 11.0432C19.4514 8.13929 17.1313 5.78916 14.2412 5.77784ZM16.9949 23.4687C20.4029 22.1399 23.7839 20.8216 27.1832 19.4972C26.5063 18.3226 25.8468 17.1793 25.1716 16.0073C21.7741 17.3308 18.393 18.6483 14.9833 19.977C15.655 21.1429 16.3128 22.2854 16.9949 23.4687ZM1.27488 19.4964C4.68287 20.8234 8.06652 22.1417 11.4641 23.4652C12.1401 22.2915 12.7996 21.1464 13.4713 19.9814C13.3306 19.9239 13.2124 19.8734 13.0925 19.8264C11.6813 19.2761 10.2693 18.7258 8.85813 18.1755C7.09331 17.4876 5.33023 16.7979 3.56193 16.1196C3.46114 16.0813 3.25172 16.0926 3.21522 16.1536C2.56265 17.2516 1.93006 18.3609 1.27575 19.4955L1.27488 19.4964ZM19.878 13.7277C19.8172 13.8331 19.7746 13.9062 19.7321 13.9802C18.5677 16.0056 16.8255 17.168 14.4941 17.2533C11.9602 17.3465 10.0355 16.2119 8.75386 14.0151C8.62525 13.7948 8.53314 13.7251 8.28637 13.8348C7.79281 14.0542 7.28274 14.2388 6.78049 14.4391C6.03841 14.7352 5.29721 15.0312 4.50734 15.3473C4.63507 15.403 4.70893 15.4387 4.7854 15.4683C7.85972 16.6656 10.934 17.8655 14.0127 19.0523C14.1543 19.1072 14.3551 19.0941 14.5002 19.0384C16.3388 18.3331 18.1714 17.6147 20.0066 16.8998C21.3057 16.3931 22.6056 15.8871 23.9751 15.3534C22.5709 14.7961 21.2292 14.2632 19.8789 13.7268L19.878 13.7277Z" fill="url(#paint0_linear_556_18797)"/>
<path d="M10.0327 4.67087C9.95722 4.60061 9.77912 4.50413 9.69294 4.34394C9.30308 3.61797 8.93457 2.87701 8.56933 2.13417C8.41832 1.82785 8.50367 1.50093 8.7458 1.34824C8.98053 1.20024 9.25302 1.27518 9.4065 1.56931C9.79882 2.32152 10.187 3.07653 10.5555 3.84372C10.7402 4.22779 10.4965 4.67087 10.0319 4.6718L10.0327 4.67087Z" fill="url(#paint1_linear_556_18797)"/>
<path d="M14.863 1.7119C14.863 2.08323 14.8673 2.45457 14.8616 2.8259C14.8567 3.17254 14.6864 3.39739 14.4399 3.39739C14.1933 3.39739 14.0209 3.17339 14.0188 2.8259C14.0146 2.07301 14.0146 1.31927 14.0188 0.566373C14.0209 0.214626 14.1884 0 14.4406 0C14.6935 0 14.8574 0.214626 14.8623 0.566373C14.8673 0.94793 14.8637 1.33034 14.8637 1.7119H14.863Z" fill="url(#paint2_linear_556_18797)"/>
<path d="M5.10426 5.09764C5.28367 5.18616 5.3918 5.22465 5.48765 5.28816C6.09962 5.69805 6.70994 6.10987 7.31699 6.52747C7.63403 6.74493 7.72414 7.05764 7.5734 7.36458C7.42512 7.66671 7.14413 7.7331 6.82873 7.52142C6.19874 7.10094 5.57285 6.67276 4.94697 6.24554C4.71267 6.08582 4.60453 5.82506 4.71594 5.54603C4.79131 5.3584 4.98055 5.23427 5.10508 5.09668L5.10426 5.09764Z" fill="url(#paint3_linear_556_18797)"/>
<path d="M18.4006 4.67096C17.9546 4.65621 17.718 4.28419 17.8948 3.95806C18.2688 3.2681 18.6674 2.59125 19.0709 1.9185C19.2108 1.68579 19.494 1.6399 19.7166 1.76937C19.9351 1.8972 20.0317 2.16761 19.8983 2.4077C19.5178 3.09438 19.1265 3.77532 18.7182 4.44561C18.6445 4.56689 18.4677 4.62507 18.3998 4.67096H18.4006Z" fill="url(#paint4_linear_556_18797)"/>
<path d="M23.7813 6.10942C23.7263 6.17791 23.6424 6.35529 23.5036 6.44028C22.8759 6.82641 22.235 7.19191 21.5941 7.55494C21.3016 7.72078 21.0165 7.64735 20.876 7.3957C20.7338 7.13911 20.8176 6.87344 21.1175 6.69605C21.7436 6.32642 22.3714 5.96009 23.0049 5.60366C23.3836 5.38997 23.778 5.59871 23.7805 6.1086L23.7813 6.10942Z" fill="url(#paint5_linear_556_18797)"/>
<path d="M23.3422 11.8866C22.9707 11.8866 22.5992 11.895 22.2277 11.8844C21.8715 11.8738 21.6619 11.629 21.6602 11.2495C21.6585 10.8658 21.8664 10.6252 22.2243 10.621C22.9775 10.6146 23.7308 10.6146 24.4849 10.621C24.8377 10.6242 25.0567 10.8732 25.0575 11.2453C25.0575 11.6142 24.8368 11.8738 24.4883 11.8844C24.1066 11.8961 23.724 11.8866 23.3422 11.8866Z" fill="url(#paint6_linear_556_18797)"/>
<path d="M4.66721 11.4631C4.29529 11.4631 3.92421 11.4695 3.55229 11.4617C3.17268 11.4539 2.96198 11.2879 2.97307 11.0238C2.98331 10.7723 3.18804 10.6233 3.55911 10.6204C4.30211 10.6148 5.04596 10.6148 5.78896 10.6204C6.15492 10.6233 6.36306 10.778 6.36989 11.0287C6.37671 11.2908 6.16345 11.4539 5.78214 11.4617C5.41107 11.4688 5.03914 11.4631 4.66721 11.4631Z" fill="url(#paint7_linear_556_18797)"/>
<path d="M12.9671 11.0415C13.9698 10.034 14.9378 9.06573 15.8996 8.09312C16.2945 7.69412 16.7615 7.55006 17.2955 7.70635C18.2661 7.98835 18.58 9.18011 17.8817 9.93969C17.492 10.3631 17.0728 10.7595 16.6667 11.1681C15.7466 12.0918 14.8282 13.0173 13.9055 13.9393C13.1984 14.6456 12.3374 14.6002 11.7173 13.8249C11.1807 13.1544 10.6476 12.4812 10.118 11.8063C9.5979 11.1437 9.66052 10.3107 10.2597 9.82793C10.8789 9.3294 11.6999 9.45076 12.2365 10.1213C12.4731 10.4164 12.707 10.7141 12.9671 11.0424V11.0415ZM11.1207 10.5238C11.0077 10.6076 10.8633 10.6617 10.8555 10.7324C10.8398 10.8669 10.8589 11.0415 10.9372 11.1445C11.4434 11.8116 11.9687 12.4629 12.4879 13.1194C12.7644 13.4696 12.8923 13.4765 13.2132 13.1552C14.4716 11.8928 15.7292 10.6303 16.9867 9.36695C17.0476 9.30583 17.1433 9.24559 17.1546 9.174C17.1737 9.04914 17.1842 8.87016 17.1137 8.79944C17.0424 8.72872 16.8624 8.73484 16.7406 8.75928C16.6589 8.77587 16.5937 8.88064 16.5249 8.95049C15.4892 9.98945 14.4542 11.0302 13.4176 12.0683C13.0245 12.4611 12.7479 12.4428 12.3983 12.0054C12.073 11.5977 11.7539 11.1847 11.4234 10.7805C11.346 10.6862 11.2346 10.6189 11.1216 10.5247L11.1207 10.5238Z" fill="url(#paint8_linear_556_18797)"/>
<defs>
<linearGradient id="paint0_linear_556_18797" x1="14.2266" y1="4.67285" x2="14.2266" y2="33.126" gradientUnits="userSpaceOnUse">
<stop stop-color="#2F4C8F"/>
<stop offset="1" stop-color="#2581BF"/>
</linearGradient>
<linearGradient id="paint1_linear_556_18797" x1="9.55582" y1="1.27441" x2="9.55582" y2="4.6718" gradientUnits="userSpaceOnUse">
<stop stop-color="#2F4C8F"/>
<stop offset="1" stop-color="#2581BF"/>
</linearGradient>
<linearGradient id="paint2_linear_556_18797" x1="14.4403" y1="0" x2="14.4403" y2="3.39739" gradientUnits="userSpaceOnUse">
<stop stop-color="#2F4C8F"/>
<stop offset="1" stop-color="#2581BF"/>
</linearGradient>
<linearGradient id="paint3_linear_556_18797" x1="6.15823" y1="5.09668" x2="6.15823" y2="7.64472" gradientUnits="userSpaceOnUse">
<stop stop-color="#2F4C8F"/>
<stop offset="1" stop-color="#2581BF"/>
</linearGradient>
<linearGradient id="paint4_linear_556_18797" x1="18.8976" y1="1.69824" x2="18.8976" y2="4.67096" gradientUnits="userSpaceOnUse">
<stop stop-color="#2F4C8F"/>
<stop offset="1" stop-color="#2581BF"/>
</linearGradient>
<linearGradient id="paint5_linear_556_18797" x1="22.295" y1="5.52051" x2="22.295" y2="7.64388" gradientUnits="userSpaceOnUse">
<stop stop-color="#2F4C8F"/>
<stop offset="1" stop-color="#2581BF"/>
</linearGradient>
<linearGradient id="paint6_linear_556_18797" x1="23.3589" y1="10.6162" x2="23.3589" y2="11.8902" gradientUnits="userSpaceOnUse">
<stop stop-color="#2F4C8F"/>
<stop offset="1" stop-color="#2581BF"/>
</linearGradient>
<linearGradient id="paint7_linear_556_18797" x1="4.67135" y1="10.6162" x2="4.67135" y2="11.4656" gradientUnits="userSpaceOnUse">
<stop stop-color="#2F4C8F"/>
<stop offset="1" stop-color="#2581BF"/>
</linearGradient>
<linearGradient id="paint8_linear_556_18797" x1="14.0124" y1="7.64453" x2="14.0124" y2="14.4393" gradientUnits="userSpaceOnUse">
<stop stop-color="#2F4C8F"/>
<stop offset="1" stop-color="#2581BF"/>
</linearGradient>
</defs>
</svg>
