<svg width="29" height="30" viewBox="0 0 29 30" fill="none" xmlns="http://www.w3.org/2000/svg">
<path d="M8.19252 8.78208C7.57383 5.86858 8.31678 3.45402 10.7924 1.79525C13.0178 0.304544 15.4056 0.298449 17.6379 1.77871C20.1326 3.43399 20.886 5.85552 20.2621 8.78296C20.4081 8.84391 20.5741 8.91705 20.7418 8.98236C22.2946 9.58839 23.8508 10.1848 25.3967 10.8083C25.6078 10.8936 25.8225 11.0774 25.938 11.2733C26.7349 12.616 27.5065 13.9743 28.285 15.3274C28.5848 15.849 28.4936 16.1068 27.9305 16.3271C27.3561 16.5517 26.7853 16.7859 26.2031 16.9906C25.978 17.0698 25.9181 17.1847 25.9189 17.4129C25.9276 19.6176 25.9241 21.8232 25.9241 24.0279C25.9241 24.5625 25.859 24.6627 25.3715 24.8525C21.7923 26.2483 18.2114 27.6424 14.6331 29.0416C14.3672 29.1461 14.123 29.1583 13.8502 29.0512C10.2623 27.6458 6.67187 26.2474 3.08228 24.8473C2.60262 24.6601 2.53224 24.5625 2.53137 24.0566C2.53137 21.8519 2.52615 19.6463 2.53745 17.4416C2.53919 17.183 2.4688 17.0602 2.22029 16.9732C1.61811 16.7624 1.02723 16.5186 0.433744 16.2835C-0.00767861 16.1085 -0.113689 15.8212 0.122663 15.4084C0.930778 13.997 1.73976 12.5855 2.56699 11.1845C2.66171 11.0242 2.85288 10.8858 3.03014 10.8153C4.68895 10.1544 6.35471 9.51003 8.01786 8.86045C8.07695 8.83694 8.13343 8.80734 8.19252 8.77947V8.78208ZM14.76 27.8522C14.8686 27.8165 14.9607 27.7912 15.0493 27.7573C18.2366 26.5165 21.4221 25.2731 24.612 24.0401C24.8397 23.9521 24.8901 23.8302 24.8892 23.6082C24.8814 21.6856 24.8849 19.763 24.884 17.8404C24.884 17.7472 24.8745 17.6541 24.8684 17.5304C24.7015 17.5914 24.5599 17.6401 24.4209 17.6941C21.98 18.6441 19.54 19.595 17.0992 20.5432C16.6577 20.7147 16.4796 20.652 16.2424 20.2428C15.8071 19.4922 15.3761 18.7399 14.9407 17.9884C14.8973 17.9127 14.8408 17.8439 14.76 17.7281V27.8513V27.8522ZM3.57236 17.52C3.57236 17.668 3.57236 17.7751 3.57236 17.8813C3.57236 19.7822 3.57844 21.683 3.56541 23.5847C3.56367 23.8459 3.64361 23.9574 3.88605 24.0514C6.88476 25.2095 9.87827 26.3815 12.8735 27.5483C13.1403 27.6519 13.4088 27.7495 13.679 27.8505V17.7089C13.1889 18.557 12.7388 19.3355 12.2896 20.1148C11.9559 20.6938 11.8403 20.7348 11.2225 20.4936C8.88333 19.581 6.54327 18.6685 4.20408 17.7568C4.00509 17.6793 3.80524 17.607 3.57323 17.5208L3.57236 17.52ZM14.2412 1.77784C11.3702 1.76652 9.02497 4.10272 9.01715 6.98313C9.00932 9.86703 11.3329 12.2233 14.1978 12.2354C17.0705 12.2485 19.4262 9.91492 19.4384 7.04321C19.4514 4.13929 17.1313 1.78916 14.2412 1.77784ZM16.9949 19.4687C20.4029 18.1399 23.7839 16.8216 27.1832 15.4972C26.5063 14.3226 25.8468 13.1793 25.1716 12.0073C21.7741 13.3308 18.393 14.6483 14.9833 15.977C15.655 17.1429 16.3128 18.2854 16.9949 19.4687ZM1.27488 15.4964C4.68287 16.8234 8.06652 18.1417 11.4641 19.4652C12.1401 18.2915 12.7996 17.1464 13.4713 15.9814C13.3306 15.9239 13.2124 15.8734 13.0925 15.8264C11.6813 15.2761 10.2693 14.7258 8.85813 14.1755C7.09331 13.4876 5.33023 12.7979 3.56193 12.1196C3.46113 12.0813 3.25172 12.0926 3.21522 12.1536C2.56265 13.2516 1.93006 14.3609 1.27575 15.4955L1.27488 15.4964ZM19.878 9.72771C19.8172 9.83307 19.7746 9.90621 19.7321 9.98023C18.5677 12.0056 16.8255 13.168 14.4941 13.2533C11.9602 13.3465 10.0355 12.2119 8.75386 10.0151C8.62525 9.79476 8.53314 9.7251 8.28637 9.83481C7.79281 10.0542 7.28274 10.2388 6.78049 10.4391C6.03841 10.7352 5.29721 11.0312 4.50734 11.3473C4.63507 11.403 4.70893 11.4387 4.7854 11.4683C7.85972 12.6656 10.934 13.8655 14.0127 15.0523C14.1543 15.1072 14.3551 15.0941 14.5002 15.0384C16.3388 14.3331 18.1714 13.6147 20.0066 12.8998C21.3057 12.3931 22.6056 11.8871 23.9751 11.3534C22.5709 10.7961 21.2292 10.2632 19.8789 9.72684L19.878 9.72771Z" fill="white"/>
</svg>
