<svg width="68" height="67" viewBox="0 0 68 67" fill="none" xmlns="http://www.w3.org/2000/svg">
<g filter="url(#filter0_d_364_7367)">
<rect x="10.5" y="7.25391" width="47" height="45" rx="4.5" fill="#FCFCFC" stroke="url(#paint0_linear_364_7367)"/>
<path d="M27.3512 40.9133C27.3227 40.8856 27.2999 40.8536 27.2836 40.8008C27.2683 40.7516 27.2587 40.6849 27.252 40.5878C27.2387 40.3928 27.2361 40.0551 27.2361 39.4436V38.1147V38.0481H27.3027H33.2406C35.4186 38.0481 36.9172 38.044 37.8898 38.0337C38.3761 38.0286 38.7304 38.0219 38.9722 38.0135C39.0931 38.0093 39.1852 38.0046 39.2514 37.9996C39.321 37.9943 39.3539 37.9889 39.3631 37.9859L39.3631 37.9858L39.3647 37.9853C39.4869 37.9481 39.6289 37.8601 39.7597 37.7437C39.8901 37.6276 40.0043 37.4876 40.0736 37.3517L40.0738 37.3513L40.1824 37.1415V33.4116V29.6817L40.0738 29.4719L40.0736 29.4716C40.0043 29.3356 39.8901 29.1957 39.7597 29.0796C39.6289 28.9631 39.4869 28.8751 39.3647 28.8379L39.3647 28.8379L39.3631 28.8374C39.3539 28.8343 39.321 28.8289 39.2514 28.8236C39.1852 28.8186 39.0931 28.8139 38.9722 28.8097C38.7304 28.8013 38.3761 28.7946 37.8898 28.7895C36.9172 28.7793 35.4186 28.7751 33.2406 28.7751H27.3027H27.2361V28.7085V23.71C27.2361 21.4736 27.2387 20.2206 27.2506 19.5171C27.2565 19.1658 27.2648 18.9497 27.2764 18.8162C27.2821 18.7497 27.2889 18.7012 27.2975 18.6656C27.3056 18.6315 27.3173 18.6005 27.3391 18.5778C27.3622 18.5539 27.3953 18.5418 27.4305 18.5335C27.4677 18.5247 27.5193 18.5177 27.5908 18.5117C27.7342 18.4997 27.9685 18.4911 28.3517 18.485C29.119 18.4727 30.4908 18.4699 32.9453 18.4699H38.4244H38.4905L38.4911 18.536L38.5069 20.4063C38.5069 20.4063 38.5069 20.4063 38.5069 20.4064C38.5148 21.3042 38.5201 21.7736 38.5371 22.0496C38.5456 22.1872 38.5568 22.2739 38.572 22.34C38.5869 22.4052 38.6059 22.4525 38.6329 22.5124L38.6329 22.5126C38.7584 22.7935 38.9323 22.9801 39.2269 23.1487C39.2744 23.1746 39.3116 23.1925 39.3673 23.2066C39.4249 23.2213 39.5045 23.2324 39.6363 23.2409C39.9003 23.2578 40.3593 23.2633 41.2411 23.2715L43.0709 23.2879L43.137 23.2885V23.3546V32.0718C43.137 35.9954 43.1343 38.1765 43.1225 39.3862C43.1165 39.9908 43.1083 40.3539 43.0968 40.5709C43.0911 40.6791 43.0845 40.7531 43.0766 40.8032C43.0727 40.8282 43.0681 40.8493 43.0624 40.8666C43.0569 40.8831 43.0487 40.902 43.0339 40.9173C43.0196 40.9321 43.002 40.941 42.9858 40.947C42.9692 40.9532 42.9494 40.9581 42.9264 40.9623C42.8805 40.9707 42.8137 40.9776 42.7171 40.9835C42.5234 40.9954 42.2009 41.004 41.6657 41.0101C40.5947 41.0224 38.6668 41.0252 35.2023 41.0252C31.6535 41.0252 29.7243 41.0238 28.6711 41.0115C28.1449 41.0053 27.8357 40.9964 27.6521 40.9835C27.5606 40.977 27.4976 40.9693 27.4535 40.9598C27.4107 40.9505 27.3761 40.9376 27.3512 40.9133ZM27.3512 40.9133L27.3977 40.8655L27.3511 40.9132C27.3511 40.9133 27.3512 40.9133 27.3512 40.9133ZM29.7846 32.6976C29.7714 33.0737 29.753 33.3119 29.6968 33.4985C29.6392 33.6894 29.5433 33.8226 29.3876 33.9924C29.2309 34.1661 29.0954 34.2774 28.8988 34.3461C28.7063 34.4134 28.4597 34.438 28.0856 34.4517L28.0854 34.4517L27.4749 34.4715V35.1288C27.4749 35.4261 27.471 35.6145 27.4566 35.7406C27.4422 35.8673 27.4163 35.9411 27.3653 36.0018C27.2466 36.1571 27.0859 36.2429 26.9192 36.2515C26.7519 36.2602 26.5853 36.1907 26.457 36.0485L26.4566 36.0481L26.3301 35.9059L26.3132 35.887V35.8616V33.4116C26.3132 32.2258 26.3145 31.61 26.3284 31.2767C26.3354 31.1108 26.3455 31.0099 26.3618 30.9421C26.3793 30.8688 26.4044 30.8327 26.4351 30.7975L26.4354 30.7971C26.4972 30.7272 26.5991 30.6439 26.6679 30.6115C26.6854 30.6032 26.7092 30.5991 26.7286 30.5963C26.751 30.5931 26.7791 30.5903 26.8117 30.5879C26.8769 30.583 26.9633 30.5792 27.0643 30.5764C27.2664 30.5709 27.5296 30.5695 27.8044 30.5723L27.8045 30.5723C28.2824 30.5777 28.5401 30.5818 28.7061 30.6015C28.7905 30.6115 28.8537 30.6257 28.9117 30.6472C28.9693 30.6684 29.0192 30.6958 29.0763 30.7289C29.4158 30.9251 29.6639 31.2867 29.7412 31.6871C29.7796 31.8807 29.8005 32.2858 29.7846 32.6976ZM29.7846 32.6976C29.7846 32.6976 29.7846 32.6976 29.7846 32.6975L29.718 32.6952L29.7846 32.6978C29.7846 32.6977 29.7846 32.6977 29.7846 32.6976ZM33.6336 31.4264L33.6331 31.4252C33.4688 31.0788 33.1404 30.7582 32.8253 30.6472C32.7236 30.6111 32.5445 30.5865 32.338 30.5706C32.1288 30.5545 31.8835 30.547 31.6446 30.5477C31.4057 30.5484 31.1717 30.5573 30.9852 30.5744C30.892 30.583 30.8094 30.5937 30.7435 30.6068C30.7105 30.6134 30.6806 30.6207 30.6551 30.629C30.6306 30.637 30.606 30.6472 30.5864 30.6612L30.5863 30.6612C30.5795 30.6661 30.5727 30.6709 30.5658 30.6757C30.51 30.7148 30.4549 30.7535 30.4143 30.8198C30.369 30.8936 30.3439 30.9958 30.3279 31.1617C30.2983 31.4686 30.2973 32.0318 30.2952 33.1338C30.295 33.2245 30.2949 33.3188 30.2947 33.4169V33.4171V35.8561V35.8815L30.3115 35.9005L30.4381 36.0427L30.4382 36.0428C30.4766 36.0856 30.5269 36.1287 30.5774 36.1633C30.6259 36.1966 30.6809 36.2266 30.7298 36.2379C30.745 36.2422 30.7647 36.2449 30.7848 36.2471C30.8072 36.2494 30.8348 36.2515 30.8666 36.2532C30.9301 36.2567 31.0125 36.2591 31.1079 36.2605L33.6336 31.4264ZM33.6336 31.4264C33.6615 31.4884 33.6849 31.5421 33.7023 31.6145C33.7195 31.6862 33.7303 31.7737 33.737 31.905C33.7503 32.1666 33.7476 32.6149 33.7397 33.4833L33.7239 35.2661L33.7237 35.2863L33.7123 35.3031L33.4961 35.6203L33.4957 35.6209C33.3394 35.8444 33.1897 35.9959 32.9974 36.0956C32.8742 36.1609 32.7874 36.1985 32.6211 36.2203C32.4603 36.2414 32.2226 36.2482 31.7971 36.2564L33.6336 31.4264ZM37.6809 31.4155L37.7418 31.4425C37.711 31.5122 37.6749 31.5738 37.6179 31.6235C37.5607 31.6733 37.488 31.7064 37.3917 31.7292C37.2032 31.7738 36.903 31.783 36.3994 31.783H35.5432V32.2905V32.7981H36.0092C36.2828 32.7981 36.4656 32.8087 36.6003 32.8471C36.7411 32.8873 36.8274 32.9571 36.9105 33.064C37.0211 33.2014 37.0428 33.3841 36.9999 33.5494C36.9568 33.715 36.8471 33.871 36.6837 33.9573L36.6832 33.9575C36.6573 33.971 36.6179 33.9801 36.5777 33.9872C36.5347 33.9948 36.4815 34.0015 36.4221 34.0071C36.3032 34.0182 36.1561 34.0252 36.0092 34.0252H35.5523L35.5327 34.9112C35.5327 34.9112 35.5327 34.9113 35.5327 34.9113C35.5248 35.3684 35.5196 35.6126 35.5005 35.7588C35.4908 35.8332 35.477 35.8872 35.455 35.9332C35.4329 35.9794 35.4044 36.0132 35.3735 36.048L35.3735 36.0481L35.3724 36.0493C35.1976 36.2366 34.9417 36.3072 34.7069 36.2073L34.7062 36.207L34.7046 36.2063C34.6292 36.1732 34.5544 36.1403 34.499 36.063C34.4447 35.9873 34.4142 35.8772 34.3945 35.7037C34.3552 35.3568 34.3552 34.7063 34.3552 33.4293V33.4171C34.3552 32.6349 34.3605 32.0354 34.3704 31.6204C34.3753 31.4129 34.3815 31.251 34.3887 31.135C34.3923 31.0771 34.3963 31.0299 34.4006 30.994C34.4045 30.9612 34.4096 30.9293 34.4185 30.9083L34.4188 30.9076C34.4512 30.8333 34.4864 30.7663 34.5471 30.7137C34.6084 30.6606 34.6887 30.628 34.8008 30.6063C35.0208 30.5638 35.3954 30.5586 36.0722 30.5559H36.0725C36.4842 30.5559 36.8096 30.5613 37.0418 30.5717C37.1577 30.5768 37.2513 30.5832 37.3211 30.5909C37.356 30.5947 37.3858 30.5989 37.4101 30.6037C37.4325 30.6081 37.456 30.6141 37.4742 30.6235L37.4742 30.6235L37.4752 30.624C37.6259 30.7052 37.7306 30.8275 37.7779 30.9731C37.8251 31.1186 37.8135 31.282 37.7417 31.4427L37.6809 31.4155ZM37.6809 31.4155C37.5648 31.678 37.4119 31.7163 36.3994 31.7163H35.5432L37.6809 31.4155ZM27.1203 17.5983L27.1201 17.5984C27.005 17.6407 26.8675 17.7341 26.7393 17.8545C26.6115 17.9744 26.4981 18.1162 26.4285 18.2501L26.4283 18.2506C26.4115 18.2822 26.3957 18.3242 26.3828 18.4495C26.3697 18.5758 26.3602 18.7803 26.3529 19.1334C26.3384 19.8388 26.3332 21.1287 26.3253 23.5517L26.3147 28.7086L26.3146 28.7751H26.248L25.5734 28.7751C25.5734 28.7751 25.5733 28.7751 25.5733 28.7751C25.0978 28.7779 24.7792 28.8218 24.5504 28.9282C24.3263 29.0324 24.1818 29.1998 24.0625 29.4684L24.0623 29.4688L23.9417 29.7346V33.4116V37.0886L24.0623 37.3544L24.0625 37.3549C24.1818 37.6234 24.3263 37.7908 24.5504 37.895C24.7792 38.0014 25.0977 38.0453 25.5732 38.0481H26.2428H26.3087L26.3094 38.114L26.3253 39.607L26.3253 39.607L26.3409 41.0773L26.4748 41.3139L26.4749 41.314C26.6309 41.5906 26.8769 41.8036 27.1719 41.9073L27.1719 41.9073L27.1729 41.9077C27.1727 41.9076 27.1726 41.9076 27.1726 41.9076C27.1726 41.9075 27.1764 41.9086 27.1866 41.9101C27.1973 41.9117 27.212 41.9135 27.2309 41.9152C27.2686 41.9188 27.3204 41.9223 27.3857 41.9257C27.5162 41.9325 27.6984 41.9388 27.9252 41.9446C28.3788 41.9562 29.0089 41.9659 29.757 41.9735C31.2532 41.9888 33.2203 41.9962 35.1878 41.9958C37.1553 41.9955 39.1231 41.9874 40.6206 41.972C41.3694 41.9643 42.0004 41.9547 42.4549 41.9433C42.6823 41.9376 42.865 41.9314 42.9962 41.9248C43.0618 41.9215 43.1139 41.9182 43.152 41.9147C43.1711 41.913 43.186 41.9114 43.1971 41.9098C43.2061 41.9085 43.2105 41.9075 43.2118 41.9072C43.212 41.9072 43.2121 41.9071 43.2122 41.9071C43.5276 41.7925 43.8029 41.5427 43.9374 41.2378L43.9377 41.2372L44.0583 40.9714V31.9077C44.0583 27.4121 44.057 25.1432 44.0425 23.9672C44.0279 22.7846 43.9992 22.7176 43.953 22.6097L43.9529 22.6096C43.9373 22.5729 43.8921 22.5051 43.7996 22.3913C43.7088 22.2796 43.5768 22.1287 43.3935 21.9277C43.027 21.5258 42.458 20.9262 41.609 20.043C40.5988 18.9954 40.029 18.4099 39.6807 18.0739C39.331 17.7366 39.2115 17.658 39.1012 17.6142L39.1007 17.614C38.9796 17.5648 38.8882 17.5369 38.1128 17.5239C37.3404 17.5109 35.8989 17.5123 33.0878 17.515H33.0877C30.5615 17.515 29.1159 17.5177 28.276 17.53C27.8559 17.5362 27.5886 17.5447 27.4139 17.5564C27.2374 17.5682 27.1617 17.5829 27.1203 17.5983ZM27.1498 41.9702C27.4873 42.096 42.8857 42.0905 43.2338 41.9702H27.1498ZM35.4766 31.783V32.2905V32.7981V31.783ZM36.8582 33.1054C37.048 33.3405 36.9426 33.7452 36.6525 33.8983C36.5893 33.9311 36.2992 33.9585 36.0092 33.9585H35.4871L36.8582 33.1054Z" fill="url(#paint1_linear_364_7367)" stroke="url(#paint2_linear_364_7367)" stroke-width="0.133333"/>
<path d="M27.4848 32.4924L27.4848 32.4924L27.4994 33.2112L27.9476 33.2255C27.9476 33.2255 27.9476 33.2255 27.9476 33.2255C28.1256 33.231 28.2542 33.2335 28.3498 33.2226C28.4448 33.2118 28.4942 33.189 28.525 33.1551C28.5572 33.1195 28.58 33.0598 28.5927 32.9486C28.6052 32.8383 28.6066 32.6903 28.6066 32.4883L28.6066 32.4749C28.6066 32.2861 28.6066 32.1489 28.5964 32.0467C28.586 31.9412 28.5656 31.888 28.5367 31.8569C28.5088 31.8269 28.4617 31.8058 28.3653 31.7947C28.2709 31.7838 28.1438 31.7838 27.967 31.7838L27.9561 31.7838H27.4704L27.4848 32.4924Z" fill="url(#paint3_linear_364_7367)" stroke="url(#paint4_linear_364_7367)" stroke-width="0.133333"/>
<path d="M31.9045 31.7815H31.4807V33.4102V35.0388H31.9309C32.1508 35.0388 32.2797 35.0345 32.3618 35.0212C32.4393 35.0086 32.465 34.9896 32.4862 34.9643L32.4861 34.9642L32.4879 34.9623C32.5092 34.9387 32.5325 34.8923 32.5452 34.6622C32.5576 34.4382 32.5603 34.0589 32.5603 33.3938C32.5603 33.278 32.5605 33.1704 32.5607 33.0703C32.5613 32.7802 32.5617 32.5531 32.5564 32.3744C32.5492 32.1312 32.5313 31.99 32.4952 31.9059C32.4781 31.8663 32.4582 31.8423 32.4353 31.8261C32.4116 31.8094 32.3799 31.7974 32.3338 31.79C32.262 31.7784 32.1712 31.7793 32.0476 31.7806C32.0042 31.781 31.9567 31.7815 31.9045 31.7815Z" fill="url(#paint5_linear_364_7367)" stroke="url(#paint6_linear_364_7367)" stroke-width="0.133333"/>
</g>
<defs>
<filter id="filter0_d_364_7367" x="0" y="0.753906" width="68" height="66" filterUnits="userSpaceOnUse" color-interpolation-filters="sRGB">
<feFlood flood-opacity="0" result="BackgroundImageFix"/>
<feColorMatrix in="SourceAlpha" type="matrix" values="0 0 0 0 0 0 0 0 0 0 0 0 0 0 0 0 0 0 127 0" result="hardAlpha"/>
<feOffset dy="4"/>
<feGaussianBlur stdDeviation="5"/>
<feComposite in2="hardAlpha" operator="out"/>
<feColorMatrix type="matrix" values="0 0 0 0 0 0 0 0 0 0.507 0 0 0 0 0.975 0 0 0 0.15 0"/>
<feBlend mode="normal" in2="BackgroundImageFix" result="effect1_dropShadow_364_7367"/>
<feBlend mode="normal" in="SourceGraphic" in2="effect1_dropShadow_364_7367" result="shape"/>
</filter>
<linearGradient id="paint0_linear_364_7367" x1="10.9826" y1="29.754" x2="58.0183" y2="29.8107" gradientUnits="userSpaceOnUse">
<stop stop-color="#0172F7"/>
<stop offset="1" stop-color="#00CEFB"/>
</linearGradient>
<linearGradient id="paint1_linear_364_7367" x1="34" y1="42.0625" x2="34" y2="17.4465" gradientUnits="userSpaceOnUse">
<stop stop-color="#2F4C8F"/>
<stop offset="1" stop-color="#2581BF"/>
</linearGradient>
<linearGradient id="paint2_linear_364_7367" x1="24.2895" y1="29.7545" x2="44.1328" y2="29.7356" gradientUnits="userSpaceOnUse">
<stop stop-color="#0172F7"/>
<stop offset="1" stop-color="#00CEFB"/>
</linearGradient>
<linearGradient id="paint3_linear_364_7367" x1="28.0378" y1="33.2969" x2="28.0378" y2="31.7172" gradientUnits="userSpaceOnUse">
<stop stop-color="#2F4C8F"/>
<stop offset="1" stop-color="#2581BF"/>
</linearGradient>
<linearGradient id="paint4_linear_364_7367" x1="27.4284" y1="32.507" x2="28.6737" y2="32.5059" gradientUnits="userSpaceOnUse">
<stop stop-color="#0172F7"/>
<stop offset="1" stop-color="#00CEFB"/>
</linearGradient>
<linearGradient id="paint5_linear_364_7367" x1="32.0209" y1="35.1055" x2="32.0209" y2="31.7132" gradientUnits="userSpaceOnUse">
<stop stop-color="#2F4C8F"/>
<stop offset="1" stop-color="#2581BF"/>
</linearGradient>
<linearGradient id="paint6_linear_364_7367" x1="31.4389" y1="33.4093" x2="32.6282" y2="33.4088" gradientUnits="userSpaceOnUse">
<stop stop-color="#0172F7"/>
<stop offset="1" stop-color="#00CEFB"/>
</linearGradient>
</defs>
</svg>
