<svg width="28" height="32" viewBox="0 0 28 32" fill="none" xmlns="http://www.w3.org/2000/svg">
<g clip-path="url(#clip0_556_18807)">
<path d="M14.7395 0C15.1103 0.0812417 15.49 0.13848 15.8519 0.249264C18.9383 1.19093 20.8119 3.30506 21.3798 6.55658C21.7273 8.5433 21.2848 10.4174 20.1814 12.105C19.9665 12.4337 19.7211 12.5168 19.4756 12.3506C19.2231 12.1789 19.2034 11.8982 19.4183 11.5585C21.944 7.57764 20.0309 2.38186 15.5886 1.16323C11.9057 0.151405 8.1028 2.68467 7.45794 6.58058C6.8292 10.3712 9.31908 13.9348 12.9984 14.4832C14.7162 14.7398 16.2997 14.3336 17.7345 13.3236C18.1376 13.0411 18.3919 13.0264 18.5782 13.2886C18.777 13.5674 18.6821 13.8148 18.2594 14.1176C17.1183 14.9374 15.8483 15.3861 14.4457 15.5005V17.1217H14.8076C17.5249 17.1217 20.2423 17.1217 22.9597 17.1217C24.1473 17.1217 24.7832 17.7827 24.785 19.0161C24.785 19.5349 24.785 20.0538 24.785 20.5634C26.7859 21.0859 27.4791 23.5435 25.8777 25.0631C26.4849 25.4564 26.9757 25.9697 27.205 26.6676C27.3483 27.1015 27.4164 27.576 27.4379 28.0376C27.4737 28.8279 27.4379 29.62 27.4504 30.4103C27.4701 31.4775 26.6927 32.0314 25.901 31.9963C24.8011 31.9465 23.6995 31.9852 22.5979 31.9834C21.7918 31.9834 21.1971 31.3999 21.1756 30.5672C21.1612 29.9837 21.1684 29.4003 21.1756 28.8187C21.1792 28.4918 21.369 28.2703 21.6324 28.261C21.9046 28.25 22.1124 28.4771 22.1196 28.8205C22.1285 29.3726 22.1196 29.9246 22.1232 30.4767C22.1267 30.8774 22.2862 31.0454 22.6749 31.0473C23.7658 31.051 24.8567 31.051 25.9476 31.0473C26.3381 31.0473 26.5028 30.8755 26.5028 30.4804C26.5046 29.6052 26.5064 28.7319 26.5028 27.8567C26.4975 26.8448 25.8562 25.966 24.9337 25.6908C24.013 25.4157 23.0385 25.785 22.494 26.6177C22.4653 26.6602 22.442 26.7064 22.4134 26.7488C22.2306 27.0295 21.9834 27.1015 21.7434 26.9464C21.507 26.7931 21.4335 26.5088 21.6359 26.2429C21.9602 25.8146 22.3292 25.4213 22.7 24.9892C22.0282 24.3485 21.6879 23.4973 21.9315 22.4763C22.1751 21.4552 22.8451 20.8496 23.8338 20.5745C23.8338 19.9375 23.8446 19.3041 23.8285 18.6708C23.8213 18.3791 23.5902 18.1538 23.3054 18.1114C23.1961 18.0947 23.0833 18.0929 22.9722 18.0929C20.2352 18.0929 17.4981 18.0929 14.7592 18.0929H14.4439V20.5726C16.3946 21.073 17.138 23.5176 15.5187 25.0594C15.6566 25.1646 15.7964 25.2606 15.9271 25.3733C16.7045 26.0417 17.0753 26.9095 17.0861 27.9435C17.0968 28.7873 17.0932 29.6311 17.0861 30.473C17.0789 31.4055 16.5039 31.9871 15.6047 31.9871C14.4941 31.9871 13.3817 31.9871 12.2711 31.9871C11.4543 31.9871 10.8542 31.4719 10.8255 30.6374C10.7897 29.62 10.7969 28.5971 10.8542 27.5797C10.9133 26.5383 11.4382 25.7444 12.2711 25.1609C12.3105 25.1332 12.3481 25.1018 12.3875 25.0686C10.7055 23.4549 11.5851 21.0213 13.4731 20.5745C13.4731 20.1701 13.4731 19.7547 13.4731 19.3411C13.4731 18.9275 13.4731 18.5342 13.4731 18.1132C13.3566 18.104 13.2689 18.0929 13.1811 18.0929C10.4243 18.0929 7.66572 18.0874 4.90894 18.1003C4.6922 18.1003 4.45575 18.1815 4.26587 18.2923C4.16018 18.3532 4.07958 18.5527 4.07599 18.6911C4.05629 19.3134 4.06704 19.9375 4.06704 20.5726C5.04687 20.844 5.72039 21.4441 5.96759 22.4652C6.21479 23.4899 5.87623 24.3411 5.12748 25.0594C5.68457 25.425 6.13239 25.8718 6.38854 26.4774C6.5193 26.7876 6.61424 27.1218 6.66977 27.4542C6.72172 27.7607 6.55155 27.9601 6.29718 27.9896C6.01774 28.0229 5.82608 27.877 5.76876 27.5631C5.63799 26.8504 5.29228 26.2872 4.68324 25.9143C3.24663 25.0335 1.41594 26.1007 1.39982 27.8271C1.39265 28.7116 1.39624 29.5978 1.39982 30.4823C1.39982 30.8645 1.56103 31.0436 1.92825 31.0454C3.03884 31.051 4.15123 31.051 5.26182 31.0454C5.61291 31.0436 5.77234 30.8663 5.7795 30.5044C5.78309 30.2958 5.77234 30.0871 5.78309 29.8803C5.80279 29.5498 5.99267 29.3523 6.27032 29.3615C6.53363 29.3707 6.71993 29.5664 6.72351 29.8822C6.72709 30.2035 6.73426 30.5303 6.67873 30.8442C6.55692 31.5458 6.01954 31.9834 5.33168 31.9834C4.19959 31.9834 3.06929 31.9834 1.9372 31.9834C1.06843 31.9834 0.48089 31.4516 0.462977 30.5653C0.441482 29.5147 0.430734 28.4604 0.50776 27.4135C0.579411 26.4497 1.10605 25.713 1.8763 25.1646C1.92466 25.1314 1.97124 25.0963 2.0411 25.0464C1.28876 24.3282 0.973493 23.4715 1.2189 22.4504C1.46251 21.4386 2.13066 20.8477 3.11587 20.5689C3.11587 20.0113 3.11587 19.4519 3.11587 18.8905C3.11587 18.3569 3.27171 17.8898 3.67296 17.5297C4.00972 17.2288 4.40559 17.1162 4.84625 17.1162C7.59407 17.118 10.3419 17.1162 13.0897 17.1162C13.208 17.1162 13.3262 17.1162 13.4587 17.1162V15.567C12.7798 15.3953 12.0866 15.2901 11.4453 15.0445C8.77095 14.016 7.10326 12.0459 6.5605 9.15262C5.77592 4.96313 8.44672 1.0266 12.4305 0.144019C12.6741 0.0904737 12.9196 0.0480065 13.165 0C13.6898 0 14.2147 0 14.7413 0H14.7395ZM13.9209 31.0491C14.4762 31.0491 15.0297 31.0528 15.585 31.0491C15.9773 31.0454 16.1403 30.8792 16.1403 30.4841C16.1421 29.5997 16.1474 28.7171 16.1385 27.8327C16.1242 26.5808 15.1658 25.6114 13.9585 25.6096C12.7655 25.6096 11.7839 26.5974 11.766 27.8308C11.7534 28.7042 11.7606 29.5775 11.7624 30.4509C11.7624 30.8885 11.9182 31.0454 12.3481 31.0473C12.873 31.051 13.3978 31.0473 13.9209 31.0473V31.0491ZM13.9603 24.631C14.8111 24.6273 15.4703 23.9441 15.4703 23.0671C15.4703 22.2011 14.7932 21.4958 13.9585 21.4921C13.113 21.4884 12.4305 22.2011 12.4341 23.0856C12.4377 23.9552 13.1094 24.6365 13.9621 24.631H13.9603ZM5.10956 23.0634C5.10956 22.1938 4.43246 21.494 3.59593 21.4921C2.75224 21.4921 2.06618 22.2085 2.07155 23.0893C2.07692 23.9534 2.75761 24.6384 3.60489 24.6329C4.45754 24.6273 5.11136 23.946 5.10956 23.0653V23.0634ZM24.3121 24.631C25.1594 24.631 25.8329 23.9423 25.8329 23.0745C25.8329 22.2104 25.1576 21.4995 24.3247 21.4903C23.4774 21.481 22.7931 22.1901 22.7949 23.0745C22.7949 23.9515 23.4577 24.6292 24.3121 24.6292V24.631Z" fill="url(#paint0_linear_556_18807)"/>
<path d="M18.3743 7.80945C18.3743 8.48524 18.3725 9.16287 18.3743 9.83865C18.3761 10.3224 18.1737 10.6806 17.7581 10.9003C16.6583 11.4819 15.5531 12.058 14.4496 12.6359C14.1111 12.8132 13.7761 12.8077 13.4376 12.6286C12.3538 12.058 11.2665 11.4893 10.181 10.9225C9.74394 10.6935 9.52361 10.3353 9.5254 9.82388C9.53078 8.48154 9.52898 7.13921 9.5254 5.79687C9.5254 5.29281 9.72782 4.92353 10.1631 4.68349C11.2379 4.09264 12.3126 3.49995 13.382 2.89987C13.76 2.68753 14.129 2.68384 14.5052 2.89248C15.5871 3.49256 16.669 4.0908 17.7492 4.69273C18.1683 4.92537 18.3761 5.28911 18.3725 5.78395C18.369 6.45973 18.3725 7.13736 18.3725 7.81315L18.3743 7.80945ZM10.4551 6.09968C10.4551 7.37924 10.4515 8.59602 10.464 9.81095C10.464 9.90512 10.5679 10.0325 10.6557 10.0842C11.0784 10.3243 11.5119 10.544 11.9436 10.7711C12.4416 11.0333 12.9414 11.2918 13.477 11.5724C13.477 10.2892 13.4788 9.05393 13.4716 7.81868C13.4716 7.75406 13.4125 7.65989 13.3552 7.62851C12.4094 7.12444 11.46 6.62776 10.4551 6.10153V6.09968ZM17.4482 6.10338C16.4398 6.63145 15.4814 7.12813 14.5302 7.64143C14.464 7.67651 14.4317 7.83346 14.4299 7.93501C14.4228 9.0687 14.4246 10.2024 14.4264 11.3361C14.4264 11.4026 14.4335 11.469 14.4407 11.5687C15.4187 11.0554 16.3591 10.5643 17.2942 10.0584C17.3712 10.0178 17.4411 9.87927 17.4411 9.78695C17.45 8.58125 17.4482 7.37555 17.4482 6.10153V6.10338ZM10.9978 5.30758C11.9884 5.82826 12.9163 6.32125 13.8513 6.79762C13.9266 6.8364 14.0627 6.79578 14.1523 6.74962C14.7291 6.45604 15.3023 6.15323 15.8755 5.85227C16.2015 5.68055 16.5275 5.50514 16.9037 5.30573C15.9149 4.7592 14.9781 4.24036 14.0376 3.72706C13.9893 3.70121 13.8997 3.70859 13.8478 3.73629C12.9163 4.2459 11.9866 4.7592 10.9978 5.30573V5.30758Z" fill="url(#paint1_linear_556_18807)"/>
</g>
<defs>
<linearGradient id="paint0_linear_556_18807" x1="13.9508" y1="0" x2="13.9508" y2="31.9979" gradientUnits="userSpaceOnUse">
<stop stop-color="#2F4C8F"/>
<stop offset="1" stop-color="#2581BF"/>
</linearGradient>
<linearGradient id="paint1_linear_556_18807" x1="13.9499" y1="2.73828" x2="13.9499" y2="12.7659" gradientUnits="userSpaceOnUse">
<stop stop-color="#2F4C8F"/>
<stop offset="1" stop-color="#2581BF"/>
</linearGradient>
<clipPath id="clip0_556_18807">
<rect width="27" height="32" fill="white" transform="translate(0.453125)"/>
</clipPath>
</defs>
</svg>
