<svg width="74" height="73" viewBox="0 0 74 73" fill="none" xmlns="http://www.w3.org/2000/svg">
<g filter="url(#filter0_dd_364_7373)">
<rect x="13" y="4.75391" width="48" height="46" rx="5" fill="url(#paint0_linear_364_7373)"/>
<g clip-path="url(#clip0_364_7373)">
<path d="M28.9613 15.7894C28.941 15.8045 28.9258 17.2264 28.9258 18.9407V22.0566H29.6062C30.1801 22.0566 30.2918 22.0466 30.3172 21.976C30.3324 21.9306 30.3477 20.8314 30.3477 19.5306V17.1659H35.1973H40.0469V18.8298V20.4936H41.6719H43.2918L43.307 21.26L43.3223 22.0314L43.9773 22.0466C44.4699 22.0566 44.6426 22.0415 44.6781 21.9961C44.6984 21.9608 44.7187 21.2499 44.7187 20.418V18.9054L43.2359 17.4331C42.0477 16.2583 41.6973 15.9407 41.5043 15.855C41.2605 15.7541 41.1895 15.7541 35.1262 15.7541C31.7543 15.7541 28.9766 15.7692 28.9613 15.7894ZM42.2051 18.376L42.916 19.0819H42.1898H41.4688V18.376C41.4688 17.9877 41.4738 17.6701 41.484 17.6701C41.4891 17.6701 41.8141 17.9877 42.2051 18.376Z" fill="white"/>
<path d="M25.6654 22.6562C24.8885 22.9033 24.2893 23.5487 24.076 24.3604C23.9643 24.789 23.9643 32.4831 24.076 32.9117C24.2893 33.7336 24.8631 34.3436 25.6604 34.6058C25.9549 34.7067 26.092 34.7117 27.5748 34.7117H29.1744L29.1896 36.7386C29.2049 38.7151 29.21 38.7756 29.3166 38.9773C29.4486 39.2193 29.7787 39.5319 30.0377 39.6428C30.2053 39.7235 30.8045 39.7285 36.9998 39.7285C43.1951 39.7285 43.7943 39.7235 43.9619 39.6428C44.2209 39.5319 44.551 39.2193 44.683 38.9773C44.7896 38.7756 44.7947 38.7151 44.81 36.7386L44.8252 34.7117H46.4248C47.9076 34.7117 48.0447 34.7067 48.3393 34.6058C49.1365 34.3436 49.7103 33.7336 49.9236 32.9117C50.0353 32.4831 50.0353 24.789 49.9236 24.3604C49.7103 23.5386 49.1061 22.8983 48.3189 22.6562C48.0193 22.5655 47.6689 22.5604 36.9846 22.5655C26.4322 22.5655 25.9447 22.5705 25.6654 22.6562ZM48.0549 24.063C48.1768 24.1235 48.3342 24.2697 48.4103 24.3857L48.5525 24.5974V28.6361V32.6747L48.4103 32.8865C48.2682 33.1033 47.9889 33.2798 47.7654 33.2999C47.6943 33.305 47.0037 33.31 46.2318 33.305L44.8252 33.2999L44.81 32.1504L44.7947 31.0058L44.6373 30.7285C44.4697 30.426 44.1346 30.1638 43.8146 30.0731C43.5557 30.0025 30.4439 30.0025 30.185 30.0731C29.865 30.1638 29.5299 30.426 29.3623 30.7285L29.2049 31.0058L29.1896 32.1504L29.1744 33.2999H27.651C25.9193 33.2999 25.8533 33.2848 25.5893 32.8865L25.4471 32.6747L25.4318 28.6865L25.4217 24.6983L25.5385 24.4764C25.5994 24.3554 25.7111 24.2142 25.7822 24.1638C26.1174 23.9117 25.5588 23.9268 37.076 23.9369L47.8416 23.947L48.0549 24.063ZM43.3982 34.8882V38.342H36.9998H30.6014V34.8882V31.4344H36.9998H43.3982V34.8882Z" fill="white"/>
</g>
</g>
<defs>
<filter id="filter0_dd_364_7373" x="0" y="0.753906" width="74" height="72" filterUnits="userSpaceOnUse" color-interpolation-filters="sRGB">
<feFlood flood-opacity="0" result="BackgroundImageFix"/>
<feColorMatrix in="SourceAlpha" type="matrix" values="0 0 0 0 0 0 0 0 0 0 0 0 0 0 0 0 0 0 127 0" result="hardAlpha"/>
<feOffset dy="9"/>
<feGaussianBlur stdDeviation="6.5"/>
<feColorMatrix type="matrix" values="0 0 0 0 0.409687 0 0 0 0 0.530813 0 0 0 0 0.7125 0 0 0 0.33 0"/>
<feBlend mode="normal" in2="BackgroundImageFix" result="effect1_dropShadow_364_7373"/>
<feColorMatrix in="SourceAlpha" type="matrix" values="0 0 0 0 0 0 0 0 0 0 0 0 0 0 0 0 0 0 127 0" result="hardAlpha"/>
<feOffset dy="4"/>
<feGaussianBlur stdDeviation="3.5"/>
<feComposite in2="hardAlpha" operator="out"/>
<feColorMatrix type="matrix" values="0 0 0 0 0.429167 0 0 0 0 0.96575 0 0 0 0 1 0 0 0 0.25 0"/>
<feBlend mode="normal" in2="effect1_dropShadow_364_7373" result="effect2_dropShadow_364_7373"/>
<feBlend mode="normal" in="SourceGraphic" in2="effect2_dropShadow_364_7373" result="shape"/>
</filter>
<linearGradient id="paint0_linear_364_7373" x1="37" y1="4.75391" x2="37" y2="50.7539" gradientUnits="userSpaceOnUse">
<stop stop-color="#2F4C8F"/>
<stop offset="1" stop-color="#2581BF"/>
</linearGradient>
<clipPath id="clip0_364_7373">
<rect width="26" height="24" fill="white" transform="translate(24 15.7539)"/>
</clipPath>
</defs>
</svg>
