<svg width="15" height="14" viewBox="0 0 15 14" fill="none" xmlns="http://www.w3.org/2000/svg">
<path d="M6.81353 0.776026C6.96321 0.315371 7.61491 0.31537 7.76459 0.776025L9.02905 4.66762C9.09598 4.87363 9.28796 5.01311 9.50457 5.01311H13.5964C14.0808 5.01311 14.2822 5.63292 13.8903 5.91762L10.5799 8.32275C10.4047 8.45008 10.3314 8.67576 10.3983 8.88177L11.6628 12.7734C11.8124 13.234 11.2852 13.6171 10.8933 13.3324L7.58296 10.9272C7.40771 10.7999 7.17041 10.7999 6.99517 10.9272L3.68478 13.3324C3.29293 13.6171 2.76569 13.234 2.91536 12.7734L4.17982 8.88177C4.24675 8.67576 4.17343 8.45008 3.99818 8.32275L0.687796 5.91762C0.295939 5.63292 0.497326 5.01311 0.981688 5.01311H5.07355C5.29016 5.01311 5.48214 4.87363 5.54908 4.66762L6.81353 0.776026Z" fill="#979797"/>
</svg>
