<svg width="23" height="22" viewBox="0 0 23 22" fill="none" xmlns="http://www.w3.org/2000/svg">
<g id="Group">
<path id="Vector" d="M5.58206 2.06246C2.53621 3.20248 0.0429688 4.1467 0.0429688 4.15975C0.0429688 4.1728 2.54057 5.11702 5.59077 6.25703L11.1386 8.33691L13.2141 7.55805L15.294 6.77918L15.0547 6.6704C14.9241 6.61383 13.9886 6.22658 12.9748 5.80886C11.243 5.09961 11.1386 5.0474 11.256 4.99953C11.3213 4.97343 11.9522 4.708 12.6528 4.40777L13.9277 3.86387L16.0076 4.79503L18.0918 5.73054L20.163 4.95602C21.303 4.5296 22.2342 4.1728 22.2342 4.15975C22.2342 4.14234 11.3431 0.0522041 11.1603 -1.04904e-05C11.1386 -0.00871277 8.62356 0.922447 5.58206 2.06246Z" fill="url(#paint0_linear_371_16127)"/>
<path id="Vector_2" d="M0.00870243 11.8214L0.0217561 18.0915L5.22146 20.0409L10.4212 21.9902L10.4342 15.7419C10.4386 12.3044 10.4299 9.4805 10.4125 9.46744C10.3907 9.45004 8.16723 8.61025 5.46077 7.59642C2.75867 6.58259 0.422068 5.70799 0.269775 5.65578L0 5.55135L0.00870243 11.8214ZM4.17716 16.1204L5.5478 16.6339L5.56085 17.3779C5.5652 17.7913 5.5652 18.1264 5.56085 18.1264C5.55215 18.1264 4.92992 17.8957 4.17716 17.6086L2.80653 17.0951L2.79348 16.3511C2.78913 15.9377 2.78913 15.6027 2.79348 15.6027C2.80218 15.6027 3.4244 15.8333 4.17716 16.1204Z" fill="url(#paint1_linear_371_16127)"/>
<path id="Vector_3" d="M20.1903 6.33466L18.1234 7.10917L18.1017 8.86271L18.0799 10.6119L16.7093 11.1253C15.9565 11.4125 15.3343 11.6431 15.33 11.6431C15.3213 11.6431 15.3126 10.8599 15.3082 9.907L15.2952 8.17087L13.5764 8.81485L11.8577 9.45883L11.8446 15.7289L11.8359 21.999L12.1057 21.8946C12.258 21.8424 14.5946 20.9678 17.2967 19.954C20.0032 18.9401 22.2266 18.1003 22.2484 18.0829C22.2658 18.0699 22.2745 15.2459 22.2701 11.8085L22.2571 5.56014L20.1903 6.33466Z" fill="url(#paint2_linear_371_16127)"/>
</g>
<defs>
<linearGradient id="paint0_linear_371_16127" x1="11.1386" y1="8.33691" x2="11.1386" y2="-7.05719e-05" gradientUnits="userSpaceOnUse">
<stop stop-color="#0A3E89"/>
<stop offset="1" stop-color="#1D73AC"/>
</linearGradient>
<linearGradient id="paint1_linear_371_16127" x1="5.21766" y1="21.9902" x2="5.21766" y2="5.55135" gradientUnits="userSpaceOnUse">
<stop stop-color="#0A3E89"/>
<stop offset="1" stop-color="#1D73AC"/>
</linearGradient>
<linearGradient id="paint2_linear_371_16127" x1="17.0536" y1="21.999" x2="17.0536" y2="5.56014" gradientUnits="userSpaceOnUse">
<stop stop-color="#0A3E89"/>
<stop offset="1" stop-color="#1D73AC"/>
</linearGradient>
</defs>
</svg>
