<svg width="27" height="25" viewBox="0 0 27 25" fill="none" xmlns="http://www.w3.org/2000/svg">
<g id="Group">
<path id="Vector" d="M10.0334 0.759899C9.44328 1.18067 8.70436 1.69894 8.39648 1.91446L7.83203 2.30957H9.72037H11.6036L12.9993 1.22685C13.769 0.631615 14.431 0.108216 14.472 0.0722961C14.5336 0.0107198 14.2924 0.000457048 12.83 0.000457048H11.111L10.0334 0.759899Z" fill="url(#paint0_linear_371_16144)"/>
<path id="Vector_2" d="M14.6028 1.15574L13.125 2.31029H14.7568C16.2551 2.31543 16.5528 2.33082 16.9325 2.43345C17.0505 2.46423 17.2147 2.34108 18.3949 1.30968C19.1287 0.668258 19.765 0.114071 19.806 0.0730197C19.8676 0.0114434 19.6059 0.00118065 17.9844 0.00118065H16.0858L14.6028 1.15574Z" fill="url(#paint1_linear_371_16144)"/>
<path id="Vector_3" d="M19.1658 1.87922C18.1293 2.78747 17.7341 3.16206 17.7547 3.22363C17.7649 3.26981 17.7803 5.33775 17.7906 7.81107C17.8008 10.2895 17.8265 12.3164 17.847 12.3164C17.8676 12.3164 18.5038 11.6955 19.2582 10.9412L20.6282 9.566V5.09145C20.6282 2.62839 20.6231 0.616899 20.618 0.616899C20.6077 0.616899 19.956 1.18648 19.1658 1.87922Z" fill="url(#paint2_linear_371_16144)"/>
<path id="Vector_4" d="M6.30559 3.35157C6.10547 3.50551 6.10547 3.49011 6.10547 8.4624V13.2859L6.22862 13.4296L6.35177 13.5732H11.4934H16.635L16.7582 13.4296L16.8813 13.2859V8.4624C16.8813 3.49011 16.8813 3.50551 16.6812 3.35157C16.5632 3.2592 6.42361 3.2592 6.30559 3.35157ZM10.1952 9.90945C10.3902 9.98129 10.6211 10.2019 10.7032 10.4021C10.7545 10.5149 10.775 10.7869 10.775 11.2693C10.775 11.9004 10.7647 11.9877 10.6621 12.1724C10.5903 12.2955 10.4517 12.4341 10.3132 12.511L10.0823 12.6496H8.95338C8.33248 12.6496 7.7629 12.6342 7.68593 12.6137C7.48067 12.5521 7.22924 12.3212 7.12661 12.0851C7.04964 11.9209 7.02911 11.7516 7.02911 11.2385C7.02911 10.3969 7.12661 10.1711 7.56791 9.94024C7.69619 9.87353 7.9271 9.85813 8.88667 9.853C9.58966 9.853 10.1079 9.87353 10.1952 9.90945ZM15.814 10.0069C15.9474 10.1455 15.9679 10.1917 15.9423 10.3559C15.9218 10.4688 15.8551 10.5919 15.7781 10.6586C15.6498 10.7715 15.6036 10.7766 14.7775 10.7766C13.9513 10.7766 13.9051 10.7715 13.7769 10.6586C13.6999 10.5919 13.6332 10.4688 13.6127 10.3559C13.587 10.1917 13.6075 10.1455 13.7409 10.0069L13.8949 9.853H14.7775H15.6601L15.814 10.0069ZM15.6755 11.7619C15.8243 11.8286 15.9577 12.0441 15.9577 12.2083C15.9577 12.2699 15.891 12.3879 15.8089 12.4803L15.6601 12.6496L14.9827 12.6701C14.1822 12.6906 13.9051 12.6547 13.7615 12.5162C13.5306 12.3058 13.5767 11.9261 13.8487 11.7773C14.0232 11.6849 15.4753 11.6695 15.6755 11.7619Z" fill="url(#paint3_linear_371_16144)"/>
<path id="Vector_5" d="M7.95312 11.2393V11.7012H8.90243H9.85173V11.2393V10.7775H8.90243H7.95312V11.2393Z" fill="url(#paint4_linear_371_16144)"/>
<path id="Vector_6" d="M3.39303 12.4036L1.73047 13.5735L3.46487 13.5889C4.4193 13.5941 5.19927 13.5941 5.2044 13.5889C5.20953 13.5787 5.19927 13.0553 5.18388 12.4241C5.16848 11.716 5.13769 11.2644 5.10691 11.2542C5.07612 11.2439 4.30641 11.7622 3.39303 12.4036Z" fill="url(#paint5_linear_371_16144)"/>
<path id="Vector_7" d="M19.1158 12.4193L17.9355 13.5995H20.1164C21.8097 13.6046 22.3383 13.62 22.4922 13.6713L22.6821 13.7432L23.9803 12.6143C24.6884 11.9934 25.3298 11.4289 25.4017 11.3622L25.53 11.2391H22.913H20.296L19.1158 12.4193Z" fill="url(#paint6_linear_371_16144)"/>
<path id="Vector_8" d="M24.8094 13.1221C23.66 14.133 23.3778 14.4101 23.3932 14.4922C23.4034 14.5537 23.4291 16.6268 23.4445 19.1053L23.4753 23.6055L24.8761 22.2046L26.2719 20.8037V16.3292C26.2719 13.8661 26.2667 11.8546 26.2616 11.8598C26.2513 11.8598 25.5997 12.4294 24.8094 13.1221Z" fill="url(#paint7_linear_371_16144)"/>
<path id="Vector_9" d="M0.277233 14.5742C-0.0152545 14.6922 0.000139629 14.4305 0.000139629 19.6953V24.5393L0.148949 24.6881L0.297759 24.8369H5.41373H10.5246L10.6477 24.7086L10.776 24.5855V19.7056V14.8205L10.6272 14.6717L10.4784 14.5229L5.42912 14.528C2.65305 14.528 0.333678 14.5485 0.277233 14.5742ZM4.13602 21.1885C4.25404 21.2398 4.41311 21.3732 4.49521 21.481C4.63889 21.6657 4.64402 21.6914 4.65942 22.3636C4.67994 23.1897 4.65942 23.3437 4.47982 23.5592C4.20786 23.8773 4.05392 23.9133 2.807 23.9133C1.56007 23.9133 1.46258 23.8927 1.19575 23.59C0.98023 23.3437 0.923785 23.1179 0.923785 22.5021C0.923785 21.9018 0.98023 21.6709 1.16496 21.4451C1.43692 21.1269 1.59086 21.091 2.82239 21.091C3.79222 21.091 3.95129 21.1064 4.13602 21.1885ZM9.7292 21.2604C9.86262 21.4194 9.88828 21.599 9.79078 21.7735C9.67276 21.9993 9.61118 22.0095 8.66701 22.0147C7.79981 22.0147 7.76389 22.0095 7.66126 21.8966C7.51245 21.7376 7.4714 21.5682 7.54324 21.3938C7.66126 21.1218 7.78442 21.091 8.73885 21.1064L9.60605 21.1167L9.7292 21.2604ZM9.71894 23.1487C9.89854 23.3591 9.89341 23.5746 9.70355 23.7645L9.55474 23.9133H8.72859C8.27703 23.9133 7.85112 23.8927 7.77929 23.862C7.48167 23.7491 7.42522 23.2975 7.68179 23.0923C7.80494 22.9999 7.88704 22.9896 8.6978 22.9896H9.58553L9.71894 23.1487Z" fill="url(#paint8_linear_371_16144)"/>
<path id="Vector_10" d="M1.90039 22.5018V22.9893H2.82404H3.74768V22.5018V22.0143H2.82404H1.90039V22.5018Z" fill="url(#paint9_linear_371_16144)"/>
<path id="Vector_11" d="M11.9091 14.6563L11.75 14.7897V19.685V24.5855L11.8783 24.7086L12.0014 24.8369H17.1071H22.2128L22.3565 24.7138L22.5002 24.5906L22.5156 19.7723C22.5259 16.2162 22.5105 14.9231 22.4694 14.8154C22.3411 14.5075 22.5823 14.5229 17.0917 14.5229H12.0681L11.9091 14.6563ZM15.9936 21.2552C16.1219 21.3373 16.2451 21.481 16.3169 21.6247C16.4195 21.8351 16.4247 21.9223 16.4093 22.5689C16.3939 23.2411 16.3888 23.2924 16.2553 23.4874C16.1732 23.6105 16.0296 23.7388 15.8961 23.8055C15.6858 23.903 15.5831 23.9133 14.5569 23.9133C13.1714 23.9133 12.9918 23.8568 12.7711 23.3745C12.6326 23.0769 12.6326 21.9274 12.7711 21.6247C12.8686 21.404 13.0893 21.2142 13.3305 21.1423C13.4074 21.1167 13.9924 21.1013 14.6287 21.1064L15.7884 21.1167L15.9936 21.2552ZM21.3097 21.1475C21.5868 21.2757 21.6484 21.6657 21.4226 21.8864C21.2995 22.0147 21.2841 22.0147 20.3963 22.0147H19.4932L19.3701 21.8812C19.1546 21.6503 19.2367 21.2552 19.5189 21.1423C19.6831 21.0756 21.1661 21.0808 21.3097 21.1475ZM21.3559 23.0461C21.515 23.1333 21.6125 23.4104 21.5458 23.6003C21.4483 23.8722 21.2995 23.9133 20.3707 23.9133H19.5394L19.3906 23.7645C19.1802 23.5541 19.2007 23.2411 19.4419 23.0563C19.5497 22.9742 21.202 22.964 21.3559 23.0461Z" fill="url(#paint10_linear_371_16144)"/>
<path id="Vector_12" d="M13.6336 22.0451C13.6131 22.0656 13.5977 22.2863 13.5977 22.5377V22.9893H14.547H15.5014L15.486 22.512L15.4706 22.04L14.5675 22.0246C14.0749 22.0194 13.6541 22.0297 13.6336 22.0451Z" fill="url(#paint11_linear_371_16144)"/>
</g>
<defs>
<linearGradient id="paint0_linear_371_16144" x1="11.1563" y1="2.30957" x2="11.1563" y2="0.000457048" gradientUnits="userSpaceOnUse">
<stop stop-color="#0A3E89"/>
<stop offset="1" stop-color="#1D73AC"/>
</linearGradient>
<linearGradient id="paint1_linear_371_16144" x1="16.4695" y1="2.4375" x2="16.4695" y2="0.00118065" gradientUnits="userSpaceOnUse">
<stop stop-color="#0A3E89"/>
<stop offset="1" stop-color="#1D73AC"/>
</linearGradient>
<linearGradient id="paint2_linear_371_16144" x1="19.1911" y1="12.3164" x2="19.1911" y2="0.616899" gradientUnits="userSpaceOnUse">
<stop stop-color="#0A3E89"/>
<stop offset="1" stop-color="#1D73AC"/>
</linearGradient>
<linearGradient id="paint3_linear_371_16144" x1="11.4934" y1="13.5732" x2="11.4934" y2="3.28229" gradientUnits="userSpaceOnUse">
<stop stop-color="#0A3E89"/>
<stop offset="1" stop-color="#1D73AC"/>
</linearGradient>
<linearGradient id="paint4_linear_371_16144" x1="8.90243" y1="11.7012" x2="8.90243" y2="10.7775" gradientUnits="userSpaceOnUse">
<stop stop-color="#0A3E89"/>
<stop offset="1" stop-color="#1D73AC"/>
</linearGradient>
<linearGradient id="paint5_linear_371_16144" x1="3.4681" y1="13.5928" x2="3.4681" y2="11.254" gradientUnits="userSpaceOnUse">
<stop stop-color="#0A3E89"/>
<stop offset="1" stop-color="#1D73AC"/>
</linearGradient>
<linearGradient id="paint6_linear_371_16144" x1="21.7328" y1="13.7432" x2="21.7328" y2="11.2391" gradientUnits="userSpaceOnUse">
<stop stop-color="#0A3E89"/>
<stop offset="1" stop-color="#1D73AC"/>
</linearGradient>
<linearGradient id="paint7_linear_371_16144" x1="24.8322" y1="23.6055" x2="24.8322" y2="11.8598" gradientUnits="userSpaceOnUse">
<stop stop-color="#0A3E89"/>
<stop offset="1" stop-color="#1D73AC"/>
</linearGradient>
<linearGradient id="paint8_linear_371_16144" x1="5.388" y1="24.8369" x2="5.388" y2="14.5229" gradientUnits="userSpaceOnUse">
<stop stop-color="#0A3E89"/>
<stop offset="1" stop-color="#1D73AC"/>
</linearGradient>
<linearGradient id="paint9_linear_371_16144" x1="2.82404" y1="22.9893" x2="2.82404" y2="22.0143" gradientUnits="userSpaceOnUse">
<stop stop-color="#0A3E89"/>
<stop offset="1" stop-color="#1D73AC"/>
</linearGradient>
<linearGradient id="paint10_linear_371_16144" x1="17.1343" y1="24.8369" x2="17.1343" y2="14.5227" gradientUnits="userSpaceOnUse">
<stop stop-color="#0A3E89"/>
<stop offset="1" stop-color="#1D73AC"/>
</linearGradient>
<linearGradient id="paint11_linear_371_16144" x1="14.5495" y1="22.9893" x2="14.5495" y2="22.0232" gradientUnits="userSpaceOnUse">
<stop stop-color="#0A3E89"/>
<stop offset="1" stop-color="#1D73AC"/>
</linearGradient>
</defs>
</svg>
