<svg width="30" height="29" viewBox="0 0 30 29" fill="none" xmlns="http://www.w3.org/2000/svg">
<path d="M14.6418 0.0784148C13.8771 0.423923 2.54899 6.38251 2.45837 6.48447C2.38474 6.56376 2.32243 6.72802 2.30544 6.89228C2.28278 7.03955 2.28845 10.5456 2.3111 14.6804L2.35075 22.2022L2.49235 22.3382C2.62263 22.4685 13.3843 28.1438 14.6588 28.7556C15.0383 28.9368 15.2308 29.0048 15.3384 28.9821C15.5537 28.9368 27.3009 22.5591 27.4709 22.3948L27.6125 22.2589V14.2442V6.22959L27.4709 6.09365C27.3123 5.94072 15.2252 0.0727508 14.9759 0.0274383C14.8853 0.0104461 14.7381 0.0331023 14.6418 0.0784148ZM20.3625 3.78271C23.3248 5.23838 25.7603 6.45048 25.7716 6.48447C25.8 6.54677 15.3724 12.4034 15.2365 12.3977C15.1912 12.3977 12.6424 11.1403 9.57809 9.60537L4.00466 6.81298L8.02048 4.71728C10.2295 3.56181 12.6763 2.28174 13.4523 1.87392C14.234 1.46611 14.8966 1.13193 14.925 1.13193C14.959 1.13193 17.4058 2.32705 20.3625 3.78271ZM26.5533 14.5614L26.5363 21.7604L21.6086 24.4339C18.9011 25.9009 16.4826 27.2149 16.2447 27.3452L15.8029 27.5888V20.4577V13.3323L21.1441 10.3474C24.0781 8.71044 26.4966 7.3624 26.525 7.3624C26.5476 7.3624 26.559 10.6022 26.5533 14.5614Z" fill="url(#paint0_linear_556_18825)"/>
<defs>
<linearGradient id="paint0_linear_556_18825" x1="14.9517" y1="28.9863" x2="14.9517" y2="0.0217953" gradientUnits="userSpaceOnUse">
<stop stop-color="#2F4C8F"/>
<stop offset="1" stop-color="#2581BF"/>
</linearGradient>
</defs>
</svg>
