<svg width="20" height="15" viewBox="0 0 20 15" fill="none" xmlns="http://www.w3.org/2000/svg">
<g id="Menu">
<g id="US">
<rect id="Mask" x="0.900024" y="0.868515" width="19" height="14" rx="1.38182" fill="white"/>
<mask id="mask0_69_375" style="mask-type:luminance" maskUnits="userSpaceOnUse" x="0" y="0" width="20" height="15">
<rect id="Mask_2" x="0.900024" y="0.868515" width="19" height="14" rx="1.38182" fill="white"/>
</mask>
<g mask="url(#mask0_69_375)">
<path id="Rectangle 511" fill-rule="evenodd" clip-rule="evenodd" d="M19.9 0.868515H0.900024V1.80185H19.9V0.868515ZM19.9 2.73518H0.900024V3.66851H19.9V2.73518ZM0.900024 4.60185H19.9V5.53518H0.900024V4.60185ZM19.9 6.46851H0.900024V7.40185H19.9V6.46851ZM0.900024 8.33518H19.9V9.26851H0.900024V8.33518ZM19.9 10.2018H0.900024V11.1352H19.9V10.2018ZM0.900024 12.0685H19.9V13.0018H0.900024V12.0685ZM19.9 13.9352H0.900024V14.8685H19.9V13.9352Z" fill="#D02F44"/>
<rect id="Rectangle 511_2" x="0.900024" y="0.868515" width="8.14286" height="6.53333" fill="#46467F"/>
<g id="Oval 43" filter="url(#filter0_d_69_375)">
<path fill-rule="evenodd" clip-rule="evenodd" d="M2.25719 2.73518C2.50703 2.73518 2.70957 2.52625 2.70957 2.26852C2.70957 2.01078 2.50703 1.80185 2.25719 1.80185C2.00735 1.80185 1.80481 2.01078 1.80481 2.26852C1.80481 2.52625 2.00735 2.73518 2.25719 2.73518ZM4.06671 2.73518C4.31656 2.73518 4.5191 2.52625 4.5191 2.26852C4.5191 2.01078 4.31656 1.80185 4.06671 1.80185C3.81687 1.80185 3.61433 2.01078 3.61433 2.26852C3.61433 2.52625 3.81687 2.73518 4.06671 2.73518ZM6.32862 2.26852C6.32862 2.52625 6.12608 2.73518 5.87624 2.73518C5.62639 2.73518 5.42386 2.52625 5.42386 2.26852C5.42386 2.01078 5.62639 1.80185 5.87624 1.80185C6.12608 1.80185 6.32862 2.01078 6.32862 2.26852ZM7.68576 2.73518C7.93561 2.73518 8.13814 2.52625 8.13814 2.26852C8.13814 2.01078 7.93561 1.80185 7.68576 1.80185C7.43592 1.80185 7.23338 2.01078 7.23338 2.26852C7.23338 2.52625 7.43592 2.73518 7.68576 2.73518ZM3.61433 3.20185C3.61433 3.45958 3.4118 3.66852 3.16195 3.66852C2.91211 3.66852 2.70957 3.45958 2.70957 3.20185C2.70957 2.94412 2.91211 2.73518 3.16195 2.73518C3.4118 2.73518 3.61433 2.94412 3.61433 3.20185ZM4.97148 3.66852C5.22132 3.66852 5.42386 3.45958 5.42386 3.20185C5.42386 2.94412 5.22132 2.73518 4.97148 2.73518C4.72163 2.73518 4.5191 2.94412 4.5191 3.20185C4.5191 3.45958 4.72163 3.66852 4.97148 3.66852ZM7.23338 3.20185C7.23338 3.45958 7.03084 3.66852 6.781 3.66852C6.53116 3.66852 6.32862 3.45958 6.32862 3.20185C6.32862 2.94412 6.53116 2.73518 6.781 2.73518C7.03084 2.73518 7.23338 2.94412 7.23338 3.20185ZM7.68576 4.60185C7.93561 4.60185 8.13814 4.39292 8.13814 4.13518C8.13814 3.87745 7.93561 3.66852 7.68576 3.66852C7.43592 3.66852 7.23338 3.87745 7.23338 4.13518C7.23338 4.39292 7.43592 4.60185 7.68576 4.60185ZM6.32862 4.13518C6.32862 4.39292 6.12608 4.60185 5.87624 4.60185C5.62639 4.60185 5.42386 4.39292 5.42386 4.13518C5.42386 3.87745 5.62639 3.66852 5.87624 3.66852C6.12608 3.66852 6.32862 3.87745 6.32862 4.13518ZM4.06671 4.60185C4.31656 4.60185 4.5191 4.39292 4.5191 4.13518C4.5191 3.87745 4.31656 3.66852 4.06671 3.66852C3.81687 3.66852 3.61433 3.87745 3.61433 4.13518C3.61433 4.39292 3.81687 4.60185 4.06671 4.60185ZM2.70957 4.13518C2.70957 4.39292 2.50703 4.60185 2.25719 4.60185C2.00735 4.60185 1.80481 4.39292 1.80481 4.13518C1.80481 3.87745 2.00735 3.66852 2.25719 3.66852C2.50703 3.66852 2.70957 3.87745 2.70957 4.13518ZM3.16195 5.53518C3.4118 5.53518 3.61433 5.32625 3.61433 5.06852C3.61433 4.81078 3.4118 4.60185 3.16195 4.60185C2.91211 4.60185 2.70957 4.81078 2.70957 5.06852C2.70957 5.32625 2.91211 5.53518 3.16195 5.53518ZM5.42386 5.06852C5.42386 5.32625 5.22132 5.53518 4.97148 5.53518C4.72163 5.53518 4.5191 5.32625 4.5191 5.06852C4.5191 4.81078 4.72163 4.60185 4.97148 4.60185C5.22132 4.60185 5.42386 4.81078 5.42386 5.06852ZM6.781 5.53518C7.03084 5.53518 7.23338 5.32625 7.23338 5.06852C7.23338 4.81078 7.03084 4.60185 6.781 4.60185C6.53116 4.60185 6.32862 4.81078 6.32862 5.06852C6.32862 5.32625 6.53116 5.53518 6.781 5.53518ZM8.13814 6.00185C8.13814 6.25958 7.93561 6.46852 7.68576 6.46852C7.43592 6.46852 7.23338 6.25958 7.23338 6.00185C7.23338 5.74412 7.43592 5.53518 7.68576 5.53518C7.93561 5.53518 8.13814 5.74412 8.13814 6.00185ZM5.87624 6.46852C6.12608 6.46852 6.32862 6.25958 6.32862 6.00185C6.32862 5.74412 6.12608 5.53518 5.87624 5.53518C5.62639 5.53518 5.42386 5.74412 5.42386 6.00185C5.42386 6.25958 5.62639 6.46852 5.87624 6.46852ZM4.5191 6.00185C4.5191 6.25958 4.31656 6.46852 4.06671 6.46852C3.81687 6.46852 3.61433 6.25958 3.61433 6.00185C3.61433 5.74412 3.81687 5.53518 4.06671 5.53518C4.31656 5.53518 4.5191 5.74412 4.5191 6.00185ZM2.25719 6.46852C2.50703 6.46852 2.70957 6.25958 2.70957 6.00185C2.70957 5.74412 2.50703 5.53518 2.25719 5.53518C2.00735 5.53518 1.80481 5.74412 1.80481 6.00185C1.80481 6.25958 2.00735 6.46852 2.25719 6.46852Z" fill="url(#paint0_linear_69_375)"/>
</g>
</g>
</g>
</g>
<defs>
<filter id="filter0_d_69_375" x="1.80481" y="1.80185" width="6.33331" height="5.66667" filterUnits="userSpaceOnUse" color-interpolation-filters="sRGB">
<feFlood flood-opacity="0" result="BackgroundImageFix"/>
<feColorMatrix in="SourceAlpha" type="matrix" values="0 0 0 0 0 0 0 0 0 0 0 0 0 0 0 0 0 0 127 0" result="hardAlpha"/>
<feOffset dy="1"/>
<feColorMatrix type="matrix" values="0 0 0 0 0 0 0 0 0 0 0 0 0 0 0 0 0 0 0.06 0"/>
<feBlend mode="normal" in2="BackgroundImageFix" result="effect1_dropShadow_69_375"/>
<feBlend mode="normal" in="SourceGraphic" in2="effect1_dropShadow_69_375" result="shape"/>
</filter>
<linearGradient id="paint0_linear_69_375" x1="1.80481" y1="1.80185" x2="1.80481" y2="6.46852" gradientUnits="userSpaceOnUse">
<stop stop-color="white"/>
<stop offset="1" stop-color="#F0F0F0"/>
</linearGradient>
</defs>
</svg>
